<svg width="2606" height="2606" viewBox="0 0 2606 2606" fill="none" xmlns="http://www.w3.org/2000/svg">
<path d="M1949 1257.88C1927.46 1240.52 1914.95 1209.52 1915.56 1175.31C1916.78 1111.32 1911.22 1050.54 1862.83 1039C1852.65 1035.95 1841.87 1035.45 1831.45 1037.54C1821.03 1039.63 1811.28 1044.24 1803.07 1050.98C1785.69 1008.95 1767.36 966.149 1746.86 923.084C1752.28 919.582 1756.73 914.776 1759.81 909.105C1763.3 902.273 1764.86 894.615 1764.3 886.962C1763.75 879.31 1761.12 871.954 1756.68 865.692C1751.9 858.399 1720.8 815.594 1695.87 787.115C1688.23 778.432 1680.76 769.749 1672.94 760.112L1720.02 745.612C1744.17 738.232 1759.2 721.648 1760.33 701.157C1761.54 679.103 1746.6 658.179 1722.28 647.76L1684.58 631.263L1673.81 626.487L1645.75 614.158C1628.38 606.343 1611 598.616 1593.63 591.149C1569.83 580.991 1545.42 571.006 1521.88 561.281C1481.23 544.697 1439.27 527.506 1398.96 509.186C1368.7 493.798 1333.6 490.928 1301.24 501.198L1298.63 502.066C1255.2 517 1209.68 532.368 1165.46 548.431C1099.36 572.569 955.769 627.182 927.19 638.122C916.859 641.593 907.751 647.969 900.956 656.486C894.161 665.002 889.968 675.298 888.882 686.137C888.447 695.861 890.966 720.172 924.15 736.148C925.713 736.93 932.836 739.882 963.413 753.513C934.106 785.041 909.369 820.522 889.924 858.92C855.872 925.168 826.772 987.596 801.407 1048.63C793.388 1043.25 784.287 1039.68 774.744 1038.18C765.201 1036.68 755.445 1037.29 746.16 1039.95C697.949 1051.5 692.389 1112.28 693.519 1176.27C694.214 1210.48 681.618 1241.39 660.162 1258.84C624.372 1287.49 585.282 1347.84 624.286 1396.54C633.378 1408.04 645.874 1416.37 659.988 1420.34C642.614 1482.76 625.241 1577.23 650.606 1651.47C653.994 1661.45 664.418 1691.84 689.783 1695.49C693.095 1695.97 696.46 1695.97 699.773 1695.49C700.294 1697.57 700.728 1699.65 701.162 1701.74C712.889 1779.88 739.123 1887.89 798.019 1959.7C819.736 1985.74 839.802 1997.64 858.826 1994.95C865.427 1994.03 871.68 1991.43 876.981 1987.39C977.138 2064.84 1113.17 2106.43 1281.35 2110.86C1283 2110.86 1290.03 2110.86 1301.06 2110.86C1365.26 2110.86 1570.35 2101.05 1727.58 1983.75C1733.2 1989.29 1740.39 1992.98 1748.17 1994.34C1768.06 1997.9 1788.56 1986.44 1810.71 1959.61C1871 1886.16 1897.58 1773.89 1908.61 1695.31C1911.86 1695.84 1915.17 1695.84 1918.43 1695.31C1944.49 1692.19 1954.82 1661.36 1958.21 1651.29C1984.27 1576.97 1966.38 1482.5 1948.92 1420.07C1963.01 1416.07 1975.47 1407.71 1984.53 1396.2C2023.79 1346.88 1984.88 1286.62 1949 1257.88Z" fill="white"/>
<path d="M1935.45 1274.82C1909.39 1253.63 1893.06 1217.08 1893.84 1174.88C1894.97 1113.58 1889.07 1067.56 1857.88 1060.18C1839.73 1055.84 1811.41 1056.01 1798.64 1099.34C1771.45 1027.45 1742.09 962.243 1715.42 907.803H1722.8C1740.18 907.803 1748.86 892.348 1738.53 877.067C1734.53 870.989 1703.78 829.052 1679.63 800.92C1665.3 784.597 1651.66 767.666 1635.5 748.825C1653.92 743.094 1688.66 732.241 1713.68 724.601C1750.86 713.313 1742.96 679.972 1713.68 667.382L1665.12 646.197C1638.37 634.389 1611.79 622.407 1584.95 610.946C1519.97 583.161 1453.78 557.982 1389.67 528.201C1343.11 506.581 1313.23 519.518 1308.01 521.081C1262.84 536.449 1217.59 551.817 1172.68 568.141C1102.14 594.188 943.695 654.272 934.574 657.745C910.339 666.427 895.745 697.772 933.358 715.918C935.443 716.96 959.418 727.206 993.644 741.966C1081.38 779.301 1235.31 844.594 1250.59 850.932C1270.66 858.541 1292.89 858.074 1312.62 849.63C1360.13 832.96 1408.17 817.938 1457.86 801.615C1459.08 802.918 1467.41 813.424 1479.32 828.445C1432.13 841.127 1385.72 856.55 1340.33 874.635C1321.15 882.994 1300.32 886.855 1279.42 885.922C1258.52 884.989 1238.11 879.286 1219.76 869.252L1016.58 783.903L981.048 765.148C952.164 795.734 927.851 830.33 908.862 867.863C878.545 926.905 841.366 1003.83 807.054 1090.66C793.242 1055.93 767.703 1055.93 750.851 1060.36C719.753 1067.74 713.759 1113.75 714.888 1175.05C715.67 1217.25 699.6 1253.8 673.366 1274.99C652.258 1292.35 609.085 1342.45 640.878 1382.13C646.475 1389.01 653.769 1394.31 662.041 1397.51C670.313 1400.7 679.277 1401.69 688.047 1400.37C672.932 1447.43 642.355 1561.25 670.673 1643.48C684.051 1682.46 699.861 1678.21 714.107 1657.46C714.065 1658.24 714.065 1659.02 714.107 1659.8C715.931 1670.91 718.276 1683.24 721.316 1696.62C732.609 1772.67 757.8 1876.78 813.656 1944.76C843.625 1981.32 862.822 1978.19 872.725 1955.62C956.812 2027.25 1085.03 2082.82 1281.52 2088.03C1281.52 2088.03 1550.81 2101.14 1732.18 1951.1C1741.57 1977.67 1761.2 1983.66 1792.99 1944.76C1860.14 1862.89 1882.98 1728.57 1890.63 1654.16C1905.83 1677.77 1922.6 1684.46 1936.75 1643.48C1965.07 1560.99 1934.58 1447.16 1919.38 1400.37C1928.15 1401.69 1937.12 1400.7 1945.39 1397.51C1953.66 1394.31 1960.95 1389.01 1966.55 1382.13C1999.65 1342.28 1956.47 1291.75 1935.45 1274.82ZM779.43 1257.45C776.379 1267.48 771.424 1276.82 764.837 1284.97C758.381 1293.07 750.303 1299.72 741.122 1304.51C739.368 1305.44 737.319 1305.64 735.417 1305.07C733.516 1304.5 731.914 1303.21 730.959 1301.47C730.274 1300.2 729.974 1298.76 730.098 1297.33C730.221 1295.89 730.762 1294.53 731.654 1293.4L732.175 1292.61C737.607 1286.3 742.489 1279.53 746.768 1272.38C750.908 1265.43 754.176 1257.99 756.498 1250.24C758.905 1242.35 760.677 1234.28 761.797 1226.11C762.839 1217.42 763.447 1208.74 763.881 1200.67V1199.71C763.937 1198.74 764.183 1197.79 764.606 1196.92C765.029 1196.04 765.621 1195.26 766.348 1194.62C767.074 1193.97 767.92 1193.47 768.839 1193.16C769.757 1192.84 770.729 1192.71 771.699 1192.77C773.094 1192.85 774.436 1193.33 775.573 1194.15C776.709 1194.96 777.594 1196.08 778.128 1197.37C781.772 1206.88 783.684 1216.96 783.774 1227.15C783.937 1237.33 782.471 1247.47 779.43 1257.19V1257.45ZM1298.63 1946.85H1296.03C866.558 1938.16 892.878 1573.5 892.878 1573.5C895.658 1392.46 1035.08 1294.35 1175.11 1245.73L1183.79 1242.69C1217.24 1230.71 1211.42 1211.61 1185.53 1209.18L1165.64 1207.18C1157.57 1206.9 1149.83 1203.9 1143.67 1198.67C1137.52 1193.43 1133.33 1186.27 1131.76 1178.35C1128.56 1167.59 1128.24 1156.18 1130.83 1145.25C1133.42 1134.33 1138.83 1124.28 1146.53 1116.1C1177.54 1082.67 1224.71 1080.85 1264.67 1111.32C1269.62 1115.06 1274.74 1118.7 1279.87 1122.26C1285.31 1125.96 1291.75 1127.94 1298.33 1127.94C1304.91 1127.94 1311.34 1125.96 1316.79 1122.26C1322 1118.88 1327.04 1115.06 1331.99 1111.32C1371.95 1080.85 1418.86 1082.67 1450.13 1116.1C1457.82 1124.28 1463.24 1134.33 1465.83 1145.25C1468.42 1156.18 1468.1 1167.59 1464.9 1178.35C1463.33 1186.27 1459.13 1193.43 1452.98 1198.67C1446.83 1203.9 1439.09 1206.9 1431.02 1207.18L1411.12 1209.18C1385.06 1211.61 1382.98 1232.71 1414.34 1242.95L1421.11 1245.21C1561.14 1293.74 1700.56 1392.81 1703.34 1573.5C1703.08 1573.5 1729.49 1939.03 1298.63 1946.85ZM977.921 1104.64C977.645 1100.59 977.938 1096.53 978.789 1092.57C994.338 1090.92 1026.31 1088.23 1066.61 1088.05C1068.13 1092.73 1068.75 1097.65 1068.44 1102.55C1068.87 1123.13 1048.89 1140.32 1023.96 1140.84C999.029 1141.36 978.529 1125.56 978.094 1104.98L977.921 1104.64ZM1554.54 1102.55C1554.23 1097.65 1554.84 1092.73 1556.37 1088.05C1596.67 1088.05 1628.64 1090.92 1644.28 1092.57C1645.04 1096.54 1645.31 1100.6 1645.06 1104.64C1644.62 1125.21 1624.04 1141.45 1599.02 1140.84C1574 1140.24 1554.28 1123.48 1554.72 1102.9L1554.54 1102.55ZM1689.18 1069.56C1630.38 1065.91 1409.47 1050.72 1319.65 1051.59C1229.83 1052.45 965.586 1065.91 906.777 1069.56C902.54 1070.09 898.263 1068.95 894.845 1066.39C891.427 1063.84 889.135 1060.05 888.448 1055.84C888.334 1052.4 889.413 1049.03 891.503 1046.29C893.592 1043.55 896.564 1041.62 899.914 1040.82C928.667 1032.14 1165.81 1003.14 1308.19 1003.14C1419.29 1003.14 1667.73 1032.22 1696.48 1040.82C1699.83 1041.62 1702.8 1043.55 1704.89 1046.29C1706.98 1049.03 1708.06 1052.4 1707.95 1055.84C1707.34 1060.13 1705.07 1064.02 1701.63 1066.65C1698.18 1069.28 1693.84 1070.45 1689.53 1069.91L1689.18 1069.56ZM1703.52 882.971L1698.48 882.016C1682.58 879.064 1657.22 873.333 1650.18 872.378C1635.76 869.687 1633.33 872.378 1628.64 886.27C1623.95 900.162 1617.78 914.228 1610.4 931.507C1609.35 933.764 1607.18 942.881 1600.67 934.719C1561.06 885.402 1524.23 839.211 1486.44 792.065C1530.65 778.433 1560.19 771.313 1607.27 758.115C1632.81 791.977 1698.31 856.749 1709.77 877.327C1712.64 882.45 1710.9 884.968 1703.69 883.318L1703.52 882.971ZM1875.86 1303.21C1874.71 1304.1 1873.33 1304.63 1871.88 1304.76C1870.43 1304.88 1868.98 1304.58 1867.7 1303.9C1858.53 1299.09 1850.46 1292.44 1843.98 1284.37C1837.39 1276.21 1832.44 1266.87 1829.39 1256.84C1826.36 1247.03 1824.89 1236.81 1825.04 1226.54C1825.13 1216.36 1827.05 1206.27 1830.69 1196.76C1831.31 1195.19 1832.45 1193.88 1833.92 1193.04C1835.39 1192.21 1837.09 1191.9 1838.76 1192.18C1840.43 1192.45 1841.95 1193.29 1843.07 1194.55C1844.2 1195.81 1844.86 1197.42 1844.94 1199.1V1200.06C1844.94 1208.22 1845.98 1217.42 1847.11 1225.5C1848.16 1233.68 1849.9 1241.75 1852.32 1249.64C1854.68 1257.37 1857.95 1264.81 1862.05 1271.78C1866.33 1278.92 1871.21 1285.69 1876.64 1292.01L1877.25 1292.79C1877.92 1293.56 1878.42 1294.46 1878.72 1295.43C1879.02 1296.4 1879.11 1297.43 1879 1298.44C1878.88 1299.45 1878.56 1300.43 1878.05 1301.31C1877.54 1302.19 1876.86 1302.95 1876.04 1303.55L1875.86 1303.21Z" fill="#141414"/>
<path d="M1253.55 1161.77C1243.02 1149.61 1229.01 1140.98 1213.42 1137.02C1199.43 1133.12 1178.67 1133.38 1175.37 1154.91C1174.5 1161.77 1183.1 1166.63 1185.1 1167.15C1204.91 1173.12 1225.29 1177.05 1245.9 1178.87C1255.2 1179.91 1265.19 1177.05 1253.55 1161.77Z" fill="#141414"/>
<path d="M1350.23 1178.87C1370.85 1177.05 1391.22 1173.12 1411.04 1167.15C1413.04 1166.63 1421.64 1161.77 1420.77 1154.91C1417.47 1133.38 1396.71 1133.12 1382.72 1137.02C1367.13 1140.98 1353.12 1149.61 1342.59 1161.77C1330.95 1177.05 1341.28 1179.92 1350.23 1178.87Z" fill="#141414"/>
<path d="M1409.39 1681.25C1392.01 1682.38 1375.16 1685.24 1358.05 1686.11C1351.19 1686.11 1344.32 1686.72 1337.46 1686.8C1315.75 1686.8 1297.85 1686.02 1288.9 1685.68C1276.05 1685.15 1262.84 1684.63 1258.07 1684.29C1249.38 1683.68 1241.21 1682.72 1232.79 1681.68C1215.94 1679.6 1199.43 1675.52 1182.58 1673C1179.89 1673 1177.28 1675.52 1176.67 1679.42C1176.37 1680.79 1176.47 1682.22 1176.96 1683.53C1177.46 1684.84 1178.32 1685.98 1179.45 1686.8C1187.27 1691.11 1195.55 1694.55 1204.12 1697.05C1212.81 1699.57 1221.06 1701.56 1229.57 1703.3C1238.09 1705.04 1246.95 1706.25 1255.63 1707.3C1264.32 1708.34 1296.2 1709.47 1304.97 1709.55C1313.75 1709.64 1322.35 1710.33 1331.03 1709.55C1339.72 1708.77 1348.41 1708.6 1357.09 1707.38C1365.78 1706.17 1374.47 1704.86 1383.15 1702.95C1392.11 1700.94 1400.84 1698.04 1409.21 1694.27C1410.45 1693.55 1411.47 1692.51 1412.15 1691.25C1412.84 1690 1413.18 1688.58 1413.12 1687.15C1414.25 1684.11 1412.17 1680.99 1409.39 1681.25ZM1306.8 1686.37H1294.46H1306.89H1306.8Z" fill="#141414"/>
<path d="M1549.5 1591.12C1532.61 1582.01 1514.82 1574.65 1496.43 1569.16C1478.36 1563.77 1460.12 1559.43 1441.79 1555.52C1423.46 1551.62 1404.96 1548.84 1386.45 1546.84C1367.95 1544.84 1299.59 1541.28 1281.26 1540.85C1262.93 1540.42 1243.91 1538.85 1225.14 1539.37C1206.38 1539.89 1187.7 1540.94 1168.94 1543.19C1150.18 1545.45 1131.5 1547.97 1112.91 1551.88C1093.87 1555.64 1075.24 1561.28 1057.32 1568.72C1054.74 1570.22 1052.62 1572.39 1051.19 1575.01C1049.77 1577.63 1049.09 1580.59 1049.24 1583.57C1049.24 1592.25 1053.75 1598.24 1059.57 1597.89C1096.15 1595.9 1132.46 1590.34 1168.77 1589.21C1183.45 1588.69 1198.04 1588.34 1212.72 1588.26C1258.59 1589.39 1296.72 1591.04 1315.92 1591.82C1343.28 1593.21 1372.12 1594.77 1381.85 1595.55C1399.92 1597.03 1417.81 1599.28 1435.79 1601.63C1471.76 1606.4 1507.11 1615.26 1543.16 1620.64C1548.98 1621.51 1554.45 1615.52 1555.41 1607.36C1556.14 1604.37 1555.97 1601.23 1554.92 1598.34C1553.87 1595.45 1551.98 1592.94 1549.5 1591.12V1591.12ZM1277.78 1589.21L1303.84 1590.43L1277.78 1589.21Z" fill="#141414"/>
</svg>
