<?xml version="1.0" encoding="utf-8"?>
<!-- Generator: Adobe Illustrator 24.3.0, SVG Export Plug-In . SVG Version: 6.00 Build 0)  -->
<svg version="1.1" id="Layer_1" xmlns="http://www.w3.org/2000/svg" xmlns:xlink="http://www.w3.org/1999/xlink" x="0px" y="0px"
	 viewBox="0 0 90 89.9999466" style="enable-background:new 0 0 90 89.9999466;" xml:space="preserve">
<style type="text/css">
	.st0{fill:#FFFFFF;}
</style>
<g>
	<polygon class="st0" points="38.4771614,35.7795143 34.4924202,42.6811256 34.5109749,42.6813698 34.5063362,42.6894264 
		52.2614632,52.9401588 52.3537483,52.780735 56.1540413,46.1982155 56.2436409,46.042942 38.4885139,35.7919655 	"/>
	<path class="st0" d="M67.4963303,6.0353723C45.9766731-6.3889441,18.4597073,0.9841028,6.0353909,22.5036335
		S0.9841213,71.5402527,22.5037746,83.9645691c21.5195293,12.4243164,49.036499,5.0512695,61.4608154-16.4682617
		S89.0158615,18.4596882,67.4963303,6.0353723z M23.9208889,53.7021217l24.3615704,14.0649376l-16.2409668,0.0002441
		L23.9208889,53.7021217z M64.273674,32.7475319l-2.9797401,5.161377c2.1446533,2.6120605,3.8122597,5.5444336,4.9606972,8.6586914
		c2.9801025,8.0812988,2.4822998,17.3769531-2.1606445,25.4186974c-0.9703407,1.6806641-2.0830116,3.2260742-3.3056679,4.6413574
		l-8.7211914-15.4157677L27.7055569,47.146946L9.7133694,47.1464577c0.6147461-1.7685547,1.3974609-3.5068359,2.3686523-5.1889648
		c4.6429443-8.0419922,12.4449463-13.1215839,20.9335918-14.5813007c3.3431396-0.574707,6.7923584-0.5891113,10.1977539,0.0002441
		h0.1151123l0.0050049,0.0219727c0.0001221,0,0.0006104,0.0004883,0.0008545,0.0004883l2.9188232-5.0554199l8.3377686,0.0002441
		l-4.6257324-8.0119619l0.0006104-0.0002441c2.2800293,0,4.3873291,1.2165527,5.5274658,3.1911612l2.7781982,4.8127441
		l5.5568848-0.0002441c2.2802773,0.0002441,4.3875771,1.2167969,5.5275917,3.1918945h-9.2515907L64.273674,32.7475319z"/>
</g>
</svg>
