<?xml version="1.0" encoding="utf-8"?>
<!-- Generator: Adobe Illustrator 24.3.0, SVG Export Plug-In . SVG Version: 6.00 Build 0)  -->
<svg version="1.1" id="Layer_1" xmlns="http://www.w3.org/2000/svg" xmlns:xlink="http://www.w3.org/1999/xlink" x="0px" y="0px"
	 viewBox="0 0 288 41.9003944" style="enable-background:new 0 0 288 41.9003944;" xml:space="preserve">
<style type="text/css">
	.st0{fill:#FFFFFF;}
</style>
<g>
	<g>
		<path class="st0" d="M76.0003281,1.2982835c-1.1149902,0-2.0226822,0.3525417-2.7230148,1.0561954
			c-0.7003326,0.7047973-1.0501175,1.5782886-1.0501175,2.6199021s0.3497849,1.9148183,1.0501175,2.6187582
			s1.6080246,1.0561957,2.7230148,1.0561957c1.1142349,0,2.0226822-0.3591185,2.7222595-1.0776401
			c0.7003326-0.7176638,1.0509033-1.6260376,1.0509033-2.7245493c0-1.0141649-0.3505707-1.8590639-1.0509033-2.5346973
			C78.0230103,1.636815,77.114563,1.2982835,76.0003281,1.2982835z"/>
		<rect x="72.966301" y="11.8173485" class="st0" width="6.068048" height="22.7279282"/>
		<polygon class="st0" points="93.6196899,27.2794304 87.8238373,11.8173485 81.5619354,11.8173485 90.352211,34.5452766 
			96.6149368,34.5452766 105.443985,11.8173485 99.6093979,11.8173485 		"/>
		<path class="st0" d="M159.2761383,11.4796753c-1.5557709,0-2.9889221,0.3239489-4.298584,0.9721336
			c-1.3097076,0.6478996-2.391449,1.5625629-3.2476807,2.7451363c-0.7264557-1.2103071-1.6855774-2.1332636-2.8781586-2.7665806
			c-1.1933289-0.6336021-2.5283356-0.9506893-4.0065918-0.9506893c-1.3484344,0-2.5860901,0.2536125-3.7145538,0.7605515
			c-1.1276703,0.507226-2.0804749,1.2394714-2.8583527,2.1967382v-2.6196165h-5.7958221v22.7279282h6.0680542V23.1392822
			c0-1.9708595,0.4138641-3.4567947,1.2447968-4.4572353c0.8293152-0.9987259,1.9443359-1.4988022,3.3450012-1.4988022
			c2.6446991,0,3.9670258,1.7884407,3.9670258,5.3647518v11.9972801h6.0680389V23.1392822
			c0-1.9708595,0.4146576-3.4567947,1.2447968-4.4572353c0.8293152-0.9987259,1.9570007-1.4988022,3.3838196-1.4988022
			c1.2700958,0,2.2489929,0.4434643,2.9366608,1.3303947c0.6868896,0.8869286,1.030365,2.231905,1.030365,4.0343571v11.9972801
			h6.0680389v-13.011446c0-3.3510036-0.7715912-5.8642569-2.3139343-7.5400448
			C163.9759369,12.3177118,161.8947144,11.4796753,159.2761383,11.4796753z"/>
		<path class="st0" d="M241.7934418,12.9373045c-1.5953369-0.9721346-3.3648071-1.4576292-5.3099365-1.4576292
			c-2.8781128,0-5.0693512,0.985858-6.572937,2.9572897v-2.6196165h-5.7958221v30.083046l6.0680542-1.6287498v-8.1344032
			c1.5296783,1.8313332,3.6299133,2.7459946,6.300705,2.7459946c1.9451294,0,3.7145996-0.4857788,5.3099365-1.4576302
			c1.5945435-0.9712753,2.8448792-2.3371239,3.7533569-4.0972595c0.9068756-1.7601337,1.3610992-3.8090496,1.3610992-6.1470337
			c0-2.3368397-0.4542236-4.3857555-1.3610992-6.1467476C244.6383209,15.2750015,243.3879852,13.9085808,241.7934418,12.9373045z
			 M239.2651062,27.7649269c-0.9986877,1.1405411-2.2759399,1.7112408-3.8317108,1.7112408
			c-1.5558167,0-2.8330231-0.5706997-3.8309326-1.7112408c-0.998642-1.140543-1.4980164-2.6676521-1.4980164-4.5836143
			c0-1.9148178,0.4993744-3.4430714,1.4980164-4.5836124c0.9979095-1.1402569,2.275116-1.7109566,3.8309326-1.7109566
			c1.5557709,0,2.8330231,0.5706997,3.8317108,1.7109566c0.9978638,1.1405411,1.4972229,2.6687946,1.4972229,4.5836124
			C240.7623291,25.0972748,240.26297,26.6243839,239.2651062,27.7649269z"/>
		<path class="st0" d="M283.7409668,12.3245745c-1.2321167,0.5638371-2.2110291,1.3941545-2.936676,2.4923801v-2.9996061h-5.7958374
			v22.7279282h6.0680542v-10.73036c0-2.1118202,0.492218-3.6958275,1.477417-4.7520218
			c0.98526-1.0564823,2.3471375-1.5840073,4.0841675-1.5840073c0.2334595,0,0.6868896,0.028307,1.361908,0.0840607v-6.0832729
			C286.3919678,11.4796753,284.97229,11.7615938,283.7409668,12.3245745z"/>
		<path class="st0" d="M214.9557037,12.9373045c-1.5953369-0.9721346-3.3647919-1.4576292-5.3099213-1.4576292
			c-2.8781281,0-5.0693665,0.985858-6.5729523,2.9572897v-2.6196165h-5.7958221v30.083046l6.0680542-1.6287498v-8.1344032
			c1.5296783,1.8313332,3.6299133,2.7459946,6.3007202,2.7459946c1.9451294,0,3.7145844-0.4857788,5.3099213-1.4576302
			c1.5945587-0.9712753,2.8448944-2.3371239,3.7533722-4.0972595c0.9068756-1.7601337,1.361084-3.8090496,1.361084-6.1470337
			c0-2.3368397-0.4542084-4.3857555-1.361084-6.1467476C217.8005981,15.2750015,216.5502625,13.9085808,214.9557037,12.9373045z
			 M212.4273682,27.7649269c-0.9986877,1.1405411-2.2759399,1.7112408-3.8317108,1.7112408
			c-1.5558014,0-2.8330231-0.5706997-3.8309174-1.7112408c-0.9986572-1.140543-1.4980164-2.6676521-1.4980164-4.5836143
			c0-1.9148178,0.4993591-3.4430714,1.4980164-4.5836124c0.9978943-1.1402569,2.275116-1.7109566,3.8309174-1.7109566
			c1.5557709,0,2.8330231,0.5706997,3.8317108,1.7109566c0.9978638,1.1405411,1.4972382,2.6687946,1.4972382,4.5836124
			C213.9246063,25.0972748,213.4252319,26.6243839,212.4273682,27.7649269z"/>
		<g>
			<path class="st0" d="M65.8266373,14.0143766c-1.5953751-1.6897793-3.6892357-2.5347147-6.2817001-2.5347147
				c-1.3492661,0-2.5932732,0.2321672-3.7343979,0.6970892c-1.141098,0.464922-2.1136665,1.1336784-2.916893,2.0069008V3.1903844
				l-6.0680504,1.6287374v29.726162h6.0680504V23.3085709c0-2.0283318,0.4534416-3.5557384,1.3611298-4.5836182
				c0.9076691-1.0279274,2.1255341-1.5417099,3.6560097-1.5417099c1.3745766,0,2.4246979,0.4434929,3.1511383,1.3303852
				c0.7256699,0.8869381,1.0888977,2.2318954,1.0888977,4.0343742v11.997282h6.0680504v-13.011446
				C68.2188721,18.2111244,67.421196,15.703886,65.8266373,14.0143766z"/>
		</g>
		<path class="st0" d="M271.3344116,24.983469h-15.8308868c0.2848816,1.4168415,0.9591217,2.5354462,2.0226898,3.356678
			c1.0627747,0.8220978,2.3851013,1.2318478,3.9670105,1.2318478c1.0888977,0,2.0551453-0.1763477,2.8979187-0.5307751
			c0.84198-0.3544254,1.6270142-0.9137287,2.3534546-1.6787701l3.2279053,3.8243465
			c-1.9704285,2.4645596-4.8493652,3.6964092-8.6343689,3.6964092c-2.3605957,0-4.4481812-0.5022469-6.2627258-1.5084724
			c-1.8153534-1.0044975-3.2152405-2.4005928-4.20047-4.1848259c-0.9860229-1.785099-1.478241-3.8096523-1.478241-6.0762539
			c0-2.2372074,0.4858856-4.2557106,1.4584503-6.0546398s2.3075714-3.2010765,4.0065918-4.2064371
			c1.6982269-1.0053606,3.5974579-1.5084734,5.6977081-1.5084734c2.0487976,0,3.9029236,0.4823656,5.5623779,1.4445038
			c1.6594543,0.9638672,2.9620056,2.3444014,3.9092407,4.1424675c0.9464722,1.7997952,1.4196777,3.8883171,1.4196777,6.2672958
			C271.4507446,23.2839508,271.4119873,23.8786964,271.3344116,24.983469z M257.1368713,17.6330109
			c-0.9338074,0.8497601-1.504364,2.0115871-1.7116852,3.4837532h10.3080902
			c-0.2081299-1.4445038-0.7778931-2.5985508-1.7117004-3.463007c-0.9337769-0.8635902-2.0748901-1.2958164-3.4225769-1.2958164
			C259.2236328,16.3579407,258.0706482,16.7823868,257.1368713,17.6330109z"/>
		<path class="st0" d="M128.3147125,25.0995655h-15.8309021c0.2848816,1.4168415,0.9591141,2.5354462,2.0226822,3.356678
			c1.0627823,0.8220959,2.3851166,1.2318478,3.9670258,1.2318478c1.0888901,0,2.0551224-0.1763477,2.8979111-0.5307751
			c0.8419952-0.3544254,1.6270065-0.9137287,2.3534622-1.6787701l3.2279053,3.8243465
			c-1.9704514,2.4645596-4.8493729,3.6964092-8.6343842,3.6964092c-2.3605881,0-4.4481659-0.5022469-6.2627258-1.5084724
			c-1.8153458-1.0044975-3.2152405-2.4005928-4.20047-4.1848259c-0.9860153-1.785099-1.4782333-3.8096523-1.4782333-6.0762539
			c0-2.2372074,0.4858856-4.2557106,1.4584503-6.0546398c0.9725647-1.7989311,2.3075714-3.2010765,4.0065918-4.2064371
			c1.6982346-1.0053606,3.5974655-1.5084734,5.6977005-1.5084734c2.0487976,0,3.9029236,0.4823656,5.5623779,1.4445038
			c1.6594543,0.9638672,2.9620132,2.3444014,3.909256,4.1424675c0.9464493,1.7997932,1.4196701,3.8883171,1.4196701,6.2672958
			C128.4310303,23.4000473,128.3922577,23.9947929,128.3147125,25.0995655z M114.1171494,17.7491074
			c-0.9337921,0.8497581-1.5043488,2.0115852-1.7116852,3.4837532h10.3080902
			c-0.2081223-1.4445038-0.7778931-2.5985508-1.7116852-3.463007c-0.9337921-0.8635902-2.074913-1.2958164-3.4225769-1.2958164
			C116.2039337,16.4740372,115.0509415,16.8984833,114.1171494,17.7491074z"/>
		<path class="st0" d="M189.1870422,13.9936304c1.7370453,1.6759796,2.605957,4.2028399,2.605957,7.5823011V34.545433h-5.678833
			v-2.8302574c-1.1411438,2.1117325-3.2675323,3.1680298-6.3791809,3.1680298c-1.6080627,0-3.0016479-0.2956581-4.1815796-0.8869781
			c-1.1799164-0.59132-2.0804901-1.4078255-2.7032928-2.4503689c-0.6220093-1.0416851-0.9330139-2.2243252-0.9330139-3.5487785
			c0-2.1117325,0.7320099-3.7731018,2.1976166-4.9841042c1.4648132-1.2110023,3.7273254-1.8169327,6.7875366-1.8169327h4.8233643
			c0-1.4361858-0.4028015-2.5414715-1.2060394-3.3158607c-0.8040314-0.7743874-2.0100708-1.1620121-3.6173248-1.1620121
			c-1.1158295,0-2.2110748,0.1899452-3.2873383,0.5698338c-1.0762482,0.3807487-1.9902802,0.8947144-2.7420807,1.5419006
			l-2.1778259-4.6042156c1.1403503-0.8723688,2.5086212-1.5487766,4.1032257-2.0275049
			c1.5945892-0.4787283,3.2342987-0.7185221,4.9207001-0.7185221
			C184.9603577,11.4796619,187.4492035,12.3176517,189.1870422,13.9936304z M184.0138855,29.6661835
			c0.8032379-0.5208435,1.3738098-1.2883549,1.711731-2.3025379v-2.323164h-4.1625824
			c-2.4888458,0-3.7336578,0.8869801-3.7336578,2.6609383c0,0.8448658,0.3038788,1.5143986,0.914032,2.0068779
			c0.608551,0.4933395,1.4450226,0.7391491,2.5086212,0.7391491
			C182.2887115,30.4474468,183.2098694,30.1878853,184.0138855,29.6661835z"/>
	</g>
	<g>
		<polygon class="st0" points="14.099719,34.5229988 24.530241,34.5228844 8.8845673,25.4899178 		"/>
		<path class="st0" d="M34.9191437,11.8528757l-2.6839027-4.6486402l5.9474983-0.0142684
			c-0.7321587-1.2684908-2.0854568-2.0498233-3.5499077-2.0500312l-3.568882,0.0002079l-1.7842617-3.0908444
			C28.5472794,0.7811496,27.1939735-0.0001766,25.729351,0l2.9613819,5.1578126h-5.3677826L21.454195,8.3945904
			c-7.7123547-1.3118577-15.7694788,2.1882362-19.9101639,9.3601055C0.9096853,18.8534222,0.3973021,19.9889297,0,21.14538
			l11.4955845-0.0090771l15.5017967,8.9499683l5.7398663,9.9560375c0.80196-0.921608,1.5283813-1.9322052,2.1621284-3.029892
			c4.140686-7.1718769,3.1432953-15.8995914-1.8489876-21.9227638L34.9191437,11.8528757z M27.1439323,25.2642136
			l-4.3866978-2.5326595l-2.7746563-1.6019497l-4.4348402-2.5604591l2.4186945-4.1892996l11.5961952,6.6950636
			L27.1439323,25.2642136z"/>
	</g>
</g>
</svg>
