<svg width="1000" height="1000" viewBox="0 0 1000 1000" fill="none" xmlns="http://www.w3.org/2000/svg">
<rect width="1000" height="1000" rx="500" fill="url(#paint0_radial_2405_24242)"/>
<path d="M572.609 582.634L416.343 582.634C358.92 582.634 325.139 603.809 297.295 631.653C261.071 667.877 257.539 714.425 257.706 732.863C257.747 737.448 261.549 740.897 266.135 740.897L577.881 740.897C580.268 740.897 582.557 739.949 584.245 738.261L734.908 587.597C738.423 584.082 738.423 578.384 734.908 574.869L596.973 436.933C591.303 431.264 581.609 435.279 581.609 443.297L581.609 573.634C581.609 578.604 577.579 582.634 572.609 582.634Z" fill="white"/>
<path d="M426.366 418.768L582.632 418.768C640.055 418.768 673.835 397.592 701.68 369.748C737.904 333.524 741.435 286.976 741.269 268.539C741.227 263.953 737.426 260.504 732.84 260.504L421.094 260.504C418.707 260.504 416.418 261.453 414.73 263.14L264.066 413.804C260.551 417.319 260.551 423.018 264.066 426.532L402.002 564.468C407.672 570.138 417.366 566.122 417.366 558.104L417.366 427.768C417.366 422.797 421.395 418.768 426.366 418.768Z" fill="white"/>
<defs>
<radialGradient id="paint0_radial_2405_24242" cx="0" cy="0" r="1" gradientUnits="userSpaceOnUse" gradientTransform="translate(665.954 141.263) rotate(105.191) scale(631.515)">
<stop stop-color="#778DFF"/>
<stop offset="1" stop-color="#1A3EFF"/>
</radialGradient>
</defs>
</svg>
