<svg width="992" height="226" viewBox="0 0 992 226" fill="none" xmlns="http://www.w3.org/2000/svg">
<rect width="225.882" height="225.882" rx="112.941" fill="url(#paint0_radial_2405_24235)"/>
<path d="M128.375 131.607L94.0445 131.607C81.0737 131.607 73.4433 136.39 67.1537 142.679C59.487 150.346 58.3035 160.06 58.2157 164.68C58.1867 166.208 59.4521 167.355 60.9807 167.355L130.133 167.355C130.928 167.355 131.691 167.039 132.254 166.477L165.319 133.412C166.491 132.24 166.491 130.34 165.319 129.169L136.496 100.346C134.607 98.4564 131.375 99.7949 131.375 102.468L131.375 128.607C131.375 130.263 130.032 131.607 128.375 131.607Z" fill="white"/>
<path d="M97.2757 94.5922L131.606 94.5922C144.577 94.5922 152.208 89.809 158.497 83.5195C166.164 75.8528 167.347 66.1387 167.435 61.5189C167.464 59.9905 166.199 58.8433 164.67 58.8433L95.5183 58.8433C94.7227 58.8433 93.9596 59.1593 93.397 59.7219L60.3318 92.7872C59.1602 93.9588 59.1602 95.8583 60.3318 97.0298L89.1544 125.852C91.0443 127.742 94.2757 126.404 94.2757 123.731L94.2757 97.5922C94.2757 95.9353 95.6188 94.5922 97.2757 94.5922Z" fill="white"/>
<path d="M359.313 85.7577L340.824 91.4184C340.128 87.6446 338.239 84.2183 335.157 81.1397C332.076 78.061 327.553 76.5217 321.588 76.5217C316.717 76.5217 312.741 77.8624 309.66 80.5438C306.578 83.1259 305.037 86.2542 305.037 89.9288C305.037 96.384 308.864 100.356 316.519 101.846L331.281 104.677C340.625 106.464 347.882 110.188 353.051 115.849C358.22 121.51 360.804 128.164 360.804 135.811C360.804 144.55 357.325 152.197 350.367 158.752C343.508 165.207 334.263 168.435 322.632 168.435C315.972 168.435 309.958 167.441 304.59 165.455C299.222 163.469 294.898 160.837 291.617 157.56C288.337 154.183 285.752 150.658 283.863 146.983C282.074 143.209 280.981 139.336 280.583 135.364L299.669 130.299C300.166 135.96 302.353 140.677 306.23 144.451C310.206 148.225 315.723 150.112 322.781 150.112C328.149 150.112 332.324 148.92 335.307 146.536C338.388 144.153 339.929 141.025 339.929 137.151C339.929 134.073 338.786 131.441 336.499 129.256C334.312 126.972 331.181 125.433 327.105 124.638L312.344 121.659C303.795 119.871 297.035 116.346 292.065 111.082C287.094 105.819 284.609 99.2641 284.609 91.4184C284.609 82.0831 288.188 74.2375 295.345 67.8816C302.602 61.5256 311.3 58.3477 321.439 58.3477C327.503 58.3477 332.921 59.1918 337.692 60.8801C342.464 62.5684 346.291 64.8526 349.174 67.7326C352.057 70.5133 354.293 73.3934 355.884 76.3727C357.474 79.3521 358.617 82.4804 359.313 85.7577Z" fill="white"/>
<path d="M398.687 195.1H377.662L394.959 156.964L363.795 92.9081H386.012L405.546 135.811L423.588 92.9081H444.762L398.687 195.1Z" fill="white"/>
<path d="M476.607 166.2H456.776V92.9081H475.713V101.846C477.601 98.4696 480.584 95.7881 484.659 93.8019C488.735 91.8157 492.91 90.8226 497.185 90.8226C507.821 90.8226 515.078 94.8943 518.955 103.038C524.223 94.8943 531.977 90.8226 542.216 90.8226C549.671 90.8226 555.934 93.1564 561.004 97.824C566.173 102.492 568.758 109.443 568.758 118.679V166.2H549.522V122.702C549.522 118.531 548.429 115.204 546.242 112.721C544.154 110.139 540.924 108.848 536.55 108.848C532.474 108.848 529.194 110.238 526.708 113.019C524.223 115.799 522.981 119.226 522.981 123.297V166.2H503.298V122.702C503.298 118.531 502.205 115.204 500.018 112.721C497.831 110.139 494.6 108.848 490.325 108.848C486.15 108.848 482.82 110.238 480.335 113.019C477.85 115.7 476.607 119.126 476.607 123.297V166.2Z" fill="white"/>
<path d="M608.681 166.2H588.849V92.9081H607.786V101.846C609.675 98.4696 612.657 95.7881 616.733 93.8019C620.808 91.8157 624.983 90.8226 629.258 90.8226C639.894 90.8226 647.151 94.8943 651.028 103.038C656.297 94.8943 664.05 90.8226 674.289 90.8226C681.745 90.8226 688.007 93.1564 693.077 97.824C698.246 102.492 700.831 109.443 700.831 118.679V166.2H681.596V122.702C681.596 118.531 680.502 115.204 678.315 112.721C676.228 110.139 672.997 108.848 668.623 108.848C664.547 108.848 661.267 110.238 658.782 113.019C656.297 115.799 655.054 119.226 655.054 123.297V166.2H635.371V122.702C635.371 118.531 634.278 115.204 632.091 112.721C629.904 110.139 626.673 108.848 622.399 108.848C618.224 108.848 614.894 110.238 612.408 113.019C609.923 115.7 608.681 119.126 608.681 123.297V166.2Z" fill="white"/>
<path d="M735.386 121.212H768.19C767.992 117.14 766.5 113.714 763.717 110.933C761.033 108.152 757.057 106.762 751.788 106.762C747.017 106.762 743.14 108.252 740.158 111.231C737.175 114.21 735.585 117.537 735.386 121.212ZM770.129 140.28L786.68 145.196C784.692 151.949 780.765 157.51 774.9 161.88C769.135 166.25 761.928 168.435 753.279 168.435C742.742 168.435 733.796 164.909 726.439 157.858C719.083 150.707 715.405 141.174 715.405 129.256C715.405 117.935 718.984 108.699 726.141 101.548C733.299 94.2985 741.748 90.6736 751.49 90.6736C762.822 90.6736 771.67 94.0502 778.032 100.803C784.493 107.557 787.724 116.842 787.724 128.66C787.724 129.455 787.674 130.349 787.575 131.342C787.575 132.335 787.575 133.129 787.575 133.725L787.426 134.768H734.939C735.138 139.535 737.026 143.507 740.605 146.685C744.184 149.863 748.458 151.452 753.428 151.452C761.878 151.452 767.445 147.728 770.129 140.28Z" fill="white"/>
<path d="M827.795 71.0099V92.9081H842.557V110.486H827.795V141.174C827.795 144.252 828.491 146.437 829.883 147.728C831.274 149.019 833.461 149.665 836.443 149.665C839.127 149.665 841.165 149.466 842.557 149.069V165.455C839.674 166.647 835.946 167.243 831.374 167.243C824.216 167.243 818.55 165.257 814.375 161.284C810.2 157.212 808.112 151.651 808.112 144.6V110.486H794.842V92.9081H798.569C802.247 92.9081 805.031 91.8653 806.92 89.7798C808.908 87.5949 809.902 84.7646 809.902 81.2886V71.0099H827.795Z" fill="white"/>
<path d="M903.117 92.6102V112.572C901.129 112.175 899.14 111.976 897.152 111.976C891.486 111.976 886.913 113.615 883.434 116.892C879.955 120.07 878.215 125.333 878.215 132.682V166.2H858.384V92.9081H877.619V103.783C881.197 96.1357 888.156 92.3122 898.494 92.3122C899.588 92.3122 901.129 92.4116 903.117 92.6102Z" fill="white"/>
<path d="M945.619 195.1H924.594L941.891 156.964L910.727 92.9081H932.945L952.478 135.811L970.52 92.9081H991.694L945.619 195.1Z" fill="white"/>
<defs>
<radialGradient id="paint0_radial_2405_24235" cx="0" cy="0" r="1" gradientUnits="userSpaceOnUse" gradientTransform="translate(150.427 31.9088) rotate(105.191) scale(142.648)">
<stop stop-color="#778DFF"/>
<stop offset="1" stop-color="#1A3EFF"/>
</radialGradient>
</defs>
</svg>
