<svg width="3621" height="800" viewBox="0 0 3621 800" fill="none" xmlns="http://www.w3.org/2000/svg">
<path d="M465.456 699.303L450.435 697.87C456.316 730.281 462.118 762.094 467.959 794.386C474.515 793.072 480.555 791.877 486.992 790.603C486.674 788.891 486.435 787.498 486.117 786.144C480.792 763.568 475.508 741.031 470.143 718.495C468.633 712.045 466.925 705.634 465.335 699.223C472.845 700.139 480.356 701.095 488.422 701.015C485.323 690.982 482.461 681.585 479.52 672.029C473.083 673.82 467.044 675.493 460.885 677.205C462.474 684.85 463.985 692.096 465.495 699.343L465.456 699.303ZM334.13 100.219C339.057 101.852 344.222 101.971 349.626 102.847C349.428 101.255 349.309 100.099 349.11 98.9846C343.468 68.246 337.786 37.5077 332.104 6.76915C332.104 6.6497 331.945 6.5698 331.866 6.49016C331.746 6.41053 331.628 6.37089 331.27 6.1718C325.429 7.20704 319.309 8.00315 313.151 9.91435C313.548 11.7857 313.866 13.2992 314.223 14.7724C318.237 31.7742 322.249 48.7358 326.262 65.7376C328.964 77.2845 331.587 88.8317 334.289 100.379C333.017 100.379 331.746 100.577 330.475 100.458C325.428 100.099 320.382 99.6618 315.296 99.3034C314.303 99.2238 313.349 99.3034 311.839 99.3034L323.084 131.993L339.733 128.051C337.826 118.535 336.037 109.377 334.209 100.219H334.13ZM428.58 691.977C427.349 691.937 426.117 692.017 424.925 691.778C421.548 691.101 418.211 690.265 414.793 689.468C414.237 695.919 419.561 796.695 420.633 799.562C426.991 799.244 433.389 799.004 439.985 797.89C439.866 795.939 439.787 794.386 439.628 792.833C436.568 763.169 433.468 733.466 430.329 703.802C429.891 699.821 429.138 695.839 428.542 691.897C429.575 692.375 430.608 693.012 431.681 693.251C437.601 694.565 443.521 695.8 450.078 697.153C449.164 690.982 448.329 685.526 447.455 679.872L429.097 682.74C429.097 684.571 429.176 686.004 429.097 687.438C429.017 688.951 428.739 690.464 428.58 691.937V691.977ZM42.4741 241.609C41.7986 241.609 41.0435 241.728 40.4078 241.569C38.5402 241.011 36.7522 240.335 34.5271 239.578C32.739 243.6 30.8318 247.342 29.6397 251.563L35.8774 253.912L20.0629 287.558L17.1235 287.916C14.342 295.481 13.9837 297.472 15.4142 299.861C17.7188 296.158 18.2364 291.897 20.4218 288.354C56.6603 297.87 92.6605 307.346 128.78 316.863L139.944 287.956C105.533 276.727 71.2415 265.578 36.6322 254.31C38.301 251.125 39.8523 248.417 41.2033 245.63C41.7993 244.396 42.037 242.963 42.4741 241.649C43.984 242.405 45.414 243.321 46.9637 243.878C78.7916 255.226 110.62 266.494 142.487 277.762C143.202 278.001 143.958 278.121 144.713 278.28L156.276 257.296C125.283 242.564 94.3284 227.832 63.2555 213.06C62.2621 214.254 61.3883 215.21 60.6731 216.245C55.4281 223.85 50.2229 231.495 44.9381 239.1C44.2626 240.056 43.3085 240.813 42.4741 241.688V241.609ZM371.362 107.983C376.21 108.182 380.541 110.173 385.27 111.169L386.143 122.278L418.726 123.074C421.984 82.3812 425.243 41.8872 428.421 0.915709L407.283 0C406.369 39.2992 405.494 78.0413 404.58 117.301L385.865 111.009C383.998 74.2982 382.129 37.7466 380.262 0.756773C373.348 0.836406 366.832 1.23456 360.196 2.22998C360.316 3.98192 360.394 5.25588 360.553 6.53002C361.149 12.1044 361.746 17.679 362.342 23.2534C364.846 47.3824 367.31 71.5111 369.853 95.6401C370.29 99.7811 370.924 103.882 371.481 107.983C370.924 107.665 370.409 107.187 369.853 107.028C364.409 105.833 358.924 104.679 353.441 103.603C352.527 103.404 351.494 103.603 350.263 103.603C351.614 111.129 352.886 118.216 354.197 125.423L372.633 123.233C372.474 121.681 372.355 120.406 372.276 119.132C371.998 115.389 371.72 111.646 371.442 107.904L371.362 107.983ZM645.971 663.588C627.574 644.037 609.416 624.726 591.217 605.415C586.489 609.755 582.158 613.697 577.549 617.878C593.482 636.711 609.337 655.425 625.39 674.418L610.489 681.625C596.582 662.552 582.872 643.759 569.045 624.846C563.045 629.226 557.362 633.327 551.521 637.587C563.084 654.828 574.528 671.83 586.171 689.19L571.35 693.331C561.098 676.886 550.966 660.681 540.793 644.356L521.799 654.947C524.461 660.083 526.965 664.782 529.389 669.56C531.853 674.298 534.316 679.036 536.7 683.814C539.084 688.513 541.787 693.052 543.853 698.188L529.548 700.657C540.038 722.756 550.249 744.376 560.7 766.355C566.223 763.727 571.309 761.298 576.753 758.71C566.025 738.523 555.574 718.773 544.885 698.706C554.064 696.954 562.687 695.322 571.509 693.61C582.436 710.372 593.004 727.215 604.011 744.017L618.395 734.979C607.627 719.769 597.098 704.798 586.33 689.548C594.674 686.88 602.542 684.372 610.489 681.823C620.343 694.764 629.959 707.346 639.813 720.287C644.661 716.424 649.19 712.801 653.998 708.979C644.342 697.392 634.925 686.044 625.349 674.577C632.7 671.033 639.535 667.728 646.528 664.344C655.548 673.94 664.567 683.496 673.786 693.251L686.302 680.231C677.481 671.75 669.057 663.667 660.633 655.624L683.64 639.578L703.867 658.531L712.21 649.054C705.653 643.122 699.534 637.587 693.415 632.052C702.912 622.974 712.011 614.254 721.309 605.335C725.918 608.999 730.568 612.662 735.455 616.484C738.276 612.224 740.819 608.362 743.482 604.34L729.336 594.784L720.991 604.619C693.415 584.71 666.078 565.001 638.581 545.132L622.687 569.421C646.29 590.205 669.653 610.83 693.335 631.734C689.839 634.322 686.859 636.552 683.64 638.98C661.389 618.116 639.336 597.492 617.163 576.707C611.163 583.675 605.403 590.324 599.403 597.253C619.628 616.564 639.812 635.835 660.315 655.425C655.348 658.252 650.86 660.8 646.012 663.548L645.971 663.588ZM228.395 106.55L261.018 156.998C264.475 155.246 267.575 153.614 270.674 152.021C273.733 150.468 276.831 148.955 280.01 147.362L255.455 101.812L270.515 99.7414C260.064 77.6032 249.851 55.9427 239.679 34.3619C235.229 35.3972 226.488 39.5782 223.508 42.0867C228.753 51.9214 234.037 61.7559 239.243 71.6703C244.448 81.5051 249.893 91.2207 254.939 101.414L228.434 106.232C217.507 89.2696 206.739 72.5462 195.891 55.7037C190.805 59.0483 186.196 62.0745 181.468 65.2997C192.117 80.5894 202.448 95.4011 212.938 110.452L186.237 120.048C201.892 138.722 217.109 156.839 232.407 175.035L249.852 163.448C237.693 145.929 225.614 128.529 213.217 110.731L228.395 106.59V106.55ZM659.085 501.772C670.608 507.505 681.774 513.08 692.94 518.614C704.105 524.189 715.31 529.723 726.476 535.338C737.562 540.912 748.886 546.088 759.933 552.14L753.018 564.643L760.569 570.376C763.152 565.479 765.534 560.98 767.998 556.241L760.528 552.22C766.21 541.111 771.773 530.281 777.336 519.411L781.151 520.366L786.038 505.873C785.124 505.515 784.529 505.236 783.933 505.116C783.337 504.997 782.74 504.997 782.064 504.918C780.316 509.457 778.648 513.757 776.9 518.336C740.145 504.161 703.825 490.145 667.269 476.01C664.487 484.691 661.866 492.972 659.124 501.652L659.085 501.772ZM674.343 440.056L669.774 465.578C707.284 478.399 744.674 491.34 782.303 504.081C787.23 492.534 790.489 481.107 793.112 469.043C753.377 459.327 713.999 449.731 674.343 440.016V440.056ZM118.766 358.471L125.957 325.98C89.003 317.3 52.4069 308.7 15.6121 300.06C12.0757 310.372 8.73799 320.326 6.75124 330.997C44.2215 340.195 81.2961 349.273 118.766 358.471ZM675.495 428.788C716.025 436.99 756.117 445.073 796.131 453.156C798.117 446.665 799.946 421.581 798.833 417.918C788.423 415.967 680.105 404.101 676.648 404.579C676.29 412.423 675.893 420.347 675.495 428.788ZM798.634 367.032C793.548 366.036 677.402 367.908 674.461 368.943C675.097 376.548 675.734 384.153 676.33 391.638C682.886 392.952 796.806 400.637 799.945 399.96C800.184 388.971 799.628 377.981 798.595 367.072L798.634 367.032ZM752.74 564.285C719.919 546.486 687.614 528.927 655.23 511.368C651.177 519.928 647.323 528.011 643.309 536.532C671.998 555.843 700.648 575.115 729.456 594.505C738.516 585.347 745.628 575.155 752.74 564.285ZM117.255 369.819C98.1424 365.957 79.3485 362.094 60.514 358.312C41.6001 354.529 22.6857 350.547 3.4141 346.884C2.06311 358.949 0.792744 370.416 0.633803 381.883C7.8656 383.556 112.011 395.023 115.468 394.545L117.296 369.819H117.255ZM667.826 333.546C669.495 341.35 671.004 348.437 672.634 355.883C693.495 354.649 714.119 353.534 734.741 352.22C755.324 350.946 775.905 350.03 796.726 348.397C795.296 337.249 793.589 326.777 791.046 315.907C749.92 321.8 709.031 327.613 667.826 333.506V333.546ZM116.739 432.053L115.309 407.645C76.8056 404.937 38.5807 402.269 0.39516 399.602C-0.637955 405.534 0.513046 429.584 2.02298 433.605C40.129 433.088 78.315 432.57 116.739 432.092V432.053ZM777.575 267.012C736.965 278.28 697.151 289.349 657.137 300.458C659.641 307.585 661.944 314.195 664.368 321.123C674.739 319.132 684.952 317.141 695.124 315.19C705.217 313.239 715.31 311.328 725.403 309.417C735.615 307.466 745.865 305.514 756.077 303.524C766.21 301.533 776.423 299.94 786.913 297.352C783.734 287.04 780.713 277.245 777.534 267.012H777.575ZM9.37438 484.014C47.0036 478.638 84.7521 473.223 122.699 467.808L118.289 444.635C80.0639 446.904 41.9975 449.134 3.97094 451.364C3.53385 456.301 7.22969 478.399 9.41512 484.014H9.37438ZM176.303 228.31C149.561 211.308 123.136 194.506 96.394 177.504L107.044 168.067L85.9849 153.255L77.0833 165.041L96.1961 177.424C87.812 185.348 79.7844 193.231 72.2347 202.031C102.116 217.838 131.64 233.446 161.243 249.094L176.262 228.31H176.303ZM652.011 288.234C691.468 275.095 730.767 262.035 770.423 248.855C766.41 239.06 762.515 229.823 757.548 220.904C719.045 237.189 680.979 253.275 642.714 269.441L652.011 288.234ZM126.077 480.669C88.4876 487.876 51.137 495.083 13.3091 502.329C16.1303 512.841 18.9511 522.795 22.8451 532.829C59.7194 522.636 96.3543 512.482 133.149 502.17L126.077 480.669ZM732.675 177.902C696.595 198.965 660.793 219.829 624.833 240.812C628.687 246.625 632.264 252.001 635.919 257.535C673.469 239.299 710.66 221.222 748.21 202.986C743.203 194.226 738.277 186.024 732.675 177.902ZM147.693 534.621L138.275 515.031C101.997 527.095 65.8782 539.001 29.6397 551.224C33.653 560.98 37.5857 570.138 42.4333 579.136C77.599 564.245 112.448 549.552 147.693 534.661V534.621ZM703.071 138.603C669.694 164.284 636.873 189.489 603.972 214.812L616.409 229.425C651.296 206.45 685.867 183.755 720.754 160.661C714.714 153.096 709.032 146.009 703.071 138.563V138.603ZM154.685 547.044C120.314 563.727 86.222 580.291 51.851 596.974C56.8974 605.813 61.7855 614.015 67.3881 622.058C100.448 602.787 133.11 583.715 165.971 564.563C162.157 558.63 158.579 553.056 154.685 547.044ZM593.918 204.181C625.547 176.866 656.859 149.911 688.33 122.716C681.773 116.066 675.733 109.656 668.74 103.882C639.177 133.267 609.893 162.373 580.449 191.638C585.098 195.978 589.348 199.96 593.918 204.181ZM174.712 576.428C142.924 597.372 111.334 618.157 79.2679 639.299C85.3077 646.825 91.0313 653.991 96.9916 661.397C127.389 638.025 157.388 614.971 187.587 591.718C183.216 586.502 179.043 581.565 174.712 576.428ZM223.746 181.366C206.66 162.891 189.851 144.655 172.725 126.1L186.396 119.928L155.64 83.3767L142.646 93.729C152.66 104.639 162.395 115.19 172.368 126.1C163.07 130.679 154.289 135.059 145.786 140.554C166.289 159.068 186.435 177.304 206.779 195.66L223.746 181.366ZM568.886 182.003C596.66 150.946 624.157 120.167 651.852 89.1898C645.018 83.4164 638.224 78.3199 631.032 73.3428C605.403 106.271 580.091 138.842 554.66 171.531C559.587 175.155 564.039 178.459 568.847 181.963L568.886 182.003ZM111.733 677.205C118.051 684.054 124.447 690.185 131.242 696.158C158.381 669.162 185.124 642.564 212.064 615.767L198.037 602.747C169.149 627.673 140.581 652.319 111.733 677.205ZM527.005 154.768C531.852 157.555 536.263 160.104 540.673 162.572C540.951 162.732 541.389 162.692 541.707 162.731C548.105 154.887 610.37 63.1896 611.323 60.0441C604.449 56.0624 597.495 52.0008 590.224 47.7802C569.085 83.5755 548.145 118.973 527.045 154.768H527.005ZM168.831 726.737C192.394 696.436 215.64 666.574 239.004 636.512C233.878 632.809 229.071 629.345 224.144 625.762C198.674 654.231 173.48 682.421 147.97 710.93L168.831 726.737ZM546.633 27.4737C530.223 65.8173 514.051 103.524 497.84 141.429C500.7 142.624 503.084 143.62 505.468 144.655C507.813 145.65 510.156 146.645 512.699 147.72C531.494 110.731 550.052 74.1392 568.847 37.0697L546.633 27.4737ZM252.634 645.152C231.097 676.647 209.72 707.864 188.064 739.518C195.495 743.858 202.487 747.92 209.798 752.18C229.308 719.132 248.58 686.562 267.971 653.673L252.634 645.112V645.152ZM501.097 12.6221C489.773 52.5982 478.647 91.8973 467.402 131.475L482.264 135.855C495.933 96.954 509.56 58.3319 523.308 19.192L501.058 12.6221H501.097ZM298.488 667.171L282.99 660.801C265.666 694.924 248.579 728.648 231.175 762.93C238.765 766.195 245.838 769.261 253.348 772.486C268.408 737.288 283.349 702.489 298.488 667.171ZM197.998 204.061C176.064 185.427 154.487 167.072 132.831 148.637C123.93 154.49 115.547 160.781 107.362 167.948C133.031 185.228 158.381 202.269 183.732 219.391L197.998 204.061ZM436.17 125.065L450.833 127.653C459.336 87.3584 467.84 47.4221 476.224 7.20708C468.714 5.69404 461.799 4.22084 454.329 3.74304C448.249 44.3164 442.209 84.4915 436.13 125.065H436.17ZM489.495 701.453C490.289 706.868 514.052 780.211 515.879 782.879C521.403 781.047 527.005 779.176 532.926 777.225C523.35 751.782 513.971 726.857 504.434 701.533C512.818 700.617 520.687 701.294 528.873 700.378C522.595 686.562 516.593 673.343 510.554 660.044L491.204 667.927C495.495 679.116 499.627 689.986 503.998 701.414H489.495V701.453ZM314.778 672.546C302.063 708.581 289.468 744.376 276.673 780.769C284.262 782.998 291.415 785.068 298.925 787.298C309.455 750.229 319.826 713.677 330.277 676.806L314.778 672.546ZM347.48 680.31C339.533 718.017 331.666 755.206 323.719 792.873C331.268 794.067 338.262 795.222 345.653 796.377C351.335 758.152 357.097 720.486 362.66 682.5C357.376 681.744 352.686 681.067 347.48 680.31ZM392.819 800C393.693 761.019 394.527 722.875 395.401 684.412H381.098C379.906 689.429 371.72 796.018 372.356 799.124C378.952 799.403 385.627 799.681 392.819 800ZM311.164 98.7459C302.343 71.2325 293.679 44.2365 284.897 16.8823C278.738 18.6741 273.018 20.4264 267.137 22.7756C276.793 48.3778 286.289 73.5419 295.786 98.7459H311.123H311.164ZM295.27 98.5467L270.792 99.2636L291.217 142.425L307.984 136.214L295.27 98.5467ZM133.11 148.397L145.429 140.474L118.766 116.066C115.19 120.008 111.533 123.352 108.155 127.334L133.11 148.397ZM57.6134 194.386L50.6598 206.45L63.335 212.502L72.1164 201.951L57.5727 194.346L57.6134 194.386ZM404.182 684.372L403.985 685.168L413.72 688.314V683.814L404.182 684.372Z" fill="white"/>
<path d="M1022.31 504.209C994.102 476.682 980 441.946 980 400C980 358.054 994.102 323.318 1022.31 295.791C1050.51 268.264 1085.37 254.5 1126.89 254.5C1174.42 254.5 1211.51 271.278 1238.14 304.835C1249.89 319.254 1258.51 335.901 1264 354.777H1218.95C1214.25 344.291 1207.72 334.853 1199.36 326.464C1180.3 307.326 1156.14 297.757 1126.89 297.757C1097.38 297.757 1073.36 307.195 1054.82 326.07C1036.28 344.946 1027.01 369.589 1027.01 400C1027.01 430.411 1036.28 455.054 1054.82 473.93C1073.36 492.805 1097.38 502.243 1126.89 502.243C1156.93 502.243 1181.6 491.757 1200.93 470.784C1209.55 461.87 1216.21 451.384 1220.91 439.324H1265.95C1259.16 459.773 1249.63 477.469 1237.36 492.412C1210.2 527.804 1173.38 545.5 1126.89 545.5C1085.37 545.5 1050.51 531.737 1022.31 504.209Z" fill="white"/>
<path d="M1308.92 537.635V262.365H1353.97V494.378H1493.03V537.635H1308.92Z" fill="white"/>
<path d="M1539.43 503.816C1511.48 476.027 1497.51 441.422 1497.51 400C1497.51 358.578 1511.48 323.973 1539.43 296.184C1567.37 268.395 1602.36 254.5 1644.41 254.5C1686.45 254.5 1721.44 268.395 1749.39 296.184C1777.33 323.973 1791.3 358.578 1791.3 400C1791.3 441.422 1777.33 476.027 1749.39 503.816C1721.44 531.605 1686.45 545.5 1644.41 545.5C1602.36 545.5 1567.37 531.605 1539.43 503.816ZM1572.33 326.07C1553.79 344.946 1544.52 369.589 1544.52 400C1544.52 430.411 1553.79 455.054 1572.33 473.93C1590.87 492.805 1614.9 502.243 1644.41 502.243C1673.65 502.243 1697.55 492.805 1716.09 473.93C1734.89 455.054 1744.29 430.411 1744.29 400C1744.29 369.589 1734.89 344.946 1716.09 326.07C1697.55 307.195 1673.65 297.757 1644.41 297.757C1614.9 297.757 1590.87 307.195 1572.33 326.07Z" fill="white"/>
<path d="M1866.93 504.209C1838.73 476.682 1824.63 441.946 1824.63 400C1824.63 358.054 1838.73 323.318 1866.93 295.791C1895.14 268.264 1930 254.5 1971.52 254.5C2019.05 254.5 2056.13 271.278 2082.77 304.835C2094.52 319.254 2103.14 335.901 2108.62 354.777H2063.58C2058.87 344.291 2052.35 334.853 2043.99 326.464C2024.93 307.326 2000.77 297.757 1971.52 297.757C1942.01 297.757 1917.99 307.195 1899.45 326.07C1880.9 344.946 1871.63 369.589 1871.63 400C1871.63 430.411 1880.9 455.054 1899.45 473.93C1917.99 492.805 1942.01 502.243 1971.52 502.243C2001.55 502.243 2026.23 491.757 2045.56 470.784C2054.17 461.87 2060.83 451.384 2065.53 439.324H2110.58C2103.79 459.773 2094.26 477.469 2081.99 492.412C2054.83 527.804 2018.01 545.5 1971.52 545.5C1930 545.5 1895.14 531.737 1866.93 504.209Z" fill="white"/>
<path d="M2146.29 537.635V262.365H2191.34V376.405H2236.38L2318.64 262.365H2371.53L2275.56 394.101L2375.44 537.635H2320.6L2238.34 419.662H2191.34V537.635H2146.29Z" fill="white"/>
<path d="M2403.01 262.365H2450.02L2497.81 498.311H2503.68L2549.91 262.365H2618.46L2666.64 498.311H2672.51L2718.34 262.365H2763.39L2706.59 537.635H2634.12L2587.12 311.52H2581.24L2536.2 537.635H2461.77L2403.01 262.365Z" fill="white"/>
<path d="M2822.48 503.816C2794.54 476.027 2780.57 441.422 2780.57 400C2780.57 358.578 2794.54 323.973 2822.48 296.184C2850.42 268.395 2885.42 254.5 2927.46 254.5C2969.5 254.5 3004.5 268.395 3032.44 296.184C3060.38 323.973 3074.35 358.578 3074.35 400C3074.35 441.422 3060.38 476.027 3032.44 503.816C3004.5 531.605 2969.5 545.5 2927.46 545.5C2885.42 545.5 2850.42 531.605 2822.48 503.816ZM2855.38 326.07C2836.84 344.946 2827.57 369.589 2827.57 400C2827.57 430.411 2836.84 455.054 2855.38 473.93C2873.93 492.805 2897.95 502.243 2927.46 502.243C2956.71 502.243 2980.6 492.805 2999.14 473.93C3017.95 455.054 3027.35 430.411 3027.35 400C3027.35 369.589 3017.95 344.946 2999.14 326.07C2980.6 307.195 2956.71 297.757 2927.46 297.757C2897.95 297.757 2873.93 307.195 2855.38 326.07Z" fill="white"/>
<path d="M3119.43 537.635V262.365H3238.91C3271.29 262.365 3297.01 270.754 3316.07 287.532C3335.14 304.311 3344.67 325.415 3344.67 350.845C3344.67 371.031 3338.4 388.858 3325.87 404.326C3313.59 419.531 3296.36 429.886 3274.16 435.392L3342.71 537.635H3289.83L3225.2 439.324H3164.48V537.635H3119.43ZM3164.48 396.068H3238.91C3278.08 396.068 3297.66 380.993 3297.66 350.845C3297.66 320.696 3278.08 305.622 3238.91 305.622H3164.48V396.068Z" fill="white"/>
<path d="M3391.84 537.635V262.365H3436.89V376.405H3481.94L3564.2 262.365H3617.08L3521.11 394.101L3621 537.635H3566.16L3483.9 419.662H3436.89V537.635H3391.84Z" fill="white"/>
</svg>
