<svg width="993" height="991" viewBox="0 0 993 991" fill="none" xmlns="http://www.w3.org/2000/svg">
<path d="M577.747 866.262L559.102 864.486C566.402 904.635 573.603 944.044 580.854 984.045C588.992 982.418 596.489 980.938 604.479 979.36C604.084 977.239 603.787 975.513 603.393 973.836C596.784 945.869 590.224 917.953 583.565 890.036C581.691 882.045 579.571 874.104 577.598 866.163C586.919 867.297 596.241 868.481 606.254 868.383C602.407 855.953 598.854 844.313 595.205 832.475C587.214 834.695 579.718 836.767 572.073 838.888C574.046 848.358 575.921 857.334 577.795 866.311L577.747 866.262ZM414.739 124.146C420.855 126.169 427.266 126.317 433.974 127.402C433.727 125.429 433.58 123.998 433.333 122.617C426.329 84.5397 419.277 46.4627 412.224 8.38529C412.224 8.23732 412.027 8.13834 411.928 8.03969C411.78 7.94104 411.633 7.89194 411.189 7.64532C403.939 8.92772 396.343 9.9139 388.698 12.2814C389.191 14.5996 389.586 16.4743 390.03 18.2993C395.011 39.3602 399.992 60.3715 404.973 81.4325C408.327 95.7362 411.582 110.04 414.936 124.344C413.358 124.344 411.78 124.59 410.202 124.442C403.938 123.998 397.675 123.456 391.362 123.012C390.129 122.913 388.944 123.012 387.07 123.012L401.028 163.506L421.694 158.623C419.326 146.835 417.106 135.491 414.837 124.146H414.739ZM531.975 857.186C530.447 857.137 528.918 857.235 527.438 856.94C523.246 856.101 519.104 855.065 514.862 854.079C514.172 862.069 520.78 986.906 522.111 990.457C530.003 990.063 537.944 989.767 546.131 988.386C545.983 985.969 545.885 984.045 545.688 982.122C541.89 945.376 538.042 908.581 534.145 871.835C533.603 866.903 532.667 861.971 531.927 857.088C533.21 857.68 534.492 858.469 535.824 858.764C543.173 860.392 550.521 861.922 558.659 863.599C557.525 855.954 556.488 849.196 555.403 842.192L532.616 845.744C532.616 848.013 532.715 849.788 532.616 851.563C532.517 853.438 532.173 855.312 531.975 857.137V857.186ZM52.721 299.293C51.8825 299.293 50.9453 299.441 50.1562 299.243C47.8381 298.553 45.6187 297.714 42.8567 296.777C40.6372 301.759 38.2699 306.395 36.7903 311.624L44.5329 314.534L24.9031 356.212L21.2546 356.656C17.8021 366.027 17.3573 368.493 19.1329 371.453C21.9935 366.866 22.6359 361.588 25.3486 357.198C70.3296 368.986 115.015 380.725 159.848 392.514L173.705 356.705C130.993 342.796 88.4285 328.985 45.4697 315.027C47.5412 311.081 49.4666 307.727 51.1435 304.275C51.8834 302.746 52.1784 300.97 52.721 299.342C54.5952 300.279 56.3702 301.413 58.2937 302.104C97.8 316.161 137.307 330.12 176.862 344.078C177.75 344.374 178.687 344.522 179.625 344.719L193.978 318.726C155.507 300.476 117.085 282.227 78.5159 263.928C77.2829 265.408 76.1983 266.592 75.3105 267.874C68.8001 277.295 62.3392 286.765 55.7795 296.185C54.941 297.369 53.7567 298.306 52.721 299.392V299.293ZM460.953 133.764C466.971 134.011 472.347 136.477 478.216 137.71L479.3 151.472L519.744 152.458C523.788 102.05 527.832 51.8878 531.778 1.13433L505.54 0C504.406 48.6819 503.32 96.6737 502.185 145.306L478.955 137.513C476.637 92.0369 474.318 46.7586 472 0.937452C463.418 1.0361 455.33 1.52931 447.094 2.76238C447.242 4.9326 447.34 6.51072 447.537 8.08906C448.277 14.9943 449.017 21.8999 449.757 28.8051C452.865 58.6949 455.923 88.5844 459.08 118.474C459.622 123.604 460.41 128.684 461.1 133.764C460.41 133.37 459.77 132.778 459.08 132.581C452.323 131.101 445.515 129.671 438.708 128.339C437.574 128.092 436.292 128.339 434.763 128.339C436.44 137.661 438.02 146.44 439.647 155.368L462.531 152.655C462.333 150.732 462.186 149.153 462.088 147.575C461.742 142.939 461.397 138.302 461.052 133.665L460.953 133.764ZM801.812 822.019C778.976 797.801 756.437 773.88 733.848 749.958C727.979 755.334 722.603 760.217 716.882 765.396C736.66 788.726 756.339 811.908 776.265 835.435L757.77 844.362C740.507 820.737 723.49 797.456 706.327 774.028C698.879 779.453 691.825 784.533 684.575 789.811C698.928 811.168 713.133 832.229 727.584 853.734L709.188 858.863C696.463 838.493 683.886 818.419 671.26 798.196L647.683 811.316C650.988 817.678 654.096 823.499 657.104 829.417C660.162 835.287 663.219 841.156 666.178 847.075C669.138 852.895 672.493 858.518 675.058 864.88L657.302 867.939C670.322 895.313 682.997 922.096 695.969 949.322C702.824 946.067 709.138 943.058 715.895 939.852C702.578 914.845 689.606 890.381 676.339 865.522C687.732 863.351 698.436 861.33 709.385 859.209C722.949 879.974 736.066 900.837 749.728 921.651L767.583 910.456C754.217 891.614 741.148 873.068 727.782 854.178C738.139 850.873 747.905 847.765 757.77 844.609C770.001 860.639 781.937 876.225 794.168 892.255C800.185 887.471 805.807 882.982 811.775 878.247C799.79 863.894 788.101 849.837 776.215 835.632C785.339 831.242 793.823 827.148 802.503 822.956C813.699 834.843 824.894 846.68 836.337 858.764L851.873 842.636C840.923 832.13 830.467 822.118 820.011 812.154L848.568 792.277L873.675 815.755L884.03 804.016C875.892 796.667 868.297 789.811 860.701 782.955C872.489 771.709 883.784 760.908 895.325 749.859C901.046 754.397 906.817 758.935 912.884 763.67C916.385 758.392 919.542 753.608 922.847 748.626L905.288 736.789L894.93 748.971C860.701 724.31 826.769 699.895 792.639 675.283L772.91 705.37C802.207 731.116 831.207 756.666 860.603 782.56C856.262 785.766 852.564 788.528 848.568 791.537C820.949 765.692 793.575 740.143 766.054 714.396C758.607 723.028 751.456 731.264 744.009 739.847C769.113 763.768 794.167 787.641 819.616 811.907C813.451 815.409 807.88 818.566 801.863 821.97L801.812 822.019ZM283.495 131.989L323.988 194.481C328.279 192.311 332.127 190.289 335.974 188.316C339.772 186.392 343.617 184.518 347.563 182.545L317.084 126.12L335.776 123.555C322.805 96.131 310.128 69.299 297.502 42.5659C291.978 43.8483 281.128 49.0275 277.429 52.1349C283.939 64.3177 290.499 76.5001 296.96 88.7816C303.421 100.964 310.179 113 316.443 125.626L283.544 131.594C269.98 110.583 256.614 89.8666 243.15 69.003C236.837 73.1461 231.116 76.8948 225.247 80.89C238.465 99.8301 251.288 118.178 264.309 136.822L231.166 148.709C250.599 171.842 269.487 194.284 288.476 216.825L310.128 202.472C295.036 180.769 280.044 159.215 264.656 137.168L283.495 132.038V131.989ZM818.089 621.57C832.393 628.672 846.252 635.577 860.111 642.433C873.971 649.339 887.879 656.195 901.738 663.149C915.499 670.055 929.555 676.467 943.266 683.964L934.683 699.451L944.056 706.553C947.262 700.487 950.22 694.914 953.277 689.044L944.006 684.062C951.059 670.301 957.963 656.885 964.868 643.42L969.603 644.604L975.67 626.65C974.535 626.206 973.796 625.861 973.057 625.713C972.317 625.565 971.576 625.565 970.737 625.467C968.567 631.089 966.497 636.416 964.327 642.088C918.704 624.529 873.623 607.168 828.248 589.658C824.795 600.41 821.541 610.669 818.138 621.422L818.089 621.57ZM837.028 545.119L831.357 576.735C877.916 592.617 924.326 608.647 971.034 624.43C977.149 610.127 981.195 595.971 984.45 581.026C935.129 568.992 886.251 557.104 837.028 545.07V545.119ZM147.419 444.056L156.344 403.808C110.475 393.056 65.05 382.402 19.3785 371.699C14.9889 384.473 10.846 396.804 8.37997 410.023C54.8899 421.417 100.909 432.662 147.419 444.056ZM838.459 531.161C888.766 541.321 938.531 551.334 988.197 561.347C990.663 553.307 992.933 522.233 991.552 517.696C978.63 515.279 844.18 500.58 839.889 501.172C839.445 510.889 838.952 520.704 838.459 531.161ZM991.304 454.661C984.991 453.428 840.825 455.746 837.175 457.028C837.964 466.449 838.754 475.869 839.494 485.142C847.632 486.77 989.036 496.289 992.932 495.451C993.228 481.838 992.538 468.225 991.256 454.71L991.304 454.661ZM934.339 699.007C893.6 676.96 853.501 655.208 813.304 633.457C808.273 644.061 803.489 654.074 798.508 664.629C834.118 688.55 869.679 712.423 905.437 736.444C916.683 725.099 925.51 712.473 934.339 699.007ZM145.543 458.113C121.819 453.329 98.4913 448.544 75.113 443.859C51.6361 439.173 28.1586 434.241 4.23775 429.703C2.56083 444.648 0.983994 458.853 0.786708 473.058C9.76318 475.13 139.034 489.335 143.325 488.743L145.593 458.113H145.543ZM828.939 413.18C831.01 422.847 832.884 431.626 834.906 440.85C860.8 439.321 886.4 437.94 911.997 436.313C937.546 434.734 963.092 433.599 988.937 431.577C987.161 417.767 985.042 404.795 981.885 391.33C930.838 398.63 880.085 405.831 828.939 413.13V413.18ZM144.902 535.205L143.127 504.97C95.3349 501.616 47.8882 498.311 0.490492 495.007C-0.791862 502.356 0.636818 532.147 2.51103 537.129C49.8101 536.487 97.2085 535.846 144.902 535.254V535.205ZM965.165 330.761C914.758 344.719 865.338 358.431 815.672 372.193C818.779 381.021 821.639 389.209 824.647 397.791C837.52 395.325 850.197 392.859 862.823 390.442C875.351 388.025 887.879 385.658 900.406 383.29C913.082 380.873 925.806 378.456 938.481 375.99C951.058 373.524 963.735 371.551 976.756 368.345C972.81 355.571 969.06 343.437 965.114 330.761H965.165ZM11.6359 599.572C58.3432 592.913 105.199 586.205 152.3 579.497L146.826 550.791C99.3793 553.603 52.1294 556.365 4.92893 559.127C4.38639 565.243 8.97385 592.617 11.6865 599.572H11.6359ZM218.836 282.819C185.643 261.758 152.842 240.944 119.649 219.883L132.868 208.193L106.729 189.845L95.6796 204.445L119.403 219.784C108.997 229.599 99.0324 239.365 89.6614 250.265C126.751 269.847 163.399 289.182 200.143 308.566L218.785 282.819H218.836ZM809.309 357.05C858.285 340.773 907.065 324.595 956.288 308.269C951.306 296.136 946.472 284.693 940.307 273.644C892.514 293.818 845.265 313.744 797.769 333.77L809.309 357.05V357.05ZM156.493 595.429C109.835 604.356 63.4738 613.284 16.5199 622.26C20.0217 635.282 23.523 647.613 28.3565 660.042C74.1267 647.415 119.6 634.838 165.271 622.063L156.493 595.429ZM909.433 220.376C864.649 246.468 820.21 272.313 775.574 298.306C780.358 305.507 784.797 312.166 789.335 319.022C835.943 296.432 882.107 274.039 928.716 251.449C922.501 240.598 916.387 230.438 909.433 220.376ZM183.324 662.261L171.634 637.994C126.604 652.939 81.7713 667.687 36.7903 682.829C41.7717 694.913 46.6532 706.258 52.6704 717.405C96.3197 698.958 139.576 680.758 183.324 662.311V662.261ZM872.687 171.694C831.257 203.507 790.518 234.729 749.68 266.098L765.117 284.2C808.421 255.74 851.332 227.626 894.636 199.019C887.139 189.647 880.085 180.868 872.687 171.645V171.694ZM192.003 677.65C149.34 698.317 107.023 718.835 64.3601 739.502C70.6239 750.451 76.6912 760.611 83.6455 770.575C124.681 746.702 165.223 723.077 206.012 699.352C201.277 692.003 196.837 685.098 192.003 677.65V677.65ZM737.201 252.929C776.46 219.093 815.327 185.702 854.389 152.014C846.251 143.777 838.754 135.836 830.073 128.684C793.378 165.085 757.03 201.14 720.482 237.392C726.253 242.768 731.529 247.701 737.201 252.929ZM216.861 714.051C177.404 739.995 138.194 765.741 98.3913 791.932C105.888 801.254 112.993 810.132 120.391 819.306C158.122 790.353 195.358 761.795 232.842 732.991C227.417 726.529 222.237 720.413 216.861 714.051ZM277.725 224.667C256.517 201.781 235.653 179.191 214.395 156.206L231.364 148.561L193.188 103.283L177.06 116.107C189.489 129.621 201.572 142.692 213.952 156.206C202.411 161.879 191.511 167.304 180.956 174.111C206.406 197.046 231.412 219.636 256.665 242.374L277.725 224.667ZM706.129 225.456C740.605 186.984 774.735 148.857 809.111 110.484C800.628 103.332 792.196 97.0188 783.268 90.8534C751.456 131.644 720.037 171.99 688.472 212.484C694.588 216.973 700.113 221.067 706.081 225.407L706.129 225.456ZM138.689 838.888C146.531 847.371 154.47 854.967 162.904 862.366C196.59 828.924 229.785 795.976 263.225 762.782L245.813 746.653C209.957 777.529 174.496 808.061 138.689 838.888ZM654.144 191.719C660.162 195.171 665.636 198.329 671.111 201.387C671.456 201.584 672 201.534 672.394 201.583C680.335 191.867 757.621 78.2761 758.805 74.3796C750.273 69.4473 741.641 64.416 732.615 59.1877C706.376 103.529 680.385 147.377 654.195 191.719H654.144ZM209.562 900.245C238.809 862.71 267.663 825.718 296.664 788.479C290.301 783.892 284.335 779.601 278.219 775.162C246.604 810.428 215.332 845.349 183.668 880.664L209.562 900.245ZM678.509 34.0331C658.139 81.5312 638.066 128.24 617.943 175.196C621.494 176.675 624.453 177.909 627.413 179.191C630.323 180.424 633.232 181.657 636.388 182.989C659.717 137.167 682.752 91.8399 706.081 45.9201L678.509 34.0331V34.0331ZM313.582 799.182C286.85 838.197 260.315 876.866 233.435 916.078C242.658 921.454 251.337 926.485 260.412 931.763C284.629 890.825 308.55 850.478 332.619 809.738L313.582 799.133V799.182ZM621.987 15.6356C607.93 65.156 594.12 113.838 580.162 162.865L598.61 168.29C615.576 120.102 632.491 72.2587 649.557 23.7741L621.939 15.6356H621.987ZM370.499 826.458L351.262 818.567C329.758 860.836 308.549 902.613 286.946 945.08C296.367 949.124 305.146 952.922 314.468 956.918C333.161 913.316 351.707 870.208 370.499 826.458V826.458ZM245.765 252.781C218.54 229.698 191.756 206.96 164.876 184.124C153.828 191.374 143.423 199.167 133.263 208.045C165.125 229.451 196.59 250.561 228.057 271.77L245.765 252.781V252.781ZM541.397 154.924L559.596 158.13C570.151 108.215 580.706 58.7441 591.113 8.92777C581.791 7.05349 573.208 5.22856 563.936 4.63668C556.389 54.8969 548.892 104.664 541.346 154.924H541.397ZM607.585 868.925C608.572 875.633 638.067 966.486 640.335 969.791C647.191 967.522 654.146 965.204 661.494 962.787C649.608 931.27 637.966 900.394 626.129 869.024C636.536 867.89 646.303 868.728 656.464 867.593C648.671 850.478 641.222 834.103 633.725 817.629L609.707 827.395C615.034 841.255 620.162 854.72 625.587 868.876H607.585V868.925ZM390.719 833.117C374.936 877.754 359.302 922.096 343.42 967.177C352.841 969.939 361.719 972.503 371.041 975.266C384.111 929.346 396.984 884.067 409.956 838.394L390.719 833.117V833.117ZM431.31 842.734C421.446 889.443 411.68 935.511 401.816 982.171C411.187 983.651 419.868 985.081 429.041 986.511C436.094 939.161 443.247 892.502 450.152 845.447C443.593 844.51 437.771 843.672 431.31 842.734V842.734ZM487.586 991C488.671 942.713 489.707 895.461 490.792 847.815H473.038C471.558 854.03 461.397 986.068 462.186 989.915C470.374 990.26 478.659 990.605 487.586 991V991ZM386.232 122.322C375.283 88.2393 364.529 54.7979 353.629 20.9129C345.984 23.1325 338.883 25.3032 331.584 28.2133C343.569 59.928 355.356 91.1 367.144 122.322H386.181H386.232ZM366.504 122.075L336.121 122.963L361.473 176.429L382.285 168.735L366.504 122.075V122.075ZM165.223 183.827L180.513 174.012L147.419 143.777C142.98 148.66 138.44 152.803 134.248 157.735L165.223 183.827V183.827ZM71.5127 240.796L62.8814 255.74L78.6146 263.237L89.5145 250.167L71.4621 240.746L71.5127 240.796ZM501.692 847.765L501.446 848.752L513.531 852.648V847.075L501.692 847.765Z" fill="white"/>
</svg>
