<svg width="484" height="124" viewBox="0 0 484 124" fill="none" xmlns="http://www.w3.org/2000/svg">
<path d="M479.415 67.981C479.415 67.981 479.301 67.7987 479.233 67.6847C478.164 66.1805 476.982 64.7219 475.777 63.3544C475.89 63.286 476.004 63.1721 476.118 63.1037L476.186 63.0581C476.186 63.0581 476.3 62.9897 476.345 62.9669C476.914 62.6706 477.459 62.2832 477.937 61.8046V61.759C478.073 61.6678 478.21 61.5995 478.324 61.4855C478.733 61.0525 479.028 60.5511 479.279 60.0269C479.301 59.9813 479.324 59.9357 479.347 59.8901C479.438 59.7078 479.506 59.5254 479.574 59.3431C479.87 58.6138 480.029 57.8161 480.006 56.9728L479.097 35.4122C478.938 32.2214 476.322 29.7144 473.139 29.7144H471.297C470.274 29.7144 469.296 29.9879 468.432 30.4893C467.795 30.74 467.204 31.1046 466.681 31.5605C466.567 31.6288 466.453 31.6972 466.34 31.7884C466.226 31.8568 466.135 31.9251 466.044 31.9707C462.906 30.4437 459.472 29.6004 456.152 29.5776C452.309 29.3725 448.557 30.2386 445.237 31.9479C444.237 32.4038 443.282 32.9507 442.349 33.5661C441.917 33.8168 441.508 34.1359 441.099 34.4322C440.03 35.0703 439.006 35.7769 438.029 36.5974C437.642 36.8481 437.255 37.0988 436.892 37.3951C436.528 37.6458 436.141 37.8965 435.777 38.17C435.3 38.4662 434.868 38.7853 434.413 39.1272C434.368 39.15 434.322 39.1956 434.254 39.2184C434.004 39.3779 433.776 39.5602 433.526 39.7198C433.185 39.9249 432.844 40.1984 432.503 40.4263C431.821 40.8365 431.161 41.2924 430.525 41.7938C428.683 39.0588 426.431 36.6201 423.794 34.5917C419.655 31.3781 414.493 29.6004 409.126 29.5548C405.806 29.6232 402.577 30.3297 399.621 31.6516V8.97426C399.621 5.66951 396.938 2.98013 393.641 2.98013H370.196C368.922 2.98013 367.74 3.39038 366.762 4.07412C366.694 4.1197 366.648 4.14249 366.58 4.18808C366.398 4.30203 366.239 4.43878 366.057 4.55274C366.034 4.55274 366.012 4.57553 365.989 4.59832C365.534 4.82623 365.102 5.12252 364.716 5.46439C364.647 5.50997 364.602 5.55556 364.534 5.60114C364.488 5.64672 364.443 5.66951 364.374 5.7151C364.283 5.78347 364.193 5.82905 364.102 5.89743C364.056 5.92022 364.033 5.94301 363.988 5.98859C363.897 6.03417 363.806 6.10255 363.738 6.14813C363.647 6.19371 363.579 6.26209 363.51 6.30767C363.374 6.39884 363.26 6.49 363.124 6.58117C363.056 6.62675 362.987 6.67233 362.896 6.74071C362.828 6.78629 362.76 6.80908 362.714 6.85466C362.601 6.92304 362.487 7.0142 362.351 7.08258C362.123 7.21932 361.941 7.35607 361.737 7.51561C361.646 7.56119 361.577 7.62957 361.487 7.69794H361.441C361.441 7.69794 361.236 7.83469 361.145 7.90306C360.986 8.01702 360.827 8.13098 360.668 8.24493C360.6 8.29052 360.531 8.3361 360.463 8.38168C360.35 8.45006 360.236 8.54122 360.122 8.63239C360.031 8.70076 359.917 8.74634 359.826 8.81472C359.736 8.88309 359.645 8.92867 359.554 8.99705C359.508 9.01984 359.463 9.04263 359.44 9.08821C359.326 9.15659 359.213 9.24775 359.099 9.31613L359.031 9.36171C358.849 9.47567 358.69 9.58962 358.53 9.72637C358.462 9.77195 358.394 9.81754 358.326 9.86312C358.212 9.93149 358.121 9.99987 358.03 10.0682H357.985C357.848 10.1822 357.734 10.2506 357.598 10.3417L357.507 10.4101C357.348 10.5013 357.189 10.6152 357.052 10.752C356.961 10.7976 356.87 10.8659 356.802 10.9115C356.506 11.0711 356.234 11.2762 355.983 11.4813C355.938 11.5041 355.87 11.5497 355.824 11.5725C355.733 11.6408 355.642 11.7092 355.551 11.7776C355.438 11.846 355.347 11.9143 355.233 11.9827C355.165 12.0283 355.119 12.0739 355.074 12.1195C355.006 12.165 354.937 12.2106 354.869 12.2562C354.756 12.3246 354.665 12.4157 354.574 12.4841C354.437 12.5753 354.301 12.6437 354.187 12.7348L354.096 12.7804C353.982 12.8488 353.869 12.9399 353.732 13.0311L353.664 13.0767C353.528 13.1679 353.391 13.2362 353.277 13.3502C353.232 13.373 353.186 13.4186 353.141 13.4642C353.073 13.5097 352.982 13.5553 352.914 13.6237C352.868 13.6465 352.8 13.6921 352.754 13.7376C352.3 13.9656 351.89 14.2618 351.526 14.6037C351.481 14.6265 351.458 14.6721 351.413 14.6949C351.345 14.7405 351.299 14.786 351.231 14.8316C351.14 14.8772 351.049 14.9456 350.981 15.014C350.89 15.0823 350.822 15.1279 350.731 15.1963L350.662 15.2419C350.549 15.3102 350.435 15.4014 350.321 15.4698L350.23 15.5382C350.117 15.6065 350.003 15.6977 349.889 15.7661C349.844 15.7889 349.821 15.8117 349.776 15.8344C349.662 15.9028 349.548 15.9712 349.434 16.0624C349.412 16.0624 349.389 16.1079 349.343 16.1307C349.071 16.2903 348.843 16.4498 348.593 16.6321C348.502 16.6777 348.434 16.7461 348.366 16.8145C348.343 16.8145 348.32 16.8601 348.275 16.8829C348.161 16.9512 348.047 17.0424 347.934 17.1108C347.888 17.1336 347.865 17.1563 347.82 17.2019C347.729 17.2703 347.638 17.3159 347.547 17.3843C347.456 17.4526 347.365 17.521 347.251 17.6122C347.115 17.7033 346.979 17.7717 346.865 17.8629L346.774 17.9085C346.66 17.9768 346.546 18.068 346.433 18.1592C346.387 18.2047 346.342 18.2503 346.274 18.2731C346.205 18.3187 346.137 18.3643 346.046 18.4099C345.978 18.4555 345.91 18.5238 345.819 18.5694C345.773 18.5922 345.751 18.615 345.705 18.6606C345.614 18.7289 345.5 18.7745 345.409 18.8429C343.59 19.8685 342.362 21.8058 342.362 24.0393V26.6148C342.362 27.6404 342.681 28.5976 343.158 29.4637C342.499 29.4637 341.817 29.4637 341.157 29.4637H341.134C336.041 29.4637 331.038 30.3981 326.376 32.1986C323.829 33.1103 321.442 34.4094 319.281 36.0048C319.19 36.0504 319.122 36.0959 319.031 36.1643C318.918 36.2555 318.781 36.3467 318.667 36.415C318.531 36.5062 318.395 36.5974 318.258 36.7113C318.144 36.8025 318.008 36.8709 317.894 36.962C317.758 37.0532 317.644 37.1443 317.508 37.2583C317.349 37.3723 317.167 37.4862 317.007 37.6002C316.939 37.6458 316.871 37.7141 316.78 37.7597H316.735C316.735 37.7597 316.53 37.8965 316.439 37.9648C316.052 38.2155 315.666 38.4435 315.279 38.717C315.12 38.8309 314.984 38.9677 314.824 39.0816C314.665 39.1956 314.483 39.2867 314.347 39.4007C314.233 39.4919 314.097 39.5602 313.983 39.6514C313.778 39.7881 313.551 39.9477 313.346 40.0844C313.142 40.2212 312.937 40.4035 312.732 40.5631C312.596 40.6542 312.482 40.7682 312.346 40.8593C312.187 40.9733 312.027 41.0645 311.868 41.1784C311.755 41.2696 311.618 41.338 311.482 41.4291C311.3 41.5431 311.141 41.657 310.959 41.7938C310.845 41.8622 310.754 41.9761 310.64 42.0445C310.481 42.1584 310.322 42.2496 310.163 42.3408C310.095 42.3864 310.004 42.4547 309.935 42.5003C309.89 42.5231 309.844 42.5687 309.799 42.5915C309.685 42.6826 309.572 42.751 309.458 42.8422C309.299 42.9561 309.162 43.0473 309.003 43.1613C308.98 43.1613 308.958 43.2068 308.935 43.2296C308.685 43.412 308.412 43.5487 308.139 43.731C307.639 44.0729 307.138 44.392 306.638 44.7567C306.388 44.939 306.138 45.1213 305.888 45.3264C305.774 45.4176 305.638 45.5088 305.524 45.5999C305.433 45.6683 305.342 45.7139 305.251 45.7823C305.137 45.8734 305.001 45.9646 304.887 46.0558C304.592 46.2609 304.319 46.4432 304.023 46.6483C303.887 46.7395 303.75 46.8307 303.614 46.9446C303.227 47.1953 302.818 47.446 302.431 47.7195C302.318 47.8107 302.181 47.8791 302.067 47.9474C301.908 48.0614 301.726 48.1754 301.567 48.2893C301.249 48.4944 300.953 48.7451 300.658 48.9731C300.612 49.0186 300.567 49.0414 300.521 49.087C300.43 49.1554 300.316 49.2238 300.226 49.2921C300.112 49.3833 299.975 49.4517 299.862 49.52C299.771 49.5884 299.68 49.6568 299.589 49.7024L299.498 49.7708C299.384 49.8619 299.27 49.9303 299.157 50.0215C299.02 50.1126 298.884 50.2038 298.77 50.295L298.588 50.4317C298.588 50.4317 298.497 50.4773 298.452 50.5229C296.246 52.0271 294.245 53.8276 292.539 55.9244C289.538 59.571 287.832 64.1977 287.764 68.9611C287.764 70.2374 287.946 71.5137 288.264 72.7216C288.242 72.7216 288.219 72.7444 288.196 72.7672L288.128 72.8128C287.81 72.9723 287.537 73.1775 287.241 73.4054C287.082 73.5193 286.923 73.6105 286.764 73.7472C286.718 73.77 286.673 73.8156 286.627 73.8384C286.559 73.884 286.491 73.9296 286.422 73.9752C286.331 74.0435 286.241 74.0891 286.15 74.1575C285.74 74.3626 285.376 74.6361 285.035 74.9552C284.762 75.1147 284.49 75.2743 284.239 75.4794C284.171 75.525 284.08 75.5933 284.012 75.6389C283.944 75.6845 283.876 75.7301 283.807 75.7757L283.716 75.844C283.262 76.072 282.852 76.3682 282.488 76.7101H282.443C282.034 76.938 281.647 77.2115 281.283 77.5078C281.124 77.6218 280.965 77.7357 280.806 77.8725C280.738 77.9181 280.647 77.9864 280.578 78.032C280.51 78.0776 280.442 78.1232 280.374 78.1688C280.124 78.3283 279.873 78.4878 279.669 78.6702C278.577 79.4907 277.759 80.653 277.395 82.0889C276.826 84.5275 276.121 86.9206 275.257 89.2681H273.643C273.643 89.2681 273.438 89.2681 273.347 89.2681C271.892 89.3593 270.414 89.3137 268.958 89.0858C268.64 87.1485 268.526 85.1885 268.663 83.2284C268.663 83.1145 268.663 83.0233 268.663 82.9094V24.6319C268.663 24.5179 268.663 24.404 268.663 24.29C268.64 23.9937 268.663 23.6747 268.663 23.3784C268.799 23.2872 268.913 23.1961 269.027 23.1049C269.186 23.0137 269.322 22.8998 269.481 22.763C269.55 22.7174 269.618 22.6491 269.709 22.6035C269.822 22.5123 269.936 22.4211 270.05 22.33C270.164 22.2616 270.254 22.1932 270.368 22.1021C270.55 22.0109 270.709 21.8742 270.891 21.7602C270.959 21.7146 271.028 21.669 271.096 21.6234C271.141 21.5779 271.187 21.5551 271.255 21.5095C271.346 21.4639 271.437 21.4183 271.505 21.35C271.892 21.1448 272.256 20.8941 272.597 20.5978C272.961 20.4155 273.302 20.1876 273.62 19.9141C273.825 19.7774 274.007 19.6406 274.188 19.4811C274.507 19.2759 274.78 19.048 275.053 18.8201C275.325 18.6834 275.576 18.5238 275.826 18.3415C276.167 18.1592 276.485 17.954 276.781 17.7261C277.008 17.5666 277.213 17.4071 277.417 17.2247C278.145 16.8601 278.805 16.3587 279.328 15.7433C280.442 14.6493 281.147 13.1223 281.147 11.4585V8.97426C281.147 5.66951 278.464 2.98013 275.166 2.98013H231.506C230.21 2.98013 229.004 3.41317 228.027 4.1197C227.958 4.16528 227.913 4.21087 227.845 4.27924C227.549 4.43878 227.276 4.59832 227.026 4.80344C226.685 5.00856 226.389 5.23648 226.094 5.48718C226.026 5.53276 225.98 5.57835 225.912 5.62393C225.866 5.66951 225.821 5.6923 225.753 5.73789C225.684 5.78347 225.594 5.82905 225.525 5.89743C225.48 5.92022 225.434 5.94301 225.389 5.98859C224.98 6.2165 224.593 6.46721 224.252 6.78629H224.206C224.206 6.78629 224.07 6.90024 224.002 6.94583C223.865 7.03699 223.752 7.12816 223.638 7.21932C223.547 7.26491 223.456 7.31049 223.365 7.37886C223.297 7.42445 223.229 7.47003 223.16 7.51561C223.047 7.58399 222.933 7.67515 222.842 7.74352C222.706 7.83469 222.569 7.90306 222.455 8.01702L222.41 8.0626C222.205 8.17656 222.023 8.31331 221.841 8.45006C221.705 8.54122 221.591 8.63239 221.478 8.72355C221.432 8.74634 221.387 8.76913 221.341 8.79193C221.205 8.88309 221.068 8.95146 220.955 9.04263L220.886 9.08821C220.773 9.15659 220.659 9.24775 220.545 9.33892L220.477 9.3845C220.341 9.47567 220.227 9.54404 220.09 9.63521C220 9.68079 219.931 9.77195 219.863 9.81754C219.704 9.9087 219.567 9.99987 219.431 10.1138C219.272 10.205 219.135 10.2962 218.999 10.4101C218.863 10.5013 218.749 10.5697 218.612 10.6608C218.567 10.7064 218.521 10.752 218.453 10.7748C218.385 10.8204 218.294 10.8659 218.226 10.9343C218.18 10.9571 218.135 10.9799 218.089 11.0255C217.703 11.2534 217.339 11.5041 216.998 11.8004C216.884 11.8688 216.77 11.9599 216.657 12.0283C216.611 12.0739 216.566 12.1195 216.498 12.1423C216.429 12.1878 216.361 12.2334 216.293 12.279C216.179 12.3474 216.088 12.4385 215.997 12.5069C215.861 12.5981 215.724 12.6665 215.611 12.7576L215.543 12.8032C215.429 12.8716 215.292 12.9627 215.179 13.0539L215.11 13.0995C214.974 13.1907 214.86 13.259 214.724 13.3502C214.701 13.3502 214.656 13.3958 214.633 13.4186C214.542 13.4869 214.451 13.5325 214.36 13.6009C214.315 13.6237 214.269 13.6693 214.224 13.6921C213.746 13.9428 213.291 14.2618 212.905 14.6265C212.791 14.6949 212.677 14.786 212.586 14.8772C212.427 14.9684 212.291 15.0595 212.154 15.1735C212.018 15.2647 211.904 15.333 211.768 15.4242C211.745 15.4242 211.7 15.4698 211.677 15.4926C211.563 15.561 211.449 15.6521 211.336 15.7205C211.29 15.7433 211.267 15.7889 211.222 15.8117C211.154 15.8572 211.108 15.88 211.04 15.9256C210.926 15.994 210.79 16.0852 210.676 16.1535C210.449 16.2903 210.244 16.4498 210.039 16.6094C209.971 16.6549 209.903 16.7233 209.812 16.7689C209.767 16.7917 209.721 16.8373 209.676 16.8601C209.607 16.9056 209.539 16.9512 209.471 16.9968C209.403 17.0424 209.335 17.088 209.266 17.1336C209.175 17.2019 209.084 17.2475 208.993 17.3159C208.903 17.3615 208.834 17.4298 208.743 17.4982C208.675 17.5438 208.63 17.5894 208.561 17.635C208.516 17.6578 208.47 17.7033 208.425 17.7261C208.357 17.7717 208.289 17.8173 208.22 17.8629C208.107 17.9313 207.97 18.0224 207.856 18.1136C207.811 18.1364 207.788 18.1592 207.766 18.182C207.675 18.2503 207.584 18.2959 207.493 18.3643C207.447 18.4099 207.379 18.4327 207.333 18.4782C207.242 18.5466 207.152 18.5922 207.061 18.6606C206.97 18.7062 206.901 18.7745 206.81 18.8429L206.719 18.9113C205.037 19.9825 203.9 21.8514 203.9 23.971V26.478C203.9 28.5292 204.923 30.3297 206.515 31.4237C206.469 31.4237 206.424 31.4237 206.378 31.4465C205.833 31.287 205.264 31.1958 204.673 31.1958H173.36C171.859 31.1958 170.472 31.7656 169.426 32.6772C168.38 31.7428 166.993 31.1958 165.492 31.1958H165.128C165.492 30.9223 165.879 30.6488 166.22 30.3297C166.243 30.3297 166.265 30.2842 166.288 30.2614C166.311 30.2386 166.356 30.2158 166.402 30.1702C166.993 29.6688 167.584 29.1446 168.085 28.5292C170.95 25.384 172.473 21.3044 172.382 17.2247C172.451 12.9855 170.95 8.90588 168.198 5.85184C165.651 2.86618 162.127 1.04287 158.216 0.746584C155.1 0.495879 152.076 1.2252 149.483 2.8206C149.279 2.93455 149.074 3.0713 148.869 3.20805C148.778 3.25363 148.71 3.32201 148.619 3.36759C148.506 3.45875 148.369 3.52713 148.255 3.61829C148.142 3.70946 148.005 3.80062 147.892 3.89179C147.573 4.09691 147.232 4.30203 146.914 4.52995C146.777 4.62111 146.618 4.73507 146.482 4.82623C146.027 5.09973 145.618 5.39602 145.186 5.73789C145.163 5.73789 145.14 5.76068 145.117 5.78347C144.231 4.3932 142.821 3.43596 141.183 3.11688C140.933 3.0713 140.66 3.02572 140.388 3.00293C140.297 3.00293 140.228 2.95734 140.137 2.95734H106.482C105.164 2.95734 103.913 3.45875 102.912 4.23366C102.753 4.32482 102.594 4.41599 102.435 4.52995C101.957 4.78065 101.525 5.09973 101.139 5.46439C101.025 5.53276 100.934 5.60114 100.843 5.6923C100.752 5.73789 100.684 5.80626 100.593 5.87463C100.57 5.87463 100.525 5.92022 100.502 5.94301C100.434 5.98859 100.365 6.03417 100.32 6.05697C100.206 6.12534 100.093 6.2165 100.002 6.28488C99.9562 6.30767 99.9107 6.35325 99.8652 6.39884C99.7742 6.44442 99.706 6.51279 99.6378 6.55837C99.5696 6.60396 99.4786 6.67233 99.4104 6.71791C99.2967 6.78629 99.1603 6.85466 99.0466 6.94583C98.7964 7.10537 98.5463 7.26491 98.3189 7.47003C98.2279 7.5384 98.137 7.60678 98.0688 7.65236C97.9551 7.72073 97.8414 7.78911 97.7277 7.85748C97.3184 8.0626 96.9545 8.3361 96.6134 8.6096C96.5225 8.67797 96.4315 8.74634 96.3633 8.81472C96.2951 8.8603 96.2268 8.92867 96.1586 8.97426C96.1131 8.99705 96.0677 9.04263 96.0222 9.08821C95.954 9.1338 95.8857 9.15659 95.8403 9.20217C95.7266 9.27054 95.6356 9.33892 95.5219 9.43008C95.4764 9.45287 95.4309 9.49846 95.3855 9.52125C95.2718 9.58962 95.1581 9.68079 95.0671 9.74916L94.9989 9.79474C94.9989 9.79474 94.7715 9.95428 94.6805 10.0227H94.6578C94.5214 10.1366 94.3849 10.2278 94.2485 10.3189C94.203 10.3417 94.1803 10.3645 94.1348 10.4101C93.589 10.6836 93.0887 11.0255 92.6339 11.4585C92.5885 11.5041 92.5203 11.5497 92.4748 11.5953C92.1564 11.7548 91.8835 11.9371 91.6107 12.1423C91.4515 12.2562 91.2923 12.3702 91.1331 12.4841C91.0194 12.5525 90.9285 12.6209 90.8148 12.712H90.7693C90.6328 12.826 90.4964 12.9172 90.3827 13.0083C90.2008 13.1223 90.0189 13.259 89.837 13.3958C89.746 13.4642 89.655 13.5097 89.5868 13.5781C89.4959 13.6465 89.4049 13.7149 89.3139 13.7832C89.223 13.8516 89.132 13.9428 89.0183 14.0111C88.7227 14.1707 88.4271 14.353 88.1542 14.5581C88.0632 14.6265 87.995 14.6949 87.9041 14.7633C87.8586 14.786 87.8131 14.8088 87.7676 14.8544C87.6312 14.9456 87.4948 15.0368 87.3583 15.1279H87.3356C87.1991 15.2419 87.0854 15.3102 86.949 15.4014C86.8808 15.447 86.8353 15.4926 86.7671 15.5382C86.6989 15.5837 86.6079 15.6293 86.5397 15.6977C86.4942 15.7205 86.4487 15.7433 86.426 15.7889C86.335 15.8572 86.2441 15.9028 86.1531 15.9712C85.812 16.1535 85.5164 16.3586 85.2208 16.6094L85.1071 16.6777C84.9934 16.7689 84.8569 16.8373 84.7432 16.9284C84.6978 16.974 84.6523 16.9968 84.5841 17.0424C84.5613 17.0424 84.5158 17.088 84.4931 17.1108C84.3794 17.1791 84.243 17.2703 84.1293 17.3615L84.061 17.4071C83.9246 17.4982 83.8109 17.5666 83.6972 17.6578C83.5153 17.7717 83.3561 17.8857 83.1742 18.0224C83.1287 18.0452 83.106 18.0908 83.0605 18.1136C83.015 18.1364 82.9695 18.1592 82.9468 18.2047C82.8786 18.2503 82.7876 18.2959 82.7194 18.3643C82.4465 18.5238 82.1964 18.7062 81.9462 18.9113C80.8775 19.595 79.9906 20.6206 79.5131 21.8969L76.284 30.6488L67.2791 6.78629C66.3922 4.50715 64.141 2.98013 61.7306 2.98013H28.2349C26.9842 2.98013 25.8472 3.36759 24.8921 4.00575C24.6874 4.14249 24.5055 4.27924 24.3236 4.41599C24.2554 4.46157 24.1872 4.50715 24.1417 4.55274C24.0735 4.59832 24.028 4.6439 23.9825 4.66669C23.8688 4.73507 23.7551 4.82623 23.6187 4.9174C23.505 4.98577 23.414 5.03136 23.3231 5.09973C23.2321 5.14531 23.1639 5.21369 23.0957 5.25927C23.0502 5.28206 23.0274 5.30485 22.982 5.32764C22.8455 5.41881 22.6863 5.50997 22.5499 5.62393C22.3225 5.76068 22.1179 5.89743 21.9132 6.07976C21.8905 6.07976 21.845 6.12534 21.8222 6.14813C21.7313 6.19371 21.6631 6.26209 21.5721 6.30767C21.5039 6.35325 21.4357 6.39884 21.3902 6.44442C21.2992 6.49 21.231 6.55837 21.14 6.60396C21.0491 6.67233 20.9581 6.74071 20.8672 6.80908C20.8217 6.85466 20.7535 6.87745 20.708 6.92304L20.5943 6.99141C20.5943 6.99141 20.3669 7.12816 20.2759 7.19653C20.185 7.26491 20.1168 7.33328 20.0258 7.40165L19.9348 7.47003C19.7984 7.56119 19.6847 7.65236 19.5483 7.74352H19.5255C19.3436 7.85748 19.1844 7.99423 19.0252 8.10819C18.9343 8.17656 18.8433 8.22214 18.7524 8.29052C18.7069 8.3361 18.6387 8.35889 18.5932 8.40447C18.4567 8.49564 18.343 8.5868 18.2066 8.67797C18.1156 8.74634 18.0019 8.79193 17.911 8.8603C17.7973 8.92867 17.6836 9.01984 17.5699 9.111C17.5017 9.15659 17.4107 9.20217 17.3425 9.24775C17.0241 9.40729 16.7513 9.61241 16.4556 9.84033C16.0918 10.0454 15.7735 10.2734 15.4778 10.5469C15.3869 10.6152 15.2959 10.6836 15.205 10.752C14.8411 10.9571 14.5 11.185 14.2044 11.4585C14.1362 11.5041 14.0907 11.5269 14.0452 11.5725C13.9543 11.6408 13.8633 11.7092 13.7723 11.7776L13.6586 11.846C13.6586 11.846 13.454 11.9827 13.363 12.0511C12.9537 12.279 12.5444 12.5525 12.2033 12.8716C12.0669 12.9627 11.9304 13.0539 11.8167 13.1451C11.6803 13.2362 11.5438 13.3274 11.4074 13.4186C11.3847 13.4186 11.3392 13.4641 11.3165 13.4869C11.0436 13.6465 10.7934 13.806 10.5433 14.0111C10.4978 14.0339 10.4751 14.0795 10.4296 14.1023C10.2477 14.2163 10.0885 14.3302 9.92932 14.4442H9.88384C9.74741 14.5581 9.63371 14.6493 9.49727 14.7405C9.45179 14.7633 9.40631 14.8088 9.36083 14.8544C9.29261 14.9 9.22439 14.9456 9.17891 14.9912C9.04247 15.0823 8.92877 15.1735 8.81507 15.2647C8.72412 15.333 8.61042 15.4014 8.51946 15.4698C8.49672 15.4698 8.45124 15.5154 8.4285 15.5382C8.29206 15.6293 8.17836 15.6977 8.04192 15.7889C7.95096 15.8572 7.88274 15.9256 7.79178 15.9712C7.79178 15.9712 7.7463 15.994 7.72356 16.0168C7.63261 16.0624 7.54165 16.1307 7.47343 16.1763C7.40521 16.2219 7.33699 16.2675 7.29151 16.2903C7.15507 16.3814 7.04137 16.4726 6.90493 16.5638C6.70027 16.7005 6.49562 16.8373 6.3137 16.9968C6.24548 17.0424 6.17726 17.0652 6.13178 17.1108C5.65424 17.3615 5.22219 17.635 4.83561 17.9996C4.76739 18.0452 4.67643 18.1136 4.60821 18.182C4.56273 18.2275 4.51725 18.2731 4.44903 18.2959C4.38082 18.3415 4.33534 18.3643 4.26712 18.4099C4.15342 18.4782 4.03972 18.5466 3.94876 18.6378C3.90328 18.6834 3.8578 18.7062 3.78958 18.7517C3.65314 18.8429 3.53944 18.9341 3.42574 19.0252C3.42574 19.0252 3.403 19.048 3.38026 19.0708C1.78848 20.1192 0.719709 21.9197 0.651489 24.0621V26.5692C0.651489 29.8739 3.33478 32.5633 6.63205 32.5633H9.22439C9.22439 32.5633 9.38357 32.5633 9.47453 32.5633C10.2477 32.5177 11.0436 32.7 11.8849 33.1787H11.9304C12.2488 35.1843 12.317 37.1899 12.1578 39.1956C12.1578 39.3095 12.1578 39.4463 12.1578 39.5602V101.849C12.1578 101.849 12.0669 101.917 12.0441 101.94C11.8622 102.054 11.703 102.191 11.5211 102.328C11.4756 102.35 11.4302 102.396 11.3847 102.442C11.2255 102.533 11.0891 102.601 10.9299 102.692C10.7707 102.783 10.6343 102.897 10.4978 103.011C10.4296 103.057 10.3841 103.102 10.3159 103.148C10.2249 103.216 10.134 103.262 10.043 103.33C9.74741 103.513 9.45179 103.718 9.20165 103.946C9.15617 103.969 9.13343 103.991 9.08795 104.014C8.97425 104.083 8.88329 104.151 8.76959 104.219C8.72412 104.242 8.67864 104.288 8.63316 104.31C8.47398 104.424 8.3148 104.538 8.15562 104.652C7.81452 104.857 7.47343 105.085 7.17781 105.359C7.15507 105.359 7.13233 105.404 7.10959 105.427C6.76849 105.61 6.45014 105.815 6.15452 106.043C6.10904 106.065 6.06356 106.088 6.01808 106.134C5.90438 106.202 5.79068 106.27 5.69972 106.362C5.58602 106.43 5.47232 106.544 5.38137 106.612C5.24493 106.704 5.13123 106.795 5.01753 106.886C4.81287 107 4.60821 107.114 4.42629 107.251C4.01698 107.478 3.65314 107.729 3.31205 108.025C1.72026 109.097 0.674229 110.92 0.674229 112.994V115.478C0.674229 118.737 3.33478 121.45 6.65479 121.495H34.7612C36.1256 121.495 37.3535 120.971 38.3541 120.196C38.7406 120.014 39.0817 119.809 39.4228 119.558C39.5365 119.467 39.6502 119.376 39.7639 119.284C40.1505 119.056 40.5371 118.783 40.8554 118.464C41.2193 118.259 41.5831 118.008 41.9015 117.735C42.2426 117.552 42.5609 117.347 42.8565 117.096C43.2659 116.868 43.6524 116.618 44.0163 116.299C44.0845 116.23 44.1527 116.139 44.2209 116.071C44.3801 115.98 44.5393 115.888 44.6757 115.797C45.2897 115.501 45.8809 115.091 46.3585 114.612C46.4722 114.521 46.5631 114.43 46.6768 114.339C46.7678 114.293 46.8587 114.247 46.9497 114.179C47.1544 114.088 47.3363 113.974 47.5182 113.86L48.9963 117.712C49.8831 119.968 52.0434 121.472 54.5675 121.518H56.0684C57.501 121.518 58.8199 120.971 59.8659 120.082C60.0251 119.991 60.1615 119.854 60.298 119.74C60.3662 119.695 60.4344 119.649 60.5026 119.581C60.5481 119.558 60.5936 119.512 60.6618 119.489C61.0029 119.307 61.344 119.079 61.6396 118.829C61.958 118.669 62.2536 118.464 62.5265 118.236C62.7084 118.122 62.8676 118.031 63.0267 117.894C63.1404 117.803 63.2541 117.712 63.3678 117.621C63.5043 117.529 63.618 117.415 63.7544 117.324C63.8226 117.279 63.8909 117.233 63.9591 117.165C64.5048 116.914 64.9824 116.572 65.4372 116.185C65.6873 116.048 65.9374 115.888 66.1648 115.706C66.3013 115.615 66.4377 115.501 66.5741 115.41C66.6651 115.341 66.7561 115.273 66.847 115.205C66.9835 115.136 67.0972 115.068 67.2109 115C67.7794 114.726 68.2796 114.361 68.7117 113.906C68.8026 113.837 68.9163 113.769 69.0073 113.7L69.0983 113.632C69.0983 113.632 69.2347 113.541 69.3029 113.473C69.3711 113.427 69.4394 113.381 69.5076 113.336H69.5303C69.5303 113.336 69.735 113.222 69.8259 113.176V115.569C69.8259 118.829 72.4865 121.541 75.8065 121.586H118.739C118.967 121.586 119.217 121.563 119.444 121.518C119.717 121.563 119.967 121.586 120.263 121.586H150.507C150.78 121.609 151.03 121.609 151.303 121.586C151.575 121.586 151.871 121.586 152.144 121.586H173.951C174.611 121.586 175.225 121.472 175.816 121.29C176.316 121.427 176.839 121.518 177.408 121.518H208.88C209.084 121.518 209.266 121.518 209.471 121.472C209.676 121.495 209.858 121.518 210.062 121.518H282.875C284.08 121.518 285.217 121.13 286.15 120.492C286.218 120.447 286.286 120.401 286.354 120.356C286.468 120.287 286.582 120.196 286.695 120.128C287.241 119.854 287.764 119.535 288.219 119.125C288.355 119.011 288.515 118.92 288.628 118.806C288.992 118.601 289.31 118.373 289.606 118.099L289.72 118.031C289.902 117.94 290.061 117.803 290.22 117.689C290.607 117.484 290.97 117.233 291.289 116.96C291.357 116.914 291.425 116.891 291.493 116.846C294.609 120.378 299.066 122.407 303.682 122.407C307.616 122.407 311.686 121.267 315.893 118.92C316.78 118.441 317.644 117.917 318.554 117.324C319.054 117.005 319.577 116.663 320.1 116.299C320.6 116.96 321.123 117.575 321.715 118.168C321.783 118.236 321.851 118.304 321.942 118.373C325.171 121.153 329.31 122.589 333.539 122.407H333.608C336.495 122.407 339.315 121.723 341.953 120.401C342.908 119.945 343.863 119.398 344.773 118.76C344.932 118.623 345.091 118.487 345.25 118.35C345.387 118.259 345.523 118.213 345.66 118.122C345.864 117.962 346.023 117.78 346.228 117.621C346.774 117.324 347.297 117.028 347.82 116.663C348.025 116.504 348.206 116.321 348.411 116.162C348.479 116.116 348.57 116.071 348.661 116.025C348.707 115.98 348.752 115.934 348.798 115.911C348.798 115.911 348.843 115.888 348.866 115.866C349.002 115.774 349.116 115.638 349.253 115.547V117.347C349.253 120.652 351.936 123.341 355.233 123.341H357.234C358.166 123.341 359.076 123.136 359.917 122.726C360.509 122.544 361.077 122.247 361.577 121.883L364.693 119.626H364.716L366.444 118.35C367.945 119.444 369.559 120.401 371.31 121.222C374.653 122.68 378.314 123.41 381.793 123.318C385.886 123.41 389.957 122.612 393.754 121.016C396.005 120.128 398.189 118.942 400.235 117.484C400.394 117.37 400.553 117.233 400.713 117.096C401.122 116.846 401.531 116.595 401.941 116.299C401.986 116.253 402.054 116.208 402.1 116.162C402.532 115.888 402.941 115.638 403.373 115.341C403.692 115.091 404.01 114.817 404.328 114.567C404.51 114.43 404.715 114.316 404.897 114.202C404.988 114.133 405.079 114.042 405.192 113.974C405.374 113.86 405.556 113.746 405.738 113.632C405.875 113.541 405.988 113.427 406.125 113.313C406.238 113.222 406.375 113.153 406.489 113.062H406.511C406.739 112.88 406.989 112.743 407.216 112.584C407.353 112.493 407.466 112.379 407.58 112.287C407.967 112.037 408.353 111.809 408.74 111.535C408.876 111.421 409.013 111.307 409.149 111.216C409.286 111.125 409.445 111.034 409.581 110.943C409.649 110.874 409.718 110.829 409.809 110.76C410.081 110.578 410.377 110.396 410.65 110.213C410.809 110.099 410.946 109.963 411.105 109.849C411.4 109.666 411.696 109.484 411.992 109.279L412.355 117.712C412.446 120.971 415.084 123.524 418.313 123.524H420.314C421.906 123.524 423.407 122.84 424.498 121.746C424.567 121.7 424.612 121.677 424.658 121.632C424.953 121.495 425.249 121.336 425.522 121.153C429.069 122.589 432.798 123.455 436.642 123.706C436.801 123.706 436.96 123.706 437.142 123.706C442.417 123.706 447.352 121.883 451.354 118.829C452.286 118.236 453.196 117.598 454.037 116.891C454.151 116.823 454.288 116.754 454.424 116.686C454.811 116.435 455.174 116.116 455.538 115.843C455.652 115.774 455.766 115.706 455.857 115.638C456.198 115.41 456.516 115.182 456.857 114.931C456.971 114.84 457.085 114.772 457.198 114.68C457.244 114.658 457.289 114.612 457.335 114.567C457.608 114.407 457.858 114.225 458.108 114.042C458.176 113.997 458.267 113.974 458.335 113.928C459.063 113.473 459.722 112.926 460.382 112.401C460.45 112.356 460.518 112.333 460.587 112.287C460.655 112.242 460.7 112.196 460.768 112.151C460.996 112.014 461.223 111.854 461.428 111.718C461.473 111.672 461.519 111.649 461.587 111.604C461.792 111.467 461.996 111.307 462.201 111.171C462.337 111.102 462.474 111.034 462.588 110.966H462.633C463.042 110.669 463.429 110.373 463.816 110.077C464.475 109.689 465.134 109.279 465.748 108.823C465.839 108.778 465.908 108.732 465.999 108.686C466.863 108.139 467.659 107.501 468.432 106.863C468.682 106.704 468.909 106.567 469.159 106.407H469.182C469.319 106.293 469.432 106.202 469.569 106.111C469.66 106.043 469.773 105.997 469.887 105.951C470.365 105.655 470.774 105.268 471.229 104.949C471.274 104.926 471.342 104.903 471.388 104.857C475.299 102.35 478.369 98.7721 480.234 94.6013C482.121 90.6128 483.122 86.1685 483.144 81.747C483.167 76.9152 481.871 72.1746 479.37 68.0494L479.415 67.981ZM215.656 63.6051L214.974 62.1692L215.656 61.0069V63.5823V63.6051Z" fill="black"/>
<path d="M307.566 66.9102H305.087C304.427 66.9102 303.882 67.3432 303.7 67.9814C302.426 73.5197 300.448 78.8756 297.833 83.9353C296.196 87.0349 293.785 89.6332 290.829 91.502C287.714 93.143 284.212 93.9407 280.687 93.7812H273.865C271.591 93.9407 269.294 93.7812 267.043 93.3026C266.088 92.9379 265.338 92.1858 264.974 91.2285C264.36 88.4936 264.155 85.6675 264.36 82.8641V24.6323C264.155 21.9657 264.36 19.2763 264.928 16.6553C265.27 15.6069 265.929 14.718 266.839 14.1027C268.339 13.2366 270.068 12.8264 271.796 12.9175H275.366C276.162 12.9175 276.799 12.2566 276.799 11.4589V8.97462C276.799 8.17692 276.162 7.53877 275.366 7.53877H231.706C230.91 7.53877 230.273 8.17692 230.25 8.97462V11.4589C230.25 12.2566 230.91 12.9175 231.706 12.9175H234.412C236.049 12.8264 237.663 13.191 239.096 13.9887C240.028 14.5129 240.779 15.3106 241.234 16.2678C241.779 18.98 241.984 21.7606 241.802 24.5411V84.7102C242.007 87.3996 241.802 90.089 241.211 92.71C240.915 93.7356 240.256 94.6472 239.369 95.2398C237.868 96.1059 236.14 96.5161 234.412 96.425H231.706C231.455 96.425 231.228 96.4933 231.023 96.6073C230.864 96.5845 230.728 96.5845 230.569 96.6073C229.272 96.6301 228.022 96.1743 227.044 95.331C225.202 93.5305 222.496 89.0406 219.29 81.9981L209.83 61.8961L215.378 52.4149C217.107 49.0646 219.403 46.0789 222.2 43.5719C223.929 42.2044 226.066 41.4067 228.272 41.2927C229.045 41.2699 229.659 40.6318 229.659 39.8569V37.2815C229.659 36.4838 229.022 35.8456 228.226 35.8456H208.284C207.488 35.8456 206.851 36.4838 206.851 37.2815V39.7885C206.851 40.5178 207.397 41.1104 208.102 41.2016C209.17 41.2244 210.194 41.5662 211.081 42.1588C211.467 42.5007 211.695 42.9793 211.672 43.5035C211.672 44.4379 211.081 46.945 207.124 53.1214L206.214 54.5573L202.94 47.7199C201.735 45.2128 201.393 44.4607 201.325 44.2556C201.166 43.7314 201.075 43.1616 201.075 42.6146C201.075 42.4779 201.075 42.3639 201.075 42.2272L203.531 41.2699H204.918C205.691 41.2244 206.305 40.609 206.305 39.8341V37.2815C206.305 36.4838 205.646 35.8456 204.85 35.8456H173.537C172.741 35.8456 172.105 36.4838 172.105 37.2815V39.7885C172.105 40.5406 172.673 41.156 173.424 41.2244C175.084 41.3839 176.653 42.136 177.812 43.3212C178.813 44.2556 180.791 47.0362 184.634 54.9903L194.026 74.3858L189.773 81.4967C185.544 88.448 182.338 92.8923 180.223 94.351C178.313 95.8324 175.948 96.6301 173.537 96.6301C173.355 96.5845 173.196 96.5845 173.014 96.6301C172.855 96.6073 172.719 96.6073 172.559 96.6301C170.945 96.7213 169.376 96.1743 168.193 95.0803C167.852 94.6472 167.079 93.0063 167.079 87.4224V37.2815C167.079 36.4838 166.442 35.8456 165.647 35.8456H141.974C141.179 35.8456 140.542 36.4838 140.519 37.2815V39.7885C140.519 40.5406 141.11 41.156 141.861 41.2244C143.452 41.1332 145.022 41.703 146.204 42.7742C146.522 43.2072 147.296 44.8482 147.296 50.4321V87.4224C147.296 93.143 146.613 94.4877 146.409 94.7612C145.249 96.0375 143.589 96.7441 141.861 96.6301C141.611 96.6301 141.36 96.7441 141.133 96.8808C140.883 96.6757 140.565 96.5617 140.246 96.5617H137.631C135.994 96.6529 134.334 96.2654 132.901 95.4677C131.969 94.9663 131.218 94.1686 130.764 93.1886C130.172 90.4308 129.991 87.6047 130.195 84.8014V24.4955C130.013 21.8517 130.195 19.2079 130.741 16.6097C131.082 15.5841 131.719 14.718 132.606 14.1027C134.129 13.2366 135.88 12.8264 137.631 12.9175H140.292C141.088 12.9175 141.724 12.2566 141.724 11.4589V8.97462C141.656 8.22251 141.042 7.65272 140.292 7.65272H106.955C106.341 7.65272 105.795 8.01739 105.591 8.58717L84.7156 65.2008L63.0446 8.45042C62.8172 7.90343 62.2942 7.53877 61.7029 7.53877H28.23C27.4341 7.53877 26.7974 8.17692 26.7974 8.97462V11.4589C26.7974 12.2566 27.4341 12.8947 28.23 12.9175H30.845C32.4823 12.8264 34.1196 13.191 35.5522 13.9887C36.4845 14.5129 37.2349 15.3106 37.7125 16.2678C38.281 18.9572 38.4629 21.6922 38.281 24.4271V88.9038C38.0081 90.4536 37.4623 91.9579 36.621 93.3026C35.8705 94.3282 34.8472 95.1031 33.6648 95.5817C32.2322 96.1971 30.6859 96.4933 29.1168 96.425H28.2527C27.4568 96.425 26.8201 97.0631 26.8201 97.8608V100.368C26.8201 101.166 27.4568 101.804 28.2527 101.804H56.2681C57.064 101.804 57.7007 101.166 57.7007 100.368V97.8608C57.7007 97.0631 57.064 96.425 56.2681 96.425C53.6985 96.6529 51.1062 96.0147 48.9232 94.6245C47.4678 93.4621 46.4445 91.8667 46.0125 90.0662C45.7396 87.3996 45.6487 84.7102 45.7396 82.0436V25.3388L74.8693 101.097C75.0739 101.644 75.597 102.009 76.1882 102.009H77.6435C78.2348 102.009 78.7805 101.644 78.9852 101.074L107.615 24.9058V84.8014C107.796 87.468 107.615 90.1574 107.069 92.7784C106.728 93.804 106.068 94.6928 105.181 95.331C103.658 96.1971 101.93 96.6301 100.179 96.5389H97.5181C96.7222 96.5389 96.0855 97.1771 96.0855 97.9748V100.482C96.0855 101.28 96.7222 101.918 97.5181 101.918H140.292C140.587 101.918 140.883 101.827 141.133 101.644C141.383 101.827 141.679 101.918 141.974 101.918H172.468C172.65 101.94 172.832 101.94 173.014 101.918C173.196 101.963 173.355 101.963 173.537 101.918H195.663C196.459 101.918 197.096 101.28 197.096 100.482V98.0204C197.096 97.2227 196.459 96.6073 195.663 96.5845C194.64 96.6529 193.616 96.5389 192.639 96.2426C192.229 96.0147 191.911 95.6957 191.684 95.2854C191.411 94.6928 191.274 94.0319 191.297 93.3709C191.32 92.7784 191.433 92.1858 191.661 91.6388C192.593 89.8155 193.639 88.015 194.776 86.3056L197.55 81.7473L201.303 89.7015C202.235 91.3425 202.849 93.143 203.099 95.0119C203.144 95.3538 203.008 95.7184 202.735 95.9464C201.53 96.4478 200.256 96.6985 198.96 96.6757C198.233 96.7668 197.664 97.3822 197.664 98.1115V100.55C197.664 101.348 198.301 101.986 199.097 101.986H230.569C230.773 101.986 230.978 101.94 231.16 101.849C231.342 101.94 231.569 101.986 231.774 101.986H304.541C305.269 101.986 305.883 101.416 305.974 100.687L309.044 68.574C309.18 67.7991 308.68 67.0697 307.907 66.933C307.793 66.933 307.679 66.9102 307.566 66.933V66.9102ZM157.187 29.0994C160.143 29.0994 162.94 27.8231 164.873 25.5895C166.943 23.3104 168.057 20.3475 167.989 17.2707C168.034 14.1938 166.943 11.2082 164.896 8.92904C161.28 4.66706 154.913 4.16565 150.661 7.78947C150.252 8.13134 149.865 8.51879 149.524 8.92904C147.477 11.231 146.386 14.1938 146.454 17.2707C146.386 20.3475 147.5 23.3104 149.547 25.5895C151.457 27.8458 154.254 29.1222 157.187 29.0994ZM420.969 38.2159C417.581 35.5949 413.442 34.159 409.167 34.1135C403.846 34.2274 398.775 36.4154 395.023 40.2215V8.97462C395.023 8.17692 394.386 7.53877 393.59 7.53877H370.236C369.441 7.53877 368.804 8.17692 368.804 8.97462V11.4589C368.804 12.2338 369.418 12.8719 370.191 12.9175C371.442 12.8491 372.692 13.1226 373.807 13.6924C374.489 14.2166 374.966 14.946 375.171 15.7664C375.512 17.8405 375.626 19.96 375.512 22.0568V102.282C375.512 103.08 376.149 103.718 376.945 103.718H379.014C379.31 103.718 379.605 103.627 379.855 103.445L388.201 97.3594C390.111 99.2511 392.339 100.778 394.773 101.918C397.524 103.126 400.526 103.718 403.527 103.673C408.871 103.741 414.101 102.1 418.445 98.9776C423.038 95.5133 426.608 90.8639 428.769 85.5307C431.361 79.4682 432.68 72.9271 432.634 66.3176C432.748 60.597 431.725 54.8992 429.633 49.566C427.882 45.0533 424.903 41.0876 421.06 38.1475L420.969 38.2159V38.2159ZM410.304 87.6275C409.895 90.2257 408.78 92.6644 407.052 94.6472C404.369 96.858 400.435 96.6757 397.956 94.237C396.546 92.6416 395.66 90.6588 395.409 88.562C395.091 85.0065 394.977 81.4283 395.068 77.85V50.2041C397.865 46.4892 400.73 44.6203 403.596 44.6203C405.779 44.6203 407.757 45.8738 408.712 47.8338C410.736 51.1842 411.782 57.6341 411.782 67.0014C412.032 73.8843 411.577 80.7673 410.395 87.5591L410.304 87.6275V87.6275ZM475.431 70.3973C472.133 65.7706 468.063 61.7821 463.379 58.5914C456.17 53.167 453.691 50.6144 452.85 49.4748C452.259 48.6999 451.94 47.7655 451.918 46.8082C451.918 45.5775 452.418 44.3696 453.282 43.5035C454.101 42.5918 455.26 42.0904 456.466 42.0904C459.035 42.2956 461.468 43.4123 463.288 45.2584C466.585 48.8367 469.064 53.1214 470.542 57.7709C470.746 58.3407 471.269 58.7053 471.861 58.7053H473.93C474.748 58.6825 475.385 58.0216 475.362 57.2011L474.453 35.6633C474.407 34.8884 473.793 34.2958 473.02 34.2958H471.292C470.792 34.2958 470.314 34.5465 470.064 34.9795C469.587 35.8912 468.995 36.7117 468.29 37.4638C468.04 37.6233 467.722 37.6917 467.426 37.6689C466.721 37.5777 466.039 37.2815 465.471 36.8484C462.56 35.1163 459.263 34.1818 455.874 34.159C450.417 33.84 445.141 36.2103 441.73 40.5178C438.615 44.5291 436.909 49.4976 436.932 54.5801C436.932 59.2751 438.41 63.8562 441.185 67.6395C444.777 71.8787 448.916 75.6621 453.441 78.8756C456.306 80.8585 458.922 83.1376 461.264 85.713C462.287 87.0577 462.833 88.7215 462.787 90.4308C462.833 91.8667 462.31 93.2342 461.332 94.2826C460.377 95.3082 459.035 95.878 457.625 95.8096C454.556 95.5133 451.69 94.0547 449.644 91.73C446.233 88.1745 443.8 83.7986 442.572 79.0124C442.39 78.397 441.844 77.9868 441.207 77.9868H439.138C438.751 77.9868 438.388 78.1463 438.115 78.4426C437.842 78.7161 437.705 79.1036 437.705 79.491L438.683 102.282C438.729 103.057 439.343 103.65 440.116 103.65H442.117C442.708 103.65 443.231 103.285 443.436 102.738C443.731 102.009 444.505 100.277 445.437 100.277C446.096 100.413 446.733 100.619 447.347 100.915C450.917 102.601 454.783 103.604 458.717 103.855C462.333 103.878 465.903 102.875 468.973 100.938C472.133 98.9092 474.612 95.9919 476.158 92.5732C477.773 89.1545 478.614 85.4168 478.637 81.6334C478.66 77.6449 477.591 73.7248 475.522 70.3289L475.431 70.3973V70.3973ZM367.826 89.1317C367.508 88.8582 367.098 88.7215 366.689 88.7671C366.28 88.8355 365.916 89.0634 365.666 89.4052C364.551 91.1374 363.869 91.2513 363.665 91.2513C363.505 91.2513 363.346 91.183 363.233 91.0918C363.005 90.8183 362.846 90.4764 362.755 90.1346C362.505 88.4708 362.437 86.7614 362.505 85.0749V60.5742C362.71 56.0615 362.414 51.5716 361.595 47.1273C360.345 43.5719 358.071 40.4495 355.069 38.1931C351.135 35.253 346.314 33.7944 341.425 34.0451C336.854 34.0451 332.306 34.8656 328.031 36.5066C324.029 37.9424 320.504 40.4495 317.821 43.7542C315.456 46.6031 314.115 50.1814 314.069 53.8963C314.069 56.5629 315.138 59.0928 317.048 60.9389C319.004 62.8989 321.664 63.9701 324.438 63.9245C327.008 63.9929 329.487 62.9901 331.26 61.144C332.966 59.3663 333.898 56.9732 333.853 54.5117C333.739 52.1186 332.829 49.8167 331.238 48.0162C330.51 47.3096 330.032 46.398 329.873 45.3952C329.873 44.6886 330.283 44.0505 330.874 43.7086C332.488 42.5463 334.467 41.9537 336.468 42.0448C337.719 42.0448 338.946 42.4095 339.97 43.1616C340.925 43.7998 341.652 44.6886 342.085 45.737C342.676 48.5176 342.88 51.3893 342.699 54.2382V59.7081C330.442 66.0441 322.642 71.1038 318.89 74.9327C315.115 78.6022 312.955 83.639 312.909 88.9266C312.818 92.596 314.183 96.1287 316.661 98.8181C318.958 101.439 322.278 102.921 325.757 102.852C331.056 102.852 336.968 99.8893 343.358 94.0775C343.881 96.311 345.018 98.3394 346.632 99.9348C348.997 101.963 352.045 103.012 355.16 102.852C358.071 102.875 360.936 101.986 363.324 100.322C366.052 98.2483 368.304 95.6273 369.986 92.6416C370.35 92.049 370.236 91.2741 369.713 90.8183L367.826 89.1317V89.1317ZM342.812 85.5991C341.311 87.2173 339.31 88.2657 337.127 88.562C335.922 88.6303 334.762 88.1517 333.989 87.2401C332.898 85.9865 332.306 84.3456 332.352 82.6818C332.397 80.3343 333.148 78.0552 334.467 76.1179C336.695 72.8815 339.492 70.0782 342.699 67.8218L342.812 85.5991V85.5991Z" fill="white"/>
</svg>
