<?xml version="1.0" encoding="UTF-8"?>
<svg width="914px" height="210px" viewBox="0 0 914 210" version="1.1" xmlns="http://www.w3.org/2000/svg" xmlns:xlink="http://www.w3.org/1999/xlink">
    <title>Artboard Copy@3x</title>
    <defs>
        <rect id="path-1" x="0" y="0" width="131.907856" height="132" rx="21.504"></rect>
        <filter x="-44.6%" y="-40.0%" width="189.2%" height="192.1%" filterUnits="objectBoundingBox" id="filter-2">
            <feMorphology radius="2.8" operator="dilate" in="SourceAlpha" result="shadowSpreadOuter1"></feMorphology>
            <feOffset dx="0" dy="6" in="shadowSpreadOuter1" result="shadowOffsetOuter1"></feOffset>
            <feGaussianBlur stdDeviation="16" in="shadowOffsetOuter1" result="shadowBlurOuter1"></feGaussianBlur>
            <feComposite in="shadowBlurOuter1" in2="SourceAlpha" operator="out" result="shadowBlurOuter1"></feComposite>
            <feColorMatrix values="0 0 0 0 0   0 0 0 0 0   0 0 0 0 0  0 0 0 0.03 0" type="matrix" in="shadowBlurOuter1" result="shadowMatrixOuter1"></feColorMatrix>
            <feMorphology radius="1.8" operator="dilate" in="SourceAlpha" result="shadowSpreadOuter2"></feMorphology>
            <feOffset dx="0" dy="18" in="shadowSpreadOuter2" result="shadowOffsetOuter2"></feOffset>
            <feGaussianBlur stdDeviation="12" in="shadowOffsetOuter2" result="shadowBlurOuter2"></feGaussianBlur>
            <feComposite in="shadowBlurOuter2" in2="SourceAlpha" operator="out" result="shadowBlurOuter2"></feComposite>
            <feColorMatrix values="0 0 0 0 0   0 0 0 0 0   0 0 0 0 0  0 0 0 0.06 0" type="matrix" in="shadowBlurOuter2" result="shadowMatrixOuter2"></feColorMatrix>
            <feMorphology radius="2.8" operator="dilate" in="SourceAlpha" result="shadowSpreadOuter3"></feMorphology>
            <feOffset dx="0" dy="6" in="shadowSpreadOuter3" result="shadowOffsetOuter3"></feOffset>
            <feGaussianBlur stdDeviation="5" in="shadowOffsetOuter3" result="shadowBlurOuter3"></feGaussianBlur>
            <feComposite in="shadowBlurOuter3" in2="SourceAlpha" operator="out" result="shadowBlurOuter3"></feComposite>
            <feColorMatrix values="0 0 0 0 0.338350158   0 0 0 0 0.338350158   0 0 0 0 0.338350158  0 0 0 0.03 0" type="matrix" in="shadowBlurOuter3" result="shadowMatrixOuter3"></feColorMatrix>
            <feMerge>
                <feMergeNode in="shadowMatrixOuter1"></feMergeNode>
                <feMergeNode in="shadowMatrixOuter2"></feMergeNode>
                <feMergeNode in="shadowMatrixOuter3"></feMergeNode>
            </feMerge>
        </filter>
    </defs>
    <g id="Artboard-Copy" stroke="none" stroke-width="1" fill="none" fill-rule="evenodd">
        <g id="logo-icon-word-(1)" transform="translate(45.000000, 39.000000)">
            <g id="Group-3">
                <g id="Rectangle-Copy-2">
                    <g id="path-1-link" fill="#000000" fill-rule="nonzero">
                        <rect id="path-1" x="0" y="0" width="131.907856" height="132" rx="21.504"></rect>
                    </g>
                    <g id="path-1">
                        <use fill="black" fill-opacity="1" filter="url(#filter-2)" xlink:href="#path-1"></use>
                        <use stroke="#FFFFFF" stroke-width="1.6" fill="#FFFFFF" fill-rule="evenodd" xlink:href="#path-1"></use>
                    </g>
                </g>
                <g id="Group-2" transform="translate(22.972724, 34.818509)">
                    <g id="Group-2-Copy" fill="#000000" fill-rule="nonzero">
                        <g id="Group-9">
                            <path d="M8.72971837,22.8465213 C8.72971837,9.30828427 18.2065481,0.2607914 32.817063,0 L85.9624092,0 C82.7925014,6.93683611 80.2407119,10.4539827 78.3070406,10.5514399 L32.3449935,10.5514399 C24.3879686,10.5726821 19.5978562,15.1617316 19.5978562,22.8465213 C19.5978562,30.4480741 24.3729842,35.362487 32.0766598,35.3930361 L52.4299684,35.3624869 C55.3860894,35.393036 57.9195073,37.9198738 57.9195073,40.9621039 C57.9195073,44.004334 55.6129662,45.7638734 52.7124594,45.9100592 L32.6681774,45.9330354 C18.3879953,45.9330354 8.9491098,36.576399 8.7334828,23.3104042 L8.72971837,22.8465213 Z" id="Combined-Shape-Copy-6"></path>
                            <path d="M0,40.6098026 C0,27.0715655 9.47682974,18.0240726 24.0873447,17.7632812 L77.2326908,17.7632812 C74.062783,24.7001173 71.5109936,28.217264 69.5773223,28.3147211 L23.6152752,28.3147211 C15.6582502,28.3359633 10.8681379,32.9250128 10.8681379,40.6098026 C10.8681379,48.2113553 15.6432658,53.1257682 23.3469414,53.1563173 L43.7002501,53.1257681 C46.656371,53.1563172 49.1897889,55.683155 49.1897889,58.7253851 C49.1897889,61.7676152 46.8832479,63.5271547 43.982741,63.6733404 L23.938459,63.6963167 C9.65827698,63.6963167 0.219391433,54.3396802 0.0037644345,41.0736854 L0,40.6098026 Z" id="Combined-Shape-Copy-5" transform="translate(38.616345, 40.729799) rotate(180.000000) translate(-38.616345, -40.729799) "></path>
                        </g>
                    </g>
                    <g id="Group-2-Copy" transform="translate(38.616345, 40.729799) rotate(180.000000) translate(-38.616345, -40.729799) translate(0.000000, 17.763281)"></g>
                </g>
            </g>
            <path d="M232.138575,94.3333333 C247.553912,94.3333333 253.313489,89.124222 253.313489,78.2018917 C253.313489,67.1955433 247.553912,61.4823244 233.747868,61.4823244 L212.064755,61.4823244 C205.881681,61.4823244 203.171291,59.3818763 203.171291,53.9207111 C203.171291,48.459546 205.881681,46.3590979 211.725957,46.3590979 L251.195998,46.3590979 L251.195998,37.6212336 L211.725957,37.6212336 C197.581115,37.6212336 191.736837,42.830345 191.736837,53.7526753 C191.736837,64.5909877 197.496415,70.2201887 211.04836,70.2201887 L232.731472,70.2201887 C239.253346,70.2201887 241.794335,72.4046548 241.794335,77.6977841 C241.794335,82.9909133 239.168646,85.5954691 233.239671,85.5954691 L193.092033,85.5954691 L193.092033,94.3333333 L232.138575,94.3333333 Z M291.629636,94.3333333 L304.927482,60.1380377 L317.88653,94.3333333 L332.62427,94.3333333 L349.9877,51.7362451 L338.722646,51.7362451 L325.4248,87.0237738 L312.126953,51.7362451 L298.236209,51.7362451 L284.684264,87.0237738 L271.217019,51.7362451 L259.528465,51.7362451 L276.807195,94.3333333 L291.629636,94.3333333 Z M368.907625,46.1070441 L368.907625,35.7728392 L357.81197,35.7728392 L357.81197,46.1070441 L368.907625,46.1070441 Z M368.907625,94.3333333 L368.907625,52.3243706 L357.81197,52.3243706 L357.81197,94.3333333 L368.907625,94.3333333 Z M405.10628,94.3333333 L405.10628,86.6877021 L400.871298,86.6877021 C392.316632,86.6877021 389.860342,85.0913616 389.860342,78.6219812 L389.860342,59.4658942 L406.122677,59.4658942 L406.122677,51.7362451 L389.860342,51.7362451 L389.860342,36.6130184 L378.679988,36.6130184 L378.679988,79.2101068 C378.679988,91.4372354 383.328779,94.2769237 399.201082,94.3324948 L405.10628,94.3333333 Z M460.277659,94.3333333 L460.277659,86.0995767 L435.799459,86.0995767 C427.244793,86.0995767 423.687408,82.1507341 423.687408,72.9927802 C423.687408,63.9188443 427.244793,59.9700018 435.799459,59.9700018 L460.277659,59.9700018 L460.277659,51.7362451 L433.936066,51.7362451 C421.061718,51.7362451 412.761151,57.0293743 412.761151,72.9927802 C412.761151,89.040204 421.231117,94.3333333 433.936066,94.3333333 L460.277659,94.3333333 Z M480.552779,94.3333333 L480.552779,59.8859839 L502.066492,59.8859839 C510.19766,59.8859839 513.924445,64.3389339 513.924445,71.3964397 L513.924445,94.3333333 L525.020099,94.3333333 L525.020099,71.3964397 C525.020099,57.7855357 516.634833,51.7362451 503.845185,51.7362451 L480.552779,51.7362451 L480.552779,35.7728392 L469.457124,35.7728392 L469.457124,94.3333333 L480.552779,94.3333333 Z M567.48653,94.3333333 C582.986567,94.3333333 591.287133,86.77172 591.287133,72.9927802 C591.287133,59.2978583 582.986567,51.7362451 567.48653,51.7362451 L545.295219,51.7362451 L545.295219,35.7728392 L534.114865,35.7728392 L534.114865,75.2612642 C534.114865,86.77172 541.144936,94.3333333 555.713277,94.3333333 L567.48653,94.3333333 Z M565.961936,86.2676124 L556.136775,86.2676124 C546.989213,86.2676124 545.295219,79.9662681 545.295219,73.7489416 L545.295219,59.8859839 L565.961936,59.8859839 C576.888192,59.8859839 580.360877,65.5151849 580.360877,72.9927802 C580.360877,80.6384114 576.888192,86.2676124 565.961936,86.2676124 Z M632.821867,94.3333333 C648.237205,94.3333333 656.622471,86.77172 656.622471,72.9927802 C656.622471,59.2978583 648.237205,51.7362451 632.821867,51.7362451 L623.250806,51.7362451 C607.750768,51.7362451 599.450202,59.2978583 599.450202,72.9927802 C599.450202,86.77172 607.750768,94.3333333 623.250806,94.3333333 L632.821867,94.3333333 Z M631.297273,86.2676124 L624.267201,86.2676124 C613.933843,86.2676124 610.376458,80.6384114 610.376458,72.9927802 C610.376458,65.4311669 613.933843,59.8019659 624.267201,59.8019659 L631.297273,59.8019659 C642.22353,59.8019659 645.696215,65.4311669 645.696215,72.9927802 C645.696215,80.6384114 642.22353,86.2676124 631.297273,86.2676124 Z M717.214628,94.3333333 L717.214628,73.0767982 C717.214628,57.2814281 710.608054,51.7362451 694.938618,51.7362451 L665.886635,51.7362451 L665.886635,59.4658942 L694.006921,59.4658942 C701.71459,59.4658942 705.187277,61.3142886 706.118973,68.2877764 L676.643492,68.2877764 C667.326529,68.2877764 664.277341,73.244834 664.277341,80.9744832 C664.277341,88.6201144 667.326529,94.3333333 676.643492,94.3333333 L717.214628,94.3333333 Z M706.457772,86.6036842 L680.116177,86.6036842 C676.050594,86.6036842 674.526,84.503236 674.526,80.7224294 C674.526,77.1936766 675.965895,75.1772463 680.116177,75.1772463 L706.457772,75.1772463 L706.457772,86.6036842 Z M737.574448,94.3333333 L737.574448,70.3042067 C737.574448,62.9946471 740.877734,59.4658942 748.331304,59.4658942 L760.189256,59.4658942 L760.189256,51.7362451 L746.552611,51.7362451 C734.017061,51.7362451 726.394092,57.2814281 726.394092,70.3042067 L726.394092,94.3333333 L737.574448,94.3333333 Z M802.316888,94.3333333 C816.885229,94.3333333 824,86.77172 824,75.2612642 L824,35.7728392 L812.819645,35.7728392 L812.819645,51.7362451 L790.628334,51.7362451 C775.043598,51.7362451 766.743031,59.2978583 766.743031,72.9927802 C766.743031,86.77172 775.043598,94.3333333 790.628334,94.3333333 L802.316888,94.3333333 Z M799.860597,86.2676124 L792.068229,86.2676124 C781.226673,86.2676124 777.753986,80.6384114 777.753986,72.9927802 C777.753986,65.5151849 781.226673,59.8859839 792.068229,59.8859839 L812.819645,59.8859839 L812.819645,76.1014434 C812.819645,82.5708238 809.00816,86.2676124 799.860597,86.2676124 Z" id="Switchboard" fill="#000000" fill-rule="nonzero"></path>
        </g>
    </g>
</svg>