<svg width="96" height="64" viewBox="0 0 96 64" fill="none" xmlns="http://www.w3.org/2000/svg">
<g clip-path="url(#clip0_1184_759)">
<rect width="95.2558" height="64" rx="7.44186" fill="white"/>
<path d="M38.7157 0H95.2554V64H38.6973L38.7157 0Z" fill="#FF0000"/>
<path d="M0.0188861 0H38.6977V64H0L0.0188861 0Z" fill="#006600"/>
<path fill-rule="evenodd" clip-rule="evenodd" d="M50.1696 41.7094C45.4557 41.5723 23.8597 28.0885 23.7227 25.9371L24.9011 23.9502C27.0388 27.0608 49.1281 40.1746 51.2932 39.7087L50.1696 41.7094Z" fill="#FFFF00" stroke="black" stroke-width="0.0959214" stroke-linecap="round" stroke-linejoin="round"/>
<path fill-rule="evenodd" clip-rule="evenodd" d="M24.6509 23.6759C24.2261 24.8132 30.2829 28.5542 37.5729 32.994C44.8629 37.4201 51.1389 40.1607 51.6185 39.777L51.8241 39.3796C51.7418 39.5166 51.5226 39.5577 51.1937 39.4618C49.2205 38.8863 44.0818 36.5294 37.7236 32.6788C31.3654 28.8282 25.8294 25.2654 24.9798 23.7581C24.9098 23.618 24.8767 23.4624 24.8838 23.3059H24.8564L24.6783 23.6211L24.6509 23.6759ZM50.2756 41.7639C50.1934 41.9147 50.0427 41.9147 49.7686 41.901C48.0009 41.6954 42.643 39.0918 36.3396 35.3098C28.9674 30.8974 22.8832 26.8824 23.5547 25.841L23.7328 25.5121L23.7602 25.5258C23.171 27.3072 35.7641 34.5013 36.504 34.9672C43.7804 39.4892 49.933 42.1202 50.4812 41.4351L50.2756 41.7639Z" fill="#FFFF00" stroke="black" stroke-width="0.0959214" stroke-linecap="round" stroke-linejoin="round"/>
<path fill-rule="evenodd" clip-rule="evenodd" d="M37.9982 27.2382C42.6984 27.1971 48.5222 26.5941 51.8657 25.2649L51.1532 24.0865C49.1662 25.1827 43.3287 25.909 37.9571 26.0049C31.5989 25.9501 27.118 25.3609 24.8707 23.8535L24.1855 25.1005C28.3239 26.8408 32.5444 27.2245 37.9982 27.2382Z" fill="#FFFF00" stroke="black" stroke-width="0.0959214" stroke-linecap="round" stroke-linejoin="round"/>
<path fill-rule="evenodd" clip-rule="evenodd" d="M52.0732 25.2929C51.9498 25.4711 49.771 26.2247 46.5508 26.7729C43.7114 27.1987 40.8439 27.4094 37.9727 27.4032C35.2235 27.4155 32.4766 27.2415 29.7509 26.8825C26.3936 26.3481 24.6396 25.6081 23.9956 25.3477L24.16 25.0326C25.9823 25.7508 27.8813 26.2566 29.8194 26.5399C32.5225 26.8935 35.2466 27.0629 37.9727 27.0469C40.821 27.0488 43.6654 26.8381 46.4823 26.4166C49.771 25.8822 51.5798 25.197 51.8265 24.8818L52.0732 25.2929ZM51.4291 24.0871C51.0728 24.3611 49.2914 25.0052 46.1671 25.4985C43.4667 25.8861 40.7419 26.0784 38.0138 26.074C35.3832 26.094 32.7545 25.9245 30.1483 25.567C26.9554 25.1559 25.27 24.4022 24.667 24.183L24.8452 23.8678C25.3111 24.1145 26.9554 24.7722 30.1894 25.2381C32.7837 25.5744 35.3978 25.7346 38.0138 25.7177C40.7191 25.7214 43.4211 25.5291 46.0986 25.1422C49.2503 24.7037 50.9495 23.9089 51.2099 23.7034L51.4291 24.0871ZM22.5157 32.9118C25.4207 34.474 31.8474 35.2688 37.9453 35.3236C43.495 35.3236 50.7302 34.4603 53.4298 33.0215L53.3475 31.4593C52.5116 32.7885 44.7694 34.0629 37.8905 34.0081C31.0115 33.9533 24.6259 32.8844 22.502 31.5141V32.9118" fill="#FFFF00"/>
<path d="M22.5157 32.9118C25.4207 34.474 31.8474 35.2687 37.9453 35.3236C43.495 35.3236 50.7302 34.4603 53.4298 33.0215L53.3475 31.4593C52.5116 32.7885 44.7694 34.0629 37.8905 34.0081C31.0115 33.9533 24.6259 32.8844 22.502 31.5141V32.9118M52.0731 25.2929C51.9498 25.4711 49.771 26.2247 46.5508 26.7729C43.7114 27.1987 40.8439 27.4094 37.9727 27.4032C35.2235 27.4155 32.4766 27.2415 29.7509 26.8825C26.3936 26.3481 24.6396 25.6081 23.9956 25.3477L24.16 25.0326C25.9823 25.7508 27.8813 26.2566 29.8194 26.5399C32.5225 26.8935 35.2466 27.0629 37.9727 27.0469C40.821 27.0488 43.6654 26.8381 46.4823 26.4166C49.771 25.8822 51.5798 25.197 51.8265 24.8818L52.0731 25.2929ZM51.4291 24.0871C51.0728 24.3611 49.2914 25.0052 46.1671 25.4985C43.4667 25.8861 40.7419 26.0784 38.0138 26.074C35.3832 26.094 32.7545 25.9245 30.1483 25.567C26.9554 25.1559 25.27 24.4022 24.667 24.183L24.8452 23.8678C25.3111 24.1145 26.9554 24.7722 30.1894 25.2381C32.7837 25.5744 35.3978 25.7346 38.0138 25.7177C40.7191 25.7214 43.4211 25.5291 46.0986 25.1422C49.2503 24.7037 50.9495 23.9089 51.2099 23.7034L51.4291 24.0871V24.0871Z" stroke="black" stroke-width="0.0959214" stroke-linecap="round" stroke-linejoin="round"/>
<path fill-rule="evenodd" clip-rule="evenodd" d="M53.5809 32.6923V33.0623C53.1698 33.5556 50.621 34.2956 47.4282 34.8026C44.2656 35.262 41.0729 35.4818 37.8772 35.4603C34.1226 35.4603 31.1353 35.1863 28.8058 34.83C26.5706 34.576 24.386 33.9894 22.3242 33.0897V32.6512C23.7493 33.5967 27.5725 34.2819 28.8606 34.4874C31.1627 34.8437 34.1363 35.1041 37.8772 35.1041C41.81 35.1041 44.9617 34.83 47.3734 34.46C49.6755 34.1311 52.9368 33.2679 53.5809 32.6923ZM53.5809 31.3631V31.7468C53.1698 32.2264 50.621 32.9664 47.4282 33.4734C44.2656 33.9328 41.0729 34.1527 37.8772 34.1311C34.1226 34.1311 31.1353 33.8571 28.8195 33.5145C26.579 33.257 24.3897 32.6658 22.3242 31.7605V31.322C23.7493 32.2675 27.5725 32.9664 28.8606 33.1582C31.1764 33.5145 34.15 33.7886 37.8772 33.7886C41.81 33.7886 44.9617 33.5145 47.3734 33.1308C49.6755 32.802 52.9368 31.9387 53.5809 31.3631ZM37.932 41.4349C31.2723 41.3938 25.5581 39.6261 24.3523 39.3246L25.2293 40.6949C27.3532 41.5993 32.9304 42.9422 38.0005 42.7915C43.0706 42.6407 47.4967 42.2434 50.6073 40.736L51.5117 39.2972C49.3878 40.2975 42.1525 41.4349 37.9457 41.4349" fill="#FFFF00"/>
<path d="M37.932 41.4349C31.2723 41.3938 25.5581 39.6261 24.3523 39.3246L25.2293 40.6949C27.3532 41.5993 32.9304 42.9422 38.0005 42.7915C43.0706 42.6407 47.4967 42.2434 50.6073 40.736L51.5117 39.2972C49.3878 40.2975 42.1525 41.4349 37.9457 41.4349M53.5809 32.6923V33.0623C53.1698 33.5556 50.621 34.2956 47.4282 34.8026C44.2656 35.262 41.0729 35.4818 37.8772 35.4603C34.1226 35.4603 31.1353 35.1863 28.8058 34.83C26.5706 34.576 24.386 33.9894 22.3242 33.0897V32.6512C23.7493 33.5967 27.5725 34.2819 28.8606 34.4874C31.1627 34.8437 34.1363 35.1041 37.8772 35.1041C41.81 35.1041 44.9617 34.83 47.3734 34.46C49.6755 34.1311 52.9368 33.2679 53.5809 32.6923V32.6923ZM53.5809 31.3631V31.7468C53.1698 32.2264 50.621 32.9664 47.4282 33.4734C44.2656 33.9328 41.0729 34.1527 37.8772 34.1311C34.1226 34.1311 31.1353 33.8571 28.8195 33.5145C26.579 33.257 24.3897 32.6658 22.3242 31.7605V31.322C23.7493 32.2675 27.5725 32.9664 28.8606 33.1582C31.1764 33.5145 34.15 33.7886 37.8772 33.7886C41.81 33.7886 44.9617 33.5145 47.3734 33.1308C49.6755 32.802 52.9368 31.9387 53.5809 31.3631V31.3631Z" stroke="black" stroke-width="0.0959214" stroke-linecap="round" stroke-linejoin="round"/>
<path fill-rule="evenodd" clip-rule="evenodd" d="M50.9479 40.4072C50.8144 40.6106 50.6773 40.8116 50.5368 41.0102C48.9818 41.526 47.3931 41.9335 45.7818 42.2297C43.1962 42.7054 40.5726 42.944 37.9437 42.9423C32.0376 42.8601 27.2005 41.709 24.9258 40.7224L24.7339 40.4072L24.775 40.3524L25.0765 40.4757C29.237 41.8544 33.5882 42.5711 37.9711 42.5997C40.7117 42.6134 43.4523 42.2845 45.6585 41.9009C49.0568 41.2157 50.4271 40.7087 50.8519 40.4757L50.9479 40.4072ZM51.7289 39.1191H51.7426C51.6434 39.2934 51.5429 39.467 51.4412 39.6399C50.6601 39.9139 48.5224 40.5443 45.4118 40.9828C43.3564 41.2568 42.082 41.5309 38.0122 41.6131C33.3491 41.5628 28.7151 40.8712 24.2406 39.5576L24.0762 39.2151C28.6211 40.4624 33.3007 41.1526 38.0122 41.2705C41.7394 41.1883 43.329 40.9142 45.357 40.6265C48.9883 40.0784 50.8108 39.4754 51.359 39.2973C51.3547 39.288 51.3502 39.2788 51.3453 39.2699L51.7289 39.1191Z" fill="#FFFF00" stroke="black" stroke-width="0.0822183" stroke-linecap="round" stroke-linejoin="round"/>
<path fill-rule="evenodd" clip-rule="evenodd" d="M51.8148 31.6785C51.8422 36.0634 49.5949 40.0099 47.7861 41.7502C45.1291 44.3343 41.5847 45.805 37.8788 45.8611C33.4527 45.9433 29.2869 43.052 28.1633 41.7913C25.9708 39.3111 24.1894 36.1731 24.1346 31.9251C24.4087 27.129 26.286 23.7992 29.0129 21.5108C31.6516 19.3404 34.9693 18.1666 38.3858 18.1947C41.8664 18.2906 45.9499 20.0035 48.759 23.4018C50.5952 25.6217 51.4037 28.0334 51.8148 31.6922V31.6785ZM37.9199 16.6599C46.4158 16.6599 53.4043 23.58 53.4043 32.0484C53.379 36.1385 51.7364 40.0525 48.8353 42.9356C45.9341 45.8188 42.01 47.4371 37.9199 47.437C29.424 47.437 22.4902 40.5306 22.4902 32.0484C22.4902 23.5663 29.424 16.6599 37.9199 16.6599Z" fill="#FFFF00"/>
<path d="M37.9199 16.6599C46.4158 16.6599 53.4043 23.58 53.4043 32.0484C53.379 36.1385 51.7364 40.0525 48.8353 42.9356C45.9341 45.8188 42.01 47.4371 37.9199 47.437C29.424 47.437 22.4902 40.5306 22.4902 32.0484C22.4902 23.5663 29.424 16.6599 37.9199 16.6599M51.8148 31.6785C51.8422 36.0634 49.5949 40.0099 47.7861 41.7502C45.1291 44.3343 41.5847 45.805 37.8788 45.8611C33.4527 45.9433 29.2869 43.052 28.1633 41.7913C25.9708 39.3111 24.1894 36.1731 24.1346 31.9251C24.4087 27.129 26.286 23.7992 29.0129 21.5108C31.6516 19.3404 34.9693 18.1666 38.3858 18.1947C41.8664 18.2906 45.9499 20.0035 48.759 23.4018C50.5952 25.6217 51.4037 28.0334 51.8148 31.6922V31.6785Z" stroke="black" stroke-width="0.0959214" stroke-linecap="round" stroke-linejoin="round"/>
<path fill-rule="evenodd" clip-rule="evenodd" d="M37.959 16.6053C46.4549 16.6053 53.3886 23.5527 53.3886 32.0486C53.3886 40.5445 46.4549 47.4919 37.959 47.4919C33.8641 47.4811 29.9403 45.8486 27.046 42.9519C24.1518 40.0551 22.5229 36.1298 22.5156 32.0349C22.5265 27.9424 24.157 24.0206 27.0509 21.1268C29.9447 18.2329 33.8665 16.6024 37.959 16.5916V16.6053ZM22.8582 32.0486C22.8582 40.3527 29.6823 47.1494 37.959 47.1494C46.2356 47.1494 53.046 40.3527 53.046 32.0486C53.046 23.7445 46.2356 16.9615 37.959 16.9615C33.9608 16.976 30.1303 18.5697 27.3019 21.3955C24.4734 24.2214 22.8763 28.0505 22.8582 32.0486Z" fill="#FFFF00" stroke="black" stroke-width="0.0959214" stroke-linecap="round" stroke-linejoin="round"/>
<path fill-rule="evenodd" clip-rule="evenodd" d="M37.9736 17.8928C45.7158 17.8928 52.1015 24.2647 52.1015 32.0344C52.1015 39.8177 45.7158 46.1759 37.9736 46.1759C34.2251 46.1651 30.633 44.6721 27.9811 42.0228C25.3292 39.3735 23.8328 35.7829 23.8184 32.0344C23.8184 24.2647 30.204 17.8928 37.9599 17.8928H37.9736ZM24.1609 32.0344C24.1609 39.6259 30.3958 45.8334 37.9736 45.8334C45.5377 45.8334 51.7726 39.6259 51.7726 32.0344C51.7726 24.4429 45.5377 18.2354 37.9599 18.2354C30.3821 18.2354 24.1609 24.4429 24.1609 32.0344Z" fill="#FFFF00" stroke="black" stroke-width="0.0959214" stroke-linecap="round" stroke-linejoin="round"/>
<path fill-rule="evenodd" clip-rule="evenodd" d="M38.589 16.55H37.2598V47.5738H38.589V16.55Z" fill="#FFFF00" stroke="black" stroke-width="0.0959214" stroke-linecap="round" stroke-linejoin="round"/>
<path fill-rule="evenodd" clip-rule="evenodd" d="M38.4503 16.3721H38.7928V47.7521H38.4503V16.3721ZM37.1348 16.3721H37.4773V47.7521H37.1348V16.3721Z" fill="#FFFF00" stroke="black" stroke-width="0.0959214" stroke-linecap="round" stroke-linejoin="round"/>
<path fill-rule="evenodd" clip-rule="evenodd" d="M53.3985 32.6512V31.4864L52.4667 30.6232L47.1636 29.2117L39.5173 28.4307L30.3363 28.8966L23.7725 30.4587L22.457 31.4453V32.5827L25.8006 31.0754L33.7483 29.8421H41.3947L47.0129 30.4587L50.9046 31.4042L53.3985 32.6512Z" fill="#FFFF00" stroke="black" stroke-width="0.0959214" stroke-linecap="round" stroke-linejoin="round"/>
<path fill-rule="evenodd" clip-rule="evenodd" d="M37.9594 29.6638C41.3097 29.6501 44.6539 29.9483 47.9489 30.5545C50.8403 31.1301 52.882 31.8563 53.5672 32.6648V33.0759C52.745 32.0619 50.0044 31.3219 47.8804 30.8834C45.0987 30.349 41.577 30.0064 37.9594 30.0064C34.1225 30.0064 30.5598 30.3764 27.8191 30.9108C25.6267 31.3493 22.6942 32.2126 22.3242 33.0759V32.6648C22.5298 32.0619 24.7085 31.1712 27.778 30.5545C31.1372 29.9451 34.5454 29.6469 37.9594 29.6638ZM37.9594 28.3346C41.3142 28.3217 44.6629 28.6199 47.9626 29.2253C50.8403 29.8009 52.8957 30.5271 53.5809 31.3493V31.7467C52.745 30.7327 49.9907 29.9927 47.8804 29.5679C45.0987 29.0198 41.577 28.6772 37.9594 28.6772C34.5678 28.6667 31.1825 28.9695 27.8465 29.5816C25.7226 29.9927 22.6668 30.8971 22.3242 31.7467V31.3356C22.5298 30.7464 24.7634 29.8283 27.778 29.239C31.1368 28.625 34.545 28.3223 37.9594 28.3346ZM37.8909 21.579C43.6325 21.5516 48.6478 22.3875 50.9362 23.566L51.7721 25.0048C49.7851 23.9359 44.3724 22.8123 37.8909 22.9904C32.6152 23.0178 26.9833 23.566 24.1467 25.0733L25.147 23.4015C27.4766 22.1957 32.9578 21.5927 37.8909 21.579Z" fill="#FFFF00" stroke="black" stroke-width="0.0959214" stroke-linecap="round" stroke-linejoin="round"/>
<path fill-rule="evenodd" clip-rule="evenodd" d="M37.9594 22.7712C41.2481 22.7712 44.3998 22.9494 46.9212 23.4016C49.2644 23.8401 51.5117 24.4978 51.8269 24.8541L52.0735 25.2926C51.2925 24.7856 49.3603 24.2101 46.8664 23.7442C43.9215 23.2751 40.9408 23.0687 37.9594 23.1275C34.2596 23.1275 31.3819 23.3057 28.9154 23.7442C26.3118 24.2238 24.503 24.9226 24.0508 25.2515L24.2974 24.7993C25.1607 24.3471 26.5447 23.8127 28.8606 23.4016C31.4093 22.9357 34.3007 22.7987 37.9594 22.7712ZM37.9594 21.4558C40.8535 21.4102 43.7462 21.6119 46.606 22.0587C48.5107 22.4287 50.3881 23.0042 51.0869 23.5112L51.4432 24.0867C50.8266 23.4016 48.5107 22.7575 46.4553 22.4013C44.0709 21.9902 41.0974 21.8257 37.9594 21.7983C34.6706 21.7983 31.6286 22.0039 29.2716 22.4287C27.0243 22.8672 25.5718 23.3742 24.9552 23.7716L25.2704 23.2783C26.1199 22.8398 27.4902 22.4287 29.2168 22.0861C31.5875 21.6613 34.6569 21.4558 37.9594 21.4558ZM45.6331 38.4612C43.0995 38.0244 40.5298 37.8317 37.9594 37.8857C28.3809 37.9953 25.2978 39.8453 24.9141 40.4071L24.2015 39.2423C26.627 37.4746 31.8341 36.488 38.0005 36.5839C41.1933 36.6387 43.9476 36.858 46.2771 37.2965L45.6194 38.4612" fill="#FFFF00"/>
<path d="M45.6331 38.4612C43.0995 38.0244 40.5298 37.8317 37.9594 37.8857C28.3809 37.9953 25.2978 39.8453 24.9141 40.4071L24.2015 39.2423C26.627 37.4746 31.8341 36.488 38.0005 36.5839C41.1933 36.6387 43.9476 36.858 46.2771 37.2965L45.6194 38.4612M37.9594 22.7712C41.2481 22.7712 44.3998 22.9494 46.9212 23.4016C49.2644 23.8401 51.5117 24.4978 51.8269 24.8541L52.0735 25.2926C51.2925 24.7856 49.3603 24.2101 46.8664 23.7442C43.9215 23.2751 40.9408 23.0687 37.9594 23.1275C34.2596 23.1275 31.3819 23.3057 28.9154 23.7442C26.3118 24.2238 24.503 24.9226 24.0508 25.2515L24.2974 24.7993C25.1607 24.3471 26.5447 23.8127 28.8606 23.4016C31.4093 22.9357 34.3007 22.7987 37.9594 22.7712V22.7712ZM37.9594 21.4558C40.8535 21.4102 43.7462 21.6119 46.606 22.0587C48.5107 22.4287 50.3881 23.0042 51.0869 23.5112L51.4432 24.0867C50.8266 23.4016 48.5107 22.7575 46.4553 22.4013C44.0709 21.9902 41.0974 21.8257 37.9594 21.7983C34.6706 21.7983 31.6286 22.0039 29.2716 22.4287C27.0243 22.8672 25.5718 23.3742 24.9552 23.7716L25.2704 23.2783C26.1199 22.8398 27.4902 22.4287 29.2168 22.0861C31.5875 21.6613 34.6569 21.4558 37.9594 21.4558V21.4558Z" stroke="black" stroke-width="0.0959214" stroke-linecap="round" stroke-linejoin="round"/>
<path fill-rule="evenodd" clip-rule="evenodd" d="M37.9026 37.721C40.561 37.7621 43.1783 37.858 45.7133 38.3376L45.5215 38.6665C43.0104 38.2329 40.4642 38.0356 37.9163 38.0773C34.3809 38.0499 30.7907 38.3787 27.6938 39.2694C26.7072 39.5435 25.0902 40.1738 24.9121 40.6945L24.7339 40.3931C24.7888 40.0916 25.7754 39.4476 27.6116 38.9406C31.1744 37.9128 34.5042 37.7484 37.8889 37.7073L37.9026 37.721ZM38.0259 36.3781C40.8326 36.3754 43.6342 36.6184 46.3985 37.1043L46.2066 37.4469C43.5126 36.9541 40.7783 36.7155 38.0396 36.7344C34.4905 36.7344 30.7359 36.9947 27.3101 37.9813C26.2139 38.3102 24.2955 38.9954 24.2406 39.5435L24.0625 39.2283C24.1036 38.735 25.748 38.0773 27.2416 37.6388C30.7601 36.7184 34.39 36.2941 38.0259 36.3781Z" fill="#FFFF00" stroke="black" stroke-width="0.0822183" stroke-linecap="round" stroke-linejoin="round"/>
<path fill-rule="evenodd" clip-rule="evenodd" d="M51.6236 39.4207L50.4726 41.2021L47.1701 38.2696L38.592 32.5144L28.9314 27.1976L23.9023 25.4847L24.9712 23.4978L25.3412 23.3059L28.4655 24.087L38.7428 29.3901L44.6762 33.131L49.6504 36.6938L51.6784 39.037L51.6236 39.4207Z" fill="#FFFF00" stroke="black" stroke-width="0.0959214" stroke-linecap="round" stroke-linejoin="round"/>
<path fill-rule="evenodd" clip-rule="evenodd" d="M23.7192 25.5257C24.6099 24.9365 31.0777 27.8141 37.8333 31.8976C44.5889 35.9948 51.0431 40.6127 50.4676 41.4897L50.2757 41.7775L50.1798 41.846C50.2072 41.846 50.3031 41.709 50.1798 41.3938C49.8783 40.4483 45.3152 36.8033 37.71 32.2128C30.3104 27.8004 24.144 25.142 23.5273 25.9094L23.7192 25.5257ZM51.8516 39.3932C52.3997 38.2969 46.4114 33.7749 38.9707 29.3762C31.3655 25.0598 25.8706 22.5247 24.8702 23.2784L24.651 23.6895C24.651 23.7032 24.651 23.6621 24.7058 23.621C24.8839 23.4702 25.1854 23.4839 25.3224 23.4839C27.049 23.4976 31.9821 25.7586 38.8885 29.7325C41.9168 31.4865 51.6871 37.7625 51.646 39.5165C51.646 39.6672 51.6597 39.6946 51.6049 39.7769L51.8516 39.3932Z" fill="#FFFF00" stroke="black" stroke-width="0.0959214" stroke-linecap="round" stroke-linejoin="round"/>
<path d="M28.7109 33.7438C28.7133 34.9541 28.9556 36.1519 29.4239 37.2679C29.8923 38.3839 30.5773 39.3959 31.4394 40.2453C32.2909 41.11 33.3052 41.7976 34.4237 42.2686C35.5422 42.7395 36.7428 42.9845 37.9564 42.9893C40.4126 42.9892 42.768 42.0133 44.5047 40.2765C45.3637 39.4223 46.0456 38.4069 46.5111 37.2886C46.9767 36.1702 47.2167 34.9708 47.2175 33.7594V21.4113L28.7109 21.3801V33.7438Z" fill="white" stroke="black" stroke-width="0.109137"/>
<path d="M29.0547 33.7593C29.058 34.9203 29.2911 36.0691 29.7407 37.1395C30.1903 38.2099 30.8473 39.1806 31.674 39.9958C33.3339 41.6644 35.588 42.6064 37.9416 42.6151C40.2911 42.6164 42.5451 41.6856 44.2092 40.0269C45.033 39.2105 45.6872 38.2392 46.1341 37.1689C46.581 36.0985 46.8117 34.9504 46.8129 33.7905V21.7854H29.0859V33.7593M43.2737 25.3869V33.011L43.2581 33.8061C43.2634 34.5026 43.128 35.193 42.8601 35.836C42.5922 36.479 42.1973 37.0612 41.699 37.548C40.7076 38.5429 39.3618 39.1036 37.9572 39.1071C36.4916 39.1071 35.1976 38.4834 34.2309 37.5168C33.236 36.5253 32.6753 35.1795 32.6718 33.7749V25.3558L43.2737 25.3869Z" fill="#FF0000"/>
<path d="M29.0547 33.7593C29.058 34.9203 29.2911 36.0691 29.7407 37.1395C30.1903 38.2099 30.8473 39.1806 31.674 39.9958C33.3339 41.6644 35.588 42.6064 37.9416 42.6151C40.2911 42.6164 42.5451 41.6856 44.2092 40.0269C45.033 39.2105 45.6872 38.2392 46.1341 37.1689C46.581 36.0985 46.8117 34.9504 46.8129 33.7905V21.7854H29.0859V33.7593M43.2737 25.3869V33.011L43.2581 33.8061C43.2634 34.5026 43.128 35.193 42.8601 35.836C42.5922 36.479 42.1973 37.0612 41.699 37.548C40.7076 38.5429 39.3618 39.1036 37.9572 39.1071C36.4916 39.1071 35.1976 38.4834 34.2309 37.5168C33.236 36.5253 32.6753 35.1795 32.6718 33.7749V25.3558L43.2737 25.3869Z" stroke="black" stroke-width="0.0779553"/>
<path d="M30.207 24.9193C30.2226 24.0618 30.8307 23.8591 30.8307 23.8591C30.8463 23.8591 31.5011 24.0774 31.5011 24.9349H30.207" fill="#FFFF00"/>
<path d="M29.6752 23.8747L29.5661 24.857H30.2209C30.2209 24.0462 30.8446 23.9215 30.8446 23.9215C30.8602 23.9215 31.4682 24.093 31.4838 24.857H32.1386L32.0139 23.8591H29.6752V23.8747ZM29.5193 24.8725H32.1698C32.2166 24.8725 32.2634 24.9193 32.2634 24.9817C32.2634 25.0596 32.2166 25.1064 32.1698 25.1064H29.5193C29.4726 25.1064 29.4258 25.0596 29.4258 24.9817C29.4258 24.9193 29.4726 24.8725 29.5349 24.8725H29.5193Z" fill="#FFFF00" stroke="black" stroke-width="0.0779553"/>
<path d="M30.4842 24.8569C30.4842 24.3424 30.8428 24.202 30.8428 24.202C30.8428 24.202 31.2013 24.3579 31.2013 24.8569H30.4842ZM29.5799 23.4537H32.1212C32.168 23.4537 32.2148 23.516 32.2148 23.5784C32.2148 23.6252 32.168 23.6719 32.1212 23.6719H29.5799C29.5331 23.6719 29.4863 23.6252 29.4863 23.5628C29.4863 23.516 29.5331 23.4693 29.5799 23.4693V23.4537ZM29.6422 23.6875H32.0433C32.09 23.6875 32.1368 23.7343 32.1368 23.7967C32.1368 23.859 32.09 23.9058 32.0433 23.9058H29.6266C29.5643 23.9058 29.5331 23.859 29.5331 23.7967C29.5331 23.7343 29.5643 23.6875 29.6266 23.6875H29.6422ZM30.4218 22.0349H30.6089V22.1596H30.7492V22.0349H30.9519V22.1752H31.0922V22.0193H31.2793V22.3311C31.2793 22.3935 31.2481 22.4247 31.2013 22.4247H30.5153C30.4686 22.4247 30.4218 22.3935 30.4218 22.3467V22.0349ZM31.139 22.4558L31.1858 23.4537H30.5153L30.5621 22.4402H31.139" fill="#FFFF00"/>
<path d="M31.139 22.4558L31.1858 23.4537H30.5153L30.5621 22.4402H31.139M30.4842 24.8569C30.4842 24.3424 30.8428 24.202 30.8428 24.202C30.8428 24.202 31.2013 24.3579 31.2013 24.8569H30.4842ZM29.5799 23.4537H32.1212C32.168 23.4537 32.2148 23.516 32.2148 23.5784C32.2148 23.6252 32.168 23.6719 32.1212 23.6719H29.5799C29.5331 23.6719 29.4863 23.6252 29.4863 23.5628C29.4863 23.516 29.5331 23.4693 29.5799 23.4693V23.4537ZM29.6422 23.6875H32.0433C32.09 23.6875 32.1368 23.7343 32.1368 23.7967C32.1368 23.859 32.09 23.9058 32.0433 23.9058H29.6266C29.5643 23.9058 29.5331 23.859 29.5331 23.7967C29.5331 23.7343 29.5643 23.6875 29.6266 23.6875H29.6422ZM30.4218 22.0349H30.6089V22.1596H30.7492V22.0349H30.9519V22.1752H31.0922V22.0193H31.2793V22.3311C31.2793 22.3935 31.2481 22.4247 31.2013 22.4247H30.5153C30.4686 22.4247 30.4218 22.3935 30.4218 22.3467V22.0349Z" stroke="black" stroke-width="0.0779553"/>
<path d="M30.3307 22.9241V23.4542H29.707V22.9241H30.3307Z" fill="#FFFF00" stroke="black" stroke-width="0.0779553"/>
<path d="M30.3307 22.9241V23.4542H29.707V22.9241H30.3307Z" fill="#FFFF00" stroke="black" stroke-width="0.0779553"/>
<path d="M29.5996 22.5183H29.7867V22.6742H29.927V22.5183H30.1141V22.6742H30.2544V22.5183H30.4415V22.8301C30.4415 22.8925 30.4103 22.9237 30.3636 22.9237H29.6932C29.6683 22.9237 29.6446 22.9138 29.627 22.8963C29.6095 22.8787 29.5996 22.8549 29.5996 22.8301V22.5183Z" fill="#FFFF00" stroke="black" stroke-width="0.0779553"/>
<path d="M29.5996 22.5183H29.7867V22.6742H29.927V22.5183H30.1141V22.6742H30.2544V22.5183H30.4415V22.8301C30.4415 22.8925 30.4103 22.9237 30.3636 22.9237H29.6932C29.6683 22.9237 29.6446 22.9138 29.627 22.8963C29.6095 22.8787 29.5996 22.8549 29.5996 22.8301V22.5183Z" fill="#FFFF00" stroke="black" stroke-width="0.0779553"/>
<path d="M30.7812 22.7679C30.7812 22.6744 30.9216 22.6744 30.9216 22.7679V23.0174H30.7812V22.7679Z" fill="black"/>
<path d="M29.957 23.1109C29.957 23.0174 30.0818 23.0174 30.0818 23.1109V23.298H29.957V23.1109Z" fill="black"/>
<path d="M29.957 23.1109C29.957 23.0174 30.0818 23.0174 30.0818 23.1109V23.298H29.957V23.1109Z" fill="black"/>
<path d="M30.207 24.9193C30.2226 24.0618 30.8307 23.8591 30.8307 23.8591C30.8463 23.8591 31.5011 24.0774 31.5011 24.9349H30.207" fill="#FFFF00"/>
<path d="M29.6752 23.8747L29.5661 24.857H30.2209C30.2209 24.0462 30.8446 23.9215 30.8446 23.9215C30.8602 23.9215 31.4682 24.093 31.4838 24.857H32.1386L32.0139 23.8591H29.6752V23.8747ZM29.5193 24.8725H32.1698C32.2166 24.8725 32.2634 24.9193 32.2634 24.9817C32.2634 25.0596 32.2166 25.1064 32.1698 25.1064H29.5193C29.4726 25.1064 29.4258 25.0596 29.4258 24.9817C29.4258 24.9193 29.4726 24.8725 29.5349 24.8725H29.5193Z" fill="#FFFF00" stroke="black" stroke-width="0.0779553"/>
<path d="M30.4842 24.8569C30.4842 24.3424 30.8428 24.202 30.8428 24.202C30.8428 24.202 31.2013 24.3579 31.2013 24.8569H30.4842ZM29.5799 23.4537H32.1212C32.168 23.4537 32.2148 23.516 32.2148 23.5784C32.2148 23.6252 32.168 23.6719 32.1212 23.6719H29.5799C29.5331 23.6719 29.4863 23.6252 29.4863 23.5628C29.4863 23.516 29.5331 23.4693 29.5799 23.4693V23.4537ZM29.6422 23.6875H32.0433C32.09 23.6875 32.1368 23.7343 32.1368 23.7967C32.1368 23.859 32.09 23.9058 32.0433 23.9058H29.6266C29.5643 23.9058 29.5331 23.859 29.5331 23.7967C29.5331 23.7343 29.5643 23.6875 29.6266 23.6875H29.6422ZM30.4218 22.0349H30.6089V22.1596H30.7492V22.0349H30.9519V22.1752H31.0922V22.0193H31.2793V22.3311C31.2793 22.3935 31.2481 22.4247 31.2013 22.4247H30.5153C30.4686 22.4247 30.4218 22.3935 30.4218 22.3467V22.0349ZM31.139 22.4558L31.1858 23.4537H30.5153L30.5621 22.4402H31.139" fill="#FFFF00"/>
<path d="M31.139 22.4558L31.1858 23.4537H30.5153L30.5621 22.4402H31.139M30.4842 24.8569C30.4842 24.3424 30.8428 24.202 30.8428 24.202C30.8428 24.202 31.2013 24.3579 31.2013 24.8569H30.4842ZM29.5799 23.4537H32.1212C32.168 23.4537 32.2148 23.516 32.2148 23.5784C32.2148 23.6252 32.168 23.6719 32.1212 23.6719H29.5799C29.5331 23.6719 29.4863 23.6252 29.4863 23.5628C29.4863 23.516 29.5331 23.4693 29.5799 23.4693V23.4537ZM29.6422 23.6875H32.0433C32.09 23.6875 32.1368 23.7343 32.1368 23.7967C32.1368 23.859 32.09 23.9058 32.0433 23.9058H29.6266C29.5643 23.9058 29.5331 23.859 29.5331 23.7967C29.5331 23.7343 29.5643 23.6875 29.6266 23.6875H29.6422ZM30.4218 22.0349H30.6089V22.1596H30.7492V22.0349H30.9519V22.1752H31.0922V22.0193H31.2793V22.3311C31.2793 22.3935 31.2481 22.4247 31.2013 22.4247H30.5153C30.4686 22.4247 30.4218 22.3935 30.4218 22.3467V22.0349Z" stroke="black" stroke-width="0.0779553"/>
<path d="M30.3307 22.9241V23.4542H29.707V22.9241H30.3307Z" fill="#FFFF00" stroke="black" stroke-width="0.0779553"/>
<path d="M30.3307 22.9241V23.4542H29.707V22.9241H30.3307Z" fill="#FFFF00" stroke="black" stroke-width="0.0779553"/>
<path d="M29.5996 22.5183H29.7867V22.6742H29.927V22.5183H30.1141V22.6742H30.2544V22.5183H30.4415V22.8301C30.4415 22.8925 30.4103 22.9237 30.3636 22.9237H29.6932C29.6683 22.9237 29.6446 22.9138 29.627 22.8963C29.6095 22.8787 29.5996 22.8549 29.5996 22.8301V22.5183Z" fill="#FFFF00" stroke="black" stroke-width="0.0779553"/>
<path d="M29.5996 22.5183H29.7867V22.6742H29.927V22.5183H30.1141V22.6742H30.2544V22.5183H30.4415V22.8301C30.4415 22.8925 30.4103 22.9237 30.3636 22.9237H29.6932C29.6683 22.9237 29.6446 22.9138 29.627 22.8963C29.6095 22.8787 29.5996 22.8549 29.5996 22.8301V22.5183Z" fill="#FFFF00" stroke="black" stroke-width="0.0779553"/>
<path d="M30.7812 22.7679C30.7812 22.6744 30.9216 22.6744 30.9216 22.7679V23.0174H30.7812V22.7679Z" fill="black"/>
<path d="M29.957 23.1109C29.957 23.0174 30.0818 23.0174 30.0818 23.1109V23.298H29.957V23.1109Z" fill="black"/>
<path d="M29.957 23.1109C29.957 23.0174 30.0818 23.0174 30.0818 23.1109V23.298H29.957V23.1109Z" fill="black"/>
<path d="M33.0179 39.6614C32.4204 39.0461 32.7051 38.4718 32.7051 38.4718C32.7161 38.4607 33.3323 38.1499 33.9408 38.7541L33.029 39.6723" fill="#FFFF00"/>
<path d="M31.9056 39.3015L32.5257 40.0711L32.9871 39.6064C32.4118 39.0351 32.7627 38.5047 32.7627 38.5047C32.7737 38.4937 33.3239 38.1831 33.8769 38.7103L34.3383 38.2457L33.5424 37.6311L31.8945 39.2905L31.9056 39.3015ZM32.5038 40.1152L34.3714 38.2345C34.4043 38.2013 34.4705 38.2011 34.5147 38.2451C34.57 38.3 34.5703 38.3661 34.5373 38.3993L32.6697 40.28C32.6367 40.3132 32.5706 40.3135 32.5153 40.2585C32.471 40.2146 32.4708 40.1484 32.5147 40.1042L32.5038 40.1152Z" fill="#FFFF00" stroke="black" stroke-width="0.0779553"/>
<path d="M33.1755 39.4181C32.8105 39.0556 32.9636 38.7023 32.9636 38.7023C32.9636 38.7023 33.3269 38.5577 33.6809 38.9092L33.1755 39.4181ZM31.5427 39.071L33.3334 37.2678C33.3664 37.2346 33.4436 37.2453 33.4878 37.2893C33.521 37.3222 33.5212 37.3884 33.4883 37.4216L31.6976 39.2248C31.6646 39.258 31.5985 39.2583 31.5542 39.2143C31.521 39.1814 31.5208 39.1152 31.5538 39.082L31.5427 39.071ZM31.7526 39.1916L33.4444 37.4879C33.4774 37.4547 33.5435 37.4545 33.5878 37.4984C33.632 37.5424 33.6323 37.6085 33.5993 37.6417L31.8965 39.3564C31.8525 39.4007 31.7974 39.3899 31.7531 39.3459C31.7089 39.302 31.6977 39.2469 31.7416 39.2026L31.7526 39.1916ZM31.1292 37.4739L31.261 37.3412L31.3495 37.429L31.4484 37.3295L31.3599 37.2416L31.5027 37.0978L31.6023 37.1967L31.7012 37.0971L31.5905 36.9872L31.7224 36.8545L31.9436 37.0742C31.9879 37.1181 31.988 37.1622 31.9551 37.1954L31.4717 37.6822C31.4387 37.7154 31.3837 37.7266 31.3505 37.6936L31.1292 37.4739ZM31.9333 37.2616L32.6742 37.9316L32.2019 38.4073L31.5157 37.66L31.9222 37.2507" fill="#FFFF00"/>
<path d="M31.9333 37.2616L32.6742 37.9316L32.2019 38.4073L31.5157 37.66L31.9222 37.2507M33.1755 39.4181C32.8105 39.0556 32.9636 38.7023 32.9636 38.7023C32.9636 38.7023 33.3269 38.5577 33.6809 38.9092L33.1755 39.4181ZM31.5427 39.071L33.3334 37.2678C33.3664 37.2346 33.4436 37.2453 33.4878 37.2893C33.521 37.3222 33.5212 37.3884 33.4883 37.4216L31.6976 39.2248C31.6646 39.258 31.5985 39.2583 31.5542 39.2143C31.521 39.1814 31.5208 39.1152 31.5538 39.082L31.5427 39.071ZM31.7526 39.1916L33.4444 37.4879C33.4774 37.4547 33.5435 37.4545 33.5878 37.4984C33.632 37.5424 33.6323 37.6085 33.5993 37.6417L31.8965 39.3564C31.8525 39.4007 31.7974 39.3899 31.7531 39.3459C31.7089 39.302 31.6977 39.2469 31.7416 39.2026L31.7526 39.1916ZM31.1292 37.4739L31.261 37.3412L31.3495 37.429L31.4484 37.3295L31.3599 37.2416L31.5027 37.0978L31.6023 37.1967L31.7012 37.0971L31.5905 36.9872L31.7224 36.8545L31.9436 37.0742C31.9879 37.1181 31.988 37.1622 31.9551 37.1954L31.4717 37.6822C31.4387 37.7154 31.3837 37.7266 31.3505 37.6936L31.1292 37.4739Z" stroke="black" stroke-width="0.0779553"/>
<path d="M31.6914 38.1666L32.0675 38.5401L31.6281 38.9827L31.252 38.6091L31.6914 38.1666Z" fill="#FFFF00" stroke="black" stroke-width="0.0779553"/>
<path d="M31.6914 38.1666L32.0675 38.5401L31.6281 38.9827L31.252 38.6091L31.6914 38.1666Z" fill="#FFFF00" stroke="black" stroke-width="0.0779553"/>
<path d="M30.8887 38.4009L31.0205 38.2681L31.1311 38.378L31.23 38.2784L31.1194 38.1686L31.2512 38.0358L31.3618 38.1457L31.4607 38.0461L31.3501 37.9362L31.4819 37.8035L31.7032 38.0232C31.7474 38.0671 31.7476 38.1112 31.7146 38.1444L31.2422 38.6201C31.2247 38.6377 31.201 38.6477 31.1762 38.6478C31.1514 38.6479 31.1275 38.6381 31.1099 38.6206L30.8887 38.4009Z" fill="#FFFF00" stroke="black" stroke-width="0.0779553"/>
<path d="M30.8887 38.4009L31.0205 38.2681L31.1311 38.378L31.23 38.2784L31.1194 38.1686L31.2512 38.0358L31.3618 38.1457L31.4607 38.0461L31.3501 37.9362L31.4819 37.8035L31.7032 38.0232C31.7474 38.0671 31.7476 38.1112 31.7146 38.1444L31.2422 38.6201C31.2247 38.6377 31.201 38.6477 31.1762 38.6478C31.1514 38.6479 31.1275 38.6381 31.1099 38.6206L30.8887 38.4009Z" fill="#FFFF00" stroke="black" stroke-width="0.0779553"/>
<path d="M31.8994 37.7357C31.833 37.6698 31.9319 37.5702 31.9983 37.6361L32.1753 37.8119L32.0764 37.9115L31.8994 37.7357Z" fill="black"/>
<path d="M31.5635 38.5638C31.4971 38.4979 31.585 38.4094 31.6513 38.4753L31.7841 38.6072L31.6962 38.6957L31.5635 38.5638Z" fill="black"/>
<path d="M31.5635 38.5638C31.4971 38.4979 31.585 38.4094 31.6513 38.4753L31.7841 38.6072L31.6962 38.6957L31.5635 38.5638Z" fill="black"/>
<path d="M30.207 24.9193C30.2226 24.0618 30.8307 23.8591 30.8307 23.8591C30.8463 23.8591 31.5011 24.0774 31.5011 24.9349H30.207" fill="#FFFF00"/>
<path d="M29.6752 23.8747L29.5661 24.857H30.2209C30.2209 24.0462 30.8446 23.9215 30.8446 23.9215C30.8602 23.9215 31.4682 24.093 31.4838 24.857H32.1386L32.0139 23.8591H29.6752V23.8747ZM29.5193 24.8725H32.1698C32.2166 24.8725 32.2634 24.9193 32.2634 24.9817C32.2634 25.0596 32.2166 25.1064 32.1698 25.1064H29.5193C29.4726 25.1064 29.4258 25.0596 29.4258 24.9817C29.4258 24.9193 29.4726 24.8725 29.5349 24.8725H29.5193Z" fill="#FFFF00" stroke="black" stroke-width="0.0779553"/>
<path d="M30.4842 24.8569C30.4842 24.3424 30.8428 24.202 30.8428 24.202C30.8428 24.202 31.2013 24.3579 31.2013 24.8569H30.4842ZM29.5799 23.4537H32.1212C32.168 23.4537 32.2148 23.516 32.2148 23.5784C32.2148 23.6252 32.168 23.6719 32.1212 23.6719H29.5799C29.5331 23.6719 29.4863 23.6252 29.4863 23.5628C29.4863 23.516 29.5331 23.4693 29.5799 23.4693V23.4537ZM29.6422 23.6875H32.0433C32.09 23.6875 32.1368 23.7343 32.1368 23.7967C32.1368 23.859 32.09 23.9058 32.0433 23.9058H29.6266C29.5643 23.9058 29.5331 23.859 29.5331 23.7967C29.5331 23.7343 29.5643 23.6875 29.6266 23.6875H29.6422ZM30.4218 22.0349H30.6089V22.1596H30.7492V22.0349H30.9519V22.1752H31.0922V22.0193H31.2793V22.3311C31.2793 22.3935 31.2481 22.4247 31.2013 22.4247H30.5153C30.4686 22.4247 30.4218 22.3935 30.4218 22.3467V22.0349ZM31.139 22.4558L31.1858 23.4537H30.5153L30.5621 22.4402H31.139" fill="#FFFF00"/>
<path d="M31.139 22.4558L31.1858 23.4537H30.5153L30.5621 22.4402H31.139M30.4842 24.8569C30.4842 24.3424 30.8428 24.202 30.8428 24.202C30.8428 24.202 31.2013 24.3579 31.2013 24.8569H30.4842ZM29.5799 23.4537H32.1212C32.168 23.4537 32.2148 23.516 32.2148 23.5784C32.2148 23.6252 32.168 23.6719 32.1212 23.6719H29.5799C29.5331 23.6719 29.4863 23.6252 29.4863 23.5628C29.4863 23.516 29.5331 23.4693 29.5799 23.4693V23.4537ZM29.6422 23.6875H32.0433C32.09 23.6875 32.1368 23.7343 32.1368 23.7967C32.1368 23.859 32.09 23.9058 32.0433 23.9058H29.6266C29.5643 23.9058 29.5331 23.859 29.5331 23.7967C29.5331 23.7343 29.5643 23.6875 29.6266 23.6875H29.6422ZM30.4218 22.0349H30.6089V22.1596H30.7492V22.0349H30.9519V22.1752H31.0922V22.0193H31.2793V22.3311C31.2793 22.3935 31.2481 22.4247 31.2013 22.4247H30.5153C30.4686 22.4247 30.4218 22.3935 30.4218 22.3467V22.0349Z" stroke="black" stroke-width="0.0779553"/>
<path d="M30.3307 22.9241V23.4542H29.707V22.9241H30.3307Z" fill="#FFFF00" stroke="black" stroke-width="0.0779553"/>
<path d="M30.3307 22.9241V23.4542H29.707V22.9241H30.3307Z" fill="#FFFF00" stroke="black" stroke-width="0.0779553"/>
<path d="M29.5996 22.5183H29.7867V22.6742H29.927V22.5183H30.1141V22.6742H30.2544V22.5183H30.4415V22.8301C30.4415 22.8925 30.4103 22.9237 30.3636 22.9237H29.6932C29.6683 22.9237 29.6446 22.9138 29.627 22.8963C29.6095 22.8787 29.5996 22.8549 29.5996 22.8301V22.5183Z" fill="#FFFF00" stroke="black" stroke-width="0.0779553"/>
<path d="M29.5996 22.5183H29.7867V22.6742H29.927V22.5183H30.1141V22.6742H30.2544V22.5183H30.4415V22.8301C30.4415 22.8925 30.4103 22.9237 30.3636 22.9237H29.6932C29.6683 22.9237 29.6446 22.9138 29.627 22.8963C29.6095 22.8787 29.5996 22.8549 29.5996 22.8301V22.5183Z" fill="#FFFF00" stroke="black" stroke-width="0.0779553"/>
<path d="M30.7812 22.7679C30.7812 22.6744 30.9216 22.6744 30.9216 22.7679V23.0174H30.7812V22.7679Z" fill="black"/>
<path d="M29.957 23.1109C29.957 23.0174 30.0818 23.0174 30.0818 23.1109V23.298H29.957V23.1109Z" fill="black"/>
<path d="M29.957 23.1109C29.957 23.0174 30.0818 23.0174 30.0818 23.1109V23.298H29.957V23.1109Z" fill="black"/>
<path d="M45.6992 24.9193C45.6836 24.0618 45.0756 23.8591 45.0756 23.8591C45.06 23.8591 44.4052 24.0774 44.4052 24.9349H45.6992" fill="#FFFF00"/>
<path d="M46.231 23.8747L46.3401 24.857H45.6853C45.6853 24.0462 45.0617 23.9215 45.0617 23.9215C45.0461 23.9215 44.438 24.093 44.4224 24.857H43.7676L43.8924 23.8591H46.231V23.8747ZM46.3869 24.8725H43.7364C43.6897 24.8725 43.6429 24.9193 43.6429 24.9817C43.6429 25.0596 43.6897 25.1064 43.7364 25.1064H46.3869C46.4337 25.1064 46.4805 25.0596 46.4805 24.9817C46.4805 24.9193 46.4337 24.8725 46.3713 24.8725H46.3869Z" fill="#FFFF00" stroke="black" stroke-width="0.0779553"/>
<path d="M45.4221 24.8569C45.4221 24.3424 45.0635 24.202 45.0635 24.202C45.0635 24.202 44.7049 24.3579 44.7049 24.8569H45.4221ZM46.3264 23.4537H43.785C43.7383 23.4537 43.6915 23.516 43.6915 23.5784C43.6915 23.6252 43.7383 23.6719 43.785 23.6719H46.3264C46.3732 23.6719 46.4199 23.6252 46.4199 23.5628C46.4199 23.516 46.3732 23.4693 46.3264 23.4693V23.4537ZM46.264 23.6875H43.863C43.8162 23.6875 43.7694 23.7343 43.7694 23.7967C43.7694 23.859 43.8162 23.9058 43.863 23.9058H46.2796C46.342 23.9058 46.3732 23.859 46.3732 23.7967C46.3732 23.7343 46.342 23.6875 46.2796 23.6875H46.264ZM45.4845 22.0349H45.2974V22.1596H45.157V22.0349H44.9544V22.1752H44.814V22.0193H44.6269V22.3311C44.6269 22.3935 44.6581 22.4247 44.7049 22.4247H45.3909C45.4377 22.4247 45.4845 22.3935 45.4845 22.3467V22.0349ZM44.7673 22.4558L44.7205 23.4537H45.3909L45.3441 22.4402H44.7673" fill="#FFFF00"/>
<path d="M44.7673 22.4558L44.7205 23.4537H45.3909L45.3441 22.4402H44.7673M45.4221 24.8569C45.4221 24.3424 45.0635 24.202 45.0635 24.202C45.0635 24.202 44.7049 24.3579 44.7049 24.8569H45.4221ZM46.3264 23.4537H43.785C43.7383 23.4537 43.6915 23.516 43.6915 23.5784C43.6915 23.6252 43.7383 23.6719 43.785 23.6719H46.3264C46.3732 23.6719 46.4199 23.6252 46.4199 23.5628C46.4199 23.516 46.3732 23.4693 46.3264 23.4693V23.4537ZM46.264 23.6875H43.863C43.8162 23.6875 43.7694 23.7343 43.7694 23.7967C43.7694 23.859 43.8162 23.9058 43.863 23.9058H46.2796C46.342 23.9058 46.3732 23.859 46.3732 23.7967C46.3732 23.7343 46.342 23.6875 46.2796 23.6875H46.264ZM45.4845 22.0349H45.2974V22.1596H45.157V22.0349H44.9544V22.1752H44.814V22.0193H44.6269V22.3311C44.6269 22.3935 44.6581 22.4247 44.7049 22.4247H45.3909C45.4377 22.4247 45.4845 22.3935 45.4845 22.3467V22.0349Z" stroke="black" stroke-width="0.0779553"/>
<path d="M45.5756 22.9236V23.4537H46.1992V22.9236H45.5756Z" fill="#FFFF00" stroke="black" stroke-width="0.0779553"/>
<path d="M45.5756 22.9236V23.4537H46.1992V22.9236H45.5756Z" fill="#FFFF00" stroke="black" stroke-width="0.0779553"/>
<path d="M46.3066 22.5181H46.1195V22.674H45.9792V22.5181H45.7921V22.674H45.6518V22.5181H45.4647V22.8299C45.4647 22.8923 45.4959 22.9234 45.5427 22.9234H46.2131C46.2379 22.9234 46.2617 22.9136 46.2792 22.896C46.2968 22.8785 46.3066 22.8547 46.3066 22.8299V22.5181Z" fill="#FFFF00" stroke="black" stroke-width="0.0779553"/>
<path d="M46.3066 22.5181H46.1195V22.674H45.9792V22.5181H45.7921V22.674H45.6518V22.5181H45.4647V22.8299C45.4647 22.8923 45.4959 22.9234 45.5427 22.9234H46.2131C46.2379 22.9234 46.2617 22.9136 46.2792 22.896C46.2968 22.8785 46.3066 22.8547 46.3066 22.8299V22.5181Z" fill="#FFFF00" stroke="black" stroke-width="0.0779553"/>
<path d="M45.125 22.7679C45.125 22.6744 44.9847 22.6744 44.9847 22.7679V23.0174H45.125V22.7679Z" fill="black"/>
<path d="M45.9492 23.1109C45.9492 23.0174 45.8245 23.0174 45.8245 23.1109V23.298H45.9492V23.1109Z" fill="black"/>
<path d="M45.9492 23.1109C45.9492 23.0174 45.8245 23.0174 45.8245 23.1109V23.298H45.9492V23.1109Z" fill="black"/>
<path d="M45.6992 24.9193C45.6836 24.0618 45.0756 23.8591 45.0756 23.8591C45.06 23.8591 44.4052 24.0774 44.4052 24.9349H45.6992" fill="#FFFF00"/>
<path d="M46.231 23.8747L46.3401 24.857H45.6853C45.6853 24.0462 45.0617 23.9215 45.0617 23.9215C45.0461 23.9215 44.438 24.093 44.4224 24.857H43.7676L43.8924 23.8591H46.231V23.8747ZM46.3869 24.8725H43.7364C43.6897 24.8725 43.6429 24.9193 43.6429 24.9817C43.6429 25.0596 43.6897 25.1064 43.7364 25.1064H46.3869C46.4337 25.1064 46.4805 25.0596 46.4805 24.9817C46.4805 24.9193 46.4337 24.8725 46.3713 24.8725H46.3869Z" fill="#FFFF00" stroke="black" stroke-width="0.0779553"/>
<path d="M45.4221 24.8569C45.4221 24.3424 45.0635 24.202 45.0635 24.202C45.0635 24.202 44.7049 24.3579 44.7049 24.8569H45.4221ZM46.3264 23.4537H43.785C43.7383 23.4537 43.6915 23.516 43.6915 23.5784C43.6915 23.6252 43.7383 23.6719 43.785 23.6719H46.3264C46.3732 23.6719 46.4199 23.6252 46.4199 23.5628C46.4199 23.516 46.3732 23.4693 46.3264 23.4693V23.4537ZM46.264 23.6875H43.863C43.8162 23.6875 43.7694 23.7343 43.7694 23.7967C43.7694 23.859 43.8162 23.9058 43.863 23.9058H46.2796C46.342 23.9058 46.3732 23.859 46.3732 23.7967C46.3732 23.7343 46.342 23.6875 46.2796 23.6875H46.264ZM45.4845 22.0349H45.2974V22.1596H45.157V22.0349H44.9544V22.1752H44.814V22.0193H44.6269V22.3311C44.6269 22.3935 44.6581 22.4247 44.7049 22.4247H45.3909C45.4377 22.4247 45.4845 22.3935 45.4845 22.3467V22.0349ZM44.7673 22.4558L44.7205 23.4537H45.3909L45.3441 22.4402H44.7673" fill="#FFFF00"/>
<path d="M44.7673 22.4558L44.7205 23.4537H45.3909L45.3441 22.4402H44.7673M45.4221 24.8569C45.4221 24.3424 45.0635 24.202 45.0635 24.202C45.0635 24.202 44.7049 24.3579 44.7049 24.8569H45.4221ZM46.3264 23.4537H43.785C43.7383 23.4537 43.6915 23.516 43.6915 23.5784C43.6915 23.6252 43.7383 23.6719 43.785 23.6719H46.3264C46.3732 23.6719 46.4199 23.6252 46.4199 23.5628C46.4199 23.516 46.3732 23.4693 46.3264 23.4693V23.4537ZM46.264 23.6875H43.863C43.8162 23.6875 43.7694 23.7343 43.7694 23.7967C43.7694 23.859 43.8162 23.9058 43.863 23.9058H46.2796C46.342 23.9058 46.3732 23.859 46.3732 23.7967C46.3732 23.7343 46.342 23.6875 46.2796 23.6875H46.264ZM45.4845 22.0349H45.2974V22.1596H45.157V22.0349H44.9544V22.1752H44.814V22.0193H44.6269V22.3311C44.6269 22.3935 44.6581 22.4247 44.7049 22.4247H45.3909C45.4377 22.4247 45.4845 22.3935 45.4845 22.3467V22.0349Z" stroke="black" stroke-width="0.0779553"/>
<path d="M45.5756 22.9236V23.4537H46.1992V22.9236H45.5756Z" fill="#FFFF00" stroke="black" stroke-width="0.0779553"/>
<path d="M45.5756 22.9236V23.4537H46.1992V22.9236H45.5756Z" fill="#FFFF00" stroke="black" stroke-width="0.0779553"/>
<path d="M46.3066 22.5181H46.1195V22.674H45.9792V22.5181H45.7921V22.674H45.6518V22.5181H45.4647V22.8299C45.4647 22.8923 45.4959 22.9234 45.5427 22.9234H46.2131C46.2379 22.9234 46.2617 22.9136 46.2792 22.896C46.2968 22.8785 46.3066 22.8547 46.3066 22.8299V22.5181Z" fill="#FFFF00" stroke="black" stroke-width="0.0779553"/>
<path d="M46.3066 22.5181H46.1195V22.674H45.9792V22.5181H45.7921V22.674H45.6518V22.5181H45.4647V22.8299C45.4647 22.8923 45.4959 22.9234 45.5427 22.9234H46.2131C46.2379 22.9234 46.2617 22.9136 46.2792 22.896C46.2968 22.8785 46.3066 22.8547 46.3066 22.8299V22.5181Z" fill="#FFFF00" stroke="black" stroke-width="0.0779553"/>
<path d="M45.125 22.7679C45.125 22.6744 44.9847 22.6744 44.9847 22.7679V23.0174H45.125V22.7679Z" fill="black"/>
<path d="M45.9492 23.1109C45.9492 23.0174 45.8245 23.0174 45.8245 23.1109V23.298H45.9492V23.1109Z" fill="black"/>
<path d="M45.9492 23.1109C45.9492 23.0174 45.8245 23.0174 45.8245 23.1109V23.298H45.9492V23.1109Z" fill="black"/>
<path d="M42.8864 39.6609C43.4839 39.0456 43.1992 38.4713 43.1992 38.4713C43.1882 38.4602 42.572 38.1494 41.9635 38.7536L42.8753 39.6719" fill="#FFFF00"/>
<path d="M44.0026 39.3013L43.3825 40.0708L42.9211 39.6062C43.4964 39.0349 43.1455 38.5045 43.1455 38.5045C43.1345 38.4934 42.5843 38.1828 42.0313 38.7101L41.5699 38.2454L42.3658 37.6308L44.0137 39.2903L44.0026 39.3013ZM43.4044 40.115L41.5368 38.2343C41.5039 38.2011 41.4377 38.2009 41.3935 38.2448C41.3382 38.2997 41.3379 38.3659 41.3709 38.3991L43.2385 40.2798C43.2715 40.313 43.3376 40.3132 43.3929 40.2583C43.4372 40.2143 43.4374 40.1482 43.3935 40.1039L43.4044 40.115Z" fill="#FFFF00" stroke="black" stroke-width="0.0779553"/>
<path d="M42.7327 39.4179C43.0977 39.0553 42.9446 38.702 42.9446 38.702C42.9446 38.702 42.5813 38.5574 42.2273 38.909L42.7327 39.4179ZM44.3655 39.0708L42.5748 37.2675C42.5418 37.2343 42.4646 37.2451 42.4204 37.289C42.3872 37.322 42.387 37.3882 42.4199 37.4213L44.2106 39.2246C44.2436 39.2578 44.3097 39.258 44.354 39.2141C44.3872 39.1811 44.3874 39.115 44.3544 39.0818L44.3655 39.0708ZM44.1556 39.1913L42.4638 37.4876C42.4308 37.4545 42.3647 37.4542 42.3204 37.4982C42.2762 37.5421 42.2759 37.6083 42.3089 37.6414L44.0117 39.3562C44.0557 39.4005 44.1108 39.3896 44.1551 39.3457C44.1993 39.3017 44.2106 39.2467 44.1666 39.2024L44.1556 39.1913ZM44.779 37.4737L44.6472 37.3409L44.5587 37.4288L44.4598 37.3292L44.5483 37.2414L44.4055 37.0975L44.3059 37.1964L44.207 37.0968L44.3177 36.987L44.1858 36.8542L43.9646 37.0739C43.9203 37.1179 43.9202 37.162 43.9531 37.1952L44.4365 37.6819C44.4695 37.7151 44.5245 37.7263 44.5577 37.6934L44.779 37.4737ZM43.9749 37.2614L43.234 37.9313L43.7064 38.407L44.3925 37.6597L43.986 37.2504" fill="#FFFF00"/>
<path d="M43.9749 37.2614L43.234 37.9313L43.7064 38.407L44.3925 37.6597L43.986 37.2504M42.7327 39.4179C43.0977 39.0553 42.9446 38.702 42.9446 38.702C42.9446 38.702 42.5813 38.5574 42.2273 38.909L42.7327 39.4179ZM44.3655 39.0708L42.5748 37.2675C42.5418 37.2343 42.4646 37.2451 42.4204 37.289C42.3872 37.322 42.387 37.3882 42.4199 37.4213L44.2106 39.2246C44.2436 39.2578 44.3097 39.258 44.354 39.2141C44.3872 39.1811 44.3874 39.115 44.3544 39.0818L44.3655 39.0708ZM44.1556 39.1913L42.4638 37.4876C42.4308 37.4545 42.3647 37.4542 42.3204 37.4982C42.2762 37.5421 42.2759 37.6083 42.3089 37.6414L44.0117 39.3562C44.0557 39.4005 44.1108 39.3896 44.1551 39.3457C44.1993 39.3017 44.2106 39.2467 44.1666 39.2024L44.1556 39.1913ZM44.779 37.4737L44.6472 37.3409L44.5587 37.4288L44.4598 37.3292L44.5483 37.2414L44.4055 37.0975L44.3059 37.1964L44.207 37.0968L44.3177 36.987L44.1858 36.8542L43.9646 37.0739C43.9203 37.1179 43.9202 37.162 43.9531 37.1952L44.4365 37.6819C44.4695 37.7151 44.5245 37.7264 44.5577 37.6934L44.779 37.4737Z" stroke="black" stroke-width="0.0779553"/>
<path d="M44.2168 38.1661L43.8407 38.5396L44.2801 38.9822L44.6562 38.6086L44.2168 38.1661Z" fill="#FFFF00" stroke="black" stroke-width="0.0779553"/>
<path d="M44.2168 38.1661L43.8407 38.5396L44.2801 38.9822L44.6562 38.6086L44.2168 38.1661Z" fill="#FFFF00" stroke="black" stroke-width="0.0779553"/>
<path d="M45.0195 38.4004L44.8877 38.2676L44.7771 38.3775L44.6782 38.2779L44.7888 38.1681L44.657 38.0353L44.5464 38.1452L44.4475 38.0456L44.5581 37.9357L44.4263 37.803L44.205 38.0227C44.1608 38.0667 44.1606 38.1108 44.1936 38.1439L44.666 38.6197C44.6835 38.6373 44.7072 38.6472 44.732 38.6473C44.7568 38.6474 44.7807 38.6376 44.7983 38.6201L45.0195 38.4004Z" fill="#FFFF00" stroke="black" stroke-width="0.0779553"/>
<path d="M45.0195 38.4004L44.8877 38.2676L44.7771 38.3775L44.6782 38.2779L44.7888 38.1681L44.657 38.0353L44.5464 38.1452L44.4475 38.0456L44.5581 37.9357L44.4263 37.803L44.205 38.0227C44.1608 38.0667 44.1606 38.1108 44.1936 38.1439L44.666 38.6197C44.6835 38.6373 44.7072 38.6472 44.732 38.6473C44.7568 38.6474 44.7807 38.6376 44.7983 38.6201L45.0195 38.4004Z" fill="#FFFF00" stroke="black" stroke-width="0.0779553"/>
<path d="M44.0088 37.7355C44.0752 37.6696 43.9763 37.57 43.9099 37.6359L43.7329 37.8117L43.8318 37.9112L44.0088 37.7355Z" fill="black"/>
<path d="M44.3447 38.5636C44.4111 38.4977 44.3232 38.4092 44.2569 38.4751L44.1241 38.6069L44.212 38.6954L44.3447 38.5636Z" fill="black"/>
<path d="M44.3447 38.5636C44.4111 38.4977 44.3232 38.4092 44.2569 38.4751L44.1241 38.6069L44.212 38.6954L44.3447 38.5636Z" fill="black"/>
<path d="M36.8223 32.4031C36.8195 32.7321 36.9421 33.0499 37.1653 33.2918C37.2694 33.4082 37.3967 33.5016 37.539 33.566C37.6813 33.6305 37.8355 33.6645 37.9916 33.6659C38.3191 33.6659 38.6153 33.51 38.818 33.2918C39.0411 33.0499 39.1638 32.7321 39.161 32.4031V30.7192H36.8223V32.4031Z" fill="#003399"/>
<path d="M37.3667 31.5922C37.4958 31.5922 37.6005 31.4875 37.6005 31.3584C37.6005 31.2292 37.4958 31.1245 37.3667 31.1245C37.2375 31.1245 37.1328 31.2292 37.1328 31.3584C37.1328 31.4875 37.2375 31.5922 37.3667 31.5922Z" fill="white"/>
<path d="M38.6577 31.5922C38.7869 31.5922 38.8916 31.4875 38.8916 31.3584C38.8916 31.2292 38.7869 31.1245 38.6577 31.1245C38.5285 31.1245 38.4238 31.2292 38.4238 31.3584C38.4238 31.4875 38.5285 31.5922 38.6577 31.5922Z" fill="white"/>
<path d="M38.0073 32.2158C38.1365 32.2158 38.2412 32.1111 38.2412 31.9819C38.2412 31.8528 38.1365 31.748 38.0073 31.748C37.8781 31.748 37.7734 31.8528 37.7734 31.9819C37.7734 32.1111 37.8781 32.2158 38.0073 32.2158Z" fill="white"/>
<path d="M37.3667 32.8708C37.4958 32.8708 37.6005 32.7661 37.6005 32.6369C37.6005 32.5078 37.4958 32.4031 37.3667 32.4031C37.2375 32.4031 37.1328 32.5078 37.1328 32.6369C37.1328 32.7661 37.2375 32.8708 37.3667 32.8708Z" fill="white"/>
<path d="M38.6577 32.8708C38.7869 32.8708 38.8916 32.7661 38.8916 32.6369C38.8916 32.5078 38.7869 32.4031 38.6577 32.4031C38.5285 32.4031 38.4238 32.5078 38.4238 32.6369C38.4238 32.7661 38.5285 32.8708 38.6577 32.8708Z" fill="white"/>
<path d="M36.8223 32.4031C36.8195 32.7321 36.9421 33.0499 37.1653 33.2918C37.2694 33.4082 37.3967 33.5016 37.539 33.566C37.6813 33.6305 37.8355 33.6645 37.9916 33.6659C38.3191 33.6659 38.6153 33.51 38.818 33.2918C39.0411 33.0499 39.1638 32.7321 39.161 32.4031V30.7192H36.8223V32.4031Z" fill="#003399"/>
<path d="M37.3667 31.5922C37.4958 31.5922 37.6005 31.4875 37.6005 31.3584C37.6005 31.2292 37.4958 31.1245 37.3667 31.1245C37.2375 31.1245 37.1328 31.2292 37.1328 31.3584C37.1328 31.4875 37.2375 31.5922 37.3667 31.5922Z" fill="white"/>
<path d="M38.6577 31.5922C38.7869 31.5922 38.8916 31.4875 38.8916 31.3584C38.8916 31.2292 38.7869 31.1245 38.6577 31.1245C38.5285 31.1245 38.4238 31.2292 38.4238 31.3584C38.4238 31.4875 38.5285 31.5922 38.6577 31.5922Z" fill="white"/>
<path d="M38.0073 32.2158C38.1365 32.2158 38.2412 32.1111 38.2412 31.9819C38.2412 31.8528 38.1365 31.748 38.0073 31.748C37.8781 31.748 37.7734 31.8528 37.7734 31.9819C37.7734 32.1111 37.8781 32.2158 38.0073 32.2158Z" fill="white"/>
<path d="M37.3667 32.8708C37.4958 32.8708 37.6005 32.7661 37.6005 32.6369C37.6005 32.5078 37.4958 32.4031 37.3667 32.4031C37.2375 32.4031 37.1328 32.5078 37.1328 32.6369C37.1328 32.7661 37.2375 32.8708 37.3667 32.8708Z" fill="white"/>
<path d="M38.6577 32.8708C38.7869 32.8708 38.8916 32.7661 38.8916 32.6369C38.8916 32.5078 38.7869 32.4031 38.6577 32.4031C38.5285 32.4031 38.4238 32.5078 38.4238 32.6369C38.4238 32.7661 38.5285 32.8708 38.6577 32.8708Z" fill="white"/>
<path d="M36.8223 32.4031C36.8195 32.7321 36.9421 33.0499 37.1653 33.2918C37.2694 33.4082 37.3967 33.5016 37.539 33.566C37.6813 33.6305 37.8355 33.6645 37.9916 33.6659C38.3191 33.6659 38.6153 33.51 38.818 33.2918C39.0411 33.0499 39.1638 32.7321 39.161 32.4031V30.7192H36.8223V32.4031Z" fill="#003399"/>
<path d="M37.3667 31.5922C37.4958 31.5922 37.6005 31.4875 37.6005 31.3584C37.6005 31.2292 37.4958 31.1245 37.3667 31.1245C37.2375 31.1245 37.1328 31.2292 37.1328 31.3584C37.1328 31.4875 37.2375 31.5922 37.3667 31.5922Z" fill="white"/>
<path d="M38.6577 31.5922C38.7869 31.5922 38.8916 31.4875 38.8916 31.3584C38.8916 31.2292 38.7869 31.1245 38.6577 31.1245C38.5285 31.1245 38.4238 31.2292 38.4238 31.3584C38.4238 31.4875 38.5285 31.5922 38.6577 31.5922Z" fill="white"/>
<path d="M38.0073 32.2158C38.1365 32.2158 38.2412 32.1111 38.2412 31.9819C38.2412 31.8528 38.1365 31.748 38.0073 31.748C37.8781 31.748 37.7734 31.8528 37.7734 31.9819C37.7734 32.1111 37.8781 32.2158 38.0073 32.2158Z" fill="white"/>
<path d="M37.3667 32.8708C37.4958 32.8708 37.6005 32.7661 37.6005 32.6369C37.6005 32.5078 37.4958 32.4031 37.3667 32.4031C37.2375 32.4031 37.1328 32.5078 37.1328 32.6369C37.1328 32.7661 37.2375 32.8708 37.3667 32.8708Z" fill="white"/>
<path d="M38.6577 32.8708C38.7869 32.8708 38.8916 32.7661 38.8916 32.6369C38.8916 32.5078 38.7869 32.4031 38.6577 32.4031C38.5285 32.4031 38.4238 32.5078 38.4238 32.6369C38.4238 32.7661 38.5285 32.8708 38.6577 32.8708Z" fill="white"/>
<path d="M36.8223 32.4031C36.8195 32.7321 36.9421 33.0499 37.1653 33.2918C37.2694 33.4082 37.3967 33.5016 37.539 33.566C37.6813 33.6305 37.8355 33.6645 37.9916 33.6659C38.3191 33.6659 38.6153 33.51 38.818 33.2918C39.0411 33.0499 39.1638 32.7321 39.161 32.4031V30.7192H36.8223V32.4031Z" fill="#003399"/>
<path d="M37.3667 31.5922C37.4958 31.5922 37.6005 31.4875 37.6005 31.3584C37.6005 31.2292 37.4958 31.1245 37.3667 31.1245C37.2375 31.1245 37.1328 31.2292 37.1328 31.3584C37.1328 31.4875 37.2375 31.5922 37.3667 31.5922Z" fill="white"/>
<path d="M38.6577 31.5922C38.7869 31.5922 38.8916 31.4875 38.8916 31.3584C38.8916 31.2292 38.7869 31.1245 38.6577 31.1245C38.5285 31.1245 38.4238 31.2292 38.4238 31.3584C38.4238 31.4875 38.5285 31.5922 38.6577 31.5922Z" fill="white"/>
<path d="M38.0073 32.2158C38.1365 32.2158 38.2412 32.1111 38.2412 31.9819C38.2412 31.8528 38.1365 31.748 38.0073 31.748C37.8781 31.748 37.7734 31.8528 37.7734 31.9819C37.7734 32.1111 37.8781 32.2158 38.0073 32.2158Z" fill="white"/>
<path d="M37.3667 32.8708C37.4958 32.8708 37.6005 32.7661 37.6005 32.6369C37.6005 32.5078 37.4958 32.4031 37.3667 32.4031C37.2375 32.4031 37.1328 32.5078 37.1328 32.6369C37.1328 32.7661 37.2375 32.8708 37.3667 32.8708Z" fill="white"/>
<path d="M38.6577 32.8708C38.7869 32.8708 38.8916 32.7661 38.8916 32.6369C38.8916 32.5078 38.7869 32.4031 38.6577 32.4031C38.5285 32.4031 38.4238 32.5078 38.4238 32.6369C38.4238 32.7661 38.5285 32.8708 38.6577 32.8708Z" fill="white"/>
<path d="M36.8223 32.4031C36.8195 32.7321 36.9421 33.0499 37.1653 33.2918C37.2694 33.4082 37.3967 33.5016 37.539 33.566C37.6813 33.6305 37.8355 33.6645 37.9916 33.6659C38.3191 33.6659 38.6153 33.51 38.818 33.2918C39.0411 33.0499 39.1638 32.7321 39.161 32.4031V30.7192H36.8223V32.4031Z" fill="#003399"/>
<path d="M37.3667 31.5922C37.4958 31.5922 37.6005 31.4875 37.6005 31.3584C37.6005 31.2292 37.4958 31.1245 37.3667 31.1245C37.2375 31.1245 37.1328 31.2292 37.1328 31.3584C37.1328 31.4875 37.2375 31.5922 37.3667 31.5922Z" fill="white"/>
<path d="M38.6577 31.5922C38.7869 31.5922 38.8916 31.4875 38.8916 31.3584C38.8916 31.2292 38.7869 31.1245 38.6577 31.1245C38.5285 31.1245 38.4238 31.2292 38.4238 31.3584C38.4238 31.4875 38.5285 31.5922 38.6577 31.5922Z" fill="white"/>
<path d="M38.0073 32.2158C38.1365 32.2158 38.2412 32.1111 38.2412 31.9819C38.2412 31.8528 38.1365 31.748 38.0073 31.748C37.8781 31.748 37.7734 31.8528 37.7734 31.9819C37.7734 32.1111 37.8781 32.2158 38.0073 32.2158Z" fill="white"/>
<path d="M37.3667 32.8708C37.4958 32.8708 37.6005 32.7661 37.6005 32.6369C37.6005 32.5078 37.4958 32.4031 37.3667 32.4031C37.2375 32.4031 37.1328 32.5078 37.1328 32.6369C37.1328 32.7661 37.2375 32.8708 37.3667 32.8708Z" fill="white"/>
<path d="M38.6577 32.8708C38.7869 32.8708 38.8916 32.7661 38.8916 32.6369C38.8916 32.5078 38.7869 32.4031 38.6577 32.4031C38.5285 32.4031 38.4238 32.5078 38.4238 32.6369C38.4238 32.7661 38.5285 32.8708 38.6577 32.8708Z" fill="white"/>
</g>
<defs>
<clipPath id="clip0_1184_759">
<rect width="95.2558" height="64" rx="7.44186" fill="white"/>
</clipPath>
</defs>
</svg>
