<svg width="130" height="85" viewBox="0 0 130 85" fill="none" xmlns="http://www.w3.org/2000/svg">
<g clip-path="url(#clip0_752_1510)">
<path d="M11.6112 0.332031V4.64552H8.29518V26.8746H3.31807V4.64552H0V0.332031H11.6112Z" fill="white"/>
<path d="M17.362 0.332031V11.2796H19.5187V0.332031H24.3299V26.8746H19.5187V15.5931H17.362V26.8746H12.5508V0.332031H17.362Z" fill="white"/>
<path d="M25.666 0.332031H34.6248V4.64552H30.6431V11.2796H34.1271V15.5931H30.6431V22.5611H34.6248V26.8746H25.666V0.332031Z" fill="white"/>
<path d="M51.1943 26.874H39.3824V23.7219L44.724 11.9775C45.8075 9.61187 46.3503 7.66404 46.3503 6.13814V5.54006C46.3503 4.98705 46.2397 4.56717 46.0185 4.27838C45.7973 3.9691 45.488 3.81344 45.0886 3.81344C44.6892 3.81344 44.38 3.94657 44.1587 4.21079C43.9601 4.47705 43.8597 4.8744 43.8597 5.40488V8.29079C43.8597 8.90934 43.7942 9.40705 43.661 9.78392H39.1816V9.45211C39.3148 9.05476 39.3803 8.46693 39.3803 7.69271V7.06187C39.3803 4.84982 39.9108 3.12524 40.9718 1.88609C42.0553 0.624401 43.5381 -0.00439453 45.4184 -0.00439453C47.2986 -0.00439453 48.7242 0.603919 49.7647 1.82055C50.8051 3.01464 51.3233 4.61838 51.3233 6.63175C51.3233 8.22524 51.0243 9.78392 50.4283 11.3098C49.8527 12.8132 49.013 14.5726 47.9069 16.586L44.5233 22.7244H51.1922V26.872L51.1943 26.874Z" fill="white"/>
<path d="M51.8594 12.6067C51.8594 8.18262 52.4349 4.97515 53.5839 2.98431C54.735 0.993468 56.4268 -0.00195312 58.6594 -0.00195312C60.8919 -0.00195312 62.5858 0.993468 63.7348 2.98431C64.8859 4.97515 65.4594 8.18262 65.4594 12.6067V14.5976C65.4594 19.0217 64.8838 22.2291 63.7348 24.22C62.5837 26.2108 60.8919 27.2062 58.6594 27.2062C56.4268 27.2062 54.733 26.2108 53.5839 24.22C52.4329 22.2291 51.8594 19.0217 51.8594 14.5976V12.6067ZM57.3342 21.3648C57.3342 21.8953 57.455 22.3152 57.6988 22.6244C57.9425 22.9112 58.262 23.0566 58.6614 23.0566C59.0608 23.0566 59.3803 22.9132 59.6241 22.6244C59.8678 22.3152 59.9887 21.8953 59.9887 21.3648V5.67359C59.9887 5.14311 59.8678 4.73347 59.6241 4.44672C59.3803 4.13744 59.0608 3.98178 58.6614 3.98178C58.262 3.98178 57.9425 4.13744 57.6988 4.44672C57.455 4.73347 57.3342 5.14311 57.3342 5.67359V21.3668V21.3648Z" fill="white"/>
<path d="M78.2099 26.874H66.398V23.7219L71.7397 11.9775C72.8232 9.61187 73.3659 7.66404 73.3659 6.13814V5.54006C73.3659 4.98705 73.2553 4.56717 73.0341 4.27838C72.8129 3.9691 72.5037 3.81344 72.1043 3.81344C71.7049 3.81344 71.3956 3.94657 71.1744 4.21079C70.9757 4.47705 70.8753 4.8744 70.8753 5.40488V8.29079C70.8753 8.90934 70.8098 9.40705 70.6767 9.78392H66.1973V9.45211C66.3304 9.05476 66.3959 8.46693 66.3959 7.69271V7.06187C66.3959 4.84982 66.9264 3.12524 67.9894 1.88609C69.0729 0.624401 70.5558 -0.00439453 72.4361 -0.00439453C74.3163 -0.00439453 75.7418 0.603919 76.7823 1.82055C77.8228 3.01464 78.341 4.61838 78.341 6.63175C78.341 8.22524 78.042 9.78392 77.4459 11.3098C76.8704 12.8132 76.0306 14.5726 74.9246 16.586L71.541 22.7244H78.2099V26.872V26.874Z" fill="white"/>
<path d="M90.9345 26.874H79.1226V23.7219L84.4643 11.9775C85.5478 9.61187 86.0905 7.66404 86.0905 6.13814V5.54006C86.0905 4.98705 85.9799 4.56717 85.7587 4.27838C85.5375 3.9691 85.2283 3.81344 84.8289 3.81344C84.4295 3.81344 84.1202 3.94657 83.899 4.21079C83.7003 4.47705 83.5999 4.8744 83.5999 5.40488V8.29079C83.5999 8.90934 83.5344 9.40705 83.4013 9.78392H78.9219V9.45211C79.055 9.05476 79.1205 8.46693 79.1205 7.69271V7.06187C79.1205 4.84982 79.651 3.12524 80.714 1.88609C81.7975 0.624401 83.2804 -0.00439453 85.1607 -0.00439453C87.0409 -0.00439453 88.4665 0.603919 89.5069 1.82055C90.5474 3.01464 91.0656 4.61838 91.0656 6.63175C91.0656 8.22524 90.7666 9.78392 90.1705 11.3098C89.595 12.8132 88.7552 14.5726 87.6492 16.586L84.2656 22.7244H90.9345V26.872V26.874Z" fill="white"/>
<path d="M5.14215 29.3936C6.53492 29.3936 7.81914 29.6598 8.9907 30.1903C10.1623 30.6983 11.0921 31.4622 11.7783 32.4802C12.487 33.4981 12.8393 34.7352 12.8393 36.1956C12.8393 39.1368 11.512 41.183 8.85757 42.334V42.6658C10.0517 43.0857 11.0368 43.7944 11.8111 44.7898C12.6078 45.7852 13.0052 47.1452 13.0052 48.8698C13.0052 50.3957 12.6734 51.6902 12.0097 52.7511C11.3687 53.8121 10.4838 54.6089 9.35528 55.1393C8.24926 55.6698 7.0101 55.9361 5.63986 55.9361H0.396484V29.3936H5.14215ZM5.37359 40.673H5.7054C6.30347 40.673 6.77865 40.4517 7.13299 40.0093C7.50986 39.5669 7.69624 38.9033 7.69624 38.0185V36.0277C7.69624 35.1428 7.50781 34.4792 7.13299 34.0368C6.77865 33.5944 6.30347 33.3732 5.7054 33.3732H5.37359V40.673ZM5.37359 51.9523H5.7054C6.32395 51.9523 6.83395 51.7209 7.2313 51.256C7.65118 50.791 7.86215 50.0844 7.86215 49.132V47.473C7.86215 46.5226 7.65118 45.8139 7.2313 45.349C6.83395 44.884 6.32395 44.6526 5.7054 44.6526H5.37359V51.9523Z" fill="white"/>
<path d="M13.9414 29.3936H22.8982V33.7071H18.9165V40.3432H22.4004V44.6567H18.9165V51.6226H22.8982V55.9361H13.9414V29.3936Z" fill="white"/>
<path d="M33.2452 29.3936L35.7338 55.6043V55.9361H31.0885L30.5252 49.6317H28.6675L28.1043 55.9361H23.459V55.6043L25.9475 29.3936H33.2473H33.2452ZM30.4925 45.3183L29.7633 36.1936H29.4315L28.7024 45.3183H30.4945H30.4925Z" fill="white"/>
<path d="M41.4837 29.3936C42.899 29.3936 44.1607 29.7151 45.2667 30.3562C46.3728 30.9973 47.2473 31.9272 47.8884 33.1438C48.5295 34.3379 48.8511 35.7757 48.8511 37.4573C48.8511 39.0508 48.6196 40.378 48.1547 41.439C47.7123 42.4795 47.0036 43.4749 46.0307 44.4252L48.5193 55.6063V55.9381H43.7081L41.8176 45.9839H41.3199L41.5513 55.9381H36.5742V29.3936H41.4837ZM41.5493 42.332H41.7152C42.3337 42.332 42.8437 42.1005 43.2411 41.6356C43.661 41.1707 43.8719 40.5193 43.8719 39.6775V36.0277C43.8719 35.1879 43.661 34.5345 43.2411 34.0696C42.8437 33.6046 42.3337 33.3732 41.7152 33.3732H41.5493V42.332Z" fill="white"/>
<path d="M57.2279 58.4575C58.6432 58.4575 59.9049 58.7791 61.0109 59.4202C62.1169 60.0613 62.9894 60.9911 63.6326 62.2078C64.2737 63.4019 64.5952 64.8397 64.5952 66.5213C64.5952 68.1127 64.3638 69.4399 63.8988 70.5029C63.4564 71.5434 62.7478 72.5368 61.7749 73.4892L64.2634 84.6703V85.0021H59.4522L57.5617 75.0479H57.064L57.2955 85.0021H52.3184V58.4596H57.2279V58.4575ZM57.2934 71.3959H57.4593C58.0779 71.3959 58.5879 71.1645 58.9852 70.6996C59.4051 70.2346 59.6161 69.5833 59.6161 68.7415V65.0916C59.6161 64.2519 59.4051 63.5985 58.9852 63.1335C58.5879 62.6686 58.0779 62.4372 57.4593 62.4372H57.2934V71.3959Z" fill="white"/>
<path d="M74.5089 58.4575L76.9975 84.6682V85H72.3522L71.7889 78.6957H69.9312L69.368 85H64.7227V84.6682L67.2112 58.4575H74.511H74.5089ZM71.7561 74.3822L71.027 65.2575H70.6952L69.966 74.3822H71.7582H71.7561Z" fill="white"/>
<path d="M82.813 58.4575V80.6866H86.9606V85H77.8359V58.4575H82.813Z" fill="white"/>
<path d="M92.8619 58.4575V80.6866H97.0095V85H87.8848V58.4575H92.8619Z" fill="white"/>
<path d="M98.2965 75.5435L94.9805 58.7893V58.4575H99.6237L100.785 66.6523H101.117L102.278 58.4575H106.923V58.7893L103.605 75.5435V85H98.2965V75.5435Z" fill="white"/>
<path d="M57.801 29.3936L59.9577 43.6613H60.2895L62.4463 29.3936H67.9211V55.9361H63.6076L63.9394 43.6613H63.6076L61.7827 55.9361H58.4646L56.6397 43.6613H56.3079L56.6397 55.9361H52.3262V29.3936H57.801Z" fill="white"/>
<path d="M78.5441 29.3936L81.0326 55.6043V55.9361H76.3873L75.8241 49.6317H73.9664L73.4031 55.9361H68.7578V55.6043L71.2464 29.3936H78.5461H78.5441ZM75.7913 45.3183L75.0621 36.1936H74.7303L74.0012 45.3183H75.7933H75.7913Z" fill="white"/>
<path d="M86.7826 29.3936C88.1979 29.3936 89.4596 29.7151 90.5656 30.3562C91.6716 30.9973 92.5462 31.9272 93.1873 33.1438C93.8283 34.3379 94.1499 35.7757 94.1499 37.4573C94.1499 39.0508 93.9185 40.378 93.4535 41.439C93.0111 42.4795 92.3024 43.4749 91.3295 44.4252L93.8181 55.6063V55.9381H89.0069L87.1164 45.9839H86.6187L86.8502 55.9381H81.873V29.3936H86.7826ZM86.8481 42.332H87.014C87.6326 42.332 88.1426 42.1005 88.5399 41.6356C88.9598 41.1707 89.1708 40.5193 89.1708 39.6775V36.0277C89.1708 35.1879 88.9598 34.5345 88.5399 34.0696C88.1426 33.6046 87.6326 33.3732 87.014 33.3732H86.8481V42.332Z" fill="white"/>
<path d="M100.071 29.3936L99.8394 38.252H100.171L102.394 29.3936H107.039V29.7254L104.053 42.334V42.6658L107.205 55.6043V55.9361H102.394L100.171 46.9117H99.8394L100.071 55.9361H95.0938V29.3936H100.071Z" fill="white"/>
<path d="M107.854 29.3936H116.81V33.7071H112.831V40.3432H116.313V44.6567H112.831V51.6226H116.81V55.9361H107.854V29.3936Z" fill="white"/>
<path d="M129.084 29.3936V33.7071H125.766V55.9361H120.789V33.7071H117.471V29.3936H129.084Z" fill="white"/>
</g>
<defs>
<clipPath id="clip0_752_1510">
<rect width="129.083" height="85" fill="white"/>
</clipPath>
</defs>
</svg>
