<svg width="675" height="444" viewBox="0 0 675 444" fill="none" xmlns="http://www.w3.org/2000/svg">
  <g clip-path="url(#clip0_473_1006)">
    <path d="M60.7171 1.73126V24.2367H43.377V140.216H17.3508V24.2367H0V1.73126H60.7171Z" fill="white" />
    <path d="M90.7905 1.73126V58.8498H102.069V1.73126H127.227V140.216H102.069V81.3552H90.7905V140.216H65.6318V1.73126H90.7905Z" fill="white" />
    <path d="M134.214 1.73126H181.061V24.2367H160.24V58.8498H178.458V81.3552H160.24V117.71H181.061V140.216H134.214V1.73126Z" fill="white" />
    <path d="M267.705 140.216H205.938V123.769L233.871 62.4937C239.537 50.151 242.375 39.9883 242.375 32.027V28.9066C242.375 26.0213 241.797 23.8306 240.64 22.3238C239.483 20.7101 237.866 19.898 235.777 19.898C233.689 19.898 232.072 20.5926 230.915 21.9711C229.876 23.3604 229.351 25.4335 229.351 28.2013V43.2583C229.351 46.4856 229.008 49.0824 228.312 51.0487H204.889V49.3175C205.585 47.2443 205.928 44.1774 205.928 40.1379V36.8465C205.928 25.3053 208.702 16.3074 214.25 9.84213C219.915 3.25935 227.67 -0.0213623 237.502 -0.0213623C247.334 -0.0213623 254.788 3.15248 260.229 9.50017C265.67 15.7303 268.38 24.0977 268.38 34.6024C268.38 42.9164 266.816 51.0487 263.699 59.01C260.69 66.8538 256.298 76.0333 250.515 86.538L232.821 118.565H267.694V140.205L267.705 140.216Z" fill="white" />
    <path d="M271.177 65.7745C271.177 42.692 274.186 25.9572 280.195 15.5701C286.214 5.18294 295.061 -0.0106201 306.735 -0.0106201C318.41 -0.0106201 327.267 5.18294 333.276 15.5701C339.295 25.9572 342.294 42.692 342.294 65.7745V76.1616C342.294 99.2441 339.284 115.979 333.276 126.366C327.256 136.753 318.41 141.947 306.735 141.947C295.061 141.947 286.203 136.753 280.195 126.366C274.176 115.979 271.177 99.2441 271.177 76.1616V65.7745ZM299.806 111.469C299.806 114.237 300.438 116.428 301.712 118.041C302.987 119.538 304.657 120.296 306.746 120.296C308.834 120.296 310.505 119.548 311.78 118.041C313.054 116.428 313.686 114.237 313.686 111.469V29.6012C313.686 26.8335 313.054 24.6962 311.78 23.2001C310.505 21.5865 308.834 20.7743 306.746 20.7743C304.657 20.7743 302.987 21.5865 301.712 23.2001C300.438 24.6962 299.806 26.8335 299.806 29.6012V111.48V111.469Z" fill="white" />
    <path d="M408.975 140.216H347.208V123.769L375.14 62.4937C380.806 50.151 383.645 39.9883 383.645 32.027V28.9066C383.645 26.0213 383.066 23.8306 381.909 22.3238C380.753 20.7101 379.135 19.898 377.047 19.898C374.958 19.898 373.341 20.5926 372.184 21.9711C371.145 23.3604 370.621 25.4335 370.621 28.2013V43.2583C370.621 46.4856 370.278 49.0824 369.582 51.0487H346.158V49.3175C346.854 47.2443 347.197 44.1774 347.197 40.1379V36.8465C347.197 25.3053 349.971 16.3074 355.53 9.84213C361.196 3.25935 368.95 -0.0213623 378.782 -0.0213623C388.614 -0.0213623 396.069 3.15248 401.509 9.50017C406.95 15.7303 409.66 24.0977 409.66 34.6024C409.66 42.9164 408.096 51.0487 404.98 59.01C401.97 66.8538 397.579 76.0333 391.795 86.538L374.102 118.565H408.975V140.205V140.216Z" fill="white" />
    <path d="M475.51 140.216H413.743V123.769L441.676 62.4937C447.341 50.151 450.18 39.9883 450.18 32.027V28.9066C450.18 26.0213 449.601 23.8306 448.445 22.3238C447.288 20.7101 445.671 19.898 443.582 19.898C441.494 19.898 439.876 20.5926 438.72 21.9711C437.681 23.3604 437.156 25.4335 437.156 28.2013V43.2583C437.156 46.4856 436.813 49.0824 436.117 51.0487H412.693V49.3175C413.39 47.2443 413.732 44.1774 413.732 40.1379V36.8465C413.732 25.3053 416.506 16.3074 422.065 9.84213C427.731 3.25935 435.485 -0.0213623 445.317 -0.0213623C455.149 -0.0213623 462.604 3.15248 468.045 9.50017C473.485 15.7303 476.195 24.0977 476.195 34.6024C476.195 42.9164 474.631 51.0487 471.515 59.01C468.505 66.8538 464.114 76.0333 458.33 86.538L440.637 118.565H475.51V140.205V140.216Z" fill="white" />
    <path d="M26.8941 153.36C34.1771 153.36 40.8925 154.749 47.0189 157.517C53.1452 160.167 58.0077 164.153 61.5957 169.464C65.3015 174.775 67.1437 181.23 67.1437 188.849C67.1437 204.195 60.2033 214.87 46.3227 220.876V222.607C52.5668 224.798 57.7185 228.495 61.7671 233.689C65.9334 238.883 68.0112 245.978 68.0112 254.976C68.0112 262.938 66.2761 269.691 62.806 275.227C59.4536 280.762 54.8267 284.919 48.9253 287.687C43.1417 290.455 36.6619 291.844 29.4967 291.844H2.07812V153.36H26.8941ZM28.1043 212.209H29.8394C32.9669 212.209 35.4517 211.055 37.3046 208.747C39.2753 206.439 40.2499 202.976 40.2499 198.36V187.973C40.2499 183.356 39.2646 179.894 37.3046 177.586C35.4517 175.277 32.9669 174.123 29.8394 174.123H28.1043V212.209ZM28.1043 271.059H29.8394C33.074 271.059 35.7408 269.852 37.8187 267.426C40.0143 265 41.1174 261.313 41.1174 256.344V247.688C41.1174 242.73 40.0143 239.032 37.8187 236.606C35.7408 234.181 33.074 232.973 29.8394 232.973H28.1043V271.059Z" fill="white" />
    <path d="M72.9033 153.36H119.74V175.865H98.9188V210.489H117.137V232.994H98.9188V269.339H119.74V291.844H72.9033V153.36Z" fill="white" />
    <path d="M173.851 153.36L186.864 290.113V291.844H162.573L159.628 258.952H149.913L146.968 291.844H122.677V290.113L135.69 153.36H173.862H173.851ZM159.456 236.446L155.643 188.838H153.908L150.095 236.446H159.467H159.456Z" fill="white" />
    <path d="M216.928 153.36C224.329 153.36 230.926 155.038 236.71 158.382C242.493 161.727 247.067 166.579 250.419 172.926C253.771 179.157 255.453 186.658 255.453 195.432C255.453 203.746 254.243 210.671 251.811 216.206C249.498 221.635 245.792 226.828 240.705 231.787L253.718 290.124V291.855H228.559L218.673 239.919H216.071L217.281 291.855H191.255V153.36H216.928ZM217.27 220.865H218.138C221.372 220.865 224.039 219.658 226.117 217.232C228.313 214.806 229.416 211.408 229.416 207.016V187.973C229.416 183.591 228.313 180.182 226.117 177.757C224.039 175.331 221.372 174.123 218.138 174.123H217.27V220.865Z" fill="white" />
    <path d="M299.26 304.999C306.661 304.999 313.258 306.677 319.042 310.022C324.825 313.366 329.388 318.218 332.751 324.566C336.103 330.796 337.785 338.298 337.785 347.071C337.785 355.374 336.575 362.299 334.143 367.845C331.83 373.274 328.124 378.457 323.037 383.426L336.05 441.763V443.494H310.891L301.005 391.558H298.403L299.613 443.494H273.587V305.01H299.26V304.999ZM299.602 372.505H300.47C303.704 372.505 306.371 371.297 308.449 368.871C310.645 366.445 311.748 363.047 311.748 358.655V339.612C311.748 335.231 310.645 331.822 308.449 329.396C306.371 326.97 303.704 325.763 300.47 325.763H299.602V372.505Z" fill="white" />
    <path d="M389.622 304.999L402.636 441.752V443.483H378.344L375.399 410.591H365.685L362.739 443.483H338.448V441.752L351.461 304.999H389.633H389.622ZM375.228 388.085L371.415 340.478H369.68L365.867 388.085H375.238H375.228Z" fill="white" />
    <path d="M433.041 304.999V420.978H454.729V443.483H407.015V304.999H433.041Z" fill="white" />
    <path d="M485.598 304.999V420.978H507.286V443.483H459.571V304.999H485.598Z" fill="white" />
    <path d="M514.011 394.144L496.671 306.73V304.999H520.951L527.024 347.755H528.759L534.832 304.999H559.123V306.73L541.772 394.144V443.483H514.011V394.144Z" fill="white" />
    <path d="M302.246 153.36L313.524 227.801H315.259L326.537 153.36H355.166V291.844H332.61L334.345 227.801H332.61L323.067 291.844H305.716L296.173 227.801H294.438L296.173 291.844H273.617V153.36H302.246Z" fill="white" />
    <path d="M410.716 153.36L423.729 290.113V291.844H399.438L396.493 258.952H386.778L383.833 291.844H359.542V290.113L372.555 153.36H410.727H410.716ZM396.321 236.446L392.509 188.838H390.773L386.961 236.446H396.332H396.321Z" fill="white" />
    <path d="M453.8 153.36C461.201 153.36 467.798 155.038 473.582 158.382C479.365 161.727 483.939 166.579 487.291 172.926C490.643 179.157 492.325 186.658 492.325 195.432C492.325 203.746 491.115 210.671 488.683 216.206C486.37 221.635 482.664 226.828 477.577 231.787L490.59 290.124V291.855H465.431L455.545 239.919H452.943L454.153 291.855H428.127V153.36H453.8ZM454.142 220.865H455.01C458.245 220.865 460.911 219.658 462.989 217.232C465.185 214.806 466.288 211.408 466.288 207.016V187.973C466.288 183.591 465.185 180.182 462.989 177.757C460.911 175.331 458.245 174.123 455.01 174.123H454.142V220.865Z" fill="white" />
    <path d="M523.287 153.36L522.077 199.578H523.812L535.433 153.36H559.724V155.091L544.108 220.876V222.607L560.591 290.113V291.844H535.433L523.812 244.76H522.077L523.287 291.844H497.261V153.36H523.287Z" fill="white" />
    <path d="M563.988 153.36H610.825V175.865H590.014V210.489H608.222V232.994H590.014V269.339H610.825V291.844H563.988V153.36Z" fill="white" />
    <path d="M674.999 153.36V175.865H657.649V291.844H631.622V175.865H614.271V153.36H674.999Z" fill="white" />
  </g>
  <defs>
    <clipPath id="clip0_473_1006">
      <rect width="675" height="443.483" fill="white" />
    </clipPath>
  </defs>
</svg>