<svg width="675" height="150" viewBox="0 150 675 150" fill="none" xmlns="http://www.w3.org/2000/svg">
  <g clip-path="url(#clip0_473_1006)">
    <path d="M26.8941 153.36C34.1771 153.36 40.8925 154.749 47.0189 157.517C53.1452 160.167 58.0077 164.153 61.5957 169.464C65.3015 174.775 67.1437 181.23 67.1437 188.849C67.1437 204.195 60.2033 214.87 46.3227 220.876V222.607C52.5668 224.798 57.7185 228.495 61.7671 233.689C65.9334 238.883 68.0112 245.978 68.0112 254.976C68.0112 262.938 66.2761 269.691 62.806 275.227C59.4536 280.762 54.8267 284.919 48.9253 287.687C43.1417 290.455 36.6619 291.844 29.4967 291.844H2.07812V153.36H26.8941ZM28.1043 212.209H29.8394C32.9669 212.209 35.4517 211.055 37.3046 208.747C39.2753 206.439 40.2499 202.976 40.2499 198.36V187.973C40.2499 183.356 39.2646 179.894 37.3046 177.586C35.4517 175.277 32.9669 174.123 29.8394 174.123H28.1043V212.209ZM28.1043 271.059H29.8394C33.074 271.059 35.7408 269.852 37.8187 267.426C40.0143 265 41.1174 261.313 41.1174 256.344V247.688C41.1174 242.73 40.0143 239.032 37.8187 236.606C35.7408 234.181 33.074 232.973 29.8394 232.973H28.1043V271.059Z" fill="white" />
    <path d="M72.9033 153.36H119.74V175.865H98.9188V210.489H117.137V232.994H98.9188V269.339H119.74V291.844H72.9033V153.36Z" fill="white" />
    <path d="M173.851 153.36L186.864 290.113V291.844H162.573L159.628 258.952H149.913L146.968 291.844H122.677V290.113L135.69 153.36H173.862H173.851ZM159.456 236.446L155.643 188.838H153.908L150.095 236.446H159.467H159.456Z" fill="white" />
    <path d="M216.928 153.36C224.329 153.36 230.926 155.038 236.71 158.382C242.493 161.727 247.067 166.579 250.419 172.926C253.771 179.157 255.453 186.658 255.453 195.432C255.453 203.746 254.243 210.671 251.811 216.206C249.498 221.635 245.792 226.828 240.705 231.787L253.718 290.124V291.855H228.559L218.673 239.919H216.071L217.281 291.855H191.255V153.36H216.928ZM217.27 220.865H218.138C221.372 220.865 224.039 219.658 226.117 217.232C228.313 214.806 229.416 211.408 229.416 207.016V187.973C229.416 183.591 228.313 180.182 226.117 177.757C224.039 175.331 221.372 174.123 218.138 174.123H217.27V220.865Z" fill="white" />
    <path d="M302.246 153.36L313.524 227.801H315.259L326.537 153.36H355.166V291.844H332.61L334.345 227.801H332.61L323.067 291.844H305.716L296.173 227.801H294.438L296.173 291.844H273.617V153.36H302.246Z" fill="white" />
    <path d="M410.716 153.36L423.729 290.113V291.844H399.438L396.493 258.952H386.778L383.833 291.844H359.542V290.113L372.555 153.36H410.727H410.716ZM396.321 236.446L392.509 188.838H390.773L386.961 236.446H396.332H396.321Z" fill="white" />
    <path d="M453.8 153.36C461.201 153.36 467.798 155.038 473.582 158.382C479.365 161.727 483.939 166.579 487.291 172.926C490.643 179.157 492.325 186.658 492.325 195.432C492.325 203.746 491.115 210.671 488.683 216.206C486.37 221.635 482.664 226.828 477.577 231.787L490.59 290.124V291.855H465.431L455.545 239.919H452.943L454.153 291.855H428.127V153.36H453.8ZM454.142 220.865H455.01C458.245 220.865 460.911 219.658 462.989 217.232C465.185 214.806 466.288 211.408 466.288 207.016V187.973C466.288 183.591 465.185 180.182 462.989 177.757C460.911 175.331 458.245 174.123 455.01 174.123H454.142V220.865Z" fill="white" />
    <path d="M523.287 153.36L522.077 199.578H523.812L535.433 153.36H559.724V155.091L544.108 220.876V222.607L560.591 290.113V291.844H535.433L523.812 244.76H522.077L523.287 291.844H497.261V153.36H523.287Z" fill="white" />
    <path d="M563.988 153.36H610.825V175.865H590.014V210.489H608.222V232.994H590.014V269.339H610.825V291.844H563.988V153.36Z" fill="white" />
    <path d="M674.999 153.36V175.865H657.649V291.844H631.622V175.865H614.271V153.36H674.999Z" fill="white" />
  </g>
  <defs>
    <clipPath id="clip0_473_1006">
      <rect width="675" height="443.483" fill="white" />
    </clipPath>
  </defs>
</svg>