<svg width="675" height="150" viewBox="0 300 675 150" fill="none" xmlns="http://www.w3.org/2000/svg">
  <g clip-path="url(#clip0_473_1006)">
    <path d="M299.26 304.999C306.661 304.999 313.258 306.677 319.042 310.022C324.825 313.366 329.388 318.218 332.751 324.566C336.103 330.796 337.785 338.298 337.785 347.071C337.785 355.374 336.575 362.299 334.143 367.845C331.83 373.274 328.124 378.457 323.037 383.426L336.05 441.763V443.494H310.891L301.005 391.558H298.403L299.613 443.494H273.587V305.01H299.26V304.999ZM299.602 372.505H300.47C303.704 372.505 306.371 371.297 308.449 368.871C310.645 366.445 311.748 363.047 311.748 358.655V339.612C311.748 335.231 310.645 331.822 308.449 329.396C306.371 326.97 303.704 325.763 300.47 325.763H299.602V372.505Z" fill="white" />
    <path d="M389.622 304.999L402.636 441.752V443.483H378.344L375.399 410.591H365.685L362.739 443.483H338.448V441.752L351.461 304.999H389.633H389.622ZM375.228 388.085L371.415 340.478H369.68L365.867 388.085H375.238H375.228Z" fill="white" />
    <path d="M433.041 304.999V420.978H454.729V443.483H407.015V304.999H433.041Z" fill="white" />
    <path d="M485.598 304.999V420.978H507.286V443.483H459.571V304.999H485.598Z" fill="white" />
    <path d="M514.011 394.144L496.671 306.73V304.999H520.951L527.024 347.755H528.759L534.832 304.999H559.123V306.73L541.772 394.144V443.483H514.011V394.144Z" fill="white" />
  </g>
  <defs>
    <clipPath id="clip0_473_1006">
      <rect width="675" height="443.483" fill="white" />
    </clipPath>
  </defs>
</svg>