<svg width="675" height="150" viewBox="0 0 675 150" fill="none" xmlns="http://www.w3.org/2000/svg">
  <g clip-path="url(#clip0_473_1006)">
    <path d="M60.7171 1.73126V24.2367H43.377V140.216H17.3508V24.2367H0V1.73126H60.7171Z" fill="white" />
    <path d="M90.7905 1.73126V58.8498H102.069V1.73126H127.227V140.216H102.069V81.3552H90.7905V140.216H65.6318V1.73126H90.7905Z" fill="white" />
    <path d="M134.214 1.73126H181.061V24.2367H160.24V58.8498H178.458V81.3552H160.24V117.71H181.061V140.216H134.214V1.73126Z" fill="white" />
    <path d="M267.705 140.216H205.938V123.769L233.871 62.4937C239.537 50.151 242.375 39.9883 242.375 32.027V28.9066C242.375 26.0213 241.797 23.8306 240.64 22.3238C239.483 20.7101 237.866 19.898 235.777 19.898C233.689 19.898 232.072 20.5926 230.915 21.9711C229.876 23.3604 229.351 25.4335 229.351 28.2013V43.2583C229.351 46.4856 229.008 49.0824 228.312 51.0487H204.889V49.3175C205.585 47.2443 205.928 44.1774 205.928 40.1379V36.8465C205.928 25.3053 208.702 16.3074 214.25 9.84213C219.915 3.25935 227.67 -0.0213623 237.502 -0.0213623C247.334 -0.0213623 254.788 3.15248 260.229 9.50017C265.67 15.7303 268.38 24.0977 268.38 34.6024C268.38 42.9164 266.816 51.0487 263.699 59.01C260.69 66.8538 256.298 76.0333 250.515 86.538L232.821 118.565H267.694V140.205L267.705 140.216Z" fill="white" />
    <path d="M271.177 65.7745C271.177 42.692 274.186 25.9572 280.195 15.5701C286.214 5.18294 295.061 -0.0106201 306.735 -0.0106201C318.41 -0.0106201 327.267 5.18294 333.276 15.5701C339.295 25.9572 342.294 42.692 342.294 65.7745V76.1616C342.294 99.2441 339.284 115.979 333.276 126.366C327.256 136.753 318.41 141.947 306.735 141.947C295.061 141.947 286.203 136.753 280.195 126.366C274.176 115.979 271.177 99.2441 271.177 76.1616V65.7745ZM299.806 111.469C299.806 114.237 300.438 116.428 301.712 118.041C302.987 119.538 304.657 120.296 306.746 120.296C308.834 120.296 310.505 119.548 311.78 118.041C313.054 116.428 313.686 114.237 313.686 111.469V29.6012C313.686 26.8335 313.054 24.6962 311.78 23.2001C310.505 21.5865 308.834 20.7743 306.746 20.7743C304.657 20.7743 302.987 21.5865 301.712 23.2001C300.438 24.6962 299.806 26.8335 299.806 29.6012V111.48V111.469Z" fill="white" />
    <path d="M408.975 140.216H347.208V123.769L375.14 62.4937C380.806 50.151 383.645 39.9883 383.645 32.027V28.9066C383.645 26.0213 383.066 23.8306 381.909 22.3238C380.753 20.7101 379.135 19.898 377.047 19.898C374.958 19.898 373.341 20.5926 372.184 21.9711C371.145 23.3604 370.621 25.4335 370.621 28.2013V43.2583C370.621 46.4856 370.278 49.0824 369.582 51.0487H346.158V49.3175C346.854 47.2443 347.197 44.1774 347.197 40.1379V36.8465C347.197 25.3053 349.971 16.3074 355.53 9.84213C361.196 3.25935 368.95 -0.0213623 378.782 -0.0213623C388.614 -0.0213623 396.069 3.15248 401.509 9.50017C406.95 15.7303 409.66 24.0977 409.66 34.6024C409.66 42.9164 408.096 51.0487 404.98 59.01C401.97 66.8538 397.579 76.0333 391.795 86.538L374.102 118.565H408.975V140.205V140.216Z" fill="white" />
    <path d="M475.51 140.216H413.743V123.769L441.676 62.4937C447.341 50.151 450.18 39.9883 450.18 32.027V28.9066C450.18 26.0213 449.601 23.8306 448.445 22.3238C447.288 20.7101 445.671 19.898 443.582 19.898C441.494 19.898 439.876 20.5926 438.72 21.9711C437.681 23.3604 437.156 25.4335 437.156 28.2013V43.2583C437.156 46.4856 436.813 49.0824 436.117 51.0487H412.693V49.3175C413.39 47.2443 413.732 44.1774 413.732 40.1379V36.8465C413.732 25.3053 416.506 16.3074 422.065 9.84213C427.731 3.25935 435.485 -0.0213623 445.317 -0.0213623C455.149 -0.0213623 462.604 3.15248 468.045 9.50017C473.485 15.7303 476.195 24.0977 476.195 34.6024C476.195 42.9164 474.631 51.0487 471.515 59.01C468.505 66.8538 464.114 76.0333 458.33 86.538L440.637 118.565H475.51V140.205V140.216Z" fill="white" />
  </g>
  <defs>
    <clipPath id="clip0_473_1006">
      <rect width="675" height="443.483" fill="white" />
    </clipPath>
  </defs>
</svg>