<svg width="97" height="97" viewBox="0 0 97 97" fill="none" xmlns="http://www.w3.org/2000/svg">
<rect width="97" height="97" rx="10" fill="white"/>
<rect width="97" height="97" rx="10" fill="url(#paint0_radial_1164_669)"/>
<rect width="48" height="48" transform="translate(25 25)" fill="white" style="mix-blend-mode:multiply"/>
<path d="M49 28C44.8466 28 40.7865 29.2316 37.333 31.5391C33.8796 33.8466 31.188 37.1264 29.5985 40.9636C28.0091 44.8009 27.5932 49.0233 28.4035 53.0969C29.2138 57.1705 31.2139 60.9123 34.1508 63.8492C37.0877 66.7861 40.8295 68.7862 44.9031 69.5965C48.9767 70.4068 53.1991 69.9909 57.0364 68.4015C60.8736 66.812 64.1534 64.1204 66.4609 60.667C68.7684 57.2135 70 53.1534 70 49C69.9937 43.4324 67.7792 38.0946 63.8423 34.1577C59.9054 30.2208 54.5676 28.0063 49 28ZM31.03 49.591L33.0376 50.2597L35.5 53.9541V55.8787C35.5 56.2765 35.6581 56.658 35.9394 56.9394L40 61V64.5647C37.357 63.0353 35.1467 60.8582 33.5775 58.2386C32.0082 55.6189 31.1315 52.643 31.03 49.591ZM49 67C47.7025 66.9975 46.409 66.8543 45.1423 66.5729L46 64L48.7069 57.2326C48.7973 57.0067 48.8313 56.7622 48.8062 56.5202C48.781 56.2782 48.6973 56.0459 48.5623 55.8434L46.4454 52.6679C46.3084 52.4625 46.1228 52.294 45.905 52.1775C45.6873 52.0609 45.4442 52 45.1972 52H37.8022L35.9299 49.1911L39.1212 46H41.5V49H44.5V44.8984L50.3023 34.7441L47.6977 33.2559L46.4154 35.5H42.3028L40.6738 33.0566C42.8607 31.9025 45.2642 31.2169 47.7308 31.0436C50.1975 30.8702 52.6732 31.213 55 32.05V37C55 37.3978 55.158 37.7794 55.4393 38.0607C55.7207 38.342 56.1022 38.5 56.5 38.5H58.6972C58.9442 38.5 59.1873 38.4391 59.405 38.3225C59.6228 38.206 59.8084 38.0375 59.9454 37.832L61.2607 35.8589C62.9743 37.4566 64.3604 39.3726 65.3418 41.5H59.23C58.8832 41.5 58.5472 41.6201 58.279 41.84C58.0108 42.0598 57.8271 42.3658 57.7591 42.7058L56.676 49.4121C56.625 49.7275 56.6761 50.0509 56.8218 50.3353C56.9675 50.6196 57.2002 50.85 57.486 50.9929L62.5 53.5L63.5277 59.5836C61.8628 61.8781 59.6787 63.7462 57.1538 65.0352C54.6289 66.3241 51.8349 66.9974 49 67Z" fill="white"/>
<defs>
<radialGradient id="paint0_radial_1164_669" cx="0" cy="0" r="1" gradientUnits="userSpaceOnUse" gradientTransform="rotate(45) scale(137.179)">
<stop stop-color="#F70022"/>
<stop offset="0.308341" stop-color="#EEA4B8"/>
<stop offset="0.822363" stop-color="#FFE052"/>
<stop offset="1" stop-color="#FFCF61"/>
</radialGradient>
</defs>
</svg>
