<svg width="97" height="97" viewBox="0 0 97 97" fill="none" xmlns="http://www.w3.org/2000/svg">
<rect width="97" height="97" rx="10" fill="white"/>
<rect width="97" height="97" rx="10" fill="url(#paint0_radial_1164_658)"/>
<path d="M35.8916 45.5724L37.1521 51.8247C37.3537 52.5808 38.0092 53.1355 38.816 53.1355H52.0262C52.6311 53.1355 53.1858 52.6818 53.337 52.0765V51.9756L50.4629 48.7993C50.1098 48.3959 49.5555 48.1438 49.0009 48.1438C48.3959 48.1438 47.8916 48.3959 47.4882 48.7993L44.7149 51.7237C44.5637 51.875 44.2612 51.8247 44.2106 51.5725L43.1516 47.1354C43.8072 47.2866 44.4624 47.4379 44.9667 47.5388C45.2692 47.6397 45.6223 47.6397 45.975 47.5388L50.261 46.3792C51.2191 46.127 51.8239 45.1187 51.5215 44.1104C51.2693 43.1523 50.261 42.5474 49.2527 42.8499L45.4715 43.9085C44.7153 43.707 41.1855 43.253 38.463 42.8495C36.9001 42.648 35.5889 44.0597 35.8914 45.5724L35.8916 45.5724Z" fill="white"/>
<path d="M70.5293 53.9931L59.3359 45.2704C58.8822 44.9173 58.2267 45.0183 57.8739 45.472L57.4202 46.0769C57.3192 46.2281 57.2187 46.43 57.1177 46.5813L55.1011 45.1192L55.9582 43.7075C56.2607 43.2538 56.1094 42.6485 55.6557 42.3966C55.202 42.0942 54.5967 42.2454 54.3449 42.6991L51.6223 47.0856C51.3199 47.5393 51.4711 48.1446 51.9248 48.3964C52.076 48.4974 52.2779 48.5477 52.4292 48.5477C52.7316 48.5477 53.0847 48.3964 53.236 48.094L54.0428 46.7831L56.1604 48.2958C55.5555 49.506 55.1014 50.7665 54.799 52.0774L54.7487 52.3295C54.4462 53.5901 53.3369 54.5481 52.0262 54.5481L38.8151 54.5478C37.3024 54.5478 35.9916 53.4888 35.6891 52.0268L34.5295 46.3291C34.4792 45.976 34.1764 45.6736 33.8237 45.573L32.0085 45.1193C31.5042 45.0183 31.0002 45.2705 30.8489 45.7748L28.9835 52.1277C28.9332 52.3799 28.7313 52.5312 28.4791 52.6321L26.8655 53.1364C25.7562 53.4896 25 54.5482 25 55.7078V59.0357C25 59.7415 25.6049 60.3465 26.3108 60.3465H28.3275V60.044C28.3275 57.1699 30.647 54.8503 33.4705 54.8503C36.2939 54.8503 38.6135 57.1699 38.6135 59.9933V60.2958H59.4371V59.9933C59.4371 57.1699 61.7567 54.8503 64.5801 54.8503C67.353 54.8503 69.6725 57.1699 69.6725 59.9933V60.2958H71.6892C72.395 60.2958 73 59.7412 73 58.985C72.9497 57.0689 72.0423 55.2034 70.5296 53.9932L70.5293 53.9931Z" fill="white"/>
<path d="M64.5283 56.3125C62.5116 56.3125 60.8477 57.9764 60.8477 59.9931C60.8477 62.0098 62.5115 63.6737 64.5283 63.6737C66.5449 63.6737 68.2089 62.0098 68.2089 59.9931C68.2089 57.9765 66.545 56.3125 64.5283 56.3125ZM64.5283 61.304C63.8224 61.304 63.2174 60.699 63.2174 59.9931C63.2174 59.2872 63.8224 58.6823 64.5283 58.6823C65.2341 58.6823 65.8391 59.2872 65.8391 59.9931C65.8391 60.699 65.2342 61.304 64.5283 61.304Z" fill="white"/>
<path d="M33.4697 56.3125C31.453 56.3125 29.7891 57.9764 29.7891 59.9931C29.7891 62.0098 31.4529 63.6737 33.4697 63.6737C35.4863 63.6737 37.1503 62.0098 37.1503 59.9931C37.1503 57.9765 35.4867 56.3125 33.4697 56.3125ZM33.4697 61.304C32.7638 61.304 32.1588 60.699 32.1588 59.9931C32.1588 59.2872 32.7638 58.6823 33.4697 58.6823C34.1755 58.6823 34.7805 59.2872 34.7805 59.9931C34.7805 60.699 34.1756 61.304 33.4697 61.304Z" fill="white"/>
<path d="M40.2771 37.0514H39.9746C39.9746 37.1017 39.9746 37.253 40.1258 37.4548C40.4283 38.0598 41.2854 38.8163 42.3444 38.9675C43.2518 39.1188 44.1093 39.1691 44.7645 39.2197C44.6133 38.6148 44.2602 37.8079 43.7055 36.749C43.1006 36.9506 41.941 37.2534 40.2771 37.0515L40.2771 37.0514Z" fill="white"/>
<path d="M36.7994 41.4381L43.7575 42.3455C44.1609 42.3958 44.5643 42.1439 44.6649 41.7405C44.8161 41.2362 44.917 40.7825 44.9673 40.3288C44.4127 40.3288 43.5556 40.2785 42.1941 40.0766C40.278 39.7741 38.715 38.0599 38.8663 36.8497C38.9166 36.295 39.3706 35.7404 40.4292 35.8916C41.7401 36.0428 42.698 35.8413 43.1517 35.6901C40.9838 32.6646 36.4458 33.8246 35.2355 36.4462C34.3784 38.3117 35.6389 40.3287 36.1936 41.0849C36.3456 41.2868 36.5471 41.438 36.7993 41.438L36.7994 41.4381Z" fill="white"/>
<defs>
<radialGradient id="paint0_radial_1164_658" cx="0" cy="0" r="1" gradientUnits="userSpaceOnUse" gradientTransform="rotate(45) scale(137.179)">
<stop stop-color="#F8B07C"/>
<stop offset="0.332563" stop-color="#FFD25C"/>
<stop offset="0.715457" stop-color="#A0BAAA"/>
<stop offset="1" stop-color="#A4CCE0"/>
</radialGradient>
</defs>
</svg>
