<svg width="82" height="20" viewBox="0 0 82 20" fill="none" xmlns="http://www.w3.org/2000/svg">
<path d="M36.2252 16.6666C35.1765 16.6666 34.2826 16.4775 33.5438 16.0992C32.8168 15.721 32.1911 15.2127 31.6667 14.5744L33.0611 13.2801C33.502 13.812 33.9847 14.2139 34.5091 14.4857C35.0454 14.7576 35.6532 14.8935 36.3324 14.8935C37.1309 14.8935 37.7328 14.7162 38.1379 14.3616C38.5431 14.007 38.7457 13.5283 38.7457 12.9254C38.7457 12.4408 38.6027 12.0567 38.3167 11.773C38.0307 11.4893 37.5242 11.2765 36.7972 11.1347L35.6889 10.9396C34.4733 10.715 33.5616 10.3191 32.9538 9.75169C32.346 9.18432 32.0421 8.40417 32.0421 7.41126C32.0421 6.86753 32.1434 6.37699 32.346 5.93963C32.5606 5.49046 32.8525 5.11812 33.222 4.82261C33.6033 4.51528 34.0622 4.27888 34.5985 4.11339C35.1347 3.94791 35.7366 3.86517 36.404 3.86517C37.3454 3.86517 38.1618 4.03065 38.853 4.36162C39.5442 4.68077 40.1341 5.14767 40.6227 5.76233L39.2105 7.00346C38.8888 6.58975 38.4955 6.25878 38.0307 6.01056C37.5659 5.76233 36.9879 5.63822 36.2967 5.63822C35.5816 5.63822 35.0275 5.78006 34.6342 6.06375C34.2409 6.34744 34.0443 6.76115 34.0443 7.30488C34.0443 7.82498 34.2052 8.21505 34.5269 8.4751C34.8487 8.72332 35.3493 8.91245 36.0286 9.04247L37.1369 9.27297C38.3882 9.50937 39.2999 9.91126 39.8719 10.4786C40.4559 11.046 40.7479 11.8262 40.7479 12.8191C40.7479 13.3983 40.6466 13.9243 40.444 14.3971C40.2414 14.8699 39.9435 15.2777 39.5502 15.6205C39.1688 15.9515 38.6981 16.2115 38.1379 16.4006C37.5778 16.5779 36.9402 16.6666 36.2252 16.6666Z" fill="black"/>
<path d="M45.7471 16.6666C45.1035 16.6666 44.5136 16.5543 43.9773 16.3297C43.453 16.1051 43.0061 15.786 42.6366 15.3723C42.2672 14.9467 41.9812 14.4385 41.7786 13.8474C41.576 13.2446 41.4747 12.5767 41.4747 11.8439C41.4747 11.111 41.576 10.4491 41.7786 9.85807C41.9812 9.25524 42.2672 8.74696 42.6366 8.33325C43.0061 7.90772 43.453 7.58266 43.9773 7.35807C44.5136 7.13349 45.1035 7.02119 45.7471 7.02119C46.3906 7.02119 46.9746 7.13349 47.499 7.35807C48.0352 7.58266 48.4881 7.90772 48.8576 8.33325C49.227 8.74696 49.513 9.25524 49.7156 9.85807C49.9182 10.4491 50.0195 11.111 50.0195 11.8439C50.0195 12.5767 49.9182 13.2446 49.7156 13.8474C49.513 14.4385 49.227 14.9467 48.8576 15.3723C48.4881 15.786 48.0352 16.1051 47.499 16.3297C46.9746 16.5543 46.3906 16.6666 45.7471 16.6666ZM45.7471 15.0708C46.4145 15.0708 46.9508 14.8699 47.3559 14.468C47.7611 14.0543 47.9637 13.4396 47.9637 12.624V11.0637C47.9637 10.2481 47.7611 9.6394 47.3559 9.23751C46.9508 8.82379 46.4145 8.61694 45.7471 8.61694C45.0797 8.61694 44.5434 8.82379 44.1382 9.23751C43.733 9.6394 43.5304 10.2481 43.5304 11.0637V12.624C43.5304 13.4396 43.733 14.0543 44.1382 14.468C44.5434 14.8699 45.0797 15.0708 45.7471 15.0708Z" fill="black"/>
<path d="M53.2453 16.4538C52.578 16.4538 52.0774 16.2883 51.7437 15.9574C51.422 15.6146 51.2611 15.1418 51.2611 14.5389V3.33325H53.2096V14.8758H54.4967V16.4538H53.2453Z" fill="black"/>
<path d="M59.0758 16.6666C58.4084 16.6666 57.8125 16.5543 57.2882 16.3297C56.7638 16.1051 56.3169 15.786 55.9474 15.3723C55.578 14.9467 55.292 14.4385 55.0894 13.8474C54.8987 13.2446 54.8034 12.5767 54.8034 11.8439C54.8034 11.111 54.8987 10.4491 55.0894 9.85807C55.292 9.25524 55.578 8.74696 55.9474 8.33325C56.3169 7.90772 56.7638 7.58266 57.2882 7.35807C57.8125 7.13349 58.4084 7.02119 59.0758 7.02119C59.7551 7.02119 60.351 7.1394 60.8634 7.3758C61.3878 7.61221 61.8228 7.94318 62.1684 8.36871C62.514 8.78242 62.7702 9.26706 62.937 9.82261C63.1158 10.3782 63.2052 10.9751 63.2052 11.6134V12.3403H56.8234V12.6418C56.8234 13.351 57.0319 13.9361 57.449 14.3971C57.8781 14.8463 58.4859 15.0708 59.2724 15.0708C59.8445 15.0708 60.3271 14.9467 60.7204 14.6985C61.1137 14.4503 61.4474 14.1134 61.7215 13.6879L62.8655 14.8049C62.5199 15.3723 62.0194 15.8273 61.3639 16.1701C60.7085 16.5011 59.9458 16.6666 59.0758 16.6666ZM59.0758 8.52829C58.7421 8.52829 58.4322 8.58739 58.1462 8.70559C57.8721 8.8238 57.6338 8.98928 57.4312 9.20205C57.2405 9.41481 57.0915 9.66895 56.9843 9.96446C56.877 10.26 56.8234 10.585 56.8234 10.9396V11.0637H61.1494V10.8864C61.1494 10.1772 60.9647 9.60985 60.5953 9.18431C60.2258 8.74696 59.7193 8.52829 59.0758 8.52829Z" fill="black"/>
<path d="M64.4326 16.4538V7.23396H66.3812V8.75878H66.4705C66.6731 8.26233 66.977 7.84862 67.3822 7.51765C67.7993 7.18668 68.3654 7.02119 69.0805 7.02119C70.0339 7.02119 70.7728 7.33443 71.2971 7.96091C71.8334 8.57557 72.1016 9.45618 72.1016 10.6028V16.4538H70.153V10.851C70.153 9.4089 69.5691 8.68786 68.4012 8.68786C68.1509 8.68786 67.9006 8.72332 67.6504 8.79424C67.412 8.85335 67.1975 8.94791 67.0068 9.07793C66.8161 9.20796 66.6612 9.37344 66.542 9.57439C66.4348 9.77533 66.3812 10.0117 66.3812 10.2836V16.4538H64.4326Z" fill="black"/>
<path d="M79.7182 14.929H79.6289C79.4263 15.4727 79.0926 15.8983 78.6278 16.2056C78.1749 16.5129 77.6386 16.6666 77.0189 16.6666C75.8391 16.6666 74.9274 16.247 74.2839 15.4077C73.6403 14.5567 73.3185 13.3687 73.3185 11.8439C73.3185 10.3191 73.6403 9.13703 74.2839 8.29779C74.9274 7.44673 75.8391 7.02119 77.0189 7.02119C77.6386 7.02119 78.1749 7.17486 78.6278 7.48219C79.0926 7.7777 79.4263 8.20323 79.6289 8.75878H79.7182V3.33325H81.6667V16.4538H79.7182V14.929ZM77.6088 14.9999C78.2047 14.9999 78.7052 14.8581 79.1104 14.5744C79.5156 14.2789 79.7182 13.8947 79.7182 13.4219V10.2659C79.7182 9.79306 79.5156 9.41481 79.1104 9.13112C78.7052 8.83561 78.2047 8.68786 77.6088 8.68786C76.9295 8.68786 76.3873 8.90654 75.9821 9.34389C75.5769 9.76942 75.3743 10.3368 75.3743 11.046V12.6418C75.3743 13.351 75.5769 13.9243 75.9821 14.3616C76.3873 14.7872 76.9295 14.9999 77.6088 14.9999Z" fill="black"/>
<path fill-rule="evenodd" clip-rule="evenodd" d="M6.33199 0.690068C6.94303 1.28583 6.95542 2.26415 6.35965 2.87519L4.1731 5.11781C2.7165 6.61176 2.73161 8.99914 4.207 10.4745L2.02171 12.6598C-0.649805 9.98832 -0.677165 5.66546 1.96032 2.96035L4.14687 0.717728C4.74264 0.106686 5.72095 0.0943023 6.33199 0.690068ZM21.6682 8.70122L22.7425 7.6075L21.6682 8.70122ZM22.7425 7.6075C25.792 10.6026 25.6067 15.5711 22.342 18.3305L20.7986 19.635C20.1468 20.1859 19.1718 20.1041 18.6209 19.4524C18.07 18.8006 18.1518 17.8256 18.8036 17.2747L20.347 15.9702C22.2217 14.3856 22.3282 11.5324 20.5769 9.81236L21.6682 8.70122L20.5769 9.81232C18.9654 8.2295 16.3862 8.21829 14.7609 9.78718L13.6877 8.6754L14.7609 9.78718L11.6964 12.7453C8.98776 15.3598 4.6837 15.3218 2.02171 12.6598L4.207 10.4745C5.67713 11.9447 8.05412 11.9657 9.55 10.5217L9.55001 10.5217L12.6145 7.56362C15.4447 4.83168 19.9361 4.85105 22.7425 7.6075Z" fill="#FF5C28"/>
<path fill-rule="evenodd" clip-rule="evenodd" d="M15.9393 2.14121C16.1652 2.96418 15.6812 3.81446 14.8583 4.04038C13.274 4.47527 11.6393 5.61082 10.3277 6.75059C9.68943 7.30522 9.162 7.8304 8.79536 8.21576C8.61254 8.40791 8.47104 8.56388 8.37714 8.66957C8.33022 8.72238 8.29528 8.76252 8.27312 8.78822C8.26204 8.80107 8.25416 8.8103 8.24958 8.81568L8.24585 8.82007L8.24549 8.82049C7.69679 9.47379 6.7224 9.5588 6.06885 9.01029C5.41516 8.46166 5.33 7.48698 5.87863 6.83329L7.02492 7.79536C5.87863 6.83329 5.87884 6.83303 5.87907 6.83277L5.88088 6.83061L5.88444 6.82639L5.89546 6.8134C5.90452 6.80274 5.91701 6.78814 5.93281 6.76981C5.96442 6.73316 6.00935 6.68159 6.06681 6.61691C6.18167 6.48764 6.34698 6.30559 6.55636 6.08552C6.97412 5.64644 7.57263 5.05038 8.30059 4.41781C9.72137 3.1832 11.7802 1.68054 14.0402 1.06015C14.8631 0.83424 15.7134 1.31825 15.9393 2.14121Z" fill="#FF5C28"/>
<path fill-rule="evenodd" clip-rule="evenodd" d="M16.2241 12.1293C16.7716 11.475 17.7459 11.3882 18.4004 11.9355C19.0551 12.483 19.142 13.4575 18.5946 14.1122L17.4092 13.121C18.5946 14.1122 18.5944 14.1125 18.5941 14.1127L18.5923 14.1149L18.5887 14.1192L18.5776 14.1323C18.5685 14.1431 18.5559 14.1578 18.5401 14.1763C18.5084 14.2131 18.4633 14.265 18.4057 14.3299C18.2906 14.4598 18.125 14.6424 17.9152 14.863C17.4967 15.303 16.8968 15.8996 16.1665 16.5307C14.7421 17.7615 12.6714 19.2563 10.3895 19.8401C9.56275 20.0516 8.72104 19.5528 8.50952 18.7261C8.298 17.8993 8.79677 17.0576 9.62356 16.846C11.2038 16.4418 12.8344 15.3255 14.1458 14.1923C14.7834 13.6414 15.31 13.1177 15.676 12.733C15.8585 12.5411 15.9996 12.3853 16.0932 12.2797C16.14 12.227 16.1748 12.1869 16.1968 12.1612C16.2078 12.1484 16.2157 12.1393 16.2202 12.1339L16.2238 12.1297L16.2241 12.1293Z" fill="#FF5C28"/>
</svg>
