<svg width="430" height="75" viewBox="0 0 430 75" fill="none" xmlns="http://www.w3.org/2000/svg">
<path d="M60.7755 49.4641L66.9766 43.263C69.9866 49.2514 75.3368 51.0755 79.8043 51.0755C84.5389 51.0755 87.3995 48.93 87.3995 45.4447C87.3995 41.7829 82.4839 40.9772 75.8754 39.5468C68.1897 37.94 61.3096 35.2604 61.3096 27.1265C61.3096 19.7123 68.2802 14.0815 77.2152 14.0815C85.1681 14.0815 91.333 17.6573 95.4429 23.1071L89.459 29.0909C86.4581 23.6095 81.5967 21.2286 77.2152 21.2286C72.8337 21.2286 69.7105 23.3741 69.7105 26.5879C69.7105 30.0732 72.5712 30.6978 80.2524 32.2187C87.9382 33.7395 95.8865 36.5097 95.8865 44.8155C95.8865 52.5873 89.0064 58.3086 79.4467 58.3086C71.3174 58.3086 64.6138 54.8233 60.771 49.4641H60.7755ZM99.6298 66.1709H103.649C109.457 66.1709 110.796 64.9216 114.105 56.3442L97.8419 14.9732H107.044L118.301 46.4269L128.576 14.9732H137.868L121.696 60.1871C117.853 70.1948 114.191 74.1237 104.093 74.1237H99.6253V66.1709H99.6298ZM143.119 14.9732H151.878V22.3874C154.023 17.1142 158.133 14.077 164.207 14.077C169.123 14.077 173.858 16.5801 175.822 23.2791C177.877 17.7388 182.345 14.077 189.492 14.077C197.535 14.077 202.627 20.2419 202.627 30.6978V57.1453H193.783V31.1459C193.783 24.8905 191.103 21.8533 186.097 21.8533C180.466 21.8533 177.252 26.2303 177.252 33.5585V57.1453H168.408V31.1459C168.408 24.8905 165.728 21.8533 160.722 21.8533C155.716 21.8533 151.878 25.9632 151.878 33.5585V57.1453H143.119V14.9732ZM209.838 14.9732H218.596V22.3874C220.742 17.1142 224.852 14.077 230.926 14.077C235.842 14.077 240.576 16.5801 242.541 23.2791C244.596 17.7388 249.063 14.077 256.21 14.077C264.254 14.077 269.346 20.2419 269.346 30.6978V57.1453H260.501V31.1459C260.501 24.8905 257.822 21.8533 252.815 21.8533C247.185 21.8533 243.971 26.2303 243.971 33.5585V57.1453H235.126V31.1459C235.126 24.8905 232.447 21.8533 227.441 21.8533C222.435 21.8533 218.596 25.9632 218.596 33.5585V57.1453H209.838V14.9732ZM274.587 36.3286C274.587 23.2836 283.255 14.258 295.228 14.258C307.2 14.258 315.062 22.5684 315.062 35.8805V39.0987H283.341C283.875 46.3364 288.433 50.7134 295.581 50.7134C302.728 50.7134 305.855 47.2281 307.462 43.1181L315.234 46.1553C312.373 52.6778 306.39 57.8605 295.576 57.8605C282.622 57.8605 274.578 49.283 274.578 36.3286H274.587ZM306.041 32.4857C305.683 25.2481 301.664 21.4052 295.051 21.4052C288.438 21.4052 284.061 25.6056 283.169 32.4857H306.046H306.041ZM348.258 14.9732H357.017V22.745C358.266 17.8293 361.575 14.6156 369.256 14.6156H370.596V23.1931H366.577C359.072 23.1931 357.017 26.9454 357.017 35.5229V57.1453H348.258V14.9732ZM376.15 8.84451H384.994V0H376.15V8.84451ZM376.15 57.1861H384.994V15.0139H376.15V57.1906V57.1861ZM389.973 35.9665C389.973 23.3696 398.551 14.2535 410.881 14.2535C420.798 14.2535 427.053 19.6127 429.647 27.8371L421.246 30.4262C419.816 25.067 416.778 21.6677 410.704 21.6677C403.376 21.6677 398.822 27.475 398.822 35.876V36.2335C398.822 44.5439 403.113 50.4418 410.437 50.4418C417.227 50.4418 420.178 46.9565 421.604 41.2397L430.005 43.8288C427.234 52.4062 420.888 57.856 410.614 57.856C398.017 57.856 389.973 48.8304 389.973 35.9665ZM341.989 22.4734V14.9687H332.878V4.42226H328.754L324.386 8.7902V14.9732H317.683V22.4779H324.386V46.6034C324.477 53.307 326.441 56.7878 334.127 57.1453H341.632V49.4596H336.63C333.951 49.4596 332.878 48.2103 332.878 45.5262V22.4779H341.989V22.4734ZM49.8126 4.42226H45.6348L0 50.0571V57.1453H4.39057L19.8617 41.6742H46.5718V57.1453H54.8776V4.42226H49.8172H49.8126ZM26.4747 35.0657L46.5718 14.9687V35.0657H26.4747Z" fill="black"/>
</svg>
