<svg width="502" height="233" viewBox="0 0 502 233" fill="none" xmlns="http://www.w3.org/2000/svg">
<path d="M297.154 46.4655V92.7067V138.943H320.251V92.7067V46.4655H297.154Z" fill="black"/>
<path d="M274.057 0.229736L181.748 92.6909V138.927H204.845L297.154 46.4656V0.229736H274.057Z" fill="black"/>
<path d="M70.9549 203.936L78.1942 196.685C81.7081 203.687 87.954 205.82 93.1695 205.82C98.6967 205.82 102.036 203.311 102.036 199.236C102.036 194.954 96.2977 194.012 88.5828 192.34C79.6103 190.461 71.5784 187.327 71.5784 177.817C71.5784 169.147 79.716 162.564 90.147 162.564C99.4312 162.564 106.628 166.745 111.426 173.117L104.441 180.114C100.937 173.704 95.262 170.92 90.147 170.92C85.0319 170.92 81.3858 173.429 81.3858 177.187C81.3858 181.262 84.7254 181.993 93.6926 183.771C102.665 185.549 111.944 188.788 111.944 198.5C111.944 207.587 103.912 214.277 92.7521 214.277C83.2617 214.277 75.4358 210.202 70.9496 203.936H70.9549Z" fill="black"/>
<path d="M116.314 223.476H121.007C127.786 223.476 129.35 222.015 133.213 211.985L114.227 163.611H124.97L138.111 200.389L150.106 163.611H160.955L142.074 216.479C137.588 228.181 133.313 232.775 121.524 232.775H116.309V223.476H116.314Z" fill="black"/>
<path d="M167.084 163.606H177.309V172.275C179.814 166.11 184.612 162.558 191.703 162.558C197.442 162.558 202.969 165.485 205.262 173.318C207.661 166.84 212.877 162.558 221.221 162.558C230.611 162.558 236.555 169.767 236.555 181.993V212.917H226.23V182.517C226.23 175.202 223.102 171.651 217.257 171.651C210.684 171.651 206.932 176.769 206.932 185.337V212.917H196.607V182.517C196.607 175.202 193.479 171.651 187.634 171.651C181.79 171.651 177.309 176.457 177.309 185.337V212.917H167.084V163.606Z" fill="black"/>
<path d="M244.973 163.606H255.198V172.275C257.702 166.11 262.5 162.558 269.592 162.558C275.33 162.558 280.858 165.485 283.151 173.318C285.55 166.84 290.765 162.558 299.109 162.558C308.499 162.558 314.444 169.767 314.444 181.993V212.917H304.119V182.517C304.119 175.202 300.99 171.651 295.146 171.651C288.573 171.651 284.821 176.769 284.821 185.337V212.917H274.496V182.517C274.496 175.202 271.367 171.651 265.523 171.651C259.679 171.651 255.198 176.457 255.198 185.337V212.917H244.973V163.606Z" fill="black"/>
<path d="M320.563 188.576C320.563 173.323 330.682 162.77 344.659 162.77C358.635 162.77 367.814 172.487 367.814 188.052V191.816H330.782C331.406 200.278 336.727 205.396 345.071 205.396C353.415 205.396 357.066 201.321 358.942 196.515L368.015 200.067C364.675 207.693 357.689 213.753 345.066 213.753C329.942 213.753 320.552 203.724 320.552 188.576H320.563ZM357.283 184.083C356.865 175.62 352.173 171.127 344.453 171.127C336.732 171.127 331.623 176.038 330.582 184.083H357.288H357.283Z" fill="black"/>
<path d="M406.568 163.606H416.793V172.693C418.251 166.946 422.114 163.188 431.081 163.188H432.645V173.217H427.953C419.192 173.217 416.793 177.605 416.793 187.634V212.917H406.568V163.606Z" fill="black"/>
<path d="M449.454 146.098H439.129V156.44H449.454V146.098Z" fill="black"/>
<path d="M449.454 163.659H439.129V212.97H449.454V163.659Z" fill="black"/>
<path d="M455.267 188.158C455.267 173.429 465.28 162.77 479.675 162.77C491.252 162.77 498.555 169.036 501.583 178.653L491.775 181.68C490.105 175.414 486.56 171.439 479.468 171.439C470.913 171.439 465.597 178.229 465.597 188.052V188.471C465.597 198.188 470.607 205.084 479.157 205.084C487.083 205.084 490.528 201.009 492.193 194.324L502 197.352C498.766 207.381 491.358 213.753 479.363 213.753C464.657 213.753 455.267 203.2 455.267 188.158Z" fill="black"/>
<path d="M399.249 172.381V163.606H388.612V151.269H383.799L378.699 156.376V163.606H370.874V172.381H378.699V200.591C378.805 208.429 381.098 212.499 390.071 212.917H398.832V203.93H392.993C389.865 203.93 388.612 202.469 388.612 199.331V172.376H399.249V172.381Z" fill="black"/>
<path d="M58.1566 151.269H53.2793L0.00439453 204.634V212.922H5.13003L23.1913 194.832H54.3732V212.922H64.0696V151.274H58.1619L58.1566 151.269ZM30.9115 187.094L54.3732 163.595V187.094H30.9115Z" fill="black"/>
</svg>
