<svg width="24" height="24" viewBox="0 0 24 24" fill="none" xmlns="http://www.w3.org/2000/svg">
<rect width="24" height="24" fill="white" style="mix-blend-mode:multiply"/>
<path d="M22.0034 11.9502L16.2041 9.86648L13.7805 6.82253C13.5697 6.56484 13.3041 6.35733 13.0031 6.21506C12.7021 6.07279 12.3732 5.99933 12.0403 6H6.0432C5.67646 5.99985 5.31525 6.0894 4.99106 6.26085C4.66686 6.43229 4.38952 6.68043 4.1832 6.98363L2.14965 9.97118C1.72591 10.593 1.4995 11.3281 1.5 12.0806V18C1.5 18.1989 1.57902 18.3897 1.71967 18.5303C1.86032 18.671 2.05109 18.75 2.25 18.75H3.85658C4.02011 19.3933 4.39338 19.9638 4.91738 20.3713C5.44138 20.7787 6.08622 20.9999 6.75 20.9999C7.41378 20.9999 8.05863 20.7787 8.58263 20.3713C9.10663 19.9638 9.47989 19.3933 9.64342 18.75H14.3566C14.5201 19.3933 14.8934 19.9638 15.4174 20.3713C15.9414 20.7787 16.5862 20.9999 17.25 20.9999C17.9138 20.9999 18.5586 20.7787 19.0826 20.3713C19.6066 19.9638 19.9799 19.3933 20.1434 18.75H21.75C21.9489 18.75 22.1397 18.671 22.2803 18.5303C22.421 18.3897 22.5 18.1989 22.5 18V12.6563C22.5 12.5018 22.4524 12.351 22.3635 12.2246C22.2746 12.0983 22.1488 12.0024 22.0034 11.9502ZM6.75 19.5C6.45333 19.5 6.16332 19.412 5.91665 19.2472C5.66997 19.0824 5.47771 18.8481 5.36418 18.574C5.25065 18.2999 5.22094 17.9983 5.27882 17.7074C5.3367 17.4164 5.47956 17.1491 5.68934 16.9393C5.89912 16.7296 6.16639 16.5867 6.45737 16.5288C6.74834 16.4709 7.04994 16.5007 7.32403 16.6142C7.59811 16.7277 7.83238 16.92 7.9972 17.1666C8.16203 17.4133 8.25 17.7033 8.25 18C8.24946 18.3977 8.09126 18.7789 7.81007 19.0601C7.52888 19.3413 7.14766 19.4995 6.75 19.5ZM17.25 19.5C16.9533 19.5 16.6633 19.412 16.4166 19.2472C16.17 19.0824 15.9777 18.8481 15.8642 18.574C15.7507 18.2999 15.7209 17.9983 15.7788 17.7074C15.8367 17.4164 15.9796 17.1491 16.1893 16.9393C16.3991 16.7296 16.6664 16.5867 16.9574 16.5288C17.2483 16.4709 17.5499 16.5007 17.824 16.6142C18.0981 16.7277 18.3324 16.92 18.4972 17.1666C18.662 17.4133 18.75 17.7033 18.75 18C18.7495 18.3977 18.5913 18.7789 18.3101 19.0601C18.0289 19.3413 17.6477 19.4995 17.25 19.5ZM21 17.25H20.1434C19.9799 16.6067 19.6066 16.0362 19.0826 15.6288C18.5586 15.2213 17.9138 15.0001 17.25 15.0001C16.5862 15.0001 15.9414 15.2213 15.4174 15.6288C14.8934 16.0362 14.5201 16.6067 14.3566 17.25H9.64342C9.47989 16.6067 9.10663 16.0362 8.58263 15.6288C8.05863 15.2213 7.41378 15.0001 6.75 15.0001C6.08622 15.0001 5.44138 15.2213 4.91738 15.6288C4.39338 16.0362 4.02011 16.6067 3.85658 17.25H3V12.0806C2.99983 11.6288 3.13573 11.1875 3.39 10.8142L5.42325 7.82813C5.49198 7.72701 5.58441 7.64425 5.69247 7.58706C5.80053 7.52986 5.92094 7.49998 6.0432 7.5H12.0403C12.1495 7.49953 12.2575 7.52311 12.3567 7.56906C12.4558 7.61501 12.5436 7.6822 12.6138 7.76588L15.1634 10.9673C15.2501 11.0762 15.3655 11.1589 15.4966 11.2061L21 13.1836V17.25Z" fill="#161616"/>
</svg>
