<svg width="24" height="24" viewBox="0 0 24 24" fill="none" xmlns="http://www.w3.org/2000/svg">
<rect width="24" height="24" fill="white" style="mix-blend-mode:multiply"/>
<path d="M12 1.5C9.9233 1.5 7.89323 2.11581 6.16652 3.26957C4.4398 4.42332 3.09399 6.0632 2.29927 7.98182C1.50455 9.90045 1.29661 12.0116 1.70176 14.0484C2.1069 16.0852 3.10693 17.9562 4.57538 19.4246C6.04383 20.8931 7.91476 21.8931 9.95156 22.2982C11.9884 22.7034 14.0996 22.4955 16.0182 21.7007C17.9368 20.906 19.5767 19.5602 20.7304 17.8335C21.8842 16.1068 22.5 14.0767 22.5 12C22.5 9.21523 21.3938 6.54451 19.4246 4.57538C17.4555 2.60625 14.7848 1.5 12 1.5ZM17.625 6.75C18.1442 6.75 18.6517 6.90395 19.0834 7.19239C19.5151 7.48083 19.8515 7.8908 20.0502 8.37046C20.2489 8.85011 20.3009 9.37791 20.1996 9.88711C20.0983 10.3963 19.8483 10.864 19.4812 11.2312C19.114 11.5983 18.6463 11.8483 18.1371 11.9496C17.6279 12.0508 17.1001 11.9989 16.6205 11.8002C16.1408 11.6015 15.7308 11.2651 15.4424 10.8334C15.154 10.4017 15 9.89418 15 9.375C15.0008 8.67906 15.2776 8.01185 15.7697 7.51974C16.2619 7.02764 16.9291 6.75081 17.625 6.75ZM17.9511 5.2665C17.8433 5.25802 17.735 5.25 17.625 5.25C17.0378 5.24991 16.4573 5.37559 15.9227 5.6186C15.3882 5.8616 14.9118 6.21629 14.5258 6.6588C14.155 5.78763 13.5835 5.01643 12.858 4.40808C12.1325 3.79973 11.2735 3.37145 10.351 3.15817C11.6946 2.90127 13.0794 2.95786 14.3976 3.32354C15.7158 3.68921 16.9318 4.35411 17.9511 5.2665ZM12 21C11.4067 21 10.8266 20.8241 10.3333 20.4944C9.83995 20.1648 9.45543 19.6962 9.22837 19.1481C9.0013 18.5999 8.94189 17.9967 9.05765 17.4147C9.1734 16.8328 9.45913 16.2982 9.87868 15.8787C10.2982 15.4591 10.8328 15.1734 11.4147 15.0576C11.9967 14.9419 12.5999 15.0013 13.1481 15.2284C13.6962 15.4554 14.1648 15.8399 14.4944 16.3333C14.8241 16.8266 15 17.4067 15 18C14.9991 18.7954 14.6828 19.5579 14.1203 20.1203C13.5579 20.6828 12.7954 20.9991 12 21ZM9 13.5C8.10999 13.5 7.23996 13.2361 6.49994 12.7416C5.75992 12.2471 5.18314 11.5443 4.84255 10.7221C4.50195 9.89981 4.41284 8.99501 4.58647 8.12209C4.7601 7.24918 5.18869 6.44736 5.81802 5.81802C6.44736 5.18868 7.24918 4.7601 8.1221 4.58647C8.99501 4.41283 9.89981 4.50195 10.7221 4.84254C11.5443 5.18314 12.2472 5.75991 12.7416 6.49993C13.2361 7.23995 13.5 8.10998 13.5 9C13.4987 10.1931 13.0241 11.3369 12.1805 12.1805C11.3369 13.0241 10.1931 13.4987 9 13.5ZM3 12C3.00187 11.4466 3.05489 10.8946 3.15841 10.351C3.45136 11.6155 4.14689 12.7508 5.14041 13.5861C6.13394 14.4214 7.37178 14.9117 8.66783 14.9831C8.05174 15.6581 7.65744 16.5058 7.53809 17.4119C7.41873 18.318 7.58006 19.2389 8.00033 20.0504C6.50071 19.3062 5.23832 18.1586 4.35501 16.7365C3.4717 15.3144 3.00245 13.6741 3 12ZM15.9994 20.0504C16.3195 19.4309 16.4907 18.7453 16.4997 18.048C16.5086 17.3507 16.3548 16.6609 16.0507 16.0334C15.7466 15.4059 15.3004 14.8579 14.7475 14.4329C14.1946 14.0079 13.5503 13.7176 12.8657 13.585C13.4528 13.0902 13.9397 12.4875 14.3002 11.8096C14.6853 12.3376 15.1907 12.7663 15.7744 13.0602C16.3581 13.3542 17.0035 13.5049 17.657 13.4999C18.3105 13.4949 18.9535 13.3344 19.5327 13.0316C20.1119 12.7288 20.6106 12.2925 20.9877 11.7586C20.99 11.8396 21 11.9187 21 12C20.9975 13.6741 20.5282 15.3144 19.6449 16.7366C18.7615 18.1587 17.4991 19.3063 15.9994 20.0504Z" fill="#161616"/>
</svg>
