<svg width="24" height="24" viewBox="0 0 24 24" fill="none" xmlns="http://www.w3.org/2000/svg">
<rect width="24" height="24" fill="white" style="mix-blend-mode:multiply"/>
<path d="M14.249 10.5C14.694 10.5 15.129 10.368 15.4991 10.1208C15.8691 9.87357 16.1575 9.52217 16.3278 9.11104C16.498 8.6999 16.5426 8.2475 16.4558 7.81105C16.369 7.37459 16.1547 6.97368 15.84 6.65901C15.5253 6.34434 15.1244 6.13005 14.688 6.04323C14.2515 5.95642 13.7991 6.00097 13.388 6.17127C12.9769 6.34157 12.6254 6.62996 12.3782 6.99997C12.131 7.36998 11.999 7.80499 11.999 8.25C11.999 8.84674 12.2361 9.41903 12.658 9.84099C13.08 10.2629 13.6523 10.5 14.249 10.5ZM14.249 7.5C14.3974 7.5 14.5424 7.54399 14.6657 7.6264C14.789 7.70881 14.8852 7.82594 14.9419 7.96299C14.9987 8.10003 15.0136 8.25083 14.9846 8.39632C14.9557 8.5418 14.8842 8.67544 14.7794 8.78033C14.6745 8.88522 14.5408 8.95665 14.3953 8.98559C14.2499 9.01453 14.0991 8.99968 13.962 8.94291C13.825 8.88614 13.7078 8.79001 13.6254 8.66668C13.543 8.54334 13.499 8.39834 13.499 8.25C13.499 8.05109 13.578 7.86032 13.7187 7.71967C13.8593 7.57902 14.0501 7.5 14.249 7.5Z" fill="#161616"/>
<path d="M19.499 3H4.49902C4.1012 3 3.71967 3.15804 3.43836 3.43934C3.15706 3.72064 2.99902 4.10218 2.99902 4.5V19.5C2.99902 19.8978 3.15706 20.2794 3.43836 20.5607C3.71967 20.842 4.1012 21 4.49902 21H19.499C19.8968 21 20.2784 20.842 20.5597 20.5607C20.841 20.2794 20.999 19.8978 20.999 19.5V4.5C20.999 4.10218 20.841 3.72064 20.5597 3.43934C20.2784 3.15804 19.8968 3 19.499 3ZM19.499 19.5H4.49902V15L8.24902 11.25L12.4415 15.4425C12.7226 15.7219 13.1027 15.8787 13.499 15.8787C13.8953 15.8787 14.2755 15.7219 14.5565 15.4425L15.749 14.25L19.499 18V19.5ZM19.499 15.8775L16.8065 13.185C16.5255 12.9056 16.1453 12.7488 15.749 12.7488C15.3527 12.7488 14.9726 12.9056 14.6915 13.185L13.499 14.3775L9.30652 10.185C9.02548 9.90562 8.6453 9.74881 8.24902 9.74881C7.85275 9.74881 7.47257 9.90562 7.19152 10.185L4.49902 12.8775V4.5H19.499V15.8775Z" fill="#161616"/>
</svg>
