<svg width="20" height="20" viewBox="0 0 20 20" fill="none" xmlns="http://www.w3.org/2000/svg">
<g clip-path="url(#clip0_66_521)">
<path d="M9.61951 1.71503C12.1642 1.71503 12.4655 1.72619 13.4662 1.77083C14.3963 1.81176 14.8985 1.96801 15.2334 2.09821C15.6761 2.26935 15.996 2.47768 16.3271 2.80878C16.6619 3.1436 16.8665 3.45982 17.0377 3.90253C17.1679 4.23735 17.3241 4.7433 17.3651 5.66964C17.4097 6.67411 17.4209 6.97545 17.4209 9.51637C17.4209 12.061 17.4097 12.3624 17.3651 13.3631C17.3241 14.2932 17.1679 14.7954 17.0377 15.1302C16.8665 15.5729 16.6582 15.8929 16.3271 16.224C15.9923 16.5588 15.6761 16.7634 15.2334 16.9345C14.8985 17.0647 14.3926 17.221 13.4662 17.2619C12.4618 17.3065 12.1604 17.3177 9.61951 17.3177C7.07487 17.3177 6.77353 17.3065 5.77279 17.2619C4.84273 17.221 4.3405 17.0647 4.00567 16.9345C3.56297 16.7634 3.24302 16.5551 2.91192 16.224C2.5771 15.8891 2.37249 15.5729 2.20136 15.1302C2.07115 14.7954 1.9149 14.2894 1.87398 13.3631C1.82933 12.3586 1.81817 12.0573 1.81817 9.51637C1.81817 6.97173 1.82933 6.67039 1.87398 5.66964C1.9149 4.73958 2.07115 4.23735 2.20136 3.90253C2.37249 3.45982 2.58082 3.13988 2.91192 2.80878C3.24675 2.47396 3.56297 2.26935 4.00567 2.09821C4.3405 1.96801 4.84645 1.81176 5.77279 1.77083C6.77353 1.72619 7.07487 1.71503 9.61951 1.71503ZM9.61951 0C7.03395 0 6.71029 0.0111607 5.69466 0.0558036C4.68276 0.100446 3.98707 0.264137 3.38439 0.498512C2.75567 0.744048 2.22368 1.06771 1.69541 1.5997C1.16341 2.12798 0.839751 2.65997 0.594215 3.28497C0.35984 3.89137 0.19615 4.58333 0.151507 5.59524C0.106864 6.61458 0.0957031 6.93824 0.0957031 9.52381C0.0957031 12.1094 0.106864 12.433 0.151507 13.4487C0.19615 14.4606 0.35984 15.1563 0.594215 15.7589C0.839751 16.3877 1.16341 16.9196 1.69541 17.4479C2.22368 17.9762 2.75567 18.3036 3.38067 18.5454C3.98707 18.7798 4.67904 18.9435 5.69094 18.9881C6.70657 19.0327 7.03023 19.0439 9.61579 19.0439C12.2014 19.0439 12.525 19.0327 13.5406 18.9881C14.5526 18.9435 15.2482 18.7798 15.8509 18.5454C16.4759 18.3036 17.0079 17.9762 17.5362 17.4479C18.0645 16.9196 18.3918 16.3877 18.6337 15.7627C18.868 15.1563 19.0317 14.4643 19.0764 13.4524C19.121 12.4368 19.1322 12.1131 19.1322 9.52753C19.1322 6.94197 19.121 6.6183 19.0764 5.60268C19.0317 4.59077 18.868 3.89509 18.6337 3.29241C18.3993 2.65997 18.0756 2.12798 17.5436 1.5997C17.0153 1.07143 16.4834 0.744048 15.8584 0.502232C15.252 0.267857 14.56 0.104167 13.5481 0.0595238C12.5287 0.0111607 12.2051 0 9.61951 0Z" fill="white"/>
<path d="M9.62161 4.63281C6.92071 4.63281 4.72949 6.82403 4.72949 9.52493C4.72949 12.2258 6.92071 14.417 9.62161 14.417C12.3225 14.417 14.5137 12.2258 14.5137 9.52493C14.5137 6.82403 12.3225 4.63281 9.62161 4.63281ZM9.62161 12.6983C7.86937 12.6983 6.44824 11.2772 6.44824 9.52493C6.44824 7.77269 7.86937 6.35156 9.62161 6.35156C11.3738 6.35156 12.795 7.77269 12.795 9.52493C12.795 11.2772 11.3738 12.6983 9.62161 12.6983Z" fill="white"/>
<path d="M15.8467 4.43801C15.8467 5.07045 15.3333 5.58013 14.7046 5.58013C14.0722 5.58013 13.5625 5.06673 13.5625 4.43801C13.5625 3.80557 14.0759 3.2959 14.7046 3.2959C15.3333 3.2959 15.8467 3.80929 15.8467 4.43801Z" fill="white"/>
</g>
<defs>
<clipPath id="clip0_66_521">
<rect width="19.0476" height="19.0476" fill="white" transform="translate(0.0957031)"/>
</clipPath>
</defs>
</svg>
