<svg width="24" height="24" viewBox="0 0 24 24" fill="none" xmlns="http://www.w3.org/2000/svg">
<rect width="24" height="24" fill="white" style="mix-blend-mode:multiply"/>
<path d="M13.501 22.4998H10.501C10.1032 22.4998 9.72162 22.3417 9.44032 22.0604C9.15901 21.7791 9.00098 21.3976 9.00098 20.9998V15.7498C8.60315 15.7498 8.22162 15.5917 7.94032 15.3104C7.65901 15.0291 7.50098 14.6476 7.50098 14.2498V9.74976C7.50098 9.15302 7.73803 8.58072 8.15999 8.15877C8.58194 7.73681 9.15424 7.49976 9.75098 7.49976H14.251C14.8477 7.49976 15.42 7.73681 15.842 8.15877C16.2639 8.58072 16.501 9.15302 16.501 9.74976V14.2498C16.501 14.6476 16.3429 15.0291 16.0616 15.3104C15.7803 15.5917 15.3988 15.7498 15.001 15.7498V20.9998C15.001 21.3976 14.8429 21.7791 14.5616 22.0604C14.2803 22.3417 13.8988 22.4998 13.501 22.4998ZM9.75098 8.99976C9.65077 8.99313 9.5503 9.00798 9.4563 9.04333C9.3623 9.07868 9.27694 9.1337 9.20593 9.20471C9.13492 9.27572 9.0799 9.36108 9.04455 9.45508C9.0092 9.54908 8.99435 9.64955 9.00098 9.74976V14.2498H10.501V20.9998H13.501V14.2498H15.001V9.74976C15.0076 9.64955 14.9928 9.54908 14.9574 9.45508C14.9221 9.36108 14.867 9.27572 14.796 9.20471C14.725 9.1337 14.6396 9.07868 14.5456 9.04333C14.4517 9.00798 14.3512 8.99313 14.251 8.99976H9.75098Z" fill="#161616"/>
<path d="M12.001 6.74976C11.4076 6.74976 10.8276 6.57381 10.3343 6.24417C9.84092 5.91452 9.4564 5.44599 9.22934 4.89781C9.00228 4.34963 8.94287 3.74643 9.05862 3.16449C9.17438 2.58254 9.4601 2.04799 9.87966 1.62844C10.2992 1.20888 10.8338 0.923157 11.4157 0.807401C11.9976 0.691646 12.6008 0.751056 13.149 0.978119C13.6972 1.20518 14.1657 1.5897 14.4954 2.08305C14.825 2.57639 15.001 3.15641 15.001 3.74976C15.001 4.54541 14.6849 5.30847 14.1223 5.87108C13.5597 6.43369 12.7966 6.74976 12.001 6.74976ZM12.001 2.24976C11.7043 2.24976 11.4143 2.33773 11.1676 2.50255C10.9209 2.66737 10.7287 2.90164 10.6152 3.17573C10.5016 3.44982 10.4719 3.75142 10.5298 4.04239C10.5877 4.33336 10.7305 4.60064 10.9403 4.81042C11.1501 5.0202 11.4174 5.16306 11.7083 5.22094C11.9993 5.27881 12.3009 5.24911 12.575 5.13558C12.8491 5.02205 13.0834 4.82979 13.2482 4.58311C13.413 4.33644 13.501 4.04643 13.501 3.74976C13.501 3.35193 13.3429 2.9704 13.0616 2.6891C12.7803 2.40779 12.3988 2.24976 12.001 2.24976Z" fill="#161616"/>
</svg>
