<svg width="24" height="24" viewBox="0 0 24 24" fill="none" xmlns="http://www.w3.org/2000/svg">
<rect width="24" height="24" fill="white" style="mix-blend-mode:multiply"/>
<path d="M12 23.25H10.5V23.079C10.4986 22.6213 10.3582 22.1748 10.0975 21.7986C9.83679 21.4224 9.46799 21.1342 9.0399 20.9722L6.39112 19.9788C5.83668 19.7689 5.35902 19.3957 5.02133 18.9084C4.68365 18.4211 4.50185 17.8428 4.5 17.25H6C6.0009 17.5377 6.08911 17.8184 6.25298 18.0549C6.41684 18.2914 6.64863 18.4725 6.9177 18.5744L9.56655 19.5675C10.28 19.8376 10.8947 20.3179 11.3292 20.9449C11.7638 21.5719 11.9977 22.3161 12 23.079V23.25Z" fill="#161616"/>
<path d="M22.5 23.25H21V23.079C20.9986 22.6213 20.8582 22.1748 20.5975 21.7986C20.3368 21.4224 19.968 21.1342 19.5399 20.9722L16.8911 19.9788C16.3367 19.7689 15.859 19.3957 15.5213 18.9084C15.1836 18.4211 15.0019 17.8428 15 17.25H16.5C16.5009 17.5377 16.5891 17.8184 16.753 18.0549C16.9168 18.2914 17.1486 18.4725 17.4177 18.5744L20.0665 19.5675C20.78 19.8376 21.3947 20.3179 21.8292 20.9449C22.2638 21.5719 22.4977 22.3161 22.5 23.079V23.25Z" fill="#161616"/>
<path d="M12.75 9.75H8.25V11.25H12.75V9.75Z" fill="#161616"/>
<path d="M17.5807 6L16.6265 2.5875C16.5359 2.27471 16.3464 1.9997 16.0864 1.80365C15.8264 1.6076 15.5098 1.50106 15.1842 1.5H5.8158C5.49009 1.50109 5.17349 1.60769 4.91347 1.80385C4.65344 2 4.46398 2.27514 4.37347 2.58803L3.39862 6H1.5V7.5H3V12.75C3.0005 13.1477 3.15869 13.5289 3.43989 13.8101C3.72109 14.0913 4.10233 14.2495 4.5 14.25V15.75H6V14.25H15V15.75H16.5V14.25C16.8977 14.2495 17.2789 14.0913 17.5601 13.8101C17.8413 13.5289 17.9995 13.1477 18 12.75V7.5H19.5V6H17.5807ZM5.8158 3H15.1844L16.2557 6.75H4.74427L5.8158 3ZM16.5 9.75H15V11.25H16.5V12.75H4.5V11.25H6V9.75H4.5V8.25H16.5V9.75Z" fill="#161616"/>
</svg>
