<svg width="34" height="34" viewBox="0 0 34 34" fill="none" xmlns="http://www.w3.org/2000/svg">
<rect x="27.2061" y="18.1169" width="6.80873" height="2.22953" transform="rotate(-180 27.2061 18.1169)" fill="white"/>
<rect x="20.3984" y="18.1169" width="6.79436" height="2.22953" transform="rotate(-180 20.3984 18.1169)" fill="white"/>
<rect x="13.6016" y="18.1169" width="6.80873" height="2.22953" transform="rotate(-180 13.6016 18.1169)" fill="white"/>
<rect x="6.79395" y="18.1169" width="6.79436" height="2.22953" transform="rotate(-180 6.79395 18.1169)" fill="white"/>
<rect x="34" y="18.1169" width="6.79436" height="2.22953" transform="rotate(-180 34 18.1169)" fill="white"/>
<rect x="18.1143" y="6.7937" width="6.80873" height="2.22953" transform="rotate(90 18.1143 6.7937)" fill="white"/>
<rect x="18.1143" y="13.6028" width="6.79436" height="2.22953" transform="rotate(90 18.1143 13.6028)" fill="white"/>
<rect x="18.1143" y="20.3975" width="6.80873" height="2.22953" transform="rotate(90 18.1143 20.3975)" fill="white"/>
<rect x="18.1143" y="27.2061" width="6.79436" height="2.22953" transform="rotate(90 18.1143 27.2061)" fill="white"/>
<rect x="18.1143" width="6.79436" height="2.22953" transform="rotate(90 18.1143 0)" fill="white"/>
<rect x="25.0029" y="10.5735" width="6.80873" height="2.22953" transform="rotate(135 25.0029 10.5735)" fill="white"/>
<rect x="20.1914" y="15.3877" width="6.79436" height="2.22953" transform="rotate(135 20.1914 15.3877)" fill="white"/>
<rect x="15.3848" y="20.1919" width="6.80873" height="2.22953" transform="rotate(135 15.3848 20.1919)" fill="white"/>
<rect x="10.5693" y="25.0066" width="6.79436" height="2.22953" transform="rotate(135 10.5693 25.0066)" fill="white"/>
<rect x="29.8105" y="5.76831" width="6.79436" height="2.22953" transform="rotate(135 29.8105 5.76831)" fill="white"/>
<rect x="10.5762" y="8.99731" width="6.80873" height="2.22953" transform="rotate(45 10.5762 8.99731)" fill="white"/>
<rect x="15.3896" y="13.812" width="6.79436" height="2.22953" transform="rotate(45 15.3896 13.812)" fill="white"/>
<rect x="20.1963" y="18.6157" width="6.80873" height="2.22953" transform="rotate(45 20.1963 18.6157)" fill="white"/>
<rect x="25.0098" y="23.4304" width="6.79436" height="2.22953" transform="rotate(45 25.0098 23.4304)" fill="white"/>
<rect x="5.77148" y="4.19263" width="6.79436" height="2.22953" transform="rotate(45 5.77148 4.19263)" fill="white"/>
<rect x="26.0889" y="21.7747" width="6.80873" height="2.22953" transform="rotate(-158.526 26.0889 21.7747)" fill="white"/>
<rect x="19.7529" y="19.283" width="6.79436" height="2.22953" transform="rotate(-158.526 19.7529 19.283)" fill="white"/>
<rect x="13.4287" y="16.7961" width="6.80873" height="2.22953" transform="rotate(-158.526 13.4287 16.7961)" fill="white"/>
<rect x="7.09277" y="14.3035" width="6.79436" height="2.22953" transform="rotate(-158.526 7.09277 14.3035)" fill="white"/>
<rect x="32.4102" y="24.2627" width="6.79436" height="2.22953" transform="rotate(-158.526 32.4102 24.2627)" fill="white"/>
<rect x="21.7734" y="7.91113" width="6.80873" height="2.22953" transform="rotate(111.474 21.7734 7.91113)" fill="white"/>
<rect x="19.2822" y="14.248" width="6.79436" height="2.22953" transform="rotate(111.474 19.2822 14.248)" fill="white"/>
<rect x="16.7949" y="20.5703" width="6.80873" height="2.22953" transform="rotate(111.474 16.7949 20.5703)" fill="white"/>
<rect x="14.3018" y="26.9062" width="6.79436" height="2.22953" transform="rotate(111.474 14.3018 26.9062)" fill="white"/>
<rect x="24.2627" y="1.58813" width="6.79436" height="2.22953" transform="rotate(111.474 24.2627 1.58813)" fill="white"/>
<rect x="26.7998" y="13.9495" width="6.80873" height="2.22953" transform="rotate(156.474 26.7998 13.9495)" fill="white"/>
<rect x="20.5586" y="16.6672" width="6.79436" height="2.22953" transform="rotate(156.474 20.5586 16.6672)" fill="white"/>
<rect x="14.3271" y="19.3792" width="6.80873" height="2.22953" transform="rotate(156.474 14.3271 19.3792)" fill="white"/>
<rect x="8.08496" y="22.0972" width="6.79436" height="2.22953" transform="rotate(156.474 8.08496 22.0972)" fill="white"/>
<rect x="33.0312" y="11.2371" width="6.79436" height="2.22953" transform="rotate(156.474 33.0312 11.2371)" fill="white"/>
<rect x="13.9482" y="7.19897" width="6.80873" height="2.22953" transform="rotate(66.4739 13.9482 7.19897)" fill="white"/>
<rect x="16.666" y="13.4417" width="6.79436" height="2.22953" transform="rotate(66.4739 16.666 13.4417)" fill="white"/>
<rect x="19.3818" y="19.6711" width="6.80873" height="2.22953" transform="rotate(66.4739 19.3818 19.6711)" fill="white"/>
<rect x="22.0986" y="25.9143" width="6.79436" height="2.22953" transform="rotate(66.4739 22.0986 25.9143)" fill="white"/>
<rect x="11.2363" y="0.968994" width="6.79436" height="2.22953" transform="rotate(66.4739 11.2363 0.968994)" fill="white"/>
</svg>
