<svg width="37" height="37" viewBox="0 0 37 37" fill="none" xmlns="http://www.w3.org/2000/svg">
<path d="M21.3087 34.2856C20.3997 34.2848 19.5282 33.9231 18.8859 33.2799L3.43443 17.8399C2.79126 17.1976 2.42951 16.3261 2.42871 15.4171V5.71422C2.42871 4.8049 2.78993 3.93283 3.43292 3.28985C4.0759 2.64687 4.94797 2.28564 5.85728 2.28564H15.5601C16.4691 2.28644 17.3406 2.64819 17.983 3.29136L33.423 18.7314C33.7426 19.0499 33.9962 19.4284 34.1693 19.8451C34.3423 20.2619 34.4314 20.7087 34.4314 21.1599C34.4314 21.6112 34.3423 22.058 34.1693 22.4747C33.9962 22.8915 33.7426 23.27 33.423 23.5885L23.7316 33.2799C23.0892 33.9231 22.2177 34.2848 21.3087 34.2856ZM5.85728 4.57136C5.55418 4.57136 5.26349 4.69177 5.04916 4.90609C4.83483 5.12042 4.71443 5.41111 4.71443 5.71422V15.4171C4.71505 15.5683 4.74568 15.7179 4.80453 15.8571C4.86339 15.9964 4.9493 16.1227 5.05728 16.2285L20.4973 31.6685C20.7114 31.8814 21.0011 32.0008 21.303 32.0008C21.6049 32.0008 21.8946 31.8814 22.1087 31.6685L31.8116 21.9656C32.0244 21.7515 32.1439 21.4619 32.1439 21.1599C32.1439 20.858 32.0244 20.5683 31.8116 20.3542L16.3716 4.91422C16.2657 4.80623 16.1395 4.72032 16.0002 4.66147C15.8609 4.60261 15.7113 4.57199 15.5601 4.57136H5.85728Z" fill="white"/>
<path d="M11.5716 15.9999C10.6674 15.9999 9.78359 15.7318 9.03182 15.2295C8.28005 14.7272 7.69412 14.0132 7.34812 13.1779C7.00212 12.3426 6.91159 11.4234 7.08798 10.5367C7.26437 9.64989 7.69975 8.83534 8.33908 8.19601C8.9784 7.55669 9.79296 7.1213 10.6797 6.94491C11.5665 6.76852 12.4857 6.85905 13.321 7.20505C14.1563 7.55105 14.8703 8.13698 15.3726 8.88875C15.8749 9.64052 16.143 10.5244 16.143 11.4285C16.143 12.6409 15.6614 13.8037 14.8041 14.661C13.9467 15.5183 12.784 15.9999 11.5716 15.9999ZM11.5716 9.14279C11.1195 9.14279 10.6776 9.27684 10.3017 9.528C9.92581 9.77916 9.63284 10.1361 9.45984 10.5538C9.28684 10.9715 9.24158 11.431 9.32977 11.8744C9.41797 12.3178 9.63566 12.7251 9.95532 13.0447C10.275 13.3644 10.6823 13.5821 11.1256 13.6703C11.569 13.7585 12.0286 13.7132 12.4463 13.5402C12.8639 13.3672 13.2209 13.0743 13.4721 12.6984C13.7232 12.3225 13.8573 11.8806 13.8573 11.4285C13.8573 10.8223 13.6165 10.2409 13.1878 9.81226C12.7592 9.3836 12.1778 9.14279 11.5716 9.14279Z" fill="white"/>
</svg>
