<svg width="20" height="17" viewBox="0 0 20 17" fill="none" xmlns="http://www.w3.org/2000/svg">
<path d="M5.99219 16.2629C13.1782 16.2629 17.1097 10.3079 17.1097 5.14533C17.1097 4.97792 17.106 4.80679 17.0986 4.63938C17.8634 4.08629 18.5234 3.4012 19.0476 2.61632C18.3353 2.93322 17.5791 3.14019 16.8047 3.23016C17.6201 2.7414 18.2306 1.9736 18.5231 1.06907C17.756 1.52366 16.9171 1.84434 16.0424 2.01736C15.453 1.39113 14.6738 0.976489 13.8251 0.837548C12.9765 0.698607 12.1057 0.843103 11.3474 1.2487C10.5891 1.65429 9.98556 2.29839 9.63004 3.08141C9.27452 3.86443 9.18685 4.74276 9.38058 5.5806C7.82737 5.50266 6.30789 5.09918 4.92062 4.39632C3.53335 3.69345 2.30928 2.7069 1.32775 1.50062C0.828888 2.36072 0.676235 3.3785 0.900818 4.3471C1.1254 5.31571 1.71037 6.16247 2.53683 6.71527C1.91637 6.69558 1.3095 6.52852 0.766369 6.22792V6.27629C0.765813 7.1789 1.07786 8.05385 1.64945 8.7524C2.22105 9.45096 3.01692 9.93002 3.90179 10.1081C3.32703 10.2654 2.7238 10.2883 2.13876 10.1751C2.38846 10.9513 2.87426 11.6303 3.52839 12.1171C4.18251 12.604 4.97232 12.8745 5.78757 12.8909C4.40351 13.9781 2.69379 14.5678 0.93378 14.565C0.621656 14.5645 0.309841 14.5454 0 14.5077C1.78798 15.6548 3.86788 16.264 5.99219 16.2629Z" fill="white"/>
</svg>
