<svg width="450" height="98" viewBox="0 0 450 98" fill="none" xmlns="http://www.w3.org/2000/svg">
<path d="M160.468 61.2019H137.703L133.509 72.7989H126.32L145.191 20.9493H153.054L171.85 72.7989H164.661L160.468 61.2019ZM158.521 55.6653L149.085 29.329L139.65 55.6653H158.521Z" fill="#141414"/>
<path d="M186.515 17.4328V72.7989H179.7V17.4328H186.515Z" fill="#141414"/>
<path d="M204.569 17.4328V72.7989H197.755V17.4328H204.569Z" fill="#141414"/>
<path d="M222.623 39.4296C224.021 36.9855 226.068 34.9903 228.764 33.444C231.46 31.8978 234.53 31.1247 237.975 31.1247C241.669 31.1247 244.989 31.9975 247.934 33.7433C250.88 35.4891 253.201 37.9581 254.899 41.1504C256.596 44.2928 257.445 47.9589 257.445 52.1488C257.445 56.2888 256.596 59.9799 254.899 63.222C253.201 66.4642 250.855 68.9831 247.86 70.7787C244.914 72.5744 241.619 73.4722 237.975 73.4722C234.43 73.4722 231.31 72.6991 228.614 71.1528C225.968 69.6066 223.971 67.6363 222.623 65.2421V72.7989H215.809V17.4328H222.623V39.4296ZM250.481 52.1488C250.481 49.0563 249.856 46.3628 248.608 44.0684C247.36 41.7739 245.663 40.0281 243.516 38.831C241.419 37.6339 239.098 37.0354 236.552 37.0354C234.056 37.0354 231.734 37.6589 229.588 38.9058C227.491 40.1029 225.794 41.8737 224.495 44.218C223.247 46.5124 222.623 49.181 222.623 52.2236C222.623 55.3161 223.247 58.0346 224.495 60.3789C225.794 62.6734 227.491 64.4441 229.588 65.6911C231.734 66.8882 234.056 67.4867 236.552 67.4867C239.098 67.4867 241.419 66.8882 243.516 65.6911C245.663 64.4441 247.36 62.6734 248.608 60.3789C249.856 58.0346 250.481 55.2912 250.481 52.1488Z" fill="#141414"/>
<path d="M272.855 38.4569C274.053 36.1126 275.75 34.292 277.947 32.9951C280.193 31.6983 282.914 31.0498 286.109 31.0498V38.0828H284.312C276.674 38.0828 272.855 42.2228 272.855 50.5028V72.7989H266.04V31.798H272.855V38.4569Z" fill="#141414"/>
<path d="M297.121 25.1391C295.823 25.1391 294.725 24.6902 293.826 23.7924C292.927 22.8946 292.478 21.7972 292.478 20.5004C292.478 19.2035 292.927 18.1061 293.826 17.2083C294.725 16.3105 295.823 15.8616 297.121 15.8616C298.369 15.8616 299.417 16.3105 300.266 17.2083C301.165 18.1061 301.614 19.2035 301.614 20.5004C301.614 21.7972 301.165 22.8946 300.266 23.7924C299.417 24.6902 298.369 25.1391 297.121 25.1391ZM300.416 31.798V72.7989H293.601V31.798H300.416Z" fill="#141414"/>
<path d="M309.109 52.1488C309.109 47.9589 309.958 44.2928 311.656 41.1504C313.353 37.9581 315.674 35.4891 318.62 33.7433C321.615 31.9975 324.96 31.1247 328.654 31.1247C331.85 31.1247 334.82 31.8728 337.566 33.3692C340.312 34.8157 342.408 36.7361 343.856 39.1303V17.4328H350.745V72.7989H343.856V65.0925C342.508 67.5366 340.511 69.5567 337.865 71.1528C335.219 72.6991 332.124 73.4722 328.58 73.4722C324.935 73.4722 321.615 72.5744 318.62 70.7787C315.674 68.9831 313.353 66.4642 311.656 63.222C309.958 59.9799 309.109 56.2888 309.109 52.1488ZM343.856 52.2236C343.856 49.1311 343.232 46.4376 341.984 44.1432C340.736 41.8487 339.038 40.1029 336.892 38.9058C334.795 37.6589 332.474 37.0354 329.927 37.0354C327.381 37.0354 325.06 37.6339 322.963 38.831C320.866 40.0281 319.194 41.7739 317.946 44.0684C316.698 46.3628 316.074 49.0563 316.074 52.1488C316.074 55.2912 316.698 58.0346 317.946 60.3789C319.194 62.6734 320.866 64.4441 322.963 65.6911C325.06 66.8882 327.381 67.4867 329.927 67.4867C332.474 67.4867 334.795 66.8882 336.892 65.6911C339.038 64.4441 340.736 62.6734 341.984 60.3789C343.232 58.0346 343.856 55.3161 343.856 52.2236Z" fill="#141414"/>
<path d="M378.811 31.1247C382.355 31.1247 385.451 31.8978 388.097 33.444C390.792 34.9903 392.789 36.9356 394.087 39.2799V31.798H400.977V73.6967C400.977 77.4376 400.178 80.7546 398.581 83.6476C396.983 86.5905 394.686 88.885 391.691 90.531C388.746 92.177 385.301 93 381.357 93C375.965 93 371.472 91.7281 367.878 89.1842C364.283 86.6404 362.161 83.1738 361.512 78.7844H368.252C369.001 81.2784 370.549 83.2735 372.895 84.7699C375.241 86.3162 378.062 87.0893 381.357 87.0893C385.101 87.0893 388.147 85.9171 390.493 83.5728C392.889 81.2285 394.087 77.9364 394.087 73.6967V65.0925C392.739 67.4867 390.743 69.4819 388.097 71.078C385.451 72.6742 382.355 73.4722 378.811 73.4722C375.166 73.4722 371.847 72.5744 368.851 70.7787C365.906 68.9831 363.584 66.4642 361.887 63.222C360.19 59.9799 359.341 56.2888 359.341 52.1488C359.341 47.9589 360.19 44.2928 361.887 41.1504C363.584 37.9581 365.906 35.4891 368.851 33.7433C371.847 31.9975 375.166 31.1247 378.811 31.1247ZM394.087 52.2236C394.087 49.1311 393.463 46.4376 392.215 44.1432C390.967 41.8487 389.27 40.1029 387.123 38.9058C385.026 37.6589 382.705 37.0354 380.159 37.0354C377.613 37.0354 375.291 37.6339 373.195 38.831C371.098 40.0281 369.425 41.7739 368.177 44.0684C366.929 46.3628 366.305 49.0563 366.305 52.1488C366.305 55.2912 366.929 58.0346 368.177 60.3789C369.425 62.6734 371.098 64.4441 373.195 65.6911C375.291 66.8882 377.613 67.4867 380.159 67.4867C382.705 67.4867 385.026 66.8882 387.123 65.6911C389.27 64.4441 390.967 62.6734 392.215 60.3789C393.463 58.0346 394.087 55.3161 394.087 52.2236Z" fill="#141414"/>
<path d="M449.561 50.7272C449.561 52.0241 449.486 53.3958 449.336 54.8423H416.536C416.786 58.8825 418.159 62.0499 420.655 64.3443C423.201 66.5889 426.271 67.7112 429.866 67.7112C432.811 67.7112 435.258 67.0378 437.205 65.6911C439.202 64.2944 440.599 62.4489 441.398 60.1544H448.737C447.639 64.0949 445.442 67.3121 442.147 69.8061C438.852 72.2502 434.758 73.4722 429.866 73.4722C425.972 73.4722 422.477 72.5993 419.382 70.8536C416.337 69.1078 413.94 66.6388 412.193 63.4465C410.446 60.2043 409.572 56.4634 409.572 52.2236C409.572 47.9839 410.421 44.2679 412.118 41.0756C413.816 37.8833 416.187 35.4392 419.232 33.7433C422.328 31.9975 425.872 31.1247 429.866 31.1247C433.76 31.1247 437.205 31.9726 440.2 33.6685C443.195 35.3644 445.492 37.7087 447.089 40.7015C448.737 43.6444 449.561 46.9863 449.561 50.7272ZM442.521 49.3057C442.521 46.712 441.947 44.4923 440.799 42.6468C439.651 40.7514 438.078 39.3298 436.081 38.3821C434.134 37.3845 431.963 36.8857 429.566 36.8857C426.122 36.8857 423.176 37.9831 420.73 40.1778C418.334 42.3725 416.961 45.4151 416.611 49.3057H442.521Z" fill="#141414"/>
<path d="M74.1966 48.6305C74.1966 62.8472 62.7224 74.3722 48.5682 74.3722C34.414 74.3722 22.9397 62.8473 22.9397 48.6305M74.1966 48.6305C74.1966 34.4138 62.7224 22.8888 48.5682 22.8888C34.4139 22.8888 22.9397 34.4138 22.9397 48.6305M74.1966 48.6305L74.1966 92.0597M22.9397 48.6305L22.9397 5.63965" stroke="#5B978E" stroke-width="9.97143" stroke-linecap="round"/>
<ellipse cx="48.943" cy="48.8513" rx="20.9727" ry="20.9543" fill="url(#paint0_linear_2119_13801)"/>
<path d="M47.287 92.0601L44.8857 92.0601C22.8574 92.0601 5 74.2027 5 52.1744L5 17.8029" stroke="#5B978E" stroke-width="9.97143" stroke-linecap="round"/>
<path d="M49.8498 4.99988L52.251 4.99988C74.2793 4.99988 92.1367 22.8573 92.1367 44.8856L92.1367 77.9768" stroke="#5B978E" stroke-width="9.97143" stroke-linecap="round"/>
<defs>
<linearGradient id="paint0_linear_2119_13801" x1="37.1778" y1="35.5632" x2="55.0573" y2="67.7746" gradientUnits="userSpaceOnUse">
<stop stop-color="#D9D9D9" stop-opacity="0"/>
<stop offset="0.927064" stop-color="#5B978E" stop-opacity="0.5"/>
</linearGradient>
</defs>
</svg>
