<?xml version="1.0" encoding="utf-8"?>
<!-- Generator: Adobe Illustrator 26.0.2, SVG Export Plug-In . SVG Version: 6.00 Build 0)  -->
<svg version="1.1" id="Layer_1" xmlns="http://www.w3.org/2000/svg" xmlns:xlink="http://www.w3.org/1999/xlink" x="0px" y="0px"
	 viewBox="0 0 216 216" style="enable-background:new 0 0 216 216;" xml:space="preserve">
<style type="text/css">
	.st0{fill:#FFFFFF;}
	.st1{fill:#4D75E4;}
</style>
<g>
	<g>
		<path class="st0" d="M161.9912262,14.4849138C110.3440323-15.3334608,44.3032761,2.3618605,14.4849014,54.0087624
			S2.3618481,171.6967163,54.0090408,201.5150909c51.646904,29.8183746,117.6876602,12.1230469,147.5060425-39.5238495
			S213.6381226,44.3032875,161.9912262,14.4849138z"/>
	</g>
	<g>
		<polygon class="st1" points="92.345192,85.8708878 82.7818069,102.434761 82.8263397,102.4353485 82.8152084,102.4546814 
			125.427536,127.0564575 125.6490173,126.6738358 134.7697296,110.8757858 134.9847717,110.5031281 92.3724442,85.9007721 		"/>
		<path class="st1" d="M161.9912262,14.4849138C110.3440323-15.3334608,44.3032761,2.3618605,14.4849014,54.0087624
			S2.3618481,171.6967163,54.0090408,201.5150909c51.646904,29.8183746,117.6876602,12.1230469,147.5060425-39.5238495
			S213.6381226,44.3032875,161.9912262,14.4849138z M57.4101181,128.8851624l58.467804,33.7558746l-38.9783401,0.0005951
			L57.4101181,128.8851624z M154.2568512,78.5941238l-7.1513824,12.3873138
			c5.147171,6.2689438,9.1494293,13.3066483,11.9056702,20.7808685c7.1522522,19.395134,5.9575348,41.7047043-5.1855469,61.004921
			c-2.3288116,4.0335846-4.9992218,7.742569-7.9335938,11.1392517l-20.9308701-36.9978638l-58.467804-33.7558746
			l-43.1812706-0.0011749c1.4753914-4.2445374,3.3539085-8.4164124,5.6847687-12.4535217
			c11.1430702-19.3007889,29.8678856-31.4918137,50.2406502-34.9951324
			c8.0235367-1.379303,16.3016663-1.4138718,24.4746246,0.0005798h0.276268l0.0120087,0.0527344
			c0.0002975,0,0.0014648,0.0011749,0.0020523,0.0011749l7.0051804-12.1330147l20.0106583,0.0005875l-11.1017685-19.2287216
			l0.0014648-0.0005875c5.4720764,0,10.5295944,2.9197311,13.2659225,7.6587944l6.6676788,11.5505905l13.3365326-0.0005836
			c5.4726562,0.0005836,10.5301819,2.9203148,13.2662201,7.6605492h-22.2038269L154.2568512,78.5941238z"/>
	</g>
</g>
</svg>
