<svg width="314" height="72" viewBox="0 0 314 72" fill="none" xmlns="http://www.w3.org/2000/svg"><g clip-path="url(#a)" fill="#000"><path d="M6.057 16.94h16.307v5.402H0v5.77h22.097a6.043 6.043 0 0 0 6.036-6.035v-4.87a6.044 6.044 0 0 0-6.036-6.037H5.789V5.77H28.13V0H6.053A6.043 6.043 0 0 0 .016 6.036v4.87a6.044 6.044 0 0 0 6.04 6.035ZM56.47 0H39.284a6.042 6.042 0 0 0-6.036 6.036v16.04a6.043 6.043 0 0 0 6.036 6.036H56.47a6.043 6.043 0 0 0 6.037-6.036V6.036A6.043 6.043 0 0 0 56.47 0Zm.266 5.77v16.572h-17.72V5.77l17.72.002ZM71.447 28.114h23.797v-5.772h-21.77V0h-5.769v24.37a3.748 3.748 0 0 0 3.742 3.744ZM124.725 0h-19.478a4.896 4.896 0 0 0-4.89 4.89v23.224h5.77v-9.166h17.72v9.166h5.771V4.891A4.9 4.9 0 0 0 124.725 0Zm-.88 5.77v7.408h-17.72V5.77h17.72ZM158.218 22.342h-1.072L146.32 1.985A3.737 3.737 0 0 0 143.015 0h-4.54a3.75 3.75 0 0 0-3.745 3.745v24.37h5.77V5.771h1.302l10.821 20.357a3.732 3.732 0 0 0 3.306 1.987h4.317a3.749 3.749 0 0 0 3.745-3.744V0h-5.771l-.002 22.342ZM193.944 0h-19.478a4.896 4.896 0 0 0-4.89 4.89v23.224h5.771v-9.166h17.719v9.166h5.77V4.891A4.895 4.895 0 0 0 193.944 0Zm-.881 5.77v7.408h-17.722V5.77h17.722ZM0 71.998h5.77V60.826h21.77v-5.77H5.77v-5.402h21.77v-5.77H0v28.114ZM55.861 43.884H38.675a6.043 6.043 0 0 0-6.038 6.038v16.04a6.043 6.043 0 0 0 6.036 6.036H55.86a6.042 6.042 0 0 0 6.035-6.035V49.922a6.043 6.043 0 0 0-6.034-6.038Zm.265 5.77v16.574h-17.72V49.654h17.72ZM90.497 61.38a4.854 4.854 0 0 1-4.85 4.848h-8.023a4.855 4.855 0 0 1-4.847-4.848V43.883h-5.77v18.641a9.483 9.483 0 0 0 9.471 9.473H86.79a9.485 9.485 0 0 0 9.478-9.473V43.884h-5.77v17.495ZM124.871 66.228h-1.073L112.972 45.87a3.732 3.732 0 0 0-3.306-1.986h-4.543a3.748 3.748 0 0 0-3.744 3.745v24.37h5.769V49.655h1.302l10.821 20.357A3.738 3.738 0 0 0 122.578 72h4.315a3.748 3.748 0 0 0 3.746-3.744V43.884h-5.77l.002 22.344ZM155.535 43.884H135.75v28.114h19.785a9.482 9.482 0 0 0 9.478-9.473V53.36a9.482 9.482 0 0 0-9.478-9.475Zm-14.015 5.77h12.871a4.856 4.856 0 0 1 4.849 4.85v6.876a4.857 4.857 0 0 1-4.849 4.848H141.52V49.654ZM194.497 43.884h-19.482a4.893 4.893 0 0 0-4.89 4.89v23.224h5.77v-9.166h17.72v9.166h5.77V48.776a4.894 4.894 0 0 0-4.888-4.892Zm-.88 5.77v7.408h-17.72v-7.408h17.72ZM204.5 49.654h11.172v22.344h5.77V49.654h11.172v-5.77H204.5v5.77ZM243.781 43.884h-5.769v28.114h5.769V43.884ZM272.736 43.884H255.55a6.043 6.043 0 0 0-6.038 6.038v16.04a6.038 6.038 0 0 0 6.036 6.036h17.187a6.044 6.044 0 0 0 6.035-6.035V49.922a6.042 6.042 0 0 0-6.034-6.038Zm.265 5.77v16.574h-17.72V49.654h17.72ZM307.373 43.884v22.342H306.3l-10.826-20.355a3.731 3.731 0 0 0-3.306-1.987h-4.543a3.746 3.746 0 0 0-3.744 3.745v24.37h5.769V49.655h1.303l10.82 20.357A3.742 3.742 0 0 0 305.08 72h4.316a3.75 3.75 0 0 0 3.745-3.744V43.884h-5.768Z"/></g><defs><clipPath id="a"><rect width="314" height="72" fill="#fff"/></clipPath></defs></svg>