<svg width="80" height="33" viewBox="0 0 80 33" fill="none" xmlns="http://www.w3.org/2000/svg">
<path d="M4.75092 0.895766C4.9197 0.895766 5.06555 1.01715 5.10092 1.18706L8.30028 16.5556C8.32102 16.6552 8.40656 16.7264 8.50554 16.7264C8.62459 16.7264 8.71982 16.6246 8.71531 16.5021L8.15604 1.27823C8.14836 1.06938 8.31073 0.895766 8.51372 0.895766H13.212C13.4097 0.895766 13.57 1.06076 13.57 1.2643V32.1885C13.57 32.3921 13.4097 32.5571 13.212 32.5571H8.81905C8.65027 32.5571 8.50443 32.4357 8.46906 32.2658L5.2697 16.8973C5.24895 16.7976 5.16342 16.7264 5.06443 16.7264C4.94538 16.7264 4.85016 16.8282 4.85466 16.9507L5.41394 32.1746C5.42161 32.3835 5.25924 32.5571 5.05625 32.5571H0.357942C0.160256 32.5571 0 32.3921 0 32.1885V1.2643C0 1.06076 0.160256 0.895766 0.357942 0.895766H4.75092Z" fill="white"/>
<path d="M25.6492 0.895766C25.8337 0.895766 25.988 1.04011 26.0055 1.22917L28.8824 32.1613V32.1885C28.8824 32.3921 28.7221 32.5571 28.5244 32.5571H23.7815C23.5963 32.5571 23.4416 32.4116 23.425 32.2217L22.8247 25.3729C22.808 25.183 22.6534 25.0375 22.4682 25.0375H20.9512C20.766 25.0375 20.6113 25.183 20.5947 25.3729L19.9944 32.2217C19.9777 32.4116 19.8231 32.5571 19.6379 32.5571H14.8949C14.6972 32.5571 14.537 32.3921 14.537 32.1885V32.1613L17.4138 1.22917C17.4314 1.04011 17.5857 0.895766 17.7701 0.895766H25.6492ZM22.3685 19.8925C22.5776 19.8925 22.7421 19.7089 22.7253 19.4944L21.9191 9.20792C21.9103 9.09555 21.8192 9.00897 21.7097 9.00897C21.6002 9.00897 21.509 9.09555 21.5002 9.20792L20.6941 19.4944C20.6773 19.7089 20.8418 19.8925 21.0508 19.8925H22.3685Z" fill="white"/>
<path d="M40.6099 0.895766C40.8076 0.895766 40.9678 1.06076 40.9678 1.2643V5.6722C40.9678 5.87573 40.8076 6.04073 40.6099 6.04073H37.4487C37.251 6.04073 37.0907 6.20572 37.0907 6.40926V32.1885C37.0907 32.3921 36.9305 32.5571 36.7328 32.5571H31.6329C31.4353 32.5571 31.275 32.3921 31.275 32.1885V6.40926C31.275 6.20572 31.1147 6.04073 30.9171 6.04073H27.7558C27.5581 6.04073 27.3979 5.87573 27.3979 5.6722V1.2643C27.3979 1.06076 27.5581 0.895766 27.7558 0.895766H40.6099Z" fill="white"/>
<path d="M47.5232 0.895766C47.7209 0.895766 47.8811 1.06076 47.8811 1.2643V32.1885C47.8811 32.3921 47.7209 32.5571 47.5232 32.5571H42.4234C42.2257 32.5571 42.0654 32.3921 42.0654 32.1885V1.2643C42.0654 1.06076 42.2257 0.895766 42.4234 0.895766H47.5232Z" fill="white"/>
<path d="M49.2046 15.5391C49.2046 10.2622 49.8767 6.43649 51.2208 4.0619C52.5648 1.6873 54.5422 0.5 57.1528 0.5C59.7634 0.5 61.7407 1.6873 63.0848 4.0619C64.4289 6.43649 65.1009 10.2622 65.1009 15.5391V17.9137C65.1009 23.1906 64.4289 27.0163 63.0848 29.3909C61.7407 31.7655 59.7634 32.9528 57.1528 32.9528C54.5422 32.9528 52.5648 31.7655 51.2208 29.3909C49.8767 27.0163 49.2046 23.1906 49.2046 17.9137V15.5391ZM55.6019 25.9873C55.6019 26.6206 55.7441 27.1219 56.0284 27.4913C56.3127 27.8343 56.6875 28.0058 57.1528 28.0058C57.618 28.0058 57.9928 27.8343 58.2771 27.4913C58.5615 27.1219 58.7036 26.6206 58.7036 25.9873V7.2676C58.7036 6.63438 58.5615 6.14627 58.2771 5.80327C57.9928 5.43389 57.618 5.2492 57.1528 5.2492C56.6875 5.2492 56.3127 5.43389 56.0284 5.80327C55.7441 6.14627 55.6019 6.63438 55.6019 7.2676V25.9873Z" fill="white"/>
<path d="M71.181 0.895766C71.3497 0.895766 71.4956 1.01715 71.5309 1.18706L74.7303 16.5556C74.751 16.6552 74.8366 16.7264 74.9356 16.7264C75.0546 16.7264 75.1498 16.6246 75.1453 16.5021L74.5861 1.27823C74.5784 1.06938 74.7408 0.895766 74.9437 0.895766H79.6421C79.8397 0.895766 80 1.06076 80 1.2643V32.1885C80 32.3921 79.8397 32.5571 79.6421 32.5571H75.2491C75.0803 32.5571 74.9345 32.4357 74.8991 32.2658L71.6997 16.8973C71.679 16.7976 71.5934 16.7264 71.4945 16.7264C71.3754 16.7264 71.2802 16.8282 71.2847 16.9507L71.844 32.1746C71.8516 32.3835 71.6893 32.5571 71.4863 32.5571H66.788C66.5903 32.5571 66.43 32.3921 66.43 32.1885V1.2643C66.43 1.06076 66.5903 0.895766 66.788 0.895766H71.181Z" fill="white"/>
</svg>
