<svg width="979" height="260" viewBox="0 0 979 260" fill="none" xmlns="http://www.w3.org/2000/svg">
<path d="M689.001 93.3502L650.303 70.0186L611.47 93.3502V217.275L603.792 212.643L603.639 212.723V93.4398L603.792 93.3502L564.95 70.0186L526.261 93.3502V217.356L518.43 212.643V93.3502L479.741 70.0186V116.682V235.975L518.43 259.306L557.128 235.975L532.345 221.029V97.0238L564.95 116.682V235.975L603.792 259.306L642.481 235.975L617.554 220.94V97.0059L650.303 116.682V235.975L689.001 259.306L727.69 235.975L689.001 212.643V93.3502Z" fill="black"/>
<path d="M797.398 212.651L758.7 235.982L797.398 259.314L836.23 235.982V117.066L797.398 93.582V212.651Z" fill="black"/>
<path d="M797.4 93.5817L758.702 70.25L720.013 93.5817V212.65L758.702 235.982V117.066L797.4 93.5817Z" fill="black"/>
<path d="M940.138 195.593V235.975V236.02L978.827 212.688V172.118L940.138 148.786L901.297 172.118L940.138 195.593Z" fill="black"/>
<path d="M978.827 93.3493L940.138 70.0176L901.297 93.3493L940.138 116.824V148.784L978.827 125.453V93.3493Z" fill="black"/>
<path d="M901.298 172.116V142.127V93.3493L862.609 70.0176V116.681V165.611V235.974L901.298 259.305L940.14 235.974L901.298 212.642V172.116Z" fill="black"/>
<path d="M242.106 66.877C260.574 66.877 275.545 51.9061 275.545 33.4385C275.545 14.9709 260.574 0 242.106 0C223.639 0 208.668 14.9709 208.668 33.4385C208.668 51.9061 223.639 66.877 242.106 66.877Z" fill="black"/>
<path d="M454.795 75.022L377.578 132.366L300.352 75.022C300.019 74.7758 299.623 74.6267 299.21 74.5911C298.797 74.5555 298.382 74.6348 298.011 74.8202C297.641 75.0057 297.328 75.29 297.109 75.6419C296.889 75.9937 296.772 76.3994 296.768 76.814V152.884C296.764 153.175 296.817 153.463 296.926 153.733C297.035 154.003 297.198 154.248 297.403 154.453C297.609 154.659 297.854 154.821 298.123 154.93C298.393 155.039 298.682 155.093 298.973 155.088H301.84C302.13 155.093 302.419 155.039 302.689 154.93C302.958 154.821 303.203 154.659 303.409 154.453C303.615 154.248 303.777 154.003 303.886 153.733C303.995 153.463 304.049 153.175 304.044 152.884V141.075L334.929 164.012L304.044 186.95V175.042C304.049 174.751 303.995 174.462 303.886 174.193C303.777 173.923 303.615 173.678 303.409 173.472C303.203 173.267 302.958 173.105 302.689 172.996C302.419 172.886 302.13 172.833 301.84 172.838H298.973C298.682 172.833 298.393 172.886 298.123 172.996C297.854 173.105 297.609 173.267 297.403 173.472C297.198 173.678 297.035 173.923 296.926 174.193C296.817 174.462 296.764 174.751 296.768 175.042V195.327C296.771 195.519 296.801 195.709 296.858 195.892V251.085C296.861 251.499 296.979 251.905 297.198 252.257C297.418 252.609 297.73 252.893 298.101 253.078C298.472 253.264 298.887 253.343 299.3 253.308C299.713 253.272 300.108 253.123 300.442 252.877L377.569 195.596L454.696 252.877C455.03 253.111 455.421 253.249 455.827 253.278C456.233 253.307 456.64 253.225 457.003 253.042C457.366 252.858 457.673 252.578 457.89 252.234C458.107 251.889 458.226 251.492 458.235 251.085V195.945C458.3 195.755 458.333 195.555 458.334 195.354V175.042C458.339 174.751 458.285 174.462 458.176 174.193C458.067 173.923 457.905 173.678 457.699 173.472C457.494 173.267 457.249 173.105 456.979 172.996C456.709 172.886 456.421 172.833 456.13 172.838H453.254C452.963 172.833 452.674 172.886 452.405 172.996C452.135 173.105 451.89 173.267 451.684 173.472C451.479 173.678 451.317 173.923 451.207 174.193C451.098 174.462 451.045 174.751 451.05 175.042V186.95L420.218 164.012L451.103 141.075V152.911C451.098 153.202 451.152 153.49 451.261 153.76C451.37 154.03 451.532 154.274 451.738 154.48C451.944 154.686 452.189 154.848 452.458 154.957C452.728 155.066 453.017 155.12 453.307 155.115H456.184C456.474 155.12 456.763 155.066 457.033 154.957C457.302 154.848 457.547 154.686 457.753 154.48C457.959 154.274 458.121 154.03 458.23 153.76C458.339 153.49 458.393 153.202 458.388 152.911V76.8409C458.391 76.4224 458.277 76.0115 458.059 75.6543C457.841 75.297 457.528 75.0076 457.155 74.8186C456.781 74.6296 456.363 74.5486 455.946 74.5845C455.529 74.6204 455.13 74.7719 454.795 75.022V75.022Z" fill="black"/>
<path d="M272.569 231.765V96.2017C272.568 94.1946 273.064 92.2185 274.012 90.4494C274.994 88.6107 275.485 86.5496 275.438 84.4656C275.39 82.3815 274.806 80.345 273.741 78.5529C272.676 76.7609 271.166 75.274 269.359 74.2361C267.551 73.1981 265.506 72.6443 263.421 72.6281H220.593C218.497 72.6184 216.436 73.1552 214.611 74.1855C212.787 75.2158 211.262 76.704 210.189 78.5033C209.115 80.3026 208.529 82.3507 208.488 84.4456C208.448 86.5406 208.954 88.6099 209.957 90.4494C210.915 92.2146 211.411 94.1933 211.4 96.2017V231.765C211.401 233.773 210.905 235.749 209.957 237.518C208.969 239.357 208.472 241.421 208.516 243.509C208.561 245.597 209.144 247.638 210.21 249.434C211.275 251.23 212.787 252.72 214.599 253.759C216.41 254.799 218.459 255.352 220.548 255.366H263.421C265.516 255.376 267.578 254.839 269.402 253.809C271.227 252.778 272.751 251.29 273.825 249.491C274.899 247.691 275.485 245.643 275.526 243.548C275.566 241.453 275.06 239.384 274.057 237.545C273.124 235.758 272.615 233.78 272.569 231.765Z" fill="black"/>
<path d="M31.9959 72.3408H0V255.428H59.4044V99.7403C59.4044 96.1414 58.6954 92.5778 57.3179 89.2529C55.9404 85.9281 53.9213 82.9072 51.3761 80.3628C48.8309 77.8184 45.8093 75.8003 42.484 74.4239C39.1587 73.0475 35.5948 72.3396 31.9959 72.3408Z" fill="black"/>
<path d="M95.8704 72.3411C92.2715 72.3399 88.7076 73.0477 85.3823 74.4242C82.057 75.8006 79.0354 77.8186 76.4902 80.363C73.945 82.9074 71.9259 85.9283 70.5484 89.2532C69.1709 92.578 68.4619 96.1417 68.4619 99.7406V255.428H123.27V99.7406C123.285 96.1381 122.587 92.5682 121.216 89.237C119.844 85.9058 117.826 82.8792 115.279 80.3318C112.732 77.7845 109.705 75.7668 106.374 74.3953C103.043 73.0238 99.4728 72.3257 95.8704 72.3411V72.3411Z" fill="black"/>
<path d="M164.505 72.3408H159.899C152.632 72.3408 145.663 75.2275 140.525 80.3659C135.386 85.5043 132.5 92.4735 132.5 99.7403V255.428H191.904V99.7403C191.904 92.4735 189.017 85.5043 183.879 80.3659C178.741 75.2275 171.771 72.3408 164.505 72.3408V72.3408Z" fill="black"/>
</svg>
