<svg width="450" height="440" viewBox="0 0 450 440" fill="none" xmlns="http://www.w3.org/2000/svg">
<path d="M371.055 15.1915L347.109 0L225.065 193.136L103.021 0L79.0752 15.1915L208.298 219.685L79.0752 424.179L103.021 439.37L225.065 246.235L347.109 439.37L371.055 424.179L241.832 219.685L371.055 15.1915Z" fill="#2C1726"/>
<path d="M119.01 213.652L128.787 283.316L156.842 279.364L137.454 141.173L109.753 139.422L80.6824 246.757L44.4565 94.0844L16.5432 96.356L0.4375 320.585L28.705 322.62L38.1984 190.439L65.9936 307.594L93.4583 308.043L119.01 213.652Z" fill="#2C1726"/>
<path d="M431.041 108.164L403.057 106.247L372.758 246.662L337.666 137.695L310.059 140.771L296.977 286.179L325.197 288.735L332.045 212.706L361.966 305.654L389.289 304.305L410.236 207.288L420.792 344.508L449.059 342.331L431.041 108.164Z" fill="#2C1726"/>
</svg>
