<?xml version="1.0" encoding="UTF-8"?><svg xmlns="http://www.w3.org/2000/svg" viewBox="0 0 1562.09 1489.28"><g id="a"/><g id="b"><g id="c"><path d="M1437.18,1270.05v144.04l124.91-75.32v-144.51l-124.91-75.32-125.38,75.32,125.38,75.79ZM733.68,310.54v437.66c0,6.5-1.55,12.68-4.64,18.56-13.92,25.98,4.95,57.53,34.33,57.53h138.26c29.69,0,48.56-31.55,34.33-57.53-2.78-5.57-4.64-12.06-4.64-18.56V310.54c0-6.5,1.55-12.68,4.64-18.56,13.92-25.98-4.95-57.53-34.33-57.53h-138.26c-29.69,0-48.56,31.55-34.33,57.53,3.09,5.57,4.64,12.06,4.64,18.56Zm-297.71,11.44c.31-48.87-39.28-88.46-88.46-88.46s-88.46,39.59-88.46,88.46v502.61h176.92V321.98Zm575.42,500.92l254.49-189.02,254.49,189.02c4.74,3.48,12.01,0,12.01-6.01v-251.02c0-4.11-3.16-7.27-7.27-7.27h-9.48c-4.11,0-7.27,3.16-7.27,7.27v39.29l-101.91-75.69,101.91-75.69v39.06c0,4.11,3.16,7.27,7.27,7.27h9.48c4.11,0,7.27-3.16,7.27-7.27V241.84c0-6.01-6.96-9.48-11.7-6.01l-254.81,189.25-254.81-189.25c-4.74-3.48-11.7,0-11.7,6.01v251.02c0,4.11,3.16,7.27,7.27,7.27h9.48c4.11,0,7.27-3.16,7.27-7.27v-39.06l101.91,75.69-101.91,75.69v-39.29c0-4.11-3.16-7.27-7.27-7.27h-9.48c-4.11,0-7.27,3.16-7.27,7.27v251.02c0,6.01,7.27,9.48,12.01,6.01ZM832.97,215.89c59.62,0,107.95-48.33,107.95-107.95S892.59,0,832.97,0s-107.95,48.33-107.95,107.95,48.33,107.95,107.95,107.95ZM221.47,321.98c0-48.87-39.59-88.46-88.46-88.46H29.7V824.6H221.47V321.98Zm444.17,0c0-48.87-39.59-88.46-88.46-88.46h-14.85c-48.87,0-88.46,39.59-88.46,88.46v502.61h191.77V321.98Zm328.26,1016.18l-124.91,75.79,124.91,75.32,124.91-75.32v-363.87l-124.91-75.32v363.41Zm317.9-363.41l-124.91-75.32-124.91,75.32,124.91,75.32v363.87l124.91,75.32,125.38-75.32-125.38-75.32v-363.87Zm-317.9,0l-124.91-75.32-124.91,75.32v363.87l124.91,75.32v-363.41l124.91-75.79Zm568.2,0l-124.91-75.32-125.38,75.32,125.38,75.79v68.39l124.91-75.32v-68.86Zm-886.07,0l-124.91-75.32-125.38,75.32v379.11l-25.26-15.23v-363.87l-124.91-75.32-125.38,75.32v378.83l-24.8-14.95-.47,.28v-364.16L0,899.44v514.52l125.38,75.32,124.91-75.32-80.47-48.52v-378.87l105.73,63.83v363.57l124.91,75.32,124.91-75.32-80-48.24v-379.15l105.73,63.83v363.57l124.91,75.32,124.91-75.32-124.91-75.32v-363.87Z"/></g></g></svg>