<svg xmlns="http://www.w3.org/2000/svg" width="453.223" height="453.233" viewBox="0 0 453.223 453.233">
  <defs>
    <style>
      .cls-1 {
        fill: #2b2e34;
      }
    </style>
  </defs>
  <g id="NEODYME-Quadrat-Symbol" transform="translate(-314.965 -188.848)">
    <g id="Gruppe_1" data-name="Gruppe 1" transform="translate(314.965 188.848)">
      <path id="Pfad_2" data-name="Pfad 2" class="cls-1" d="M53.962,21.568c-35.273,0-35.819,35.808-35.819,35.808V427.12H387.887c34.56,0,35.808-35.819,35.808-35.819V21.557l-176.911.01ZM249.826-2.273h197.71V391.668s0,59.292-59.281,59.292l-393.941-.01V57.187s0-59.46,59.46-59.46Z" transform="translate(5.687 2.273)"/>
    </g>
    <g id="Gruppe_2" data-name="Gruppe 2" transform="translate(405.785 331.832)">
      <path id="Pfad_3" data-name="Pfad 3" class="cls-1" d="M29.291,147.453V91.947c0-2.937-.042-5.727-.1-8.37-.084-2.643-.189-5.433-.336-8.37s-.409-6.388-.766-10.352q-.566-5.947-1.332-13.981t-1.867-19.5l-8.37-.22,87,116.3h29.955V-6.73H101.1V35.34q0,9.471.22,17.505.22,8.055.545,15.208c.231,4.772.514,9.4.881,13.876s.776,8.884,1.217,13.205q.661,6.513,1.542,13.331h6.167L26.428-6.73H-3.087V147.453Zm187.767-.1a48,48,0,0,0,13.216-6.4,36.891,36.891,0,0,0,9.366-9.136,21.419,21.419,0,0,0,3.965-10.572l-6.167-.661,1.322,26.872h29.735V-15.54H237V60.45l7.929-1.542a22.436,22.436,0,0,0-4.185-11.128,41.571,41.571,0,0,0-9.807-9.8,50.439,50.439,0,0,0-29.4-9.471,49.142,49.142,0,0,0-27.428,7.824,54.291,54.291,0,0,0-18.942,21.586q-6.938,13.766-6.933,31.162,0,17.841,6.933,31.382a54.572,54.572,0,0,0,18.942,21.365,49.058,49.058,0,0,0,27.428,7.824,51.964,51.964,0,0,0,15.523-2.307M193.27,119.259a29.419,29.419,0,0,1-10.132-12.114,41.958,41.958,0,0,1-3.629-18.061,41.4,41.4,0,0,1,3.629-17.841A29.419,29.419,0,0,1,193.27,59.128a26.637,26.637,0,0,1,15.313-4.405A27.143,27.143,0,0,1,224,59.128a29.976,29.976,0,0,1,10.352,12.114A40.367,40.367,0,0,1,238.1,89.084a40.9,40.9,0,0,1-3.744,18.061A29.976,29.976,0,0,1,224,119.259a27.143,27.143,0,0,1-15.418,4.405,26.637,26.637,0,0,1-15.313-4.405" transform="translate(3.087 15.54)"/>
    </g>
  </g>
</svg>
