<svg xmlns="http://www.w3.org/2000/svg" width="851.282" height="178.044" viewBox="0 0 851.282 178.044">
  <defs>
    <style>
      .cls-1 {
        fill: #2b2e34;
      }
    </style>
  </defs>
  <g id="NEODYME-SCHRIFT" transform="translate(-114.361 -755.383)">
    <g id="Gruppe_4" data-name="Gruppe 4" transform="translate(114.361 755.383)">
      <path id="Pfad_8" data-name="Pfad 8" class="cls-1" d="M24.4,122.877V76.623q0-3.666-.094-6.975c-.063-2.2-.157-4.521-.273-6.975s-.336-5.318-.64-8.622-.682-7.2-1.1-11.663-.954-9.88-1.563-16.236l-6.975-.189,72.508,96.915h24.963V-5.608H84.242V29.445q0,7.9.189,14.6.173,6.7.451,12.66c.189,3.986.43,7.835.734,11.569s.65,7.4,1.017,11.013.787,7.311,1.28,11.107h5.139l-71.029-96h-24.6V122.877Zm384.68-.094a39.73,39.73,0,0,0,11.013-5.318,31.061,31.061,0,0,0,7.8-7.615,17.95,17.95,0,0,0,3.3-8.81l-5.139-.556,1.1,22.393h24.774V-12.95H425.7V50.38l6.608-1.29a18.788,18.788,0,0,0-3.493-9.272,34.459,34.459,0,0,0-8.171-8.16,42.02,42.02,0,0,0-24.5-7.9,40.95,40.95,0,0,0-22.855,6.513A45.34,45.34,0,0,0,357.5,48.261a57.022,57.022,0,0,0-5.779,25.98q0,14.868,5.779,26.148a45.531,45.531,0,0,0,15.785,17.81,40.95,40.95,0,0,0,22.855,6.513,42.86,42.86,0,0,0,12.943-1.93m-19.823-23.4a24.474,24.474,0,0,1-8.443-10.09,34.92,34.92,0,0,1-3.031-15.051,34.461,34.461,0,0,1,3.031-14.873,24.474,24.474,0,0,1,8.443-10.09,22.111,22.111,0,0,1,12.754-3.671,22.558,22.558,0,0,1,12.849,3.671,24.962,24.962,0,0,1,8.632,10.09,33.721,33.721,0,0,1,3.115,14.873A34.167,34.167,0,0,1,423.5,89.293a24.963,24.963,0,0,1-8.632,10.09,22.558,22.558,0,0,1-12.849,3.671,22.111,22.111,0,0,1-12.754-3.671M516.5,165.094l16.7-42.217,40.748-97.093H544.209L523.84,83.042c-.986,3.063-1.93,5.947-2.842,8.632s-1.815,5.076-2.664,7.164l4.405-2.024c-.619-2.444-1.374-5.045-2.3-7.8a67.214,67.214,0,0,0-2.842-7.248L493.916,25.784H464.37l47.356,104.435-.367-15.051-21.292,49.926ZM819.86,123.066a62.911,62.911,0,0,0,13.216-4.867,53.364,53.364,0,0,0,11.747-7.982L832.341,92.775a41.972,41.972,0,0,1-11.38,6.975,32.768,32.768,0,0,1-11.747,2.024,34.725,34.725,0,0,1-16.247-3.587,25.86,25.86,0,0,1-10.646-10,29.668,29.668,0,0,1-3.765-15.24,33.533,33.533,0,0,1,2.937-14.684,20.429,20.429,0,0,1,8.538-9.178,27.757,27.757,0,0,1,13.677-3.115,21.235,21.235,0,0,1,9.912,2.287,20.553,20.553,0,0,1,7.248,6.241,17.05,17.05,0,0,1,3.21,8.9v4.038l2.937-3.3h-60.75l4.216,15.974h78.014l.178-8.076a49.391,49.391,0,0,0-2.937-19.184,44.913,44.913,0,0,0-9.45-15.418A43.928,43.928,0,0,0,821.7,27.253a45.428,45.428,0,0,0-18.355-3.671,51.045,51.045,0,0,0-19.729,3.755,45.925,45.925,0,0,0-15.7,10.646,49.18,49.18,0,0,0-10.279,16.247,56.439,56.439,0,0,0-3.671,20.746,50.09,50.09,0,0,0,6.524,25.7,46.342,46.342,0,0,0,18.355,17.621q11.831,6.419,27.616,6.419a56.6,56.6,0,0,0,13.4-1.647" transform="translate(2.572 12.95)"/>
    </g>
    <g id="Gruppe_5" data-name="Gruppe 5" transform="translate(243.629 791.91)">
      <path id="Pfad_9" data-name="Pfad 9" class="cls-1" d="M59.617,90a62.333,62.333,0,0,0,13.216-4.867A53,53,0,0,0,84.58,77.151L72.1,59.719a42.236,42.236,0,0,1-11.38,6.975,33,33,0,0,1-11.747,2.014,34.852,34.852,0,0,1-16.247-3.577A25.884,25.884,0,0,1,22.078,55.125,29.6,29.6,0,0,1,18.313,39.9,33.5,33.5,0,0,1,21.25,25.211a20.376,20.376,0,0,1,8.538-9.178,27.644,27.644,0,0,1,13.677-3.126,21.113,21.113,0,0,1,9.912,2.3,20.448,20.448,0,0,1,7.248,6.241,17.018,17.018,0,0,1,3.21,8.9v4.038l2.937-3.3H6.02l4.216,15.964H88.251l.178-8.076a49.228,49.228,0,0,0-2.937-19.184A44.949,44.949,0,0,0,76.042,4.37,44.083,44.083,0,0,0,61.452-5.814,45.6,45.6,0,0,0,43.1-9.485,51.05,51.05,0,0,0,23.368-5.72,45.492,45.492,0,0,0,7.677,4.926,48.8,48.8,0,0,0-2.6,21.173,56.206,56.206,0,0,0-6.283,41.909a50.036,50.036,0,0,0,6.524,25.7A46.2,46.2,0,0,0,18.6,85.227q11.831,6.435,27.627,6.43A56.537,56.537,0,0,0,59.617,90" transform="translate(6.283 9.485)"/>
    </g>
    <g id="Gruppe_6" data-name="Gruppe 6" transform="translate(353.114 792.09)">
      <path id="Pfad_10" data-name="Pfad 10" class="cls-1" d="M70.491,85.435A47.517,47.517,0,0,0,88.751,67.542a50.95,50.95,0,0,0,6.608-26.064,50.95,50.95,0,0,0-6.608-26.064,47.617,47.617,0,0,0-18.261-17.9A53.177,53.177,0,0,0,44.154-9,53.562,53.562,0,0,0,17.628-2.491,48.307,48.307,0,0,0-.727,15.413a50.388,50.388,0,0,0-6.7,26.064,50.388,50.388,0,0,0,6.7,26.064A48.2,48.2,0,0,0,17.628,85.435a53.45,53.45,0,0,0,26.526,6.513,53.065,53.065,0,0,0,26.337-6.513M31.117,65.612A25.169,25.169,0,0,1,22.128,55.7,28.755,28.755,0,0,1,19,41.478a28.685,28.685,0,0,1,3.126-14.317,25.977,25.977,0,0,1,8.989-9.912,23.554,23.554,0,0,1,13.037-3.671A23.587,23.587,0,0,1,57,17.155a24.669,24.669,0,0,1,8.9,9.912,29.972,29.972,0,0,1,3.021,14.411A29.532,29.532,0,0,1,65.907,55.7,24.669,24.669,0,0,1,57,65.612a23.676,23.676,0,0,1-12.849,3.577,24.017,24.017,0,0,1-13.037-3.577" transform="translate(7.429 9.004)"/>
    </g>
    <g id="Gruppe_7" data-name="Gruppe 7" transform="translate(704.698 792.282)">
      <path id="Pfad_11" data-name="Pfad 11" class="cls-1" d="M23.75,89.5V31.306a17.323,17.323,0,0,1,1.468-7.153A18,18,0,0,1,35.4,14.513a21.672,21.672,0,0,1,7.8-1.374,15.9,15.9,0,0,1,8.632,2.2,13.9,13.9,0,0,1,5.318,6.513,26.589,26.589,0,0,1,1.836,10.373V89.5H85.245v-58a17.945,17.945,0,0,1,1.468-7.248,17.216,17.216,0,0,1,4.122-5.874,19.178,19.178,0,0,1,6.241-3.86,21.672,21.672,0,0,1,7.8-1.374,17.148,17.148,0,0,1,8.989,2.108,13.435,13.435,0,0,1,5.328,6.335,27.536,27.536,0,0,1,1.835,10.835V89.5H147.1V30.582q0-13.043-3.765-22.026a27.522,27.522,0,0,0-11.286-13.5q-7.536-4.484-18.9-4.489a33.892,33.892,0,0,0-9.733,1.468,46.345,46.345,0,0,0-9.545,4.028A37.731,37.731,0,0,0,85.612,2.3a34.715,34.715,0,0,0-6.062,8.087l-1.28,2.937,4.038.367A36.119,36.119,0,0,0,75.689.385,25.332,25.332,0,0,0,65.421-7.051,36.987,36.987,0,0,0,51.838-9.432,33.01,33.01,0,0,0,41.916-7.88,40.5,40.5,0,0,0,32.56-3.558a35.246,35.246,0,0,0-7.8,6.608,31.461,31.461,0,0,0-5.412,8.622l3.849-.734L22.649-7.6H-2.5V89.5Z" transform="translate(2.503 9.432)"/>
    </g>
  </g>
</svg>
