<svg xmlns="http://www.w3.org/2000/svg" width="1652.4" height="528.214" viewBox="0 0 1652.4 528.214">
  <defs>
    <style>
      .cls-1 {
        fill: #2b2e34;
      }
    </style>
  </defs>
  <g id="NEODYME-Quer" transform="translate(-132.057 -67.242)">
    <g id="Gruppe_1" data-name="Gruppe 1" transform="translate(132.057 67.242)">
      <path id="Pfad_2" data-name="Pfad 2" class="cls-1" d="M63.83,25.512c-41.109,0-41.744,41.732-41.744,41.732V498.156H453c40.277,0,41.732-41.744,41.732-41.744V25.5l-206.178.012ZM292.1-2.273H522.514V456.84s0,69.1-69.089,69.1l-459.113-.012V67.024s0-69.3,69.3-69.3Z" transform="translate(5.687 2.273)"/>
    </g>
    <g id="Gruppe_2" data-name="Gruppe 2" transform="translate(237.901 233.881)">
      <path id="Pfad_3" data-name="Pfad 3" class="cls-1" d="M34.648,174.417V109.729q0-5.134-.134-9.755t-.379-9.755q-.257-5.134-.9-12.065T31.69,61.861q-.9-9.37-2.176-22.724l-9.755-.257,101.4,135.537h34.911V-5.272H118.332v49.03q0,11.038.257,20.4.257,9.388.636,17.724t1.027,16.172q.642,7.829,1.418,15.39.77,7.591,1.8,15.536h7.188L31.311-5.272h-34.4V174.417Zm218.83-.122a55.945,55.945,0,0,0,15.4-7.456A42.994,42.994,0,0,0,279.8,156.192a25.081,25.081,0,0,0,4.621-12.322l-7.188-.77,1.54,31.317h34.654V-15.54H276.715V73.021l9.241-1.8a26.148,26.148,0,0,0-4.877-12.969A48.679,48.679,0,0,0,269.65,46.838,59.015,59.015,0,0,0,235.387,35.8a57.271,57.271,0,0,0-31.965,9.119,63.273,63.273,0,0,0-22.076,25.157q-8.086,16.044-8.08,36.317,0,20.793,8.08,36.586a63.648,63.648,0,0,0,22.076,24.888q13.99,9.131,31.965,9.119a60.173,60.173,0,0,0,18.091-2.689M225.754,141.56a34.287,34.287,0,0,1-11.808-14.118q-4.236-8.984-4.229-21.049A48.254,48.254,0,0,1,213.946,85.6a34.286,34.286,0,0,1,11.808-14.118A31.044,31.044,0,0,1,243.6,66.347a31.661,31.661,0,0,1,17.969,5.134A34.935,34.935,0,0,1,273.635,85.6,47.045,47.045,0,0,1,278,106.392q0,12.065-4.364,21.049A34.935,34.935,0,0,1,261.57,141.56a31.661,31.661,0,0,1-17.969,5.134,31.044,31.044,0,0,1-17.847-5.134" transform="translate(3.087 15.54)"/>
    </g>
    <g id="Gruppe_3" data-name="Gruppe 3" transform="translate(792.332 265.542)">
      <path id="Pfad_4" data-name="Pfad 4" class="cls-1" d="M28.879,145.348V91.441q0-4.272-.11-8.129c-.073-2.567-.183-5.268-.318-8.129s-.391-6.2-.746-10.048-.795-8.386-1.283-13.593S25.309,40.028,24.6,32.62l-8.129-.22,84.491,112.948h29.093V-4.393H98.615V36.458q0,9.2.208,17.015t.538,14.754c.22,4.645.5,9.131.856,13.483s.746,8.63,1.173,12.835.929,8.52,1.5,12.945h5.99L26.092-4.393H-2.573V145.348Zm448.319-.11a46.3,46.3,0,0,0,12.835-6.2,36.2,36.2,0,0,0,9.094-8.874,20.919,20.919,0,0,0,3.85-10.268l-5.99-.648,1.284,26.1h28.873V-12.95H496.56V60.857l7.7-1.5a21.9,21.9,0,0,0-4.071-10.806,40.159,40.159,0,0,0-9.522-9.51,48.972,48.972,0,0,0-28.555-9.2,47.725,47.725,0,0,0-26.636,7.591,52.841,52.841,0,0,0-18.4,20.964,66.455,66.455,0,0,0-6.735,30.278q0,17.327,6.735,30.474a53.063,53.063,0,0,0,18.4,20.756,47.725,47.725,0,0,0,26.636,7.591,49.95,49.95,0,0,0,15.084-2.249m-23.1-27.271a28.524,28.524,0,0,1-9.84-11.759,40.7,40.7,0,0,1-3.533-17.541,40.163,40.163,0,0,1,3.533-17.333,28.524,28.524,0,0,1,9.84-11.759A25.769,25.769,0,0,1,468.959,55.3a26.29,26.29,0,0,1,14.974,4.278,29.092,29.092,0,0,1,10.06,11.759,39.3,39.3,0,0,1,3.63,17.333,39.819,39.819,0,0,1-3.63,17.541,29.092,29.092,0,0,1-10.06,11.759,26.29,26.29,0,0,1-14.974,4.278,25.769,25.769,0,0,1-14.864-4.278m148.287,76.582,19.46-49.2L669.331,32.192H634.677l-23.739,66.73c-1.149,3.569-2.249,6.931-3.313,10.06s-2.115,5.916-3.1,8.349l5.134-2.359c-.721-2.848-1.6-5.88-2.677-9.094a78.328,78.328,0,0,0-3.313-8.447l-27.6-65.238H541.629L596.82,153.9l-.428-17.541-24.814,58.185ZM955.93,145.568a73.317,73.317,0,0,0,15.4-5.672,62.192,62.192,0,0,0,13.691-9.3l-14.546-20.328a48.915,48.915,0,0,1-13.263,8.129,38.189,38.189,0,0,1-13.691,2.359,40.469,40.469,0,0,1-18.935-4.181,30.138,30.138,0,0,1-12.407-11.649,34.576,34.576,0,0,1-4.388-17.761q0-10.048,3.423-17.113a23.808,23.808,0,0,1,9.95-10.7q6.527-3.63,15.94-3.63a24.748,24.748,0,0,1,11.551,2.665,23.953,23.953,0,0,1,8.447,7.273,19.871,19.871,0,0,1,3.74,10.378v4.706l3.423-3.85h-70.8l4.914,18.617H989.3l.208-9.412a57.563,57.563,0,0,0-3.423-22.357,52.343,52.343,0,0,0-11.014-17.969,51.2,51.2,0,0,0-17-11.869,52.943,52.943,0,0,0-21.392-4.278A59.489,59.489,0,0,0,913.684,34a53.524,53.524,0,0,0-18.3,12.407,57.317,57.317,0,0,0-11.979,18.935,65.776,65.776,0,0,0-4.278,24.179q0,16.887,7.6,29.948a54.008,54.008,0,0,0,21.392,20.536q13.788,7.481,32.185,7.481a65.966,65.966,0,0,0,15.622-1.919" transform="translate(2.573 12.95)"/>
    </g>
    <g id="Gruppe_4" data-name="Gruppe 4" transform="translate(942.997 308.111)">
      <path id="Pfad_5" data-name="Pfad 5" class="cls-1" d="M70.519,106.457a72.644,72.644,0,0,0,15.4-5.672,61.771,61.771,0,0,0,13.691-9.3L85.065,71.167A49.224,49.224,0,0,1,71.8,79.3a38.457,38.457,0,0,1-13.691,2.347,40.618,40.618,0,0,1-18.935-4.168A30.166,30.166,0,0,1,26.77,65.813a34.5,34.5,0,0,1-4.388-17.749Q22.382,38,25.8,30.951a23.746,23.746,0,0,1,9.95-10.7q6.527-3.649,15.94-3.643A24.606,24.606,0,0,1,63.246,19.29a23.831,23.831,0,0,1,8.447,7.273,19.833,19.833,0,0,1,3.74,10.378v4.706l3.423-3.85H8.055l4.914,18.6h90.92l.208-9.412a57.371,57.371,0,0,0-3.423-22.357A52.386,52.386,0,0,0,89.661,6.663a51.376,51.376,0,0,0-17-11.869A53.148,53.148,0,0,0,51.267-9.485,59.5,59.5,0,0,0,28.274-5.1,53.018,53.018,0,0,0,9.987,7.31,56.874,56.874,0,0,0-1.992,26.245,65.5,65.5,0,0,0-6.283,50.411q0,16.905,7.6,29.948A53.843,53.843,0,0,0,22.712,100.9q13.788,7.5,32.2,7.493a65.891,65.891,0,0,0,15.61-1.931" transform="translate(6.283 9.485)"/>
    </g>
    <g id="Gruppe_5" data-name="Gruppe 5" transform="translate(1070.595 308.321)">
      <path id="Pfad_6" data-name="Pfad 6" class="cls-1" d="M83.381,101.059a55.378,55.378,0,0,0,21.282-20.854q7.7-13.257,7.7-30.376t-7.7-30.376A55.494,55.494,0,0,0,83.381-1.413,61.974,61.974,0,0,0,52.688-9Q35.36-9,21.774-1.413A56.3,56.3,0,0,0,.382,19.453Q-7.429,32.71-7.429,49.829T.382,80.205a56.179,56.179,0,0,0,21.392,20.854q13.587,7.591,30.914,7.591a61.844,61.844,0,0,0,30.694-7.591m-45.888-23.1A29.332,29.332,0,0,1,27.018,66.4a33.513,33.513,0,0,1-3.643-16.575,33.43,33.43,0,0,1,3.643-16.685A30.275,30.275,0,0,1,37.493,21.592a27.451,27.451,0,0,1,15.194-4.278,27.489,27.489,0,0,1,14.974,4.168A28.749,28.749,0,0,1,78.04,33.034a34.93,34.93,0,0,1,3.52,16.8A34.417,34.417,0,0,1,78.04,66.4,28.749,28.749,0,0,1,67.662,77.956a27.593,27.593,0,0,1-14.974,4.168,27.99,27.99,0,0,1-15.194-4.168" transform="translate(7.429 9.004)"/>
    </g>
    <g id="Gruppe_6" data-name="Gruppe 6" transform="translate(1480.343 308.545)">
      <path id="Pfad_7" data-name="Pfad 7" class="cls-1" d="M28.093,105.863V38.045A20.189,20.189,0,0,1,29.8,29.709,20.974,20.974,0,0,1,41.674,18.475a25.257,25.257,0,0,1,9.094-1.6,18.527,18.527,0,0,1,10.06,2.567,16.2,16.2,0,0,1,6.2,7.591,30.988,30.988,0,0,1,2.139,12.089v66.742h30.6v-67.6a20.913,20.913,0,0,1,1.711-8.447,20.065,20.065,0,0,1,4.8-6.845,22.351,22.351,0,0,1,7.273-4.5,25.257,25.257,0,0,1,9.094-1.6,19.985,19.985,0,0,1,10.476,2.457,15.657,15.657,0,0,1,6.21,7.383,32.092,32.092,0,0,1,2.139,12.627v66.522h30.376V37.2q0-15.2-4.388-25.67A32.075,32.075,0,0,0,154.3-4.2q-8.783-5.226-22.027-5.232a39.5,39.5,0,0,0-11.344,1.711,54.013,54.013,0,0,0-11.124,4.694,43.973,43.973,0,0,0-9.62,7.273,40.459,40.459,0,0,0-7.065,9.425l-1.5,3.423,4.718.428Q93.551,7.877,88.625,2.009A29.523,29.523,0,0,0,76.658-6.657a43.105,43.105,0,0,0-15.83-2.775A38.471,38.471,0,0,0,49.265-7.623a47.2,47.2,0,0,0-10.9,5.036,41.076,41.076,0,0,0-9.094,7.7,36.666,36.666,0,0,0-6.307,10.048l4.486-.856-.636-21.6H-2.5V105.863Z" transform="translate(2.503 9.432)"/>
    </g>
  </g>
</svg>
