<svg width="109" height="98" viewBox="0 0 109 98" fill="none" xmlns="http://www.w3.org/2000/svg">
<g clip-path="url(#clip0_11936_42893)">
<path fill-rule="evenodd" clip-rule="evenodd" d="M58.2864 4.7177C60.4672 4.7177 62.5128 5.01003 64.4068 5.55222C62.5525 1.23063 58.7025 0 54.4178 0C50.1247 0 46.268 1.23547 44.418 5.57769C46.298 5.01642 48.3348 4.7177 50.5082 4.7177H58.2864ZM50.0093 9.0564C39.654 9.0564 33.7539 17.2029 33.7539 27.252V37.575C33.7539 38.5799 34.5934 39.375 35.6289 39.375H73.1289C74.1644 39.375 75.0039 38.5799 75.0039 37.575V27.252C75.0039 17.2029 68.143 9.0564 57.7876 9.0564H50.0093ZM54.3643 27.3413C57.9886 27.3413 60.9268 24.4032 60.9268 20.7788C60.9268 17.1544 57.9886 14.2163 54.3643 14.2163C50.7399 14.2163 47.8018 17.1544 47.8018 20.7788C47.8018 24.4032 50.7399 27.3413 54.3643 27.3413ZM33.7539 45.4426C33.7539 44.4377 34.5934 43.623 35.6289 43.623H73.1289C74.1644 43.623 75.0039 44.4377 75.0039 45.4426V56.36C75.0039 58.3698 73.325 59.9991 71.2539 59.9991H37.5039C35.4328 59.9991 33.7539 58.3698 33.7539 56.36V45.4426Z" fill="#E33E3F"/>
</g>
<path d="M0 93.0709V76.2706H7.06837C8.22025 76.2706 9.20758 76.466 10.0304 76.8569C10.8531 77.2478 11.4814 77.8116 11.9153 78.5482C12.3491 79.2699 12.566 80.1493 12.566 81.1867C12.566 81.9233 12.364 82.6299 11.9601 83.3064C11.5562 83.9679 10.8905 84.5242 9.96303 84.9752V83.2613C10.8456 83.6071 11.5263 84.0206 12.005 84.5016C12.4837 84.9827 12.8128 85.5089 12.9923 86.0802C13.1718 86.6364 13.2616 87.2228 13.2616 87.8391C13.2616 89.4929 12.7156 90.7783 11.6235 91.6953C10.5315 92.6124 9.01311 93.0709 7.06837 93.0709H0ZM3.47809 90.0266H7.47228C8.17537 90.0266 8.73635 89.8236 9.15522 89.4177C9.57409 89.0118 9.78352 88.4856 9.78352 87.8391C9.78352 87.1777 9.57409 86.644 9.15522 86.238C8.73635 85.8321 8.17537 85.6292 7.47228 85.6292H3.47809V90.0266ZM3.47809 82.5848H7.3152C7.85374 82.5848 8.28009 82.4345 8.59424 82.1338C8.92335 81.8181 9.0879 81.4047 9.0879 80.8935C9.0879 80.3824 8.92335 79.9764 8.59424 79.6758C8.28009 79.3601 7.85374 79.2022 7.3152 79.2022H3.47809V82.5848Z" fill="#212122"/>
<path d="M19.0381 93.3415C18.1555 93.3415 17.3926 93.1987 16.7493 92.9131C16.1061 92.6274 15.6124 92.2215 15.2683 91.6953C14.9243 91.1541 14.7522 90.5152 14.7522 89.7785C14.7522 89.087 14.9093 88.4781 15.2235 87.9519C15.5376 87.4107 16.0163 86.9597 16.6596 86.5989C17.3178 86.238 18.1331 85.9825 19.1055 85.8321L22.8528 85.2233V87.7038L19.7113 88.2676C19.2326 88.3578 18.8661 88.5157 18.6118 88.7412C18.3575 88.9516 18.2303 89.2598 18.2303 89.6658C18.2303 90.0416 18.3724 90.3348 18.6567 90.5452C18.9409 90.7557 19.2924 90.8609 19.7113 90.8609C20.2648 90.8609 20.751 90.7407 21.1699 90.5001C21.5887 90.2596 21.9104 89.9364 22.1348 89.5305C22.3741 89.1095 22.4938 88.651 22.4938 88.1549V84.9526C22.4938 84.4866 22.3068 84.0957 21.9328 83.78C21.5738 83.4643 21.0801 83.3064 20.4518 83.3064C19.8534 83.3064 19.3224 83.4718 18.8586 83.8026C18.4098 84.1333 18.0807 84.5693 17.8713 85.1105L15.1786 83.8251C15.4179 83.1336 15.7994 82.5397 16.323 82.0436C16.8466 81.5475 17.4749 81.1641 18.2079 80.8935C18.9409 80.6229 19.7412 80.4876 20.6089 80.4876C21.6411 80.4876 22.5536 80.6755 23.3465 81.0514C24.1393 81.4272 24.7527 81.9534 25.1865 82.6299C25.6353 83.2914 25.8597 84.0657 25.8597 84.9526V93.0709H22.7182V91.0865L23.4811 90.9511C23.1221 91.4924 22.7257 91.9434 22.2918 92.3042C21.858 92.65 21.3718 92.9055 20.8333 93.0709C20.2947 93.2513 19.6964 93.3415 19.0381 93.3415Z" fill="#212122"/>
<path d="M34.3419 93.3415C33.1152 93.3415 32.0082 93.0634 31.0209 92.5072C30.0485 91.9359 29.2706 91.1616 28.6872 90.1844C28.1187 89.2072 27.8345 88.1098 27.8345 86.892C27.8345 85.6743 28.1187 84.5843 28.6872 83.6222C29.2557 82.645 30.0336 81.8782 31.0209 81.322C32.0082 80.7657 33.1152 80.4876 34.3419 80.4876C35.2544 80.4876 36.0996 80.6455 36.8775 80.9612C37.6554 81.2769 38.3211 81.7204 38.8746 82.2917C39.4281 82.8479 39.8246 83.5094 40.0639 84.2761L37.1468 85.539C36.9374 84.9226 36.5783 84.434 36.0697 84.0732C35.5761 83.7124 35.0001 83.532 34.3419 83.532C33.7585 83.532 33.2349 83.6748 32.7711 83.9604C32.3224 84.2461 31.9633 84.6445 31.6941 85.1556C31.4397 85.6668 31.3126 86.2531 31.3126 86.9146C31.3126 87.5761 31.4397 88.1624 31.6941 88.6735C31.9633 89.1847 32.3224 89.5831 32.7711 89.8687C33.2349 90.1544 33.7585 90.2972 34.3419 90.2972C35.0151 90.2972 35.5985 90.1168 36.0922 89.756C36.5858 89.3951 36.9374 88.9065 37.1468 88.2902L40.0639 89.5756C39.8395 90.2972 39.4506 90.9436 38.8971 91.5149C38.3436 92.0862 37.6779 92.5372 36.9 92.868C36.1221 93.1837 35.2694 93.3415 34.3419 93.3415Z" fill="#212122"/>
<path d="M42.0459 93.0709V76H45.4118V86.9371L44.1552 86.5312L49.5631 80.7582H53.7143L49.2714 85.7194L53.6919 93.0709H49.8772L46.1747 86.8244L48.127 86.3282L44.3796 90.4325L45.4118 88.4706V93.0709H42.0459Z" fill="#212122"/>
<path d="M55.1939 97.5811V80.7582H58.3354V83.1035L58.0437 82.427C58.4476 81.8106 58.9936 81.337 59.6818 81.0063C60.3849 80.6605 61.1852 80.4876 62.0828 80.4876C63.2496 80.4876 64.3043 80.7732 65.2467 81.3445C66.1892 81.9158 66.9371 82.6901 67.4906 83.6673C68.0442 84.6294 68.3209 85.7119 68.3209 86.9146C68.3209 88.1022 68.0442 89.1847 67.4906 90.1619C66.9521 91.1391 66.2116 91.9133 65.2692 92.4846C64.3267 93.0559 63.2571 93.3415 62.0603 93.3415C61.2226 93.3415 60.4447 93.1912 59.7267 92.8905C59.0236 92.5748 58.4551 92.1163 58.0213 91.5149L58.5598 90.8158V97.5811H55.1939ZM61.6564 90.2972C62.2847 90.2972 62.8382 90.1544 63.3169 89.8687C63.7957 89.5831 64.1696 89.1847 64.4389 88.6735C64.7082 88.1624 64.8428 87.5761 64.8428 86.9146C64.8428 86.2531 64.7082 85.6743 64.4389 85.1782C64.1696 84.667 63.7957 84.2686 63.3169 83.983C62.8382 83.6823 62.2847 83.532 61.6564 83.532C61.0581 83.532 60.5195 83.6748 60.0408 83.9604C59.5771 84.2461 59.2106 84.6445 58.9413 85.1556C58.687 85.6668 58.5598 86.2531 58.5598 86.9146C58.5598 87.5761 58.687 88.1624 58.9413 88.6735C59.2106 89.1847 59.5771 89.5831 60.0408 89.8687C60.5195 90.1544 61.0581 90.2972 61.6564 90.2972Z" fill="#212122"/>
<path d="M74.0845 93.3415C73.2019 93.3415 72.4389 93.1987 71.7957 92.9131C71.1524 92.6274 70.6587 92.2215 70.3147 91.6953C69.9706 91.1541 69.7986 90.5152 69.7986 89.7785C69.7986 89.087 69.9556 88.4781 70.2698 87.9519C70.5839 87.4107 71.0626 86.9597 71.7059 86.5989C72.3641 86.238 73.1794 85.9825 74.1518 85.8321L77.8991 85.2233V87.7038L74.7576 88.2676C74.2789 88.3578 73.9124 88.5157 73.6581 88.7412C73.4038 88.9516 73.2766 89.2598 73.2766 89.6658C73.2766 90.0416 73.4188 90.3348 73.703 90.5452C73.9872 90.7557 74.3388 90.8609 74.7576 90.8609C75.3111 90.8609 75.7973 90.7407 76.2162 90.5001C76.6351 90.2596 76.9567 89.9364 77.1811 89.5305C77.4204 89.1095 77.5401 88.651 77.5401 88.1549V84.9526C77.5401 84.4866 77.3531 84.0957 76.9791 83.78C76.6201 83.4643 76.1264 83.3064 75.4981 83.3064C74.8997 83.3064 74.3687 83.4718 73.9049 83.8026C73.4562 84.1333 73.1271 84.5693 72.9176 85.1105L70.2249 83.8251C70.4643 83.1336 70.8457 82.5397 71.3693 82.0436C71.8929 81.5475 72.5212 81.1641 73.2542 80.8935C73.9872 80.6229 74.7876 80.4876 75.6552 80.4876C76.6874 80.4876 77.5999 80.6755 78.3928 81.0514C79.1857 81.4272 79.799 81.9534 80.2328 82.6299C80.6816 83.2914 80.906 84.0657 80.906 84.9526V93.0709H77.7645V91.0865L78.5274 90.9511C78.1684 91.4924 77.772 91.9434 77.3382 92.3042C76.9043 92.65 76.4181 92.9055 75.8796 93.0709C75.3411 93.2513 74.7427 93.3415 74.0845 93.3415Z" fill="#212122"/>
<path d="M89.3882 93.3415C88.1615 93.3415 87.0545 93.0634 86.0672 92.5072C85.0948 91.9359 84.3169 91.1616 83.7335 90.1844C83.1651 89.2072 82.8808 88.1098 82.8808 86.892C82.8808 85.6743 83.1651 84.5843 83.7335 83.6222C84.302 82.645 85.0799 81.8782 86.0672 81.322C87.0545 80.7657 88.1615 80.4876 89.3882 80.4876C90.3007 80.4876 91.146 80.6455 91.9239 80.9612C92.7018 81.2769 93.3674 81.7204 93.9209 82.2917C94.4744 82.8479 94.8709 83.5094 95.1102 84.2761L92.1931 85.539C91.9837 84.9226 91.6247 84.434 91.116 84.0732C90.6224 83.7124 90.0464 83.532 89.3882 83.532C88.8048 83.532 88.2812 83.6748 87.8175 83.9604C87.3687 84.2461 87.0097 84.6445 86.7404 85.1556C86.4861 85.6668 86.3589 86.2531 86.3589 86.9146C86.3589 87.5761 86.4861 88.1624 86.7404 88.6735C87.0097 89.1847 87.3687 89.5831 87.8175 89.8687C88.2812 90.1544 88.8048 90.2972 89.3882 90.2972C90.0614 90.2972 90.6448 90.1168 91.1385 89.756C91.6321 89.3951 91.9837 88.9065 92.1931 88.2902L95.1102 89.5756C94.8858 90.2972 94.4969 90.9436 93.9434 91.5149C93.3899 92.0862 92.7242 92.5372 91.9463 92.868C91.1684 93.1837 90.3157 93.3415 89.3882 93.3415Z" fill="#212122"/>
<path d="M97.0922 93.0709V76H100.458V86.9371L99.2015 86.5312L104.609 80.7582H108.761L104.318 85.7194L108.738 93.0709H104.924L101.221 86.8244L103.173 86.3282L99.4259 90.4325L100.458 88.4706V93.0709H97.0922Z" fill="#212122"/>
<defs>
<clipPath id="clip0_11936_42893">
<rect width="41.25" height="60" fill="white" transform="translate(33.7539)"/>
</clipPath>
</defs>
</svg>
