<svg width="132" height="26" viewBox="0 0 132 26" fill="none" xmlns="http://www.w3.org/2000/svg">
<path d="M22.75 21.0709V4.27061H29.8184C30.9703 4.27061 31.9576 4.46605 32.7804 4.85693C33.6031 5.24781 34.2314 5.81158 34.6653 6.54823C35.0991 7.26986 35.316 8.14934 35.316 9.18667C35.316 9.92333 35.114 10.6299 34.7101 11.3064C34.3062 11.9679 33.6405 12.5242 32.713 12.9752V11.2613C33.5956 11.6071 34.2763 12.0206 34.755 12.5016C35.2337 12.9827 35.5628 13.5089 35.7423 14.0802C35.9218 14.6364 36.0116 15.2228 36.0116 15.8391C36.0116 17.4929 35.4656 18.7783 34.3735 19.6953C33.2815 20.6124 31.7631 21.0709 29.8184 21.0709H22.75ZM26.2281 18.0266H30.2223C30.9254 18.0266 31.4864 17.8236 31.9052 17.4177C32.3241 17.0118 32.5335 16.4856 32.5335 15.8391C32.5335 15.1777 32.3241 14.644 31.9052 14.238C31.4864 13.8321 30.9254 13.6292 30.2223 13.6292H26.2281V18.0266ZM26.2281 10.5848H30.0652C30.6037 10.5848 31.0301 10.4345 31.3442 10.1338C31.6733 9.81809 31.8379 9.40466 31.8379 8.89351C31.8379 8.38236 31.6733 7.97645 31.3442 7.67577C31.0301 7.36006 30.6037 7.20221 30.0652 7.20221H26.2281V10.5848Z" fill="white"/>
<path d="M41.7881 21.3415C40.9055 21.3415 40.1426 21.1987 39.4993 20.9131C38.8561 20.6274 38.3624 20.2215 38.0183 19.6953C37.6743 19.1541 37.5022 18.5152 37.5022 17.7785C37.5022 17.087 37.6593 16.4781 37.9735 15.9519C38.2876 15.4107 38.7663 14.9597 39.4096 14.5989C40.0678 14.238 40.8831 13.9825 41.8555 13.8321L45.6028 13.2233V15.7038L42.4613 16.2676C41.9826 16.3578 41.6161 16.5157 41.3618 16.7412C41.1075 16.9516 40.9803 17.2598 40.9803 17.6658C40.9803 18.0416 41.1224 18.3348 41.4067 18.5452C41.6909 18.7557 42.0424 18.8609 42.4613 18.8609C43.0148 18.8609 43.501 18.7407 43.9199 18.5001C44.3387 18.2596 44.6604 17.9364 44.8848 17.5305C45.1241 17.1095 45.2438 16.651 45.2438 16.1549V12.9526C45.2438 12.4866 45.0568 12.0957 44.6828 11.78C44.3238 11.4643 43.8301 11.3064 43.2018 11.3064C42.6034 11.3064 42.0724 11.4718 41.6086 11.8026C41.1598 12.1333 40.8307 12.5693 40.6213 13.1105L37.9286 11.8251C38.1679 11.1336 38.5494 10.5397 39.073 10.0436C39.5966 9.54748 40.2249 9.16412 40.9579 8.89351C41.6909 8.6229 42.4912 8.4876 43.3589 8.4876C44.3911 8.4876 45.3036 8.67552 46.0965 9.05137C46.8893 9.42721 47.5027 9.9534 47.9365 10.6299C48.3853 11.2914 48.6097 12.0657 48.6097 12.9526V21.0709H45.4682V19.0865L46.2311 18.9511C45.8721 19.4924 45.4757 19.9434 45.0418 20.3042C44.608 20.65 44.1218 20.9055 43.5833 21.0709C43.0447 21.2513 42.4464 21.3415 41.7881 21.3415Z" fill="white"/>
<path d="M57.0919 21.3415C55.8652 21.3415 54.7582 21.0634 53.7709 20.5072C52.7985 19.9359 52.0206 19.1616 51.4372 18.1844C50.8687 17.2072 50.5845 16.1098 50.5845 14.892C50.5845 13.6743 50.8687 12.5843 51.4372 11.6222C52.0057 10.645 52.7836 9.87823 53.7709 9.32198C54.7582 8.76573 55.8652 8.4876 57.0919 8.4876C58.0044 8.4876 58.8496 8.64546 59.6275 8.96117C60.4054 9.27688 61.0711 9.72037 61.6246 10.2917C62.1781 10.8479 62.5746 11.5094 62.8139 12.2761L59.8968 13.539C59.6874 12.9226 59.3283 12.434 58.8197 12.0732C58.3261 11.7124 57.7501 11.532 57.0919 11.532C56.5085 11.532 55.9849 11.6748 55.5211 11.9604C55.0724 12.2461 54.7133 12.6445 54.4441 13.1556C54.1897 13.6668 54.0626 14.2531 54.0626 14.9146C54.0626 15.5761 54.1897 16.1624 54.4441 16.6735C54.7133 17.1847 55.0724 17.5831 55.5211 17.8687C55.9849 18.1544 56.5085 18.2972 57.0919 18.2972C57.7651 18.2972 58.3485 18.1168 58.8422 17.756C59.3358 17.3951 59.6874 16.9065 59.8968 16.2902L62.8139 17.5756C62.5895 18.2972 62.2006 18.9436 61.6471 19.5149C61.0936 20.0862 60.4279 20.5372 59.65 20.868C58.8721 21.1837 58.0194 21.3415 57.0919 21.3415Z" fill="white"/>
<path d="M64.7959 21.0709V4H68.1618V14.9371L66.9052 14.5312L72.3131 8.75821H76.4643L72.0214 13.7194L76.4419 21.0709H72.6272L68.9247 14.8244L70.877 14.3282L67.1296 18.4325L68.1618 16.4706V21.0709H64.7959Z" fill="white"/>
<path d="M77.9439 25.5811V8.75821H81.0854V11.1035L80.7937 10.427C81.1976 9.81058 81.7436 9.33701 82.4318 9.00627C83.1349 8.66049 83.9352 8.4876 84.8328 8.4876C85.9996 8.4876 87.0543 8.77324 87.9967 9.34453C88.9392 9.91581 89.6871 10.6901 90.2406 11.6673C90.7942 12.6294 91.0709 13.7119 91.0709 14.9146C91.0709 16.1022 90.7942 17.1847 90.2406 18.1619C89.7021 19.1391 88.9616 19.9133 88.0192 20.4846C87.0767 21.0559 86.0071 21.3415 84.8103 21.3415C83.9726 21.3415 83.1947 21.1912 82.4767 20.8905C81.7736 20.5748 81.2051 20.1163 80.7713 19.5149L81.3098 18.8158V25.5811H77.9439ZM84.4064 18.2972C85.0347 18.2972 85.5882 18.1544 86.0669 17.8687C86.5457 17.5831 86.9196 17.1847 87.1889 16.6735C87.4582 16.1624 87.5928 15.5761 87.5928 14.9146C87.5928 14.2531 87.4582 13.6743 87.1889 13.1782C86.9196 12.667 86.5457 12.2686 86.0669 11.983C85.5882 11.6823 85.0347 11.532 84.4064 11.532C83.8081 11.532 83.2695 11.6748 82.7908 11.9604C82.3271 12.2461 81.9606 12.6445 81.6913 13.1556C81.437 13.6668 81.3098 14.2531 81.3098 14.9146C81.3098 15.5761 81.437 16.1624 81.6913 16.6735C81.9606 17.1847 82.3271 17.5831 82.7908 17.8687C83.2695 18.1544 83.8081 18.2972 84.4064 18.2972Z" fill="white"/>
<path d="M96.8345 21.3415C95.9519 21.3415 95.1889 21.1987 94.5457 20.9131C93.9024 20.6274 93.4087 20.2215 93.0647 19.6953C92.7206 19.1541 92.5486 18.5152 92.5486 17.7785C92.5486 17.087 92.7056 16.4781 93.0198 15.9519C93.3339 15.4107 93.8126 14.9597 94.4559 14.5989C95.1141 14.238 95.9294 13.9825 96.9018 13.8321L100.649 13.2233V15.7038L97.5076 16.2676C97.0289 16.3578 96.6624 16.5157 96.4081 16.7412C96.1538 16.9516 96.0266 17.2598 96.0266 17.6658C96.0266 18.0416 96.1688 18.3348 96.453 18.5452C96.7372 18.7557 97.0888 18.8609 97.5076 18.8609C98.0611 18.8609 98.5473 18.7407 98.9662 18.5001C99.3851 18.2596 99.7067 17.9364 99.9311 17.5305C100.17 17.1095 100.29 16.651 100.29 16.1549V12.9526C100.29 12.4866 100.103 12.0957 99.7291 11.78C99.3701 11.4643 98.8764 11.3064 98.2481 11.3064C97.6497 11.3064 97.1187 11.4718 96.6549 11.8026C96.2062 12.1333 95.8771 12.5693 95.6676 13.1105L92.9749 11.8251C93.2143 11.1336 93.5957 10.5397 94.1193 10.0436C94.6429 9.54748 95.2712 9.16412 96.0042 8.89351C96.7372 8.6229 97.5376 8.4876 98.4052 8.4876C99.4374 8.4876 100.35 8.67552 101.143 9.05137C101.936 9.42721 102.549 9.9534 102.983 10.6299C103.432 11.2914 103.656 12.0657 103.656 12.9526V21.0709H100.515V19.0865L101.277 18.9511C100.918 19.4924 100.522 19.9434 100.088 20.3042C99.6543 20.65 99.1681 20.9055 98.6296 21.0709C98.0911 21.2513 97.4927 21.3415 96.8345 21.3415Z" fill="white"/>
<path d="M112.138 21.3415C110.912 21.3415 109.805 21.0634 108.817 20.5072C107.845 19.9359 107.067 19.1616 106.484 18.1844C105.915 17.2072 105.631 16.1098 105.631 14.892C105.631 13.6743 105.915 12.5843 106.484 11.6222C107.052 10.645 107.83 9.87823 108.817 9.32198C109.805 8.76573 110.912 8.4876 112.138 8.4876C113.051 8.4876 113.896 8.64546 114.674 8.96117C115.452 9.27688 116.117 9.72037 116.671 10.2917C117.224 10.8479 117.621 11.5094 117.86 12.2761L114.943 13.539C114.734 12.9226 114.375 12.434 113.866 12.0732C113.372 11.7124 112.796 11.532 112.138 11.532C111.555 11.532 111.031 11.6748 110.567 11.9604C110.119 12.2461 109.76 12.6445 109.49 13.1556C109.236 13.6668 109.109 14.2531 109.109 14.9146C109.109 15.5761 109.236 16.1624 109.49 16.6735C109.76 17.1847 110.119 17.5831 110.567 17.8687C111.031 18.1544 111.555 18.2972 112.138 18.2972C112.811 18.2972 113.395 18.1168 113.888 17.756C114.382 17.3951 114.734 16.9065 114.943 16.2902L117.86 17.5756C117.636 18.2972 117.247 18.9436 116.693 19.5149C116.14 20.0862 115.474 20.5372 114.696 20.868C113.918 21.1837 113.066 21.3415 112.138 21.3415Z" fill="white"/>
<path d="M119.842 21.0709V4H123.208V14.9371L121.952 14.5312L127.359 8.75821H131.511L127.068 13.7194L131.488 21.0709H127.674L123.971 14.8244L125.923 14.3282L122.176 18.4325L123.208 16.4706V21.0709H119.842Z" fill="white"/>
<g clip-path="url(#clip0_11936_42879)">
<path fill-rule="evenodd" clip-rule="evenodd" d="M8.58639 1.65119C9.34967 1.65119 10.0656 1.75351 10.7285 1.94328C10.0795 0.430722 8.73202 0 7.23237 0C5.72978 0 4.37994 0.432415 3.73242 1.95219C4.39044 1.75575 5.10331 1.65119 5.86399 1.65119H8.58639ZM5.6894 3.16974C2.06503 3.16974 0 6.021 0 9.53821V13.1512C0 13.503 0.293813 13.7812 0.65625 13.7812H13.7812C14.1437 13.7812 14.4375 13.503 14.4375 13.1512V9.53821C14.4375 6.021 12.0362 3.16974 8.4118 3.16974H5.6894ZM7.21362 9.56946C8.48215 9.56946 9.5105 8.54111 9.5105 7.27258C9.5105 6.00405 8.48215 4.97571 7.21362 4.97571C5.94509 4.97571 4.91675 6.00405 4.91675 7.27258C4.91675 8.54111 5.94509 9.56946 7.21362 9.56946ZM0 15.9049C0 15.5532 0.293813 15.2681 0.65625 15.2681H13.7812C14.1437 15.2681 14.4375 15.5532 14.4375 15.9049V19.726C14.4375 20.4294 13.8499 20.9997 13.125 20.9997H1.3125C0.587626 20.9997 0 20.4294 0 19.726V15.9049Z" fill="white"/>
</g>
<defs>
<clipPath id="clip0_11936_42879">
<rect width="14.4375" height="21" fill="white"/>
</clipPath>
</defs>
</svg>
