<svg width="500" height="500" viewBox="0 0 500 500" fill="none" xmlns="http://www.w3.org/2000/svg">
<path d="M383.5 293.697H383.383L383.167 293.53C384.229 292.78 385.112 291.803 385.752 290.671C386.392 289.538 386.772 288.278 386.867 286.98C386.967 282.564 384.117 280.43 380.8 277.964C373.478 272.484 366.9 266.075 361.233 258.897C355.108 251.805 349.456 244.317 344.317 236.48C341.788 232.623 339.56 228.578 337.65 224.38L337.467 223.897C335.713 220.181 334.922 216.083 335.167 211.98C336.152 200.735 338.047 189.587 340.833 178.647L341.233 176.98C343.633 167.414 344.833 162.614 342.233 158.397C339.633 154.18 334.467 152.614 326.867 153.697C319.71 154.961 312.761 157.204 306.217 160.364C300.029 163.328 294.248 167.075 289.017 171.514C284.853 170.202 280.611 169.15 276.317 168.364C272.317 167.63 268.183 167.08 264 166.697C263.816 166.189 263.588 165.698 263.317 165.23C262.717 164.212 261.916 163.327 260.961 162.631C260.006 161.934 258.919 161.441 257.767 161.18C256.325 160.868 254.835 160.845 253.384 161.114C251.933 161.383 250.551 161.938 249.317 162.747L249.167 162.847C248.364 161.999 247.463 161.249 246.483 160.614C245.25 159.803 243.867 159.247 242.416 158.978C240.965 158.709 239.475 158.733 238.033 159.047C236.881 159.303 235.793 159.793 234.839 160.486C233.884 161.18 233.082 162.063 232.483 163.08C231.791 164.286 231.37 165.629 231.25 167.014C228.183 167.347 225.183 167.797 222.283 168.33C217.994 169.113 213.757 170.165 209.6 171.48C204.365 167.038 198.578 163.29 192.383 160.33C185.845 157.169 178.902 154.926 171.75 153.664C164.15 152.58 158.967 154.164 156.367 158.364C153.767 162.564 154.967 167.364 157.367 176.897L157.75 178.43C160.549 189.413 162.45 200.606 163.433 211.897C163.669 216.029 162.867 220.155 161.1 223.897L160.917 224.297C159.82 226.806 158.568 229.244 157.167 231.597C156.283 233.114 155.333 234.68 154.25 236.397C149.087 244.261 143.414 251.777 137.267 258.897C131.603 266.054 125.025 272.436 117.7 277.88C114.367 280.347 111.55 282.48 111.65 286.88C111.735 288.182 112.111 289.449 112.752 290.585C113.392 291.722 114.28 292.7 115.35 293.447L115.2 293.547L115 293.697C111.667 296.197 110 298.997 110 302.031C110.033 303.514 110.419 304.968 111.126 306.272C111.833 307.577 112.841 308.694 114.067 309.531C119.217 313.581 125.333 315.447 132.95 317.597C132.698 318.371 132.586 319.184 132.617 319.997C132.617 323.147 134.65 325.797 138.433 327.864C146.333 332.18 164.7 337.114 179.45 340.114C181.25 340.58 182.95 340.964 184.667 341.28C207.178 345.688 230.061 347.92 253 347.947C272.258 348.125 291.473 346.089 310.267 341.88C312.967 341.38 315.833 340.814 319.05 340.214C333.85 337.23 352.383 332.28 360.267 327.93C364.067 325.864 366.033 323.214 366.1 320.064C366.115 319.251 366.002 318.442 365.767 317.664C373.383 315.514 379.5 313.647 384.633 309.597C385.859 308.76 386.866 307.643 387.574 306.339C388.281 305.035 388.667 303.581 388.7 302.097C388.533 299.014 386.833 296.197 383.5 293.697Z" fill="white"/>
<path d="M380.8 297.381C378.56 295.806 376.453 294.05 374.5 292.131C377.717 291.981 382.267 289.414 382.317 286.781C382.417 282.097 375.4 283.014 357.75 261.781C351.48 254.538 345.69 246.894 340.417 238.897C337.748 234.84 335.407 230.577 333.417 226.147C333.411 226.097 333.411 226.047 333.417 225.997C331.277 221.512 330.314 216.557 330.617 211.597C331.639 199.932 333.618 188.371 336.533 177.031C338.817 167.864 340.017 163.514 338.367 160.847C335.15 155.647 322.783 157.947 308.167 164.614C301.588 167.803 295.485 171.893 290.033 176.764C285.301 175.115 280.448 173.839 275.517 172.947C270.393 172.013 265.217 171.401 260.017 171.114C260.149 169.921 259.929 168.716 259.383 167.647C257.917 165.131 254.25 165.13 251.85 166.697C250.653 167.526 249.601 168.545 248.733 169.714C247.475 167.724 245.872 165.975 244 164.547C241.617 162.981 237.95 162.997 236.483 165.497C235.729 167.256 235.594 169.218 236.1 171.064V171.281C231.746 171.61 227.413 172.166 223.117 172.947C218.186 173.841 213.333 175.117 208.6 176.764C203.155 171.892 197.057 167.803 190.483 164.614C175.867 157.947 163.483 155.647 160.283 160.847C158.617 163.514 159.817 167.864 162.117 177.031C165.022 188.373 166.996 199.933 168.017 211.597C168.317 216.555 167.36 221.508 165.233 225.997L165.133 226.147C163.142 230.573 160.807 234.836 158.15 238.897C152.868 246.914 147.073 254.58 140.8 261.847C123.167 283.014 116.133 282.097 116.233 286.847C116.233 289.481 120.85 292.047 124.067 292.197C122.11 294.112 120.003 295.868 117.767 297.447C114.1 300.197 113.233 303.147 116.85 305.997C122.65 310.581 130.617 312.164 141.133 315.247C140.367 315.747 132.9 319.731 140.583 323.931C147.883 327.914 166.033 332.814 180.583 335.731C189.133 337.397 199.417 339.297 206.25 340.214C210.883 340.981 213.383 339.931 213.883 338.547C214.6 336.614 212.467 335.014 204.917 332.747C198.763 330.939 192.801 328.533 187.117 325.564C179.983 321.664 164.517 304.447 181.617 286.364C189.567 278.031 204.25 276.531 216.617 271.114C229.95 265.281 230.867 256.397 230.833 252.447C230.833 248.797 229.25 244.881 223.967 242.047C207.167 233.031 182.967 247.047 178.65 250.264C176.7 251.731 174.467 253.281 171.983 254.914L170.8 255.564C168.389 257.119 165.7 258.736 162.733 260.414C159.283 261.881 156.767 261.481 158.95 254.981C163.2 242.197 173.95 231.031 175 229.981C183.917 222.064 195.783 214.981 208.783 216.647C223.783 218.514 230.533 237.614 248.783 238.081H249.633C267.883 237.614 274.633 218.514 289.633 216.647C302.633 214.981 314.5 222.064 323.4 229.981C324.467 231.064 335.217 242.231 339.467 254.981C341.633 261.481 339.117 261.881 335.667 260.414C332.722 258.736 330.039 257.119 327.617 255.564L326.4 254.781C323.9 253.147 321.678 251.597 319.733 250.131C315.417 246.914 291.2 232.897 274.417 241.914C269.117 244.747 267.567 248.581 267.533 252.314C267.533 256.264 268.4 265.147 281.767 270.981C294.183 276.397 308.883 277.831 316.767 286.231C333.883 304.314 318.433 321.531 311.267 325.431C305.613 328.418 299.679 330.841 293.55 332.664C286 334.931 283.883 336.531 284.6 338.464C285.083 339.814 287.6 340.864 292.233 340.131C299.05 339.214 309.333 337.381 317.9 335.647C332.35 332.731 350.5 327.831 357.9 323.847C365.583 319.647 358.117 315.664 357.35 315.164C367.867 312.081 375.817 310.497 381.633 305.914C385.283 303.081 384.417 300.131 380.8 297.381ZM198.3 251.981C200.133 249.164 213.3 251.847 213.3 251.847C217.55 252.781 221.8 253.964 218.617 257.314C215.433 260.664 210.283 261.414 205.483 259.981C200.683 258.547 196.483 254.781 198.3 251.981ZM182.083 200.314C181.322 193.919 179.772 187.644 177.467 181.631C175.933 177.131 175.917 173.731 182.2 177.047C188.483 180.364 195.033 186.747 194.817 187.047C190.022 190.894 185.743 195.342 182.083 200.281V200.314ZM321.017 181.664C318.718 187.665 317.178 193.931 316.433 200.314C312.767 195.335 308.47 190.853 303.65 186.981C303.433 186.731 310 180.314 316.283 176.981C322.567 173.647 322.55 177.131 321.017 181.631V181.664ZM293.017 259.997C288.233 261.431 283.017 260.697 279.883 257.331C276.75 253.964 280.95 252.797 285.2 251.864C285.2 251.864 298.383 249.181 300.2 251.997C302.017 254.814 297.8 258.564 293.017 259.981V259.997Z" fill="#141414"/>
<path d="M249.433 297.23H249.65C257.133 297.23 262.417 293.197 262.533 287.564C262.582 286.652 262.823 285.761 263.239 284.948C263.656 284.135 264.238 283.419 264.95 282.847C267.25 280.314 264.833 276.297 264.833 276.297C263.657 273.846 261.69 271.862 259.25 270.664C256.257 269.23 252.968 268.521 249.65 268.597H249.433C246.103 268.522 242.802 269.236 239.8 270.68C237.377 271.884 235.424 273.86 234.25 276.297C234.25 276.297 231.833 280.314 234.133 282.847C234.845 283.419 235.428 284.135 235.844 284.948C236.261 285.761 236.501 286.652 236.55 287.564C236.667 293.23 241.95 297.23 249.433 297.23Z" fill="#141414"/>
<path d="M267.1 306.431C264.323 305.273 261.428 304.424 258.467 303.897C255.518 303.373 252.529 303.105 249.533 303.097C246.539 303.13 243.552 303.397 240.6 303.897C238.014 304.351 235.475 305.043 233.017 305.964C232 306.347 230.967 306.847 230.8 306.931C227.783 308.431 228.7 311.181 234.133 310.581C235 310.481 246.167 309.447 249.683 309.447C253.2 309.447 264.05 310.481 264.933 310.581C270.933 311.281 271.517 308.214 267.1 306.431Z" fill="#141414"/>
</svg>
