<svg width="661" height="102" viewBox="0 0 661 102" fill="none" xmlns="http://www.w3.org/2000/svg">
<path fill-rule="evenodd" clip-rule="evenodd" d="M54.6539 33.355L46.8708 25.6341C46.7673 25.5309 46.6939 25.4014 46.6585 25.2596C46.623 25.1178 46.6269 24.969 46.6696 24.8292L54.3159 0.559773C54.3678 0.397255 54.4701 0.255449 54.6079 0.154835C54.7457 0.0542205 54.9119 0 55.0825 0C55.2531 0 55.4193 0.0542205 55.5571 0.154835C55.6949 0.255449 55.7972 0.397255 55.8491 0.559773L63.6967 24.7668C63.7394 24.9066 63.7432 25.0554 63.7078 25.1972C63.6723 25.339 63.5989 25.4685 63.4954 25.5717L55.7747 33.355C55.6245 33.5007 55.4235 33.5822 55.2143 33.5822C55.0051 33.5822 54.8041 33.5007 54.6539 33.355ZM29.1293 42.5066L4.92478 50.3543C4.76226 50.4063 4.62045 50.5085 4.51983 50.6463C4.41922 50.7841 4.36499 50.9503 4.36499 51.121C4.36499 51.2916 4.41922 51.4578 4.51983 51.5956C4.62045 51.7334 4.76226 51.8357 4.92478 51.8876L29.1937 59.5341C29.3335 59.5768 29.4823 59.5806 29.6241 59.5452C29.7659 59.5097 29.8954 59.4363 29.9986 59.3329L37.7194 51.5476C37.7942 51.4728 37.8536 51.384 37.8941 51.2863C37.9346 51.1886 37.9554 51.0839 37.9554 50.9781C37.9554 50.8723 37.9346 50.7676 37.8941 50.6699C37.8536 50.5722 37.7942 50.4834 37.7194 50.4086L29.9342 42.6877C29.8287 42.5874 29.6979 42.5175 29.5558 42.4856C29.4137 42.4537 29.2656 42.461 29.1273 42.5066H29.1293ZM72.8602 51.4148L80.6453 59.1357C80.7486 59.2391 80.878 59.3125 81.0198 59.348C81.1616 59.3834 81.3104 59.3796 81.4502 59.3369L105.655 51.4892C105.817 51.4372 105.959 51.335 106.06 51.1972C106.16 51.0594 106.215 50.8932 106.215 50.7225C106.215 50.5519 106.16 50.3857 106.06 50.2479C105.959 50.1101 105.817 50.0079 105.655 49.9559L81.3858 42.3094C81.246 42.2667 81.0972 42.2629 80.9554 42.2983C80.8136 42.3338 80.6842 42.4072 80.5809 42.5107L72.8602 50.296C72.7151 50.446 72.634 50.6466 72.634 50.8554C72.634 51.0641 72.7151 51.2647 72.8602 51.4148ZM54.7968 68.4845L47.076 76.2678C46.9704 76.3721 46.8957 76.5037 46.8602 76.6479C46.8247 76.792 46.8297 76.9432 46.8748 77.0847L54.7223 101.29C54.7743 101.452 54.8765 101.594 55.0143 101.695C55.1521 101.795 55.3183 101.85 55.489 101.85C55.6596 101.85 55.8258 101.795 55.9636 101.695C56.1014 101.594 56.2036 101.452 56.2556 101.29L63.9019 77.0203C63.9446 76.8805 63.9485 76.7318 63.913 76.59C63.8776 76.4482 63.8042 76.3187 63.7007 76.2154L55.9156 68.4945C55.7665 68.3484 55.5665 68.2658 55.3578 68.2643C55.149 68.2628 54.9479 68.3425 54.7968 68.4865V68.4845Z" fill="white"/>
<path d="M171.624 90.8757C164.834 90.8757 158.691 89.1788 153.194 85.7851C147.762 82.3176 143.494 77.596 140.39 71.6201C137.286 65.5704 135.734 58.783 135.734 51.2578C135.734 43.7326 137.286 36.9821 140.39 31.0062C143.494 24.9565 147.795 20.2348 153.291 16.8411C158.788 13.3736 164.931 11.6399 171.721 11.6399C177.023 11.6399 181.873 12.6728 186.271 14.7385C190.668 16.7305 194.419 19.7184 197.522 23.7023L191.218 30.6742C186.109 24.5508 179.739 21.489 172.109 21.489C167.065 21.489 162.506 22.7801 158.432 25.3623C154.358 27.9445 151.157 31.5226 148.829 36.0968C146.566 40.5971 145.434 45.6508 145.434 51.2578C145.434 56.8648 146.566 61.9554 148.829 66.5295C151.157 71.0299 154.358 74.5711 158.432 77.1533C162.506 79.7355 167.065 81.0266 172.109 81.0266C179.675 81.0266 186.044 77.9279 191.218 71.7307L197.522 78.7026C194.419 82.6865 190.636 85.7114 186.174 87.7771C181.776 89.8428 176.926 90.8757 171.624 90.8757Z" fill="white"/>
<path d="M252.31 61.7709H239.561H223.016L219.622 70.6241L212.153 89.9904H202.162L232.91 12.5252H242.513L273.359 89.9904H263.174L252.31 61.7709ZM252.31 61.7709L237.663 23.813L223.016 61.7709H252.31Z" fill="white"/>
<path d="M328.883 89.9904L314.236 66.1975C312.425 66.3451 311.003 66.4188 309.968 66.4188H293.187V89.9904H283.487V12.5252H309.968C318.763 12.5252 325.682 14.9229 330.726 19.7184C335.77 24.5139 338.292 31.1168 338.292 39.5273C338.292 45.5032 336.998 50.5938 334.412 54.7991C331.825 59.0043 328.139 62.066 323.354 63.9842L339.456 89.9904H328.883ZM309.677 57.0124C315.82 57.0124 320.509 55.4999 323.742 52.4751C326.975 49.4503 328.592 45.1344 328.592 39.5273C328.592 33.9203 326.975 29.6413 323.742 26.6903C320.509 23.6654 315.82 22.153 309.677 22.153H293.187V57.0124H309.677Z" fill="white"/>
<path d="M353.963 12.5252H382.578C389.755 12.5252 396.125 14.1483 401.686 17.3944C407.248 20.6406 411.548 25.2147 414.587 31.1168C417.691 36.9452 419.243 43.6588 419.243 51.2578C419.243 58.8568 417.691 65.6073 414.587 71.5094C411.548 77.3377 407.248 81.875 401.686 85.1211C396.125 88.3673 389.755 89.9904 382.578 89.9904H353.963V12.5252ZM381.996 80.3626C387.492 80.3626 392.31 79.1453 396.448 76.7106C400.652 74.276 403.885 70.8823 406.148 66.5295C408.412 62.1029 409.543 57.0124 409.543 51.2578C409.543 45.5032 408.412 40.4496 406.148 36.0968C403.885 31.6702 400.652 28.2396 396.448 25.8049C392.31 23.3703 387.492 22.153 381.996 22.153H363.663V80.3626H381.996Z" fill="white"/>
<path d="M434.1 12.5252H443.8V89.9904H434.1V12.5252Z" fill="white"/>
<path d="M522.522 12.5252V89.9904H514.568L473.828 32.2235V89.9904H464.128V12.5252H472.082L512.822 70.2921V12.5252H522.522Z" fill="white"/>
<path d="M582.711 61.7709H553.418L542.554 89.9904H532.563L563.312 12.5252H572.915L603.76 89.9904H593.575L582.711 61.7709ZM582.711 61.7709L568.065 23.813L553.418 61.7709H582.711Z" fill="white"/>
<path d="M613.889 12.5252H623.589V80.3626H660.351V89.9904H613.889V12.5252Z" fill="white"/>
</svg>
