<svg id="Wordmarks" xmlns="http://www.w3.org/2000/svg" viewBox="0 0 1000 1000"><defs><style>.cls-1{fill:#de359c;}</style></defs><rect y="-1.22" width="1000" height="1000"/><path class="cls-1" d="M50.22,574.62V427.82H155.43v31.81H89.37v32.62h51.38v31.81H89.37v50.56Z"/><path class="cls-1" d="M257.57,574.62l-32.82-50.56H210.88v50.56H171.74V427.82h55c51.58,0,72.17,13.87,72.17,48.12,0,23.86-10,37.72-33.23,44l35.68,54.64Zm-46.69-82.37h15.91c24.67,0,33-4.08,33-16.31s-8.36-16.31-33-16.31H210.88Z"/><path class="cls-1" d="M453.1,574.62H311.2l70.95-151.69Zm-90.32-29.36h38.74l-19.37-41.39Z"/><path class="cls-1" d="M556.89,525.89,585,547.3a75.84,75.84,0,1,1,0-92.16l-28.13,21.62a39.8,39.8,0,0,0-32-15.91,40.37,40.37,0,1,0,32,65Z"/><path class="cls-1" d="M703.48,427.82v31.81H665.56v115H626.41v-115H588.49V427.82Z"/><path class="cls-1" d="M833.15,574.62H691.25l71-151.69Zm-90.32-29.36h38.74L762.2,503.87Z"/><path class="cls-1" d="M888.61,542.82h61.17v31.8H849.47V427.82h39.14Z"/></svg>