<svg width="20" height="20" viewBox="0 0 20 20" fill="none" xmlns="http://www.w3.org/2000/svg">

  <path d="M17.3783 11.9064L15.7747 10.3028V8.17865C15.7728 6.71075 15.2267 5.29569 14.2419 4.2071C13.2572 3.11851 11.9038 2.43371 10.4434 2.28513V1.07031H9.25872V2.28513C7.79836 2.43371 6.44496 3.11851 5.46023 4.2071C4.47549 5.29569 3.92938 6.71075 3.92747 8.17865V10.3028L2.32389 11.9064C2.21282 12.0174 2.15041 12.1681 2.15039 12.3252V14.1023C2.15039 14.2594 2.2128 14.41 2.32389 14.5211C2.43498 14.6322 2.58565 14.6946 2.74275 14.6946H6.88928V15.1548C6.87644 15.9062 7.14134 16.636 7.63322 17.2043C8.1251 17.7725 8.80936 18.1393 9.5549 18.2343C9.96668 18.2751 10.3825 18.2294 10.7755 18.0999C11.1685 17.9704 11.5301 17.7601 11.8369 17.4825C12.1438 17.2049 12.3892 16.8661 12.5573 16.488C12.7253 16.1099 12.8124 15.7008 12.8129 15.287V14.6946H16.9594C17.1165 14.6946 17.2672 14.6322 17.3783 14.5211C17.4894 14.41 17.5518 14.2594 17.5518 14.1023V12.3252C17.5518 12.1681 17.4894 12.0174 17.3783 11.9064ZM11.6282 15.287C11.6282 15.7583 11.4409 16.2103 11.1077 16.5436C10.7744 16.8768 10.3224 17.0641 9.85108 17.0641C9.37977 17.0641 8.92776 16.8768 8.5945 16.5436C8.26123 16.2103 8.074 15.7583 8.074 15.287V14.6946H11.6282V15.287ZM16.3671 13.5099H3.33511V12.5705L4.93863 10.9669C5.04973 10.8558 5.11216 10.7052 5.1122 10.5481V8.17865C5.1122 6.92181 5.61147 5.71646 6.50018 4.82775C7.3889 3.93903 8.59425 3.43976 9.85108 3.43976C11.1079 3.43976 12.3133 3.93903 13.202 4.82775C14.0907 5.71646 14.59 6.92181 14.59 8.17865V10.5481C14.59 10.7052 14.6524 10.8558 14.7635 10.9669L16.3671 12.5705V13.5099Z" fill="currentColor" />
</svg>