<?xml version="1.0" encoding="utf-8"?>
<!-- Generator: Adobe Illustrator 26.1.0, SVG Export Plug-In . SVG Version: 6.00 Build 0)  -->
<svg version="1.1" id="Layer_1" xmlns="http://www.w3.org/2000/svg" xmlns:xlink="http://www.w3.org/1999/xlink" x="0px" y="0px"
	 viewBox="0 0 96 96" style="enable-background:new 0 0 96 96;" xml:space="preserve">
<style type="text/css">
	.st0{fill:url(#SVGID_1_);}
	.st1{fill:#EFEFEF;}
	.st2{fill:#352020;}
	.st3{fill:#ED888F;}
	.st4{fill:#3A3A3A;}
	.st5{fill:#DDC0C0;}
	.st6{fill:#DDDAD9;}
	.st7{fill:#CCC7C6;}
	.st8{fill:#636262;}
	.st9{fill:#D1B0B0;}
	.st10{fill:#D8717B;}
	.st11{fill:#212121;}
</style>
<g>
	<linearGradient id="SVGID_1_" gradientUnits="userSpaceOnUse" x1="48" y1="1.637090e-11" x2="48" y2="96">
		<stop  offset="0.2" style="stop-color:#14F195"/>
		<stop  offset="0.8988" style="stop-color:#CC33FF"/>
	</linearGradient>
	<circle class="st0" cx="48" cy="48" r="48"/>
	<g>
		<g>
			<path class="st1" d="M84.5,60.37c-0.19-2.06-0.71-4.09-1.44-6.05c-0.73-1.96-1.65-3.85-2.71-5.67c-0.53-0.91-1.09-1.8-1.68-2.67
				c-0.29-0.44-0.6-0.87-0.91-1.29c-0.31-0.42-0.63-0.85-0.95-1.24l-0.12-0.14l-0.01-0.17c-0.01-0.16-0.01-0.3-0.01-0.45
				c0-0.14,0-0.29,0.01-0.43c0.01-0.29,0.03-0.57,0.06-0.86c0.06-0.57,0.17-1.14,0.35-1.71c0.18-0.56,0.43-1.12,0.81-1.63
				c0.09-0.13,0.2-0.25,0.31-0.36c0.09-0.1,0.19-0.19,0.29-0.27c-0.21-0.07-0.41-0.12-0.61-0.13c-0.24-0.01-0.46,0.01-0.66,0.1
				c-0.21,0.08-0.39,0.21-0.56,0.37l-2.2,2.13l1.33-2.76c0.05-0.1,0.11-0.23,0.16-0.35c0.05-0.12,0.1-0.25,0.15-0.37
				c0.1-0.25,0.19-0.5,0.27-0.76c0.08-0.26,0.16-0.51,0.23-0.77c0.04-0.13,0.07-0.26,0.1-0.39c0.03-0.13,0.06-0.26,0.09-0.39
				c0.06-0.26,0.1-0.53,0.14-0.79c0.02-0.13,0.03-0.26,0.05-0.4c0.02-0.13,0.03-0.26,0.04-0.4l0.02-0.4l0-0.12l-0.89,0.73
				l-0.64,0.52l-0.23-0.8c-0.25-0.88-0.53-1.77-0.82-2.64c-0.29-0.88-0.59-1.75-0.9-2.63c-0.62-1.74-1.29-3.47-2.02-5.17
				c-0.72-1.7-1.5-3.38-2.36-5.01c-0.86-1.63-1.79-3.22-2.85-4.71c-0.53-0.74-1.09-1.46-1.7-2.13c-0.6-0.67-1.25-1.3-1.96-1.84
				l-0.13-0.1l-0.03-0.03l0,0l-0.01-0.01l-0.07-0.05c-0.11-0.08-0.16-0.09-0.23-0.13c-0.16-0.07-0.31-0.11-0.48-0.12
				c-0.32-0.02-0.68,0.1-1.02,0.3c-0.69,0.41-1.3,1.08-1.85,1.78c-0.55,0.71-1.04,1.48-1.5,2.27c-0.46,0.79-0.88,1.6-1.29,2.43
				c-0.4,0.83-0.78,1.67-1.15,2.51c-0.31,0.72-0.6,1.45-0.87,2.18c0.22,0.09,0.44,0.17,0.64,0.3c0.22,0.13,0.45,0.25,0.66,0.39
				c0.22,0.12,0.42,0.3,0.62,0.46c0.2,0.16,0.39,0.33,0.57,0.51c-0.25-0.07-0.49-0.15-0.73-0.23c-0.24-0.08-0.46-0.18-0.7-0.24
				c-0.24-0.07-0.47-0.15-0.7-0.23c-0.23-0.09-0.47-0.14-0.7-0.21c-0.23-0.06-0.46-0.15-0.7-0.2l-0.71-0.15
				c-0.23-0.06-0.47-0.07-0.71-0.1c-0.24-0.03-0.47-0.07-0.71-0.07c-0.24-0.01-0.48-0.03-0.71-0.03l-0.71,0.01
				c-0.24,0.01-0.47,0.04-0.71,0.05c-0.24,0.02-0.47,0.06-0.71,0.09c-0.24,0.03-0.47,0.09-0.7,0.13c-0.23,0.05-0.46,0.1-0.69,0.16
				c-0.23,0.07-0.46,0.12-0.68,0.2c-0.22,0.07-0.45,0.15-0.64,0.23l-0.25,0.1l-0.25-0.11c-0.15-0.06-0.29-0.13-0.44-0.2
				c-0.14-0.07-0.29-0.14-0.44-0.18c-0.15-0.05-0.3-0.1-0.45-0.15c-0.15-0.05-0.31-0.07-0.46-0.11l-0.23-0.05
				c-0.08-0.02-0.16-0.02-0.24-0.03c-0.16-0.02-0.32-0.04-0.48-0.05l-0.48-0.01c-0.16-0.01-0.32,0.02-0.49,0.03l-0.24,0.02
				l-0.24,0.04c-0.16,0.03-0.33,0.05-0.49,0.09c-0.16,0.04-0.33,0.07-0.49,0.12c-0.16,0.05-0.32,0.09-0.48,0.14
				c-0.32,0.11-0.64,0.22-0.96,0.35c-0.32,0.13-0.63,0.27-0.95,0.43c0.11-0.14,0.24-0.27,0.37-0.39c0.13-0.12,0.27-0.24,0.41-0.35
				c0.14-0.12,0.29-0.21,0.44-0.31c0.15-0.1,0.31-0.19,0.46-0.28c0.16-0.09,0.32-0.16,0.49-0.24c0.16-0.08,0.34-0.14,0.51-0.2
				c0.17-0.07,0.35-0.11,0.52-0.16l0.27-0.07l0.27-0.05c0.18-0.03,0.36-0.08,0.55-0.09l0.56-0.04c0.02,0,0.04,0,0.06,0
				c-0.25-0.56-0.51-1.12-0.77-1.67c-0.39-0.8-0.81-1.59-1.25-2.37c-0.44-0.77-0.91-1.53-1.41-2.26c-0.5-0.73-1.04-1.43-1.64-2.06
				c-0.59-0.63-1.24-1.21-1.96-1.59c-0.71-0.39-1.5-0.53-2.2-0.31c-0.71,0.22-1.34,0.79-1.91,1.44c-0.56,0.65-1.06,1.38-1.53,2.13
				c-0.93,1.51-1.72,3.12-2.46,4.76c-0.74,1.64-1.41,3.31-2.05,4.99c-0.64,1.68-1.24,3.38-1.81,5.09c-0.57,1.71-1.12,3.43-1.62,5.15
				l-0.19,0.65l-0.59-0.32l-0.92-0.5c0.01,0.26,0.02,0.51,0.04,0.77c0.02,0.28,0.04,0.56,0.08,0.84c0.03,0.28,0.07,0.56,0.11,0.84
				c0.05,0.28,0.09,0.56,0.15,0.83c0.05,0.28,0.11,0.55,0.18,0.82c0.07,0.27,0.14,0.54,0.22,0.81c0.04,0.13,0.08,0.26,0.13,0.39
				c0.04,0.13,0.09,0.26,0.14,0.37l0.9,2.16l-1.76-1.53c-0.29-0.26-0.64-0.38-1.03-0.36c-0.19,0.01-0.4,0.05-0.6,0.12
				c-0.02,0.01-0.04,0.02-0.06,0.03c0.23,0.36,0.43,0.74,0.6,1.13c0.25,0.58,0.44,1.18,0.6,1.79c0.15,0.6,0.27,1.21,0.36,1.82
				c0.04,0.31,0.08,0.61,0.11,0.92l0.04,0.46c0.01,0.16,0.02,0.31,0.02,0.47l0,0.19l-0.12,0.16c-0.18,0.23-0.37,0.5-0.55,0.75
				c-0.18,0.26-0.36,0.52-0.53,0.79c-0.34,0.53-0.67,1.08-0.99,1.63c-0.62,1.11-1.18,2.25-1.66,3.42c-0.48,1.17-0.89,2.38-1.19,3.6
				c-0.08,0.31-0.14,0.62-0.21,0.92c-0.06,0.31-0.12,0.62-0.17,0.93c-0.03,0.18-0.05,0.36-0.07,0.54l0.55-0.47l1.64-1.41l-0.78,2.03
				c-0.21,0.53-0.39,1.14-0.54,1.73c-0.15,0.59-0.28,1.19-0.37,1.8c-0.2,1.21-0.3,2.44-0.28,3.67c0,0.61,0.04,1.23,0.09,1.84
				c0.06,0.61,0.15,1.22,0.27,1.82c0.12,0.6,0.26,1.2,0.43,1.78c0.08,0.29,0.17,0.59,0.28,0.87l0.15,0.43l0.17,0.42l0.17,0.42
				l0.19,0.42l0.19,0.42l0.21,0.41c0.14,0.27,0.28,0.54,0.44,0.8c0.16,0.26,0.31,0.53,0.48,0.78c0.17,0.25,0.32,0.5,0.52,0.75
				l0.56,0.75c0.39,0.5,0.78,1,1.15,1.52c0.38,0.51,0.74,1.03,1.1,1.56c0.36,0.53,0.71,1.06,1.04,1.61
				c0.34,0.55,0.65,1.11,0.94,1.69c0.15,0.29,0.28,0.58,0.41,0.89c0.04,0.09,0.07,0.19,0.11,0.28c0.13-0.12,0.25-0.25,0.33-0.4
				c0.19-0.32,0.26-0.72,0.24-1.14v0l-0.1-1.95l1.11,1.66c0.15,0.23,0.37,0.5,0.56,0.74c0.2,0.25,0.42,0.49,0.64,0.72
				c0.22,0.23,0.45,0.46,0.69,0.68c0.23,0.22,0.48,0.44,0.72,0.65c0.25,0.21,0.5,0.42,0.75,0.62c0.26,0.2,0.52,0.39,0.79,0.58
				c0.27,0.19,0.53,0.37,0.81,0.54c0.27,0.18,0.56,0.34,0.84,0.51c0.29,0.16,0.57,0.32,0.86,0.47c0.29,0.15,0.59,0.29,0.88,0.43
				c0.3,0.14,0.6,0.27,0.9,0.4c0.31,0.12,0.61,0.26,0.92,0.37c0.31,0.12,0.62,0.24,0.93,0.35c0.31,0.12,0.63,0.22,0.94,0.33
				c0.32,0.11,0.63,0.2,0.95,0.31c0.32,0.1,0.65,0.2,0.97,0.31c1.8,0.23,3.22,0.51,4.47,0.51c1,0,2.98-0.26,3.64-0.31
				c0.19-0.01,1.34-0.09,1.45-0.13c0.14-0.04,0.54-0.1,0.76-0.15c0.24-0.05,0.48-0.11,0.72-0.16c0.38-0.09,0.77-0.17,1.15-0.25
				l1.14-0.26c0.38-0.1,0.76-0.17,1.14-0.28c0.38-0.1,0.76-0.19,1.13-0.3c0.37-0.1,0.75-0.21,1.12-0.32
				c0.37-0.11,0.74-0.24,1.1-0.36c0.36-0.13,0.73-0.26,1.08-0.4c0.36-0.13,0.71-0.29,1.07-0.44c0.35-0.16,0.7-0.32,1.04-0.49
				c0.35-0.16,0.68-0.34,1.02-0.53c0.34-0.18,0.66-0.38,0.99-0.58c0.65-0.4,1.27-0.84,1.86-1.31c0.29-0.24,0.58-0.48,0.85-0.74
				c0.14-0.13,0.27-0.26,0.39-0.39c0.12-0.13,0.26-0.28,0.35-0.39l1.58-1.97l-0.61,2.42l0,0c-0.08,0.31-0.12,0.63-0.11,0.95
				c0.01,0.31,0.06,0.62,0.15,0.92c0.1,0.3,0.24,0.58,0.41,0.84c0.02,0.03,0.04,0.05,0.06,0.07c0.01-0.01,0.01-0.03,0.02-0.05
				c0.13-0.3,0.27-0.6,0.43-0.88c0.15-0.29,0.33-0.56,0.49-0.83c0.18-0.27,0.36-0.53,0.54-0.79c0.19-0.25,0.38-0.51,0.58-0.76
				l0.6-0.73c0.42-0.47,0.84-0.94,1.28-1.39c0.43-0.46,0.89-0.88,1.34-1.32c0.46-0.42,0.93-0.84,1.4-1.25l1.43-1.19
				c0.24-0.2,0.48-0.4,0.71-0.59l0.67-0.6l0.65-0.63l0.63-0.65c0.2-0.23,0.41-0.45,0.6-0.67c0.19-0.23,0.39-0.46,0.58-0.7
				c0.37-0.47,0.73-0.96,1.06-1.46c0.33-0.5,0.64-1.02,0.92-1.55c0.28-0.53,0.53-1.08,0.75-1.63c0.22-0.55,0.41-1.12,0.57-1.7
				c0.15-0.58,0.27-1.16,0.35-1.75c0.04-0.29,0.06-0.59,0.08-0.88c0.01-0.28,0.01-0.6-0.01-0.84l-0.22-2.54l1.23,2.22l1.1,1.98
				C84.57,63.64,84.65,62,84.5,60.37z M34.51,55.18c0.3-2.79,3.03-3.12,4.75-3.09c2.91,0.06,5.86,0.88,5.34,4
				c-0.09,0.53-0.28,1.01-0.55,1.44c-1.18,1.9-3.78,2.81-4.8,2.81C38.02,60.35,34.22,57.98,34.51,55.18z M46.33,72.2
				c-0.06,1.27-0.03,2.71,0.2,4.18c0.86,5.48-9.79,6.3-11.69-0.41c-0.6-2.13-0.28-4.34,0.3-6.19c-0.89-1.1-1.47-2.32-1.84-3.36
				c0.5,0.29,0.94,0.43,1.2,0.46c0.36,0.04,1.6-0.76,2.75-1.56c0,0,0-0.01,0-0.01c1.13-0.8,2.17-1.6,2.17-1.6s0.8,0.59,1.94,1.31
				c1.65,1.05,3.99,2.38,5.61,2.62c0.25,0.03,0.48,0.04,0.68,0.02c1.55-0.15,6.53-2.17,8.66-9.14h0C55.98,64.61,52,70.27,46.33,72.2
				z"/>
			<path class="st2" d="M56.32,58.36L56.32,58.36C55.98,64.43,52,70.1,46.33,72.03c0.12-2.57,0.62-4.46,0.64-4.55
				c0.25,0.03,0.48,0.04,0.68,0.02C49.21,67.35,54.19,65.32,56.32,58.36"/>
			<path class="st3" d="M41.36,64.85c1.65,1.05,3.99,2.38,5.61,2.62c-0.03,0.1-0.53,1.98-0.64,4.55c-0.06,1.27-0.03,2.71,0.2,4.18
				c0.86,5.48-9.79,6.3-11.69-0.41c-0.6-2.13-0.28-4.34,0.3-6.19c0.78-2.5,2.03-4.35,2.11-4.46c0,0,0-0.01,0-0.01
				c1.13-0.8,2.17-1.6,2.17-1.6S40.22,64.13,41.36,64.85"/>
			<path class="st4" d="M44.06,57.36c-1.18,1.9-3.78,2.81-4.8,2.81c-1.25,0-5.05-2.37-4.75-5.17c0.3-2.79,3.03-3.12,4.75-3.09
				c2.91,0.06,5.86,0.88,5.34,4C44.52,56.45,44.32,56.93,44.06,57.36"/>
			<path class="st2" d="M37.25,65.14c-0.08,0.11-1.33,1.96-2.11,4.46c-0.89-1.1-1.47-2.32-1.84-3.36c0.5,0.29,0.94,0.43,1.2,0.46
				C34.87,66.75,36.11,65.95,37.25,65.14"/>
			<path class="st5" d="M32.3,10.53c-2.1,0.94-9.17,16.21-9.16,21.87c0.01,2.62,5.53-3.05,5.53-3.05s0.73-2.33,0-3.64
				c0,0,1.02-0.44,1.89,0.73c0,0,0-2.36,1.75-4.38c0,0,0.58,1.76,1.6,1.91c0,0,1.89-2.18,2.18-3.64
				C36.37,18.88,35.2,9.23,32.3,10.53"/>
			<path class="st5" d="M62.92,9.65C65.1,10.63,73.41,25,72.98,32.18c-0.16,2.72-6.29-2.98-6.29-2.98s-0.76-2.42,0-3.78
				c0,0-1.06-0.45-1.96,0.76c0,0,0-2.46-1.81-4.55c0,0-0.6,1.83-1.66,1.98c0,0-1.96-2.27-2.27-3.78
				C58.68,18.32,59.9,8.29,62.92,9.65"/>
		</g>
		<g>
			<path class="st6" d="M82.61,50.58c0,0-4.37-5.51-4.94-8.07c-0.67-2.99,2.17-5.73,2.17-5.73c-1.51-0.67-3.09-0.25-3.09-0.25
				c1.3-2.36,0.67-5.55,0.67-5.55L76,31.21l-4.5-10.61l2.38,5.96c0.15,0.64,1.61,6.95-0.99,9.88l1.53-0.91c0,0-0.1,6.03-3.54,7
				c0,0,1.64,1.51,3.54,1.51c0,0,5.7,9.32,3.53,14.53c0,0-0.18-3.3-2.36-4.75c0,0,3.44,14.27-7.43,19.38c0,0,1.63-1.63,1.99-3.8
				c0,0-9.78,12.14-24,12.86l2.99-1.92c0,0-13.9,3.53-24.45-5.87c0,0,0.18,1.63,1.45,2.9c0,0-11.76-4.45-10.77-20.15l0,0
				c-0.14,0.34-4.12,10.48,3.01,19.58c0.66,0.85,1.28,1.59,1.74,2.32c2.83,4.5,3.78,5.58,3.78,5.58l0.94-1.97
				c1.53,1.71,2.89,2.5,5.25,4.72c0,0,7.25,3.75,14.87,2.86h1.18c2.73-0.09,10.21-1.64,11.92-2.21l3.19-1.53
				c0,0,1.07-0.12,4.01-3.07c0,0-0.62,1.61,1.3,3.42c0,0,1.5-4.24,8.38-9.68c6.88-5.43,7.79-13.45,7.79-13.45l1.74,3.26
				C84.47,67.06,86.51,60.51,82.61,50.58"/>
			<path class="st6" d="M42.88,19.07c-3.2,0.03-5.67,1.58-5.67,1.58s1.44-3.06,1.72-3.97c0.28-0.9-3.36-9.6-6.73-8.78
				C37.39,5.38,42.88,19.07,42.88,19.07"/>
			<path class="st6" d="M57.17,21.22l-3.88-1.81c0,0,3.78-10.53,7.44-12.03C55.89,14.65,57.17,21.22,57.17,21.22"/>
			<path class="st7" d="M84.47,67.06l-1.05-2.12c-0.51,6.22-5.29,12.43-10.53,16.6c-5.24,4.16-4.81,7.97-4.81,7.97
				c-2.08,0.47-4.26-2.53-4.26-2.53c-23.12,11.99-35.17-0.21-36.1-1.21c0.59,0.57,5.4,4.74,19.07,3.39
				c14.67-1.45,22.1-12.86,22.1-12.86v1.63c0,0,1.63,0,7.43-6.68c5.8-6.69,4.39-15.18,4.39-15.18c1.49,0.59,1.95,2.52,1.95,2.52
				c0-6.2-3.78-13.25-3.9-13.47c1.37,1.97,3.31,5.11,4.66,8.72C86.18,60.16,84.47,67.06,84.47,67.06"/>
			<path class="st8" d="M44.51,55.92c-0.04,0.24-0.1,0.46-0.18,0.68c0.07-1.52-1.84-3.28-5.16-3.32c-4.06-0.06-4.77,1.98-4.77,1.98
				c0-0.08,0.01-0.17,0.01-0.25c0.3-2.79,3.03-3.12,4.75-3.09C42.07,51.98,45.02,52.8,44.51,55.92"/>
			<path class="st9" d="M35.98,20.33c-0.29,1.45-2.18,3.64-2.18,3.64c-1.02-0.14-1.6-1.91-1.6-1.91c-1.74,2.02-1.74,4.38-1.74,4.38
				c-0.87-1.16-1.89-0.73-1.89-0.73c0.73,1.31,0,3.64,0,3.64s-0.42,0.44-1.04,1.01c-1.45-7.52,6.03-19.58,7.13-17.91
				C35.75,15.06,36.17,19.39,35.98,20.33"/>
			<path class="st9" d="M67.92,30.35c-0.78-0.65-1.33-1.16-1.33-1.16s-0.76-2.42,0-3.78c0,0-1.06-0.45-1.96,0.76
				c0,0,0-2.46-1.81-4.55c0,0-0.6,1.83-1.66,1.98c0,0-1.96-2.27-2.27-3.78c-0.18-0.9,0.18-4.8,1.13-7.53l0-0.01
				C61.45,9.83,69.66,20.83,67.92,30.35"/>
			<path class="st10" d="M46.43,76.2c0.7,4.47-6.28,5.84-9.89,2.54c3.43,1.3,7.85-0.28,7.41-2.29c-0.61-2.84-0.39-6.84-0.39-6.84
				s-0.99-1.91-2.89-1.68c-1.89,0.23-1.64,7.74-1.64,7.74c-2.36-5.8,0.18-9.24-1-9.41c-0.56-0.08-1.46,0.63-2.27,1.4
				c0.66-1.48,1.33-2.45,1.37-2.51l0,0c1.13-0.8,2.17-1.6,2.17-1.6s0.8,0.59,1.94,1.31c1.65,1.05,3.99,2.38,5.61,2.62
				c-0.03,0.1-0.53,1.98-0.64,4.55C46.17,73.29,46.2,74.73,46.43,76.2"/>
			<path class="st6" d="M64.25,8.91c1.64,1.62,3.15,3.8,4.5,6.18L64.25,8.91z"/>
		</g>
		<g>
			<path class="st11" d="M32.79,47.19c1.43-0.41,2.33-1.67,2.01-2.81c-0.33-1.14-1.75-1.74-3.19-1.33c-0.1,0.03-0.2,0.06-0.3,0.1
				c0.8,0.37,0.66,1.83-0.41,1.83c-0.57,0-0.87-0.41-0.92-0.85c-0.39,0.52-0.55,1.14-0.38,1.73C29.93,47,31.35,47.6,32.79,47.19"/>
			<path class="st11" d="M50.91,47.49c1.75,0.5,3.47-0.17,3.85-1.5c0.23-0.79-0.08-1.64-0.74-2.3c0.08,0.63-0.29,1.32-1.11,1.32
				c-1.34,0-1.47-1.88-0.4-2.25c-0.08-0.03-0.16-0.05-0.24-0.08c-1.75-0.5-3.47,0.17-3.85,1.5C48.05,45.52,49.16,47,50.91,47.49"/>
			<path class="st11" d="M46.76,72.41c5.1-1.89,8.96-6.85,9.84-12.49c0.01,0.03,0.02,0.06,0.03,0.09c0.03,0.14,0.06,0.27,0.08,0.41
				c0.01,0.14,0.04,0.28,0.03,0.41c0.01,0.27-0.01,0.54-0.04,0.79c-0.01,0.12-0.03,0.25-0.05,0.36c-0.02,0.12-0.03,0.23-0.06,0.33
				c-0.04,0.21-0.08,0.39-0.12,0.54c-0.08,0.3-0.13,0.47-0.13,0.47s0.13-0.12,0.33-0.38c0.09-0.13,0.21-0.29,0.32-0.48
				c0.11-0.19,0.23-0.42,0.33-0.68c0.1-0.26,0.19-0.56,0.24-0.89c0.04-0.16,0.03-0.34,0.05-0.52c0-0.18-0.02-0.36-0.03-0.55
				c-0.07-0.38-0.17-0.76-0.41-1.13l-0.18-0.28c-0.06-0.09-0.12-0.14-0.18-0.21L56.63,58l-0.21-0.21c-0.25-0.23-0.49-0.47-0.74-0.71
				c-0.24-0.24-0.47-0.48-0.7-0.7c-0.45-0.47-0.87-0.91-1.23-1.28c-0.73-0.77-1.22-1.28-1.22-1.28s0.05,0.18,0.16,0.47
				c0.11,0.29,0.3,0.71,0.56,1.18c0.26,0.47,0.6,1,1.01,1.54c0.39,0.51,0.85,1.02,1.34,1.5c-0.11,0.33-0.22,0.65-0.34,0.97
				l-0.27,0.62c-0.09,0.21-0.17,0.42-0.28,0.62c-0.21,0.4-0.41,0.81-0.66,1.18c-0.12,0.19-0.23,0.39-0.36,0.57l-0.4,0.54
				c-0.13,0.19-0.28,0.35-0.42,0.52c-0.15,0.17-0.28,0.35-0.45,0.5l-0.47,0.48l-0.5,0.44c-0.34,0.28-0.7,0.56-1.07,0.8
				c-0.18,0.13-0.38,0.24-0.57,0.35c-0.19,0.12-0.39,0.21-0.59,0.3c-0.2,0.1-0.4,0.17-0.61,0.26c-0.1,0.04-0.2,0.07-0.31,0.1
				l-0.15,0.05L48,66.86c-0.1,0.02-0.18,0.05-0.3,0.07l-0.17,0.03l-0.03,0h-0.01l-0.02,0l-0.07,0c-0.18,0.01-0.38-0.01-0.58-0.05
				c-0.41-0.08-0.83-0.21-1.25-0.37c-0.42-0.16-0.83-0.35-1.24-0.55c-0.82-0.4-1.62-0.87-2.4-1.35c-0.39-0.24-0.78-0.49-1.17-0.75
				c-0.31-0.21-0.63-0.43-0.94-0.65c-0.09-0.98-0.12-2-0.13-2.58c1.68-0.29,4.85-1.75,5.33-4.65c0.19-1.16-0.03-2.13-0.66-2.89
				c-0.92-1.11-2.67-1.69-5.21-1.75c-3.17-0.07-5.05,1.2-5.3,3.57c-0.12,1.16,0.34,2.35,1.34,3.46c1.03,1.14,2.45,1.97,3.42,2.23
				c0.01,0.58,0.04,1.63,0.13,2.66c-0.53,0.4-1.07,0.8-1.61,1.19c-0.62,0.44-1.25,0.88-1.89,1.27c-0.16,0.09-0.32,0.19-0.47,0.26
				c-0.08,0.04-0.15,0.08-0.22,0.1c-0.04,0.02-0.07,0.03-0.09,0.04c-0.05,0.02-0.01,0,0.01,0.01c-0.01,0-0.02,0-0.03,0l-0.02,0
				c-0.03-0.01-0.06-0.01-0.1-0.02c-0.07-0.02-0.15-0.04-0.22-0.07c-0.15-0.05-0.31-0.13-0.46-0.2c-0.61-0.32-1.16-0.78-1.6-1.33
				c-0.45-0.55-0.76-1.16-1.01-1.87c-0.26-0.71-0.48-1.43-0.65-2.16c-0.34-1.45-0.43-2.95-0.12-4.37c0.04-0.17,0.07-0.36,0.13-0.53
				c0.06-0.17,0.09-0.33,0.16-0.51c0.14-0.38,0.25-0.67,0.43-0.98c0.35-0.62,0.81-1.2,1.32-1.72c1.02-1.05,2.25-1.93,3.58-2.54
				c1.33-0.62,2.78-0.97,4.25-0.97c0.18,0,0.37,0.01,0.55,0.01c0.19,0.01,0.37,0.03,0.55,0.04c0.37,0.03,0.74,0.09,1.11,0.16
				c0.74,0.14,1.47,0.36,2.22,0.62c-0.61-0.48-1.31-0.88-2.05-1.18c-0.37-0.15-0.76-0.27-1.15-0.37c-0.2-0.04-0.39-0.09-0.59-0.12
				c-0.2-0.03-0.4-0.06-0.6-0.08c-0.81-0.07-1.63-0.04-2.43,0.11c-0.8,0.14-1.59,0.39-2.33,0.71c-0.74,0.33-1.45,0.74-2.11,1.21
				c-0.66,0.47-1.27,1-1.83,1.6c-0.56,0.59-1.05,1.24-1.46,1.97c-0.1,0.19-0.19,0.37-0.28,0.57l-0.02,0.04l-0.02,0.05l-0.02,0.07
				l-0.05,0.14l-0.1,0.27c-0.07,0.18-0.12,0.4-0.18,0.6c-0.06,0.2-0.09,0.4-0.14,0.6c-0.16,0.8-0.23,1.62-0.19,2.44
				c0.03,0.81,0.15,1.61,0.33,2.39c0.18,0.78,0.42,1.54,0.68,2.28c0.26,0.74,0.65,1.55,1.18,2.19c0.44,0.54,0.96,1.01,1.56,1.38
				c0.44,1.18,1,2.22,1.69,3.12c-0.66,2.26-0.74,4.39-0.22,6.22c0.97,3.45,4.17,5.18,7.24,5.18c0.57,0,1.14-0.06,1.68-0.18
				c2.69-0.59,4.19-2.48,3.83-4.82C46.77,74.83,46.72,73.56,46.76,72.41 M47.45,68.04l0.11,0l0.03,0l0.01,0l0.01,0l0.03,0l0.04-0.01
				L47.86,68c0.11-0.01,0.25-0.05,0.38-0.08c0.52-0.13,0.97-0.31,1.42-0.52c0.22-0.11,0.45-0.21,0.66-0.34
				c0.21-0.12,0.43-0.24,0.63-0.38c0.42-0.26,0.8-0.56,1.18-0.87l0.55-0.48l0.51-0.52c0.18-0.17,0.33-0.36,0.49-0.55
				c0.16-0.19,0.32-0.37,0.46-0.57l0.43-0.59c0.03-0.05,0.06-0.1,0.1-0.15c-1.45,3.72-4.3,6.8-7.84,8.28
				c0.12-1.44,0.34-2.59,0.47-3.18C47.35,68.04,47.4,68.04,47.45,68.04 M36.02,57.68c-0.01-0.01-0.02-0.02-0.03-0.03
				c0.27-0.12,0.45-0.31,0.57-0.5c0.26-0.39,0.37-0.79,0.43-1.2c0.03-0.2,0.05-0.41,0.05-0.61c0-0.2-0.02-0.41-0.07-0.62
				c-0.03-0.11-0.06-0.22-0.14-0.35c-0.03-0.04-0.04-0.06-0.08-0.1c-0.05-0.05-0.11-0.09-0.17-0.12c-0.03-0.01-0.04-0.01-0.06-0.02
				l0,0c0.05,0.01-0.07-0.02-0.06-0.02l0,0l-0.01,0l-0.02,0l-0.05,0c-0.06,0-0.12,0-0.19,0.02c-0.06,0.01-0.12,0.04-0.18,0.07
				c-0.11,0.06-0.19,0.15-0.24,0.23c-0.1,0.17-0.13,0.31-0.14,0.44c-0.02,0.13,0,0.23,0,0.32c0.02,0.17,0.06,0.27,0.06,0.27
				s0.04-0.09,0.11-0.24c0.04-0.07,0.08-0.16,0.14-0.24c0.06-0.08,0.13-0.18,0.2-0.22c0.04-0.03,0.07-0.04,0.1-0.03
				c0,0.02,0.01,0.07,0.01,0.13c0.01,0.12,0,0.28-0.03,0.44c-0.03,0.16-0.06,0.32-0.11,0.47c-0.09,0.31-0.23,0.61-0.38,0.78
				c-0.07,0.09-0.14,0.12-0.16,0.12c-0.02,0-0.01-0.01-0.05-0.02c-0.02-0.01-0.04-0.02-0.07-0.04c-0.03-0.01-0.06-0.04-0.08-0.07
				c-0.06-0.04-0.11-0.11-0.15-0.15c-0.04-0.05-0.07-0.08-0.1-0.11c-0.14-0.38-0.22-0.79-0.18-1.23c0.18-1.73,1.52-2.6,3.98-2.6
				c0.07,0,0.15,0,0.22,0c2.18,0.04,3.69,0.51,4.39,1.35c0.43,0.51,0.56,1.17,0.42,2.02c-0.07,0.42-0.22,0.81-0.42,1.16
				c-0.04,0.03-0.09,0.07-0.16,0.12c-0.07,0.04-0.15,0.1-0.24,0.14c-0.05,0.03-0.09,0.04-0.14,0.06c-0.05,0.02-0.1,0.03-0.15,0.04
				c-0.21,0.03-0.44-0.01-0.7-0.21c-0.26-0.2-0.51-0.53-0.7-0.9c-0.19-0.37-0.33-0.79-0.37-1.15c-0.01-0.09-0.01-0.18-0.01-0.24
				l0-0.05c0-0.01,0.01-0.02,0.01-0.03c0-0.02,0-0.02,0-0.02c0,0,0.01-0.02-0.02,0.01c-0.01,0.01-0.02,0.01-0.03,0.02
				c-0.01,0-0.03,0-0.01,0l0.03-0.02l0.01-0.01c0.01,0,0.03-0.01,0.05-0.01c0.02,0,0.04,0,0.07-0.01c0.02,0.01,0.04,0,0.06,0.01
				c0.07,0.02,0.16,0.08,0.24,0.16c0.08,0.08,0.15,0.18,0.21,0.26c0.13,0.18,0.2,0.28,0.2,0.28s0.07-0.12,0.08-0.35
				c0.01-0.12,0-0.26-0.06-0.42c-0.06-0.16-0.18-0.37-0.44-0.49c-0.06-0.03-0.13-0.05-0.2-0.07c-0.07-0.01-0.14-0.01-0.21-0.01
				c-0.07,0.01-0.13,0.02-0.2,0.03l-0.01,0l-0.06,0.02l-0.01,0l-0.02,0.01l-0.03,0.01c0,0-0.04,0.02-0.07,0.04
				c-0.03,0.02-0.06,0.04-0.08,0.07c-0.06,0.06-0.08,0.09-0.1,0.13c-0.03,0.04-0.05,0.08-0.06,0.12l-0.04,0.11l-0.03,0.1
				c-0.03,0.14-0.04,0.27-0.05,0.4c-0.01,0.26,0.03,0.51,0.08,0.76c0.05,0.25,0.13,0.5,0.22,0.74c0.09,0.24,0.22,0.48,0.36,0.7
				c0.15,0.22,0.31,0.44,0.53,0.62c0.21,0.18,0.46,0.33,0.73,0.42c0.02,0.01,0.04,0.01,0.06,0.02c-1.15,0.85-2.54,1.26-3.11,1.26
				C38.68,59.63,37.17,58.96,36.02,57.68 M36.28,54.73L36.28,54.73c0.02,0.01,0.04,0.02,0.05,0.03c-0.03,0-0.06-0.02-0.08-0.04
				c0.02,0,0.04,0.01,0.06,0.02C36.29,54.74,36.24,54.72,36.28,54.73 M34.2,67.22c0.02,0,0.04,0.01,0.07,0.01l0.05,0.01l0.02,0
				c0.03,0-0.06,0,0.08,0l0.01,0l0.08,0c0.11-0.01,0.25-0.04,0.29-0.06c0.07-0.02,0.13-0.04,0.18-0.07c0.11-0.05,0.21-0.09,0.3-0.14
				c0.11-0.05,0.21-0.11,0.31-0.17c-0.22,0.46-0.46,0.98-0.68,1.55c-0.01,0.03-0.02,0.06-0.03,0.08
				C34.63,68.06,34.4,67.65,34.2,67.22 M45.9,76.29c0.33,2.09-1.33,3.23-2.99,3.59c-2.99,0.65-6.66-0.75-7.64-4.23
				c-1.27-4.51,1.88-9.51,2.29-10.13c0.07-0.05,0.14-0.1,0.21-0.15c0.53-0.38,1.05-0.76,1.56-1.15c0.28,0.2,0.56,0.39,0.84,0.58
				c0.1,0.07,0.21,0.13,0.31,0.2c-0.09,0.14-0.21,0.31-0.32,0.51c-0.12,0.21-0.25,0.45-0.38,0.72c-0.13,0.27-0.25,0.56-0.38,0.88
				c-0.12,0.32-0.24,0.65-0.34,1.01c-0.12,0.35-0.19,0.72-0.27,1.1c-0.08,0.38-0.12,0.77-0.18,1.15c-0.03,0.39-0.07,0.78-0.09,1.16
				c0,0.38,0.01,0.76,0.01,1.12c0.03,0.36,0.06,0.71,0.09,1.04c0.03,0.33,0.1,0.64,0.15,0.92c0.05,0.28,0.09,0.54,0.16,0.77
				c0.06,0.22,0.11,0.42,0.16,0.58c0.09,0.32,0.14,0.5,0.14,0.5s-0.01-0.19-0.04-0.52c-0.01-0.16-0.03-0.37-0.05-0.6
				c-0.03-0.23-0.03-0.49-0.04-0.77c0-0.28-0.03-0.59-0.01-0.91c0.01-0.32,0.02-0.66,0.03-1.01c0.03-0.35,0.07-0.71,0.1-1.07
				c0.05-0.36,0.11-0.73,0.17-1.09c0.09-0.36,0.15-0.72,0.26-1.07c0.1-0.35,0.2-0.69,0.32-1.01c0.11-0.33,0.24-0.63,0.36-0.92
				c0.13-0.29,0.26-0.55,0.38-0.79c0.13-0.24,0.25-0.46,0.36-0.64c0.11-0.19,0.22-0.34,0.31-0.47c0,0,0,0,0,0
				c0.8,0.49,1.61,0.97,2.47,1.39c0.43,0.21,0.87,0.41,1.33,0.59c0.33,0.13,0.67,0.24,1.02,0.33C45.93,69.19,45.32,72.61,45.9,76.29
				"/>
			<path class="st11" d="M21.21,81.76c0.31,0.53,0.62,1.07,0.9,1.61c0.14,0.27,0.27,0.55,0.38,0.82c0.06,0.14,0.11,0.28,0.16,0.41
				l0.07,0.2c0.02,0.06,0.04,0.14,0.05,0.17l0.13,0.61l0.57-0.19c0.11-0.04,0.17-0.07,0.25-0.1c0.07-0.03,0.14-0.07,0.2-0.11
				c0.13-0.08,0.26-0.17,0.37-0.27c0.23-0.2,0.44-0.44,0.59-0.71c0.06-0.1,0.11-0.21,0.15-0.31c0.16,0.2,0.33,0.4,0.5,0.59
				c0.23,0.26,0.47,0.51,0.72,0.75c0.25,0.24,0.51,0.47,0.77,0.7c0.27,0.22,0.54,0.44,0.81,0.65c0.28,0.2,0.56,0.41,0.85,0.6
				c0.29,0.19,0.58,0.37,0.88,0.55c0.3,0.18,0.6,0.34,0.91,0.5c0.31,0.15,0.62,0.31,0.93,0.44c0.31,0.14,0.63,0.27,0.95,0.4
				c0.32,0.12,0.64,0.23,0.97,0.34c0.33,0.1,0.65,0.21,0.99,0.29l0.5,0.13l0.5,0.1c0.33,0.07,0.67,0.12,1.01,0.17
				c0.34,0.05,0.68,0.08,1.01,0.11c0.34,0.03,0.68,0.04,1.02,0.04c-0.32-0.11-0.65-0.21-0.97-0.31c-0.32-0.11-0.64-0.2-0.95-0.31
				c-0.31-0.11-0.63-0.21-0.94-0.33c-0.31-0.12-0.62-0.23-0.93-0.35c-0.31-0.12-0.61-0.25-0.92-0.37c-0.3-0.13-0.6-0.27-0.9-0.4
				c-0.3-0.14-0.59-0.28-0.88-0.43c-0.29-0.15-0.58-0.31-0.86-0.47c-0.28-0.17-0.56-0.33-0.84-0.51c-0.28-0.17-0.55-0.36-0.81-0.54
				c-0.27-0.19-0.53-0.38-0.79-0.58c-0.26-0.2-0.51-0.41-0.75-0.62c-0.25-0.21-0.49-0.43-0.72-0.65c-0.23-0.23-0.46-0.45-0.69-0.68
				c-0.22-0.23-0.44-0.47-0.64-0.72c-0.2-0.24-0.41-0.51-0.56-0.74l-1.11-1.66l0.1,1.95v0c0.02,0.42-0.06,0.81-0.24,1.14
				c-0.09,0.15-0.2,0.29-0.33,0.4c-0.04-0.1-0.07-0.19-0.11-0.28c-0.13-0.31-0.27-0.6-0.41-0.89c-0.29-0.58-0.6-1.14-0.94-1.69
				c-0.33-0.55-0.68-1.08-1.04-1.61c-0.36-0.53-0.72-1.05-1.1-1.56c-0.37-0.51-0.76-1.01-1.15-1.52l-0.56-0.75
				c-0.19-0.25-0.34-0.5-0.52-0.75c-0.17-0.25-0.32-0.52-0.48-0.78c-0.16-0.26-0.3-0.53-0.44-0.8l-0.21-0.41l-0.19-0.42l-0.19-0.42
				l-0.17-0.42l-0.17-0.42l-0.15-0.43c-0.11-0.29-0.2-0.58-0.28-0.87c-0.18-0.58-0.32-1.18-0.43-1.78c-0.12-0.6-0.2-1.21-0.27-1.82
				c-0.05-0.61-0.09-1.22-0.09-1.84c-0.01-1.23,0.09-2.45,0.28-3.67c0.1-0.61,0.22-1.21,0.37-1.8c0.15-0.59,0.33-1.19,0.54-1.73
				l0.78-2.03l-1.64,1.41l-0.55,0.47c0.02-0.18,0.04-0.36,0.07-0.54c0.04-0.31,0.11-0.62,0.17-0.93c0.07-0.31,0.13-0.62,0.21-0.92
				c0.3-1.23,0.71-2.43,1.19-3.6c0.48-1.17,1.04-2.32,1.66-3.42c0.31-0.55,0.64-1.1,0.99-1.63c0.17-0.27,0.35-0.53,0.53-0.79
				c0.18-0.26,0.37-0.52,0.55-0.75l0.12-0.16l0-0.19c0-0.17-0.01-0.32-0.02-0.47l-0.04-0.46c-0.03-0.31-0.06-0.61-0.11-0.92
				c-0.09-0.61-0.2-1.22-0.36-1.82c-0.15-0.6-0.35-1.2-0.6-1.79c-0.17-0.39-0.37-0.77-0.6-1.13c0.02-0.01,0.04-0.02,0.06-0.03
				c0.2-0.07,0.4-0.11,0.6-0.12c0.39-0.02,0.73,0.1,1.03,0.36l1.76,1.53l-0.9-2.16c-0.04-0.1-0.09-0.24-0.14-0.37
				c-0.04-0.13-0.09-0.26-0.13-0.39c-0.08-0.26-0.15-0.53-0.22-0.81c-0.07-0.27-0.13-0.55-0.18-0.82c-0.06-0.27-0.1-0.55-0.15-0.83
				c-0.04-0.28-0.08-0.56-0.11-0.84c-0.03-0.28-0.06-0.56-0.08-0.84c-0.02-0.25-0.03-0.51-0.04-0.77l0.92,0.5l0.59,0.32l0.19-0.65
				c0.5-1.72,1.05-3.45,1.62-5.15c0.57-1.71,1.17-3.41,1.81-5.09c0.64-1.68,1.31-3.35,2.05-4.99c0.74-1.63,1.53-3.25,2.46-4.76
				c0.46-0.75,0.96-1.48,1.53-2.13c0.56-0.65,1.19-1.22,1.91-1.44c0.7-0.22,1.48-0.08,2.2,0.31c0.72,0.38,1.37,0.96,1.96,1.59
				c0.59,0.63,1.13,1.33,1.64,2.06c0.5,0.73,0.97,1.49,1.41,2.26c0.44,0.77,0.86,1.57,1.25,2.37c0.27,0.55,0.53,1.11,0.77,1.67
				c-0.02,0-0.04,0-0.06,0l-0.56,0.04c-0.19,0.01-0.37,0.06-0.55,0.09l-0.27,0.05l-0.27,0.07c-0.18,0.05-0.35,0.09-0.52,0.16
				c-0.17,0.07-0.34,0.13-0.51,0.2c-0.16,0.08-0.33,0.15-0.49,0.24c-0.16,0.09-0.31,0.18-0.46,0.28c-0.15,0.1-0.3,0.2-0.44,0.31
				c-0.14,0.11-0.28,0.23-0.41,0.35c-0.13,0.12-0.25,0.25-0.37,0.39c0.32-0.16,0.63-0.3,0.95-0.43c0.32-0.13,0.64-0.24,0.96-0.35
				c0.16-0.05,0.32-0.09,0.48-0.14c0.16-0.05,0.32-0.08,0.49-0.12c0.16-0.04,0.32-0.06,0.49-0.09l0.24-0.04l0.24-0.02
				c0.16-0.01,0.32-0.04,0.49-0.03l0.48,0.01c0.16,0.01,0.32,0.04,0.48,0.05c0.08,0.01,0.16,0.01,0.24,0.03l0.23,0.05
				c0.15,0.04,0.31,0.06,0.46,0.11c0.15,0.05,0.3,0.1,0.45,0.15c0.15,0.04,0.3,0.11,0.44,0.18c0.14,0.07,0.29,0.13,0.44,0.2
				l0.25,0.11l0.25-0.1c0.19-0.08,0.42-0.16,0.64-0.23c0.22-0.08,0.45-0.13,0.68-0.2c0.23-0.06,0.46-0.11,0.69-0.16
				c0.23-0.04,0.47-0.1,0.7-0.13c0.24-0.03,0.47-0.07,0.71-0.09c0.24-0.02,0.47-0.04,0.71-0.05l0.71-0.01
				c0.24,0,0.48,0.02,0.71,0.03c0.24,0,0.48,0.04,0.71,0.07c0.24,0.04,0.48,0.04,0.71,0.1l0.71,0.15c0.24,0.05,0.46,0.14,0.7,0.2
				c0.23,0.07,0.47,0.12,0.7,0.21c0.23,0.08,0.46,0.16,0.7,0.23c0.24,0.06,0.46,0.17,0.7,0.24c0.24,0.08,0.48,0.16,0.73,0.23
				c-0.18-0.18-0.37-0.35-0.57-0.51c-0.2-0.16-0.39-0.34-0.62-0.46c-0.22-0.14-0.44-0.26-0.66-0.39c-0.2-0.13-0.42-0.21-0.64-0.3
				c0.28-0.73,0.57-1.46,0.87-2.18c0.36-0.85,0.74-1.69,1.15-2.51c0.4-0.83,0.83-1.64,1.29-2.43c0.46-0.79,0.95-1.56,1.5-2.27
				c0.55-0.7,1.16-1.37,1.85-1.78c0.34-0.2,0.7-0.32,1.02-0.3c0.16,0.01,0.32,0.05,0.48,0.12c0.07,0.04,0.12,0.05,0.23,0.13
				l0.07,0.05l0.01,0.01l0,0l0.03,0.03l0.13,0.1c0.71,0.54,1.36,1.16,1.96,1.84c0.61,0.67,1.17,1.39,1.7,2.13
				c1.06,1.49,1.99,3.08,2.85,4.71c0.86,1.63,1.64,3.31,2.36,5.01c0.72,1.7,1.39,3.43,2.02,5.17c0.31,0.87,0.61,1.75,0.9,2.63
				c0.29,0.88,0.57,1.77,0.82,2.64l0.23,0.8l0.64-0.52l0.89-0.73l0,0.12l-0.02,0.4c0,0.13-0.02,0.26-0.04,0.4
				c-0.02,0.13-0.03,0.26-0.05,0.4c-0.04,0.26-0.08,0.53-0.14,0.79c-0.02,0.13-0.05,0.26-0.09,0.39c-0.03,0.13-0.06,0.26-0.1,0.39
				c-0.07,0.26-0.15,0.52-0.23,0.77c-0.09,0.25-0.17,0.51-0.27,0.76c-0.05,0.12-0.1,0.25-0.15,0.37c-0.05,0.12-0.11,0.25-0.16,0.35
				l-1.33,2.76l2.2-2.13c0.17-0.17,0.36-0.3,0.56-0.37c0.2-0.08,0.43-0.11,0.66-0.1c0.2,0.01,0.41,0.06,0.61,0.13
				c-0.1,0.09-0.2,0.18-0.29,0.27c-0.11,0.11-0.21,0.24-0.31,0.36c-0.38,0.5-0.63,1.06-0.81,1.63c-0.18,0.56-0.29,1.14-0.35,1.71
				c-0.03,0.29-0.05,0.57-0.06,0.86c-0.01,0.14-0.01,0.29-0.01,0.43c0,0.15,0,0.28,0.01,0.45l0.01,0.17l0.12,0.14
				c0.32,0.39,0.64,0.82,0.95,1.24c0.31,0.42,0.61,0.85,0.91,1.29c0.59,0.87,1.15,1.76,1.68,2.67c1.05,1.82,1.98,3.71,2.71,5.67
				c0.72,1.96,1.25,3.99,1.44,6.05c0.15,1.63,0.07,3.27-0.3,4.84L83,63.06l-1.23-2.22l0.22,2.54c0.02,0.24,0.02,0.56,0.01,0.84
				c-0.01,0.29-0.04,0.59-0.08,0.88c-0.07,0.59-0.19,1.17-0.35,1.75c-0.16,0.57-0.34,1.14-0.57,1.7c-0.22,0.55-0.47,1.1-0.75,1.63
				c-0.28,0.53-0.59,1.05-0.92,1.55c-0.33,0.51-0.69,0.99-1.06,1.46c-0.18,0.24-0.38,0.46-0.58,0.7c-0.2,0.23-0.4,0.45-0.6,0.67
				l-0.63,0.65l-0.65,0.63l-0.67,0.6c-0.23,0.2-0.47,0.4-0.71,0.59L73,78.22c-0.47,0.41-0.94,0.83-1.4,1.25
				c-0.45,0.44-0.91,0.86-1.34,1.32c-0.44,0.44-0.86,0.92-1.28,1.39l-0.6,0.73c-0.2,0.25-0.38,0.51-0.58,0.76
				c-0.19,0.26-0.36,0.52-0.54,0.79c-0.17,0.28-0.34,0.54-0.49,0.83c-0.16,0.28-0.3,0.58-0.43,0.88c-0.01,0.01-0.01,0.03-0.02,0.05
				c-0.02-0.02-0.04-0.05-0.06-0.07c-0.18-0.26-0.32-0.55-0.41-0.84c-0.1-0.3-0.15-0.61-0.15-0.92c0-0.31,0.03-0.63,0.11-0.95l0,0
				l0.61-2.42l-1.58,1.97c-0.09,0.11-0.22,0.26-0.35,0.39c-0.13,0.13-0.26,0.26-0.39,0.39c-0.27,0.26-0.56,0.51-0.85,0.74
				c-0.59,0.47-1.21,0.91-1.86,1.31c-0.32,0.2-0.65,0.4-0.99,0.58c-0.34,0.18-0.67,0.36-1.02,0.53c-0.34,0.17-0.69,0.33-1.04,0.49
				c-0.35,0.15-0.71,0.3-1.07,0.44c-0.36,0.15-0.72,0.27-1.08,0.4c-0.37,0.12-0.73,0.25-1.1,0.36c-0.37,0.11-0.74,0.22-1.12,0.32
				c-0.37,0.11-0.75,0.19-1.13,0.3c-0.38,0.1-0.76,0.18-1.14,0.28l-1.14,0.26c-0.38,0.08-0.77,0.16-1.15,0.25
				c-0.39,0.08-0.78,0.16-1.16,0.25c0.4,0.02,0.79,0.03,1.19,0.03c0.4,0,0.79-0.02,1.19-0.03c0.4-0.03,0.79-0.06,1.19-0.09
				c0.39-0.05,0.79-0.09,1.18-0.15c0.39-0.06,0.79-0.13,1.18-0.21l0.59-0.12l0.58-0.14c0.39-0.09,0.77-0.21,1.16-0.31
				c0.38-0.12,0.77-0.23,1.15-0.37c0.38-0.13,0.75-0.28,1.13-0.42c0.37-0.15,0.74-0.31,1.11-0.48c0.37-0.17,0.73-0.35,1.08-0.54
				c0.36-0.19,0.71-0.39,1.05-0.6c0.34-0.21,0.68-0.44,1.01-0.68c0.33-0.23,0.65-0.49,0.96-0.75c0.22-0.19,0.44-0.39,0.65-0.59
				c0.03,0.27,0.09,0.54,0.17,0.81c0.13,0.4,0.32,0.78,0.55,1.12c0.12,0.17,0.24,0.33,0.38,0.49c0.07,0.08,0.14,0.15,0.22,0.23
				c0.08,0.08,0.15,0.14,0.26,0.23l0.66,0.51l0.2-0.87l0.02-0.06c0.01-0.03,0.01-0.06,0.02-0.09c0.02-0.06,0.04-0.13,0.06-0.19
				c0.04-0.13,0.1-0.26,0.15-0.39c0.11-0.26,0.24-0.53,0.39-0.78c0.13-0.26,0.3-0.51,0.45-0.76c0.17-0.25,0.33-0.5,0.51-0.74
				c0.18-0.24,0.36-0.48,0.55-0.72l0.58-0.7c0.41-0.45,0.8-0.91,1.24-1.34c0.42-0.44,0.87-0.85,1.31-1.28
				c0.45-0.41,0.91-0.82,1.37-1.22l1.42-1.18c0.24-0.2,0.48-0.39,0.71-0.6l0.71-0.64l0.68-0.66l0.66-0.68
				c0.21-0.24,0.43-0.47,0.63-0.71c0.2-0.24,0.41-0.48,0.6-0.73c0.39-0.5,0.77-1.01,1.12-1.54c0.35-0.53,0.67-1.08,0.97-1.64
				c0.3-0.56,0.56-1.14,0.8-1.73c0.24-0.59,0.44-1.2,0.61-1.82c0.16-0.61,0.29-1.23,0.37-1.86l0.8,1.44l0.59,1.06l0.4-1.15
				c0.72-2.1,0.9-4.35,0.71-6.53c-0.2-2.18-0.75-4.31-1.5-6.33c-0.75-2.03-1.71-3.98-2.78-5.84c-0.54-0.93-1.11-1.84-1.72-2.74
				c-0.3-0.45-0.61-0.89-0.93-1.32c-0.28-0.39-0.57-0.76-0.88-1.14c0-0.07,0-0.14,0-0.21c0-0.13,0-0.26,0.01-0.39
				c0.01-0.26,0.03-0.52,0.06-0.78c0.06-0.51,0.15-1.02,0.31-1.5c0.15-0.48,0.36-0.93,0.64-1.3c0.07-0.09,0.14-0.18,0.22-0.26
				c0.08-0.08,0.16-0.16,0.25-0.23c0.09-0.07,0.18-0.14,0.27-0.19c0.09-0.06,0.2-0.1,0.3-0.15l0.84-0.41l-0.72-0.52
				c-0.09-0.07-0.16-0.11-0.23-0.15c-0.07-0.05-0.15-0.09-0.23-0.13c-0.15-0.08-0.31-0.15-0.47-0.22c-0.32-0.13-0.67-0.21-1.04-0.24
				c-0.21-0.01-0.42,0-0.64,0.04c0.03-0.08,0.06-0.17,0.09-0.25c0.09-0.27,0.17-0.55,0.25-0.83c0.04-0.14,0.07-0.28,0.11-0.42
				c0.04-0.14,0.07-0.28,0.09-0.42c0.06-0.28,0.11-0.57,0.15-0.86c0.02-0.14,0.03-0.29,0.05-0.43c0.02-0.14,0.03-0.29,0.04-0.44
				l0.03-0.44l0-0.44c0.01-0.29-0.03-0.59-0.04-0.88l-0.05-1.06l-0.84,0.69L76,31.21c-0.19-0.64-0.39-1.27-0.6-1.9
				c-0.29-0.89-0.59-1.77-0.91-2.65l-1.46-3.83c-0.98-1.97-2.39-5.36-2.98-6.48c-0.87-1.66-1.83-3.29-2.93-4.83
				c-0.55-0.77-1.14-1.52-1.78-2.23c-0.64-0.71-1.33-1.38-2.11-1.97L63.1,7.2l-0.04-0.03l-0.06-0.04l-0.07-0.05
				c-0.08-0.06-0.24-0.15-0.38-0.21c-0.27-0.12-0.57-0.2-0.87-0.21c-0.61-0.03-1.17,0.18-1.63,0.44c-0.91,0.55-1.57,1.3-2.16,2.05
				c-0.59,0.76-1.1,1.57-1.58,2.39c-0.48,0.82-0.91,1.65-1.33,2.5c-0.41,0.85-0.8,1.7-1.17,2.56c-0.31,0.74-0.61,1.48-0.9,2.24
				l-0.51-0.15c-0.25-0.08-0.51-0.11-0.76-0.17c-0.25-0.05-0.51-0.1-0.77-0.12c-0.26-0.02-0.52-0.06-0.78-0.08l-0.78-0.02
				c-0.26,0.01-0.52,0.02-0.78,0.03c-0.26,0.01-0.52,0.06-0.78,0.08c-0.26,0.03-0.51,0.09-0.77,0.13c-0.26,0.05-0.51,0.12-0.76,0.19
				c-0.25,0.07-0.5,0.15-0.75,0.24c-0.17,0.06-0.34,0.13-0.51,0.21c-0.08-0.04-0.17-0.08-0.25-0.12c-0.17-0.08-0.34-0.16-0.52-0.21
				c-0.18-0.06-0.36-0.12-0.54-0.17c-0.13-0.03-0.26-0.06-0.4-0.08c-0.32-0.77-0.66-1.51-1.02-2.25c-0.4-0.82-0.83-1.63-1.28-2.43
				c-0.45-0.8-0.94-1.58-1.46-2.34c-0.53-0.76-1.09-1.5-1.74-2.18c-0.65-0.68-1.36-1.33-2.24-1.8c-0.44-0.23-0.92-0.42-1.45-0.5
				C33.55,7.02,33,7.06,32.48,7.22c-0.51,0.16-0.97,0.43-1.36,0.74c-0.39,0.31-0.73,0.66-1.04,1.02c-0.62,0.72-1.15,1.49-1.63,2.28
				c-0.97,1.58-1.77,3.22-2.52,4.88c-0.75,1.66-1.43,3.35-2.07,5.05c-0.64,1.7-1.25,3.41-1.82,5.13c-0.5,1.51-0.98,3.02-1.44,4.55
				l-1.16-0.63l-0.82-0.45l0.02,0.93c0.01,0.3,0.01,0.59,0.02,0.89c0.02,0.3,0.02,0.59,0.05,0.89c0.02,0.3,0.05,0.59,0.08,0.88
				c0.03,0.29,0.07,0.59,0.11,0.88c0.05,0.29,0.09,0.59,0.15,0.88c0.06,0.29,0.12,0.58,0.19,0.87c0.04,0.17,0.09,0.35,0.14,0.52
				c-0.18-0.03-0.36-0.04-0.53-0.03c-0.32,0.02-0.62,0.08-0.9,0.18c-0.14,0.05-0.28,0.11-0.41,0.17c-0.07,0.03-0.13,0.07-0.2,0.1
				c-0.07,0.04-0.12,0.07-0.21,0.13l-0.48,0.32l0.36,0.46c0.67,0.85,1.09,1.94,1.37,3.05c0.14,0.56,0.25,1.13,0.33,1.71
				c0.04,0.29,0.07,0.58,0.1,0.87l0.03,0.43c0.01,0.08,0.01,0.16,0.01,0.24c-0.16,0.22-0.32,0.43-0.47,0.64
				c-0.19,0.27-0.37,0.54-0.55,0.82c-0.36,0.55-0.7,1.12-1.02,1.69c-0.64,1.15-1.22,2.33-1.72,3.55c-0.5,1.22-0.92,2.47-1.24,3.75
				c-0.08,0.32-0.15,0.64-0.22,0.97c-0.06,0.33-0.13,0.65-0.18,0.98c-0.05,0.33-0.1,0.66-0.13,0.99c-0.04,0.33-0.06,0.66-0.09,0.99
				l-0.12,1.32l1.02-0.87l0.15-0.13c0,0.01,0,0.01-0.01,0.02c-0.16,0.63-0.29,1.26-0.39,1.89c-0.2,1.27-0.31,2.56-0.3,3.85
				c0,0.64,0.04,1.29,0.1,1.93c0.07,0.64,0.16,1.28,0.28,1.92c0.12,0.63,0.27,1.26,0.46,1.88c0.09,0.31,0.19,0.62,0.3,0.92
				l0.16,0.46l0.18,0.45l0.18,0.45l0.2,0.44l0.2,0.44l0.22,0.43c0.15,0.29,0.3,0.57,0.47,0.85c0.17,0.28,0.32,0.56,0.51,0.83
				c0.18,0.27,0.36,0.56,0.55,0.8L18,77.19c0.38,0.5,0.76,0.99,1.13,1.49C19.63,79.34,20.57,80.65,21.21,81.76z"/>
		</g>
	</g>
</g>
</svg>
