<svg width="1001" height="295" viewBox="0 0 1001 295" fill="none" xmlns="http://www.w3.org/2000/svg">
<path d="M72.1986 38.9312H76.5638V129.51C86.7493 121.507 108.939 117.141 121.307 116.05C158.776 113.868 180.238 130.965 186.058 166.614C186.786 170.252 186.058 229.546 186.058 229.546C186.058 229.546 187.877 242.642 195.88 248.098C199.154 250.281 204.61 251.372 211.886 251.372V255.737H113.668V251.372C122.762 251.372 131.857 248.826 133.675 242.642C135.131 237.913 135.858 170.252 135.858 170.252C135.858 151.336 130.402 131.692 119.488 126.599C115.851 124.781 105.665 122.962 101.664 124.053C92.5696 126.599 78.3826 137.149 76.9276 154.246C76.5638 158.247 76.2 162.613 76.2 166.978V217.542C76.2 234.275 80.2015 244.461 88.2044 248.462C91.8421 250.281 96.2073 251.008 101.3 251.008V255.374H0.899902V251.008C12.9043 251.008 20.1796 247.007 23.4536 239.368C25.2724 234.639 26.3637 227.363 26.3637 217.542V106.228C26.3637 85.4936 21.9985 73.4892 12.9043 69.8516C10.7217 69.124 8.17528 68.3965 5.62889 68.0327V63.6675C12.9043 63.6675 20.1796 62.9399 27.455 61.1211C34.7304 59.3023 40.9145 57.4834 46.0072 54.937C51.1 52.3907 55.829 50.208 60.1942 47.6617C64.1956 45.1153 67.4696 43.2964 69.2884 41.4776L72.1986 38.9312Z" fill="white"/>
<path d="M278.455 116.05C299.19 116.05 316.287 123.689 330.474 138.604C342.842 152.427 349.39 168.433 349.39 186.985C349.39 207.72 341.751 224.817 326.836 239.004C313.013 251.372 297.007 257.92 278.455 257.92C257.72 257.92 240.259 250.281 226.436 235.366C213.704 221.543 207.52 205.537 207.52 186.985C207.52 166.25 215.159 148.789 230.074 134.966C243.897 122.234 260.266 116.05 278.455 116.05ZM264.268 123.689C263.177 123.689 262.449 124.053 261.358 124.417C251.536 126.963 247.898 140.059 250.445 163.34C251.536 172.434 253.355 182.256 256.265 193.169C263.904 221.179 272.635 239.004 283.548 247.007C287.549 249.917 291.551 251.008 295.188 249.917C305.01 247.371 309.011 234.275 306.465 210.994C305.374 201.536 303.555 191.714 300.645 181.165C293.006 153.518 284.275 135.694 273.362 127.691C270.452 125.144 267.178 123.689 264.268 123.689Z" fill="white"/>
<path d="M418.869 65.1226H423.235V117.869H449.79V122.234H423.235V207.72C423.235 226.272 427.236 235.73 434.875 235.73C440.696 235.73 446.516 231.001 452.336 221.543C452.7 221.179 452.7 220.816 452.7 220.816L455.974 223.726C449.79 234.275 444.697 241.914 440.332 245.916C431.601 254.282 421.78 258.648 410.503 258.648C391.223 258.648 379.582 249.19 375.217 229.91C373.762 223.726 373.035 216.087 373.035 207.72V128.782H349.753V124.053C370.488 118.597 387.949 108.047 402.5 92.769C410.503 83.6748 415.959 74.2168 418.869 65.1226Z" fill="white"/>
<path d="M526.545 38.9312H530.91V218.269C530.91 235.003 534.912 245.188 542.915 249.189C546.553 251.008 550.918 251.736 556.011 251.736V256.101H455.247V251.736C467.251 251.736 474.526 247.734 477.8 240.095C479.619 235.366 480.71 228.091 480.71 218.269V106.228C480.71 85.4936 476.345 73.4892 467.251 69.8515C465.068 69.124 462.522 68.3965 459.976 68.0327V63.6675C467.251 63.6675 474.526 62.9399 481.802 61.1211C489.077 59.3023 495.261 57.4834 500.354 54.937C505.447 52.3907 510.176 50.208 514.541 47.6617C518.542 45.1153 521.816 43.2964 523.635 41.4776L526.545 38.9312Z" fill="white"/>
<path d="M609.121 38.9312C619.671 38.9312 628.037 43.2964 633.858 52.3907C637.132 57.1196 638.587 62.5762 638.587 68.3965C638.587 78.9458 634.222 87.3124 625.127 93.1327C620.398 96.0429 614.942 97.498 609.121 97.498C598.572 97.498 590.569 93.1327 584.749 84.4023C581.475 79.6733 580.02 74.2168 580.02 68.3965C580.02 57.8472 584.385 49.4805 593.479 43.6602C598.572 40.3863 603.665 38.9312 609.121 38.9312ZM634.222 116.05H638.587V218.269C638.587 235.003 642.588 245.188 650.591 249.189C654.229 251.008 658.594 251.736 663.687 251.736V256.101H562.923V251.736C574.927 251.736 582.203 247.734 585.476 240.095C587.295 235.366 588.387 228.091 588.387 218.269V183.347C588.387 162.613 584.021 150.608 574.927 146.97C572.745 146.243 570.198 145.515 567.652 145.152V140.786C574.927 140.786 582.203 140.059 589.478 138.24C596.753 136.421 602.937 134.602 608.03 132.056C613.123 129.51 617.852 127.327 622.217 124.781C626.582 122.234 629.493 120.415 631.311 118.597L634.222 116.05Z" fill="white"/>
<path d="M737.532 116.05H741.897V131.692C750.991 121.507 762.996 116.05 777.91 116.05C812.832 116.414 833.203 133.511 838.296 166.614L841.934 200.081C845.208 225.181 847.754 239.732 849.937 244.461C852.483 248.826 856.848 251.372 863.032 251.372V255.737H773.181V251.372C784.458 251.372 791.37 244.824 793.189 231.729C793.916 227.363 793.916 222.998 793.189 217.905L787.732 161.157C785.186 139.331 777.91 128.055 765.906 126.236C764.087 125.872 762.268 125.872 760.449 126.236C751.355 127.691 745.899 133.875 743.716 145.152C742.261 151.699 741.897 162.249 741.897 176.436V217.542C741.897 235.73 745.899 246.279 753.538 249.553C756.084 250.645 758.631 251.008 761.541 251.008V255.374H671.69V251.008C681.875 251.008 687.696 245.188 689.878 233.547C690.97 229.182 691.333 223.726 691.333 217.542V182.62C691.333 161.885 686.604 149.881 677.51 146.243C675.328 145.515 672.781 144.788 670.599 144.424V140.059C677.874 140.059 685.149 139.331 692.061 137.513C699.336 135.694 705.52 133.875 710.977 131.328C716.07 128.782 720.799 126.599 725.164 124.053C729.165 121.507 732.439 119.688 734.258 117.869L737.532 116.05Z" fill="white"/>
<path d="M931.784 116.05C954.701 116.414 971.798 123.689 983.439 138.24C989.987 147.334 992.533 156.428 989.987 165.886C986.713 176.8 978.346 183.347 964.887 185.166L911.776 190.987C912.14 192.442 912.504 193.897 913.232 195.716C918.688 212.449 928.51 223.362 943.061 229.182C957.248 234.639 970.343 233.547 982.711 224.817C988.532 220.816 993.261 215.723 997.262 209.539L1000.54 212.813C992.169 233.911 977.255 247.734 956.156 254.646C936.876 260.83 917.597 259.739 898.317 250.645C879.401 241.55 867.033 227.363 861.213 208.084C859.758 203.718 859.03 198.989 858.666 194.26C856.12 165.886 863.395 144.788 880.856 130.965C893.952 121.143 910.685 116.05 931.784 116.05ZM931.42 120.415C920.143 120.415 912.868 129.51 909.958 148.062C908.502 158.975 908.866 171.707 910.685 185.53C911.049 185.894 911.049 186.258 911.049 186.621L920.871 185.53C940.514 183.347 951.063 174.981 952.155 161.157C952.155 159.339 952.155 157.884 952.155 156.065C949.972 132.42 943.061 120.779 931.42 120.415Z" fill="white"/>
<path d="M122.763 0.371796H99.8457V294.297H122.763V0.371796Z" fill="url(#paint0_linear_127_695)"/>
<defs>
<linearGradient id="paint0_linear_127_695" x1="111.148" y1="0.371796" x2="111.148" y2="294.369" gradientUnits="userSpaceOnUse">
<stop stop-color="#F98A5C"/>
<stop offset="1" stop-color="#FBDA67"/>
</linearGradient>
</defs>
</svg>
