<svg width="1000" height="294" viewBox="0 0 1000 294" fill="none" xmlns="http://www.w3.org/2000/svg">
<path d="M71.2987 38.5594H75.6639V129.138C85.8494 121.135 108.039 116.77 120.407 115.678C157.876 113.496 179.338 130.593 185.158 166.242C185.886 169.88 185.158 229.174 185.158 229.174C185.158 229.174 186.977 242.27 194.98 247.726C198.254 249.909 203.71 251 210.986 251V255.366H112.768V251C121.863 251 130.957 248.454 132.776 242.27C134.231 237.541 134.958 169.88 134.958 169.88C134.958 150.964 129.502 131.32 118.589 126.228C114.951 124.409 104.765 122.59 100.764 123.681C91.6697 126.228 77.4827 136.777 76.0277 153.874C75.6639 157.876 75.3001 162.241 75.3001 166.606V217.17C75.3001 233.903 79.3016 244.089 87.3045 248.09C90.9422 249.909 95.3074 250.637 100.4 250.637V255.002H0V250.637C12.0044 250.637 19.2797 246.635 22.5537 238.996C24.3725 234.267 25.4638 226.992 25.4638 217.17V105.857C25.4638 85.1218 21.0986 73.1174 12.0044 69.4797C9.82175 68.7522 7.27537 68.0246 4.72899 67.6609V63.2957C12.0044 63.2957 19.2797 62.5681 26.5551 60.7493C33.8305 58.9304 40.0146 57.1116 45.1073 54.5652C50.2001 52.0188 54.9291 49.8362 59.2943 47.2898C63.2957 44.7435 66.5697 42.9246 68.3885 41.1058L71.2987 38.5594Z" fill="black"/>
<path d="M277.555 115.678C298.29 115.678 315.387 123.318 329.574 138.232C341.942 152.055 348.49 168.061 348.49 186.613C348.49 207.348 340.851 224.445 325.936 238.632C312.113 251 296.107 257.548 277.555 257.548C256.82 257.548 239.359 249.909 225.536 234.995C212.804 221.171 206.62 205.165 206.62 186.613C206.62 165.878 214.259 148.418 229.174 134.594C242.997 121.862 259.367 115.678 277.555 115.678ZM263.368 123.318C262.277 123.318 261.549 123.681 260.458 124.045C250.636 126.591 246.998 139.687 249.545 162.968C250.636 172.063 252.455 181.884 255.365 192.797C263.004 220.808 271.735 238.632 282.648 246.635C286.649 249.545 290.651 250.637 294.288 249.545C304.11 246.999 308.112 233.903 305.565 210.622C304.474 201.164 302.655 191.342 299.745 180.793C292.106 153.147 283.375 135.322 272.462 127.319C269.552 124.773 266.278 123.318 263.368 123.318Z" fill="black"/>
<path d="M417.97 64.7508H422.335V117.497H448.89V121.862H422.335V207.348C422.335 225.9 426.336 235.358 433.975 235.358C439.796 235.358 445.616 230.629 451.436 221.171C451.8 220.808 451.8 220.444 451.8 220.444L455.074 223.354C448.89 233.903 443.797 241.542 439.432 245.544C430.701 253.91 420.88 258.276 409.603 258.276C390.323 258.276 378.683 248.818 374.317 229.538C372.862 223.354 372.135 215.715 372.135 207.348V128.41H348.854V123.681C369.588 118.225 387.049 107.675 401.6 92.3972C409.603 83.303 415.059 73.845 417.97 64.7508Z" fill="black"/>
<path d="M525.645 38.5594H530.011V217.897C530.011 234.631 534.012 244.816 542.015 248.818C545.653 250.637 550.018 251.364 555.111 251.364V255.729H454.347V251.364C466.351 251.364 473.626 247.363 476.9 239.723C478.719 234.994 479.81 227.719 479.81 217.897V105.857C479.81 85.1218 475.445 73.1174 466.351 69.4797C464.168 68.7522 461.622 68.0246 459.076 67.6609V63.2957C466.351 63.2957 473.626 62.5681 480.902 60.7493C488.177 58.9304 494.361 57.1116 499.454 54.5652C504.547 52.0188 509.276 49.8362 513.641 47.2898C517.642 44.7435 520.916 42.9246 522.735 41.1058L525.645 38.5594Z" fill="black"/>
<path d="M608.221 38.5594C618.77 38.5594 627.137 42.9246 632.957 52.0188C636.231 56.7478 637.686 62.2043 637.686 68.0246C637.686 78.5739 633.321 86.9406 624.227 92.7609C619.498 95.6711 614.041 97.1261 608.221 97.1261C597.672 97.1261 589.669 92.7609 583.849 84.0305C580.575 79.3015 579.12 73.8449 579.12 68.0246C579.12 57.4754 583.485 49.1087 592.579 43.2884C597.672 40.0145 602.765 38.5594 608.221 38.5594ZM633.321 115.678H637.686V217.897C637.686 234.631 641.688 244.816 649.691 248.818C653.328 250.637 657.694 251.364 662.786 251.364V255.729H562.022V251.364C574.027 251.364 581.302 247.363 584.576 239.723C586.395 234.994 587.486 227.719 587.486 217.897V182.976C587.486 162.241 583.121 150.236 574.027 146.599C571.844 145.871 569.298 145.144 566.751 144.78V140.415C574.027 140.415 581.302 139.687 588.578 137.868C595.853 136.049 602.037 134.231 607.13 131.684C612.223 129.138 616.952 126.955 621.317 124.409C625.682 121.862 628.592 120.044 630.411 118.225L633.321 115.678Z" fill="black"/>
<path d="M736.632 115.678H740.997V131.32C750.092 121.135 762.096 115.678 777.01 115.678C811.932 116.042 832.303 133.139 837.396 166.242L841.034 199.709C844.308 224.809 846.854 239.36 849.037 244.089C851.583 248.454 855.948 251 862.132 251V255.366H772.281V251C783.558 251 790.47 244.453 792.289 231.357C793.016 226.992 793.016 222.626 792.289 217.534L786.832 160.786C784.286 138.96 777.01 127.683 765.006 125.864C763.187 125.5 761.368 125.5 759.55 125.864C750.455 127.319 744.999 133.503 742.816 144.78C741.361 151.328 740.997 161.877 740.997 176.064V217.17C740.997 235.358 744.999 245.908 752.638 249.182C755.184 250.273 757.731 250.637 760.641 250.637V255.002H670.79V250.637C680.976 250.637 686.796 244.816 688.978 233.176C690.07 228.81 690.434 223.354 690.434 217.17V182.248C690.434 161.513 685.705 149.509 676.61 145.871C674.428 145.144 671.881 144.416 669.699 144.052V139.687C676.974 139.687 684.249 138.96 691.161 137.141C698.436 135.322 704.62 133.503 710.077 130.957C715.17 128.41 719.899 126.228 724.264 123.681C728.265 121.135 731.539 119.316 733.358 117.497L736.632 115.678Z" fill="black"/>
<path d="M930.884 115.678C953.801 116.042 970.898 123.318 982.539 137.868C989.087 146.963 991.633 156.057 989.087 165.515C985.813 176.428 977.446 182.976 963.987 184.794L910.877 190.615C911.24 192.07 911.604 193.525 912.332 195.344C917.788 212.077 927.61 222.99 942.161 228.81C956.348 234.267 969.443 233.176 981.811 224.445C987.632 220.444 992.361 215.351 996.362 209.167L999.636 212.441C991.269 233.539 976.355 247.363 955.256 254.274C935.977 260.458 916.697 259.367 897.417 250.273C878.501 241.179 866.133 226.992 860.313 207.712C858.858 203.347 858.13 198.618 857.766 193.889C855.22 165.515 862.495 144.416 879.956 130.593C893.052 120.771 909.785 115.678 930.884 115.678ZM930.52 120.044C919.243 120.044 911.968 129.138 909.058 147.69C907.603 158.603 907.966 171.335 909.785 185.158C910.149 185.522 910.149 185.886 910.149 186.25L919.971 185.158C939.614 182.976 950.164 174.609 951.255 160.786C951.255 158.967 951.255 157.512 951.255 155.693C949.072 132.048 942.161 120.407 930.52 120.044Z" fill="black"/>
<path d="M121.863 0H98.9458V293.925H121.863V0Z" fill="url(#paint0_linear_127_704)"/>
<defs>
<linearGradient id="paint0_linear_127_704" x1="110.248" y1="0" x2="110.248" y2="293.997" gradientUnits="userSpaceOnUse">
<stop stop-color="#F98A5C"/>
<stop offset="1" stop-color="#FBDA67"/>
</linearGradient>
</defs>
</svg>
