<svg width="2095" height="467" viewBox="0 0 2095 467" fill="none" xmlns="http://www.w3.org/2000/svg">
<path d="M513.978 369.132L428.683 460.52C426.831 462.506 424.589 464.09 422.097 465.173C419.606 466.256 416.917 466.814 414.2 466.814H9.91188C7.98299 466.813 6.09611 466.25 4.48303 465.194C2.86995 464.137 1.60088 462.633 0.83152 460.865C0.0621634 459.098 -0.173934 457.145 0.152219 455.245C0.478372 453.346 1.35254 451.583 2.66746 450.173L87.9621 358.786C89.8156 356.801 92.0578 355.218 94.5494 354.135C97.0409 353.052 99.7286 352.493 102.446 352.491H506.739C508.668 352.491 510.556 353.053 512.17 354.11C513.783 355.166 515.053 356.671 515.822 358.439C516.591 360.207 516.826 362.161 516.499 364.061C516.171 365.961 515.295 367.724 513.978 369.132ZM428.683 185.107C426.831 183.12 424.589 181.536 422.097 180.453C419.606 179.37 416.917 178.812 414.2 178.812H9.91188C7.98299 178.813 6.09611 179.376 4.48303 180.432C2.86995 181.489 1.60088 182.994 0.83152 184.761C0.0621634 186.528 -0.173934 188.481 0.152219 190.381C0.478372 192.28 1.35254 194.043 2.66746 195.453L87.9621 286.866C89.8149 288.852 92.0568 290.436 94.5486 291.518C97.0403 292.601 99.7284 293.16 102.446 293.16H506.739C508.668 293.161 510.556 292.599 512.17 291.542C513.783 290.485 515.053 288.981 515.822 287.213C516.591 285.445 516.826 283.491 516.499 281.591C516.171 279.691 515.295 277.928 513.978 276.519L428.683 185.107ZM9.91188 119.445H414.2C416.917 119.446 419.606 118.888 422.097 117.805C424.589 116.722 426.831 115.138 428.683 113.151L513.978 21.764C515.295 20.3551 516.171 18.5924 516.499 16.6926C516.826 14.7928 516.591 12.8388 515.822 11.0708C515.053 9.30278 513.783 7.79783 512.17 6.74113C510.556 5.68444 508.668 5.12206 506.739 5.12305H102.446C99.7284 5.12324 97.0403 5.68208 94.5486 6.76493C92.0568 7.84778 89.8149 9.4314 87.9621 11.4172L2.66746 102.804C1.34916 104.214 0.472051 105.978 0.143993 107.879C-0.184065 109.78 0.0512624 111.736 0.821023 113.505C1.59078 115.274 2.86137 116.78 4.47653 117.838C6.09168 118.895 7.98098 119.457 9.91188 119.456V119.445Z" fill="url(#paint0_linear_1_41)"/>
<path d="M921.992 41.648V1.68843H764.686C741.048 1.68843 722.194 20.5426 722.194 44.1806V79.0749C722.194 102.432 741.048 121.567 764.686 121.567H882.032V161.527H722.194V201.486H879.499C903.137 201.486 921.992 182.632 921.992 158.994V124.1C921.992 100.743 903.137 81.6075 879.499 81.6075H762.153V41.648H921.992Z" fill="black"/>
<path d="M1115.75 1.68843H992.778C969.14 1.68843 950.286 20.5426 950.286 44.1806V158.994C950.286 182.632 969.14 201.486 992.778 201.486H1115.75C1139.39 201.486 1158.53 182.632 1158.53 158.994V44.1806C1158.53 20.5426 1139.39 1.68843 1115.75 1.68843ZM1118.28 41.648V161.527H990.245V41.648H1118.28Z" fill="black"/>
<path d="M1229.68 160.12V0H1186.62V175.597C1186.62 190.793 1199 203.175 1214.2 203.175H1385.58V160.12H1229.68Z" fill="black"/>
<path d="M1587.24 1.68843H1447.95C1428.81 1.68843 1413.62 16.8843 1413.62 36.0199V201.486H1453.57V135.919H1581.61V201.486H1621.86V36.0199C1621.86 16.8843 1606.38 1.68843 1587.24 1.68843ZM1581.61 41.648V95.9592H1453.57V41.648H1581.61Z" fill="black"/>
<path d="M1817.95 1.68843V161.527H1809.23L1731.56 15.4773C1727.06 6.75372 1718.05 1.68843 1708.48 1.68843H1675.84C1661.49 1.68843 1649.95 13.226 1649.95 27.8591V201.486H1689.91V41.648H1700.32L1777.99 187.697C1782.49 196.421 1791.22 201.768 1801.07 201.486H1832.02C1846.37 201.486 1858.19 189.949 1858.19 175.597V1.68843H1817.95Z" fill="black"/>
<path d="M2059.92 1.68843H1920.62C1901.48 1.68843 1886.29 16.8843 1886.29 36.0199V201.486H1926.25V135.919H2054.29V201.486H2094.53V36.0199C2094.53 16.8843 2079.05 1.68843 2059.92 1.68843ZM2054.29 41.648V95.9592H1926.25V41.648H2054.29Z" fill="black"/>
<path d="M921.992 303.648V263.688H764.686C741.048 263.688 722.194 282.543 722.194 306.181V341.075C722.194 364.432 741.048 383.567 764.686 383.567H882.032V423.527H722.194V463.486H879.499C903.137 463.486 921.992 444.632 921.992 420.994V386.1C921.992 362.743 903.137 343.608 879.499 343.608H762.153V303.648H921.992Z" fill="black"/>
<path d="M1083.11 263.688H950.286V463.486H990.245V389.758H1083.11C1117.72 389.758 1146.14 361.617 1146.14 326.723C1146.14 291.829 1117.72 263.688 1083.11 263.688ZM1083.11 349.798H990.245V303.648H1083.11C1095.77 303.648 1106.18 314.06 1106.18 326.723C1106.18 339.386 1095.77 349.798 1083.11 349.798Z" fill="black"/>
<path d="M1347.88 263.688H1208.59C1189.45 263.688 1174.26 278.884 1174.26 298.02V463.486H1214.22V397.919H1342.25V463.486H1382.5V298.02C1382.5 278.884 1367.02 263.688 1347.88 263.688ZM1342.25 303.648V357.959H1214.22V303.648H1342.25Z" fill="black"/>
<path d="M1485.73 303.648H1602.23V263.688H1477.57C1440.42 263.688 1410.59 293.799 1410.59 330.663V396.512C1410.59 433.657 1440.42 463.486 1477.57 463.486H1602.23V423.527H1485.73C1466.31 423.527 1450.55 407.768 1450.55 388.351V339.105C1450.55 319.407 1466.31 303.648 1485.73 303.648Z" fill="black"/>
<path d="M1826.57 303.648V263.688H1630.72V463.486H1826.57V423.527H1670.67V383.567H1826.57V343.608H1670.67V303.648H1826.57Z" fill="black"/>
<path d="M2054.48 303.648V263.688H1897.18C1873.54 263.688 1854.69 282.543 1854.69 306.181V341.075C1854.69 364.432 1873.54 383.567 1897.18 383.567H2014.52V423.527H1854.69V463.486H2011.99C2035.63 463.486 2054.48 444.632 2054.48 420.994V386.1C2054.48 362.743 2035.63 343.608 2011.99 343.608H1894.64V303.648H2054.48Z" fill="black"/>
<defs>
<linearGradient id="paint0_linear_1_41" x1="43.6107" y1="477.818" x2="467.204" y2="-0.0845284" gradientUnits="userSpaceOnUse">
<stop offset="0.08" stop-color="#9945FF"/>
<stop offset="0.3" stop-color="#8752F3"/>
<stop offset="0.5" stop-color="#5497D5"/>
<stop offset="0.6" stop-color="#43B4CA"/>
<stop offset="0.72" stop-color="#28E0B9"/>
<stop offset="0.97" stop-color="#19FB9B"/>
</linearGradient>
</defs>
</svg>
